<svg width="17" height="18" viewBox="0 0 17 18" fill="none" xmlns="http://www.w3.org/2000/svg">
<path d="M9.59617 7.62349C8.93219 6.85968 9.01703 5.69958 9.78572 5.03173C10.5546 4.36415 11.716 4.44212 12.3806 5.20543C13.0444 5.96909 12.9594 7.12958 12.1908 7.79686C11.446 8.46626 10.302 8.40926 9.63603 7.66943C9.62331 7.65566 9.61102 7.64183 9.5992 7.62735L9.59617 7.62349ZM8.26961 16.7968L9.68206 15.569C10.8128 14.5982 11.4005 13.1399 11.2554 11.6636L12.3157 10.9799C13.7176 9.98124 14.7435 8.53964 15.225 6.89097L16.3534 2.97573C16.5066 2.43878 16.1956 1.88229 15.6583 1.73292C15.5254 1.69568 15.3858 1.68637 15.2487 1.70536L11.3274 2.21932C9.60929 2.44838 8.01854 3.26072 6.82358 4.51976L5.94668 5.55216C4.49596 5.21386 2.96655 5.60367 1.84774 6.59523L0.438473 7.82712C0.230763 8.01414 0.213178 8.33358 0.399782 8.53975C0.431357 8.57513 0.467682 8.60487 0.507561 8.6299L2.97228 10.1332C2.88912 11.0996 3.20742 12.0548 3.85195 12.7759C4.4847 13.5048 5.38271 13.9513 6.34917 14.017L7.499 16.6589C7.63256 16.9027 7.93956 16.9909 8.18463 16.8559C8.21511 16.8387 8.24328 16.8193 8.26961 16.7968Z" fill="url(#paint0_linear_2961_25018)"/>
<defs>
<linearGradient id="paint0_linear_2961_25018" x1="8.33148" y1="1.69579" x2="8.33148" y2="16.9191" gradientUnits="userSpaceOnUse">
<stop stop-color="#5D45F9"/>
<stop offset="1" stop-color="#267DEB"/>
</linearGradient>
</defs>
</svg>
