<svg width="80" height="64" viewBox="0 0 80 64" fill="none" xmlns="http://www.w3.org/2000/svg">
<g clip-path="url(#clip0_3047_26757)">
<path fill-rule="evenodd" clip-rule="evenodd" d="M16.6163 0.00756836C12.0516 0.00756836 8.67391 4.00288 8.82516 8.33569C8.97031 12.4983 8.78172 17.8896 7.42453 22.2862C6.0625 26.6951 3.76063 29.489 0 29.8476V33.8963C3.76063 34.2557 6.0625 37.0482 7.42437 41.4577C8.78172 45.8543 8.97016 51.2455 8.825 55.4082C8.67375 59.7404 12.0514 63.7363 16.6169 63.7363H63.3898C67.9545 63.7363 71.3316 59.741 71.1803 55.4082C71.0352 51.2455 71.2238 45.8543 72.5809 41.4577C73.943 37.0482 76.2392 34.2546 80 33.8963V29.8476C76.2394 29.4882 73.9431 26.6957 72.5809 22.2862C71.2236 17.8902 71.0352 12.4983 71.1803 8.33569C71.3316 4.00351 67.9545 0.00756836 63.3898 0.00756836H16.6156H16.6163ZM54.2373 39.2368C54.2373 45.2029 49.7872 48.8212 42.402 48.8212H29.8305C29.4709 48.8212 29.126 48.6783 28.8717 48.424C28.6174 48.1697 28.4745 47.8248 28.4745 47.4652V16.2788C28.4745 15.9192 28.6174 15.5743 28.8717 15.32C29.126 15.0657 29.4709 14.9229 29.8305 14.9229H42.3305C48.4884 14.9229 52.5298 18.2585 52.5298 23.3798C52.5298 26.9743 49.8111 30.1923 46.3475 30.756V30.9435C51.0625 31.4607 54.2373 34.7263 54.2373 39.2368ZM41.0313 19.2212H33.8631V29.3462H39.9005C44.5677 29.3462 47.1411 27.4668 47.1411 24.1076C47.1406 20.9594 44.9281 19.2212 41.0313 19.2212ZM33.8631 33.3635V44.5215H41.295C46.1544 44.5215 48.7283 42.5716 48.7283 38.9073C48.7283 35.2429 46.0822 33.3629 40.9825 33.3629H33.8631V33.3635Z" fill="#7952B3"/>
</g>
<defs>
<clipPath id="clip0_3047_26757">
<rect width="80" height="63.744" fill="white"/>
</clipPath>
</defs>
</svg>
