<svg width="35" height="31" viewBox="0 0 35 31" fill="none" xmlns="http://www.w3.org/2000/svg">
<g clip-path="url(#clip0_2940_24702)">
<mask id="mask0_2940_24702" style="mask-type:luminance" maskUnits="userSpaceOnUse" x="0" y="0" width="35" height="31">
<path d="M34.849 0H0.00585938V30.875H34.849V0Z" fill="white"/>
</mask>
<g mask="url(#mask0_2940_24702)">
<path d="M33.8171 27.8826V10.2746C33.8166 9.87794 33.6588 9.4977 33.3785 9.21719C33.098 8.93667 32.7179 8.77875 32.3213 8.77803H28.2156V3.5617C28.2156 3.16498 28.058 2.78451 27.7775 2.50398C27.4969 2.22345 27.1164 2.06585 26.7197 2.06585H18.9188V1.53075C18.9188 0.69386 18.2346 -0.013008 17.3984 -6.55714e-06C17.0059 0.00698313 16.6319 0.167669 16.3566 0.447512C16.0814 0.727356 15.9269 1.10401 15.9265 1.49653V2.06585H8.1256C7.73012 2.06802 7.35157 2.22665 7.07269 2.50708C6.79382 2.78749 6.63727 3.16691 6.63728 3.56239V8.77803H2.53772C2.141 8.77803 1.76052 8.93562 1.47999 9.21615C1.19946 9.49667 1.04187 9.87714 1.04187 10.2739V27.8826H0.855059C0.629837 27.8826 0.413839 27.9721 0.254584 28.1314C0.0953283 28.2906 0.00585939 28.5066 0.00585938 28.7319L0.00585939 29.3785C0.00585939 29.7753 0.16353 30.156 0.444184 30.4367C0.724839 30.7173 1.10549 30.875 1.5024 30.875H33.3532C33.7499 30.875 34.1304 30.7174 34.4109 30.4369C34.6914 30.1563 34.8491 29.7759 34.8491 29.3791V28.7319C34.8491 28.5066 34.7595 28.2906 34.6003 28.1314C34.4411 27.9721 34.2251 27.8826 33.9998 27.8826H33.8171ZM22.3608 5.05824H25.0008C25.0303 5.05815 25.0595 5.06389 25.0869 5.07512C25.1142 5.08636 25.139 5.10288 25.16 5.12373C25.1809 5.14458 25.1974 5.16936 25.2088 5.19664C25.2201 5.22391 25.2259 5.25315 25.2259 5.28269V23.5272C25.2259 23.5567 25.2201 23.5859 25.2088 23.6133C25.1974 23.6406 25.1809 23.6654 25.16 23.6864C25.1391 23.7073 25.1143 23.7238 25.0869 23.7352C25.0596 23.7465 25.0303 23.7522 25.0008 23.7522H9.85411C9.79446 23.752 9.7373 23.7283 9.69512 23.6862C9.65294 23.644 9.62916 23.5868 9.62898 23.5272V5.28269C9.62916 5.2231 9.65296 5.16601 9.69516 5.12394C9.73736 5.08187 9.79452 5.05824 9.85411 5.05824H12.4941V6.11888C12.4941 6.38512 12.5998 6.64046 12.7881 6.82871C12.9764 7.01697 13.2317 7.12273 13.498 7.12273H21.3556C21.4874 7.12273 21.6179 7.09677 21.7396 7.04631C21.8614 6.99585 21.972 6.92189 22.0652 6.82867C22.1583 6.73545 22.2322 6.62478 22.2826 6.50299C22.333 6.3812 22.3589 6.25068 22.3588 6.11888L22.3608 5.05824ZM16.8578 1.49995C16.8551 1.42348 16.8679 1.34726 16.8954 1.27582C16.9227 1.2044 16.9643 1.13922 17.0175 1.08419C17.0706 1.02915 17.1343 0.985384 17.2047 0.955491C17.2752 0.925598 17.351 0.910192 17.4274 0.910192C17.504 0.910192 17.5796 0.925598 17.6501 0.955491C17.7205 0.985384 17.7842 1.02915 17.8375 1.08419C17.8906 1.13922 17.9321 1.2044 17.9595 1.27582C17.987 1.34726 17.9998 1.42348 17.9971 1.49995V2.06928H16.8578V1.49995ZM13.4179 2.99238H21.4309V4.13035H13.4179V2.99238ZM13.4179 5.05824H21.4309V6.02788C21.4309 6.0724 21.4132 6.11512 21.3818 6.14666C21.3504 6.17822 21.3077 6.19603 21.2632 6.19621H13.589C13.5666 6.19658 13.5444 6.19249 13.5237 6.18419C13.5029 6.17589 13.4841 6.16355 13.4681 6.14789C13.4522 6.13221 13.4396 6.11353 13.431 6.09293C13.4223 6.07233 13.4179 6.05021 13.4179 6.02788V5.05824ZM7.56449 3.5617C7.5644 3.48698 7.57904 3.41296 7.60758 3.34388C7.63611 3.27481 7.67798 3.21204 7.73079 3.15918C7.78361 3.1063 7.84633 3.06435 7.91536 3.03573C7.9844 3.00711 8.0584 2.99238 8.13312 2.99238H12.4941V4.13035H9.84042C9.69092 4.13035 9.5429 4.1598 9.40478 4.21704C9.26668 4.27427 9.14119 4.35815 9.03552 4.46389C8.92983 4.56964 8.84603 4.69517 8.78888 4.83331C8.73173 4.97146 8.70237 5.1195 8.70246 5.269V23.5394C8.70246 23.6888 8.73189 23.8368 8.78909 23.9749C8.84629 24.1129 8.93012 24.2382 9.0358 24.3439C9.14148 24.4495 9.26694 24.5333 9.405 24.5904C9.54305 24.6475 9.69101 24.6768 9.84042 24.6767H25.0152C25.3168 24.6767 25.606 24.557 25.8194 24.3436C26.0326 24.1304 26.1524 23.8411 26.1524 23.5394V5.269C26.1524 4.96731 26.0326 4.67797 25.8194 4.46458C25.6061 4.25118 25.3168 4.13121 25.0152 4.13103H22.3608V2.99238H26.7217C26.8727 2.99238 27.0176 3.05236 27.1243 3.15914C27.2311 3.2659 27.2911 3.41072 27.2911 3.5617V25.2502C27.2909 25.4011 27.2309 25.5457 27.1241 25.6523C27.0173 25.7589 26.8726 25.8188 26.7217 25.8188H8.13312C7.98232 25.8188 7.83768 25.7589 7.73104 25.6523C7.6244 25.5457 7.56449 25.401 7.56449 25.2502V3.5617ZM1.96497 10.2746C1.96497 10.1995 1.97981 10.1251 2.00862 10.0558C2.03744 9.98645 2.07967 9.9235 2.13289 9.87053C2.18612 9.81757 2.24927 9.77563 2.31874 9.74715C2.38822 9.71866 2.46263 9.70418 2.53772 9.70454H6.64344V25.2502C6.64398 25.6467 6.80175 26.0269 7.08216 26.3073C7.36257 26.5877 7.74273 26.7455 8.13929 26.746H26.7217C27.1184 26.7457 27.4987 26.5879 27.7791 26.3075C28.0596 26.027 28.2172 25.6467 28.2176 25.2502V9.70454H32.3233C32.4743 9.70491 32.6189 9.76512 32.7255 9.87198C32.8321 9.97884 32.892 10.1236 32.892 10.2746V27.8826H1.96497V10.2746ZM33.9212 29.3785C33.9208 29.5294 33.8608 29.6741 33.754 29.7809C33.6474 29.8877 33.5028 29.9479 33.3518 29.9484H1.50171C1.35077 29.9483 1.20606 29.8882 1.09934 29.7815C0.992605 29.6748 0.932564 29.5301 0.932383 29.3791V28.996C0.932383 28.9463 0.952042 28.8988 0.987056 28.8636C1.02207 28.8285 1.06958 28.8086 1.1192 28.8084H33.7357C33.7602 28.8084 33.7845 28.8133 33.8072 28.8226C33.8299 28.8321 33.8505 28.8458 33.8678 28.8632C33.8852 28.8805 33.8989 28.9012 33.9083 28.9238C33.9177 28.9465 33.9225 28.9707 33.9225 28.9952L33.9212 29.3785Z" fill="url(#paint0_linear_2940_24702)"/>
<path d="M14.2915 9.41779L12.5918 11.1183C12.5048 11.205 12.3869 11.2538 12.264 11.2538C12.1411 11.2538 12.0231 11.205 11.9362 11.1183L11.2684 10.4497C11.1815 10.3629 11.1328 10.2451 11.1328 10.1223C11.1328 9.99947 11.1815 9.8817 11.2684 9.79483C11.3553 9.708 11.4732 9.65923 11.5961 9.65923C11.719 9.65923 11.8369 9.708 11.9238 9.79483L12.266 10.137L13.6387 8.76429C13.7256 8.6775 13.8433 8.62875 13.9661 8.62875C14.0889 8.62875 14.2067 8.6775 14.2936 8.76429C14.3796 8.85137 14.4278 8.96901 14.4274 9.09147C14.427 9.21393 14.3782 9.33125 14.2915 9.41779Z" fill="url(#paint1_linear_2940_24702)"/>
<path d="M23.6228 9.29465H16.3939C16.138 9.29465 15.9307 9.50206 15.9307 9.75791C15.9307 10.0138 16.138 10.2212 16.3939 10.2212H23.6228C23.8786 10.2212 24.086 10.0138 24.086 9.75791C24.086 9.50206 23.8786 9.29465 23.6228 9.29465Z" fill="url(#paint2_linear_2940_24702)"/>
<path d="M14.2921 13.0322L12.5918 14.7326C12.5048 14.8195 12.3869 14.8683 12.264 14.8683C12.1411 14.8683 12.0231 14.8195 11.9362 14.7326L11.2684 14.0648C11.1815 13.9779 11.1328 13.8601 11.1328 13.7373C11.1328 13.6145 11.1815 13.4968 11.2684 13.4099C11.3552 13.3232 11.473 13.2744 11.5957 13.2744C11.7185 13.2744 11.8364 13.3232 11.9232 13.4099L12.2653 13.752L13.638 12.3794C13.7249 12.2926 13.8426 12.2439 13.9655 12.2439C14.0883 12.2439 14.206 12.2926 14.2929 12.3794C14.3789 12.4663 14.4272 12.5836 14.4271 12.7059C14.427 12.8283 14.3785 12.9455 14.2921 13.0322Z" fill="url(#paint3_linear_2940_24702)"/>
<path d="M23.6228 12.9083H16.3939C16.138 12.9083 15.9307 13.1158 15.9307 13.3717C15.9307 13.6275 16.138 13.8356 16.3939 13.8356H23.6228C23.8786 13.8356 24.086 13.6281 24.086 13.3723C24.086 13.1164 23.8786 12.9083 23.6228 12.9083Z" fill="url(#paint4_linear_2940_24702)"/>
<path d="M23.6228 16.5235H16.3939C16.138 16.5235 15.9307 16.7308 15.9307 16.9867C15.9307 17.2425 16.138 17.4499 16.3939 17.4499H23.6228C23.8786 17.4499 24.086 17.2425 24.086 16.9867C24.086 16.7308 23.8786 16.5235 23.6228 16.5235Z" fill="url(#paint5_linear_2940_24702)"/>
<path d="M23.6228 20.1372H16.3939C16.138 20.1372 15.9307 20.3446 15.9307 20.6004C15.9307 20.8563 16.138 21.0644 16.3939 21.0644H23.6228C23.8786 21.0644 24.086 20.857 24.086 20.6011C24.086 20.3453 23.8786 20.1372 23.6228 20.1372Z" fill="url(#paint6_linear_2940_24702)"/>
<path d="M13.4363 16.9867L13.7785 17.3288C13.8215 17.3718 13.8556 17.4229 13.8789 17.4791C13.9023 17.5353 13.9142 17.5955 13.9142 17.6563C13.9142 17.7171 13.9023 17.7773 13.8789 17.8335C13.8556 17.8897 13.8215 17.9407 13.7785 17.9837C13.7354 18.0268 13.6843 18.061 13.6281 18.0843C13.5718 18.1076 13.5115 18.1196 13.4507 18.1196C13.3897 18.1196 13.3294 18.1076 13.2732 18.0843C13.2169 18.061 13.1659 18.0268 13.1229 17.9837L12.7807 17.6416L12.4386 17.9837C12.3956 18.0268 12.3445 18.061 12.2882 18.0843C12.232 18.1076 12.1717 18.1196 12.1108 18.1196C12.05 18.1196 11.9897 18.1076 11.9334 18.0843C11.8772 18.061 11.826 18.0268 11.783 17.9837C11.6962 17.8968 11.6475 17.7791 11.6475 17.6563C11.6475 17.5335 11.6962 17.4157 11.783 17.3288L12.1252 16.9867L11.783 16.6445C11.6962 16.5575 11.6475 16.4397 11.6475 16.3168C11.6475 16.1938 11.6962 16.076 11.783 15.989C11.8701 15.9022 11.9879 15.8534 12.1108 15.8534C12.2337 15.8534 12.3516 15.9022 12.4386 15.989L12.7807 16.3311L13.1229 15.989C13.2098 15.9022 13.3278 15.8534 13.4507 15.8534C13.5735 15.8534 13.6914 15.9022 13.7785 15.989C13.8215 16.0321 13.8556 16.0831 13.879 16.1394C13.9023 16.1956 13.9143 16.2559 13.9143 16.3168C13.9143 16.3777 13.9023 16.438 13.879 16.4942C13.8556 16.5504 13.8215 16.6015 13.7785 16.6445L13.4363 16.9867Z" fill="url(#paint7_linear_2940_24702)"/>
<path d="M14.2923 20.261L12.5918 21.9615C12.5048 22.0484 12.387 22.0971 12.2641 22.0971C12.1411 22.0971 12.0232 22.0484 11.9363 21.9615L11.2684 21.2937C11.1816 21.2066 11.1328 21.0888 11.1328 20.9659C11.1328 20.843 11.1816 20.7251 11.2684 20.6381C11.3552 20.5513 11.4731 20.5025 11.5958 20.5025C11.7186 20.5025 11.8364 20.5513 11.9232 20.6381L12.2654 20.9802L13.6381 19.6076C13.725 19.5207 13.8427 19.472 13.9655 19.472C14.0883 19.472 14.2061 19.5207 14.293 19.6076C14.3792 19.6944 14.4276 19.812 14.4275 19.9344C14.4273 20.0569 14.3787 20.1743 14.2923 20.261Z" fill="url(#paint8_linear_2940_24702)"/>
</g>
</g>
<defs>
<linearGradient id="paint0_linear_2940_24702" x1="17.4275" y1="-0.000183105" x2="17.4275" y2="30.875" gradientUnits="userSpaceOnUse">
<stop stop-color="#5D45F9"/>
<stop offset="1" stop-color="#267DEB"/>
</linearGradient>
<linearGradient id="paint1_linear_2940_24702" x1="12.7801" y1="8.62875" x2="12.7801" y2="11.2538" gradientUnits="userSpaceOnUse">
<stop stop-color="#5D45F9"/>
<stop offset="1" stop-color="#267DEB"/>
</linearGradient>
<linearGradient id="paint2_linear_2940_24702" x1="20.0083" y1="9.29465" x2="20.0083" y2="10.2212" gradientUnits="userSpaceOnUse">
<stop stop-color="#5D45F9"/>
<stop offset="1" stop-color="#267DEB"/>
</linearGradient>
<linearGradient id="paint3_linear_2940_24702" x1="12.7799" y1="12.2439" x2="12.7799" y2="14.8683" gradientUnits="userSpaceOnUse">
<stop stop-color="#5D45F9"/>
<stop offset="1" stop-color="#267DEB"/>
</linearGradient>
<linearGradient id="paint4_linear_2940_24702" x1="20.0083" y1="12.9083" x2="20.0083" y2="13.8356" gradientUnits="userSpaceOnUse">
<stop stop-color="#5D45F9"/>
<stop offset="1" stop-color="#267DEB"/>
</linearGradient>
<linearGradient id="paint5_linear_2940_24702" x1="20.0083" y1="16.5235" x2="20.0083" y2="17.4499" gradientUnits="userSpaceOnUse">
<stop stop-color="#5D45F9"/>
<stop offset="1" stop-color="#267DEB"/>
</linearGradient>
<linearGradient id="paint6_linear_2940_24702" x1="20.0083" y1="20.1372" x2="20.0083" y2="21.0644" gradientUnits="userSpaceOnUse">
<stop stop-color="#5D45F9"/>
<stop offset="1" stop-color="#267DEB"/>
</linearGradient>
<linearGradient id="paint7_linear_2940_24702" x1="12.7809" y1="15.8534" x2="12.7809" y2="18.1196" gradientUnits="userSpaceOnUse">
<stop stop-color="#5D45F9"/>
<stop offset="1" stop-color="#267DEB"/>
</linearGradient>
<linearGradient id="paint8_linear_2940_24702" x1="12.7801" y1="19.472" x2="12.7801" y2="22.0971" gradientUnits="userSpaceOnUse">
<stop stop-color="#5D45F9"/>
<stop offset="1" stop-color="#267DEB"/>
</linearGradient>
<clipPath id="clip0_2940_24702">
<rect width="34.9917" height="30.875" fill="white" transform="translate(0.00390625)"/>
</clipPath>
</defs>
</svg>
