<svg width="35" height="30" viewBox="0 0 35 30" fill="none" xmlns="http://www.w3.org/2000/svg">
<g clip-path="url(#clip0_2940_24781)">
<mask id="mask0_2940_24781" style="mask-type:luminance" maskUnits="userSpaceOnUse" x="0" y="0" width="35" height="29">
<path d="M34.9934 0H0.00585938V28.4343H34.9934V0Z" fill="white"/>
</mask>
<g mask="url(#mask0_2940_24781)">
<path d="M32.8574 0.00404788H1.51099C1.31307 0.00395695 1.11709 0.0429172 0.934256 0.118696C0.751425 0.194476 0.585345 0.305584 0.445527 0.445657C0.30571 0.585729 0.194905 0.752013 0.119459 0.934981C0.0440137 1.11795 0.00541122 1.314 0.0058633 1.51191V26.9292C0.00577297 27.1269 0.0446424 27.3226 0.12025 27.5052C0.195857 27.688 0.30672 27.8539 0.446501 27.9937C0.586282 28.1335 0.752242 28.2443 0.934892 28.32C1.11754 28.3956 1.31331 28.4344 1.51099 28.4343H33.4834C33.8826 28.4343 34.2655 28.2758 34.5477 27.9934C34.83 27.7112 34.9886 27.3284 34.9886 26.9292V1.9339C34.9886 1.54559 35.0758 0.971723 34.5246 0.429468C34.1177 0.0294768 33.6243 -0.0165702 32.8574 0.00404788ZM0.953608 1.47274C0.953608 1.33457 1.00849 1.20208 1.10619 1.10437C1.20389 1.00668 1.33639 0.951792 1.47455 0.951792H33.5199C33.658 0.951792 33.7905 1.00668 33.8882 1.10437C33.986 1.20208 34.0408 1.33457 34.0408 1.47274V5.68983H0.953608V1.47274ZM33.5199 27.4866H1.47455C1.33639 27.4866 1.20389 27.4316 1.10619 27.334C1.00849 27.2363 0.953608 27.1038 0.953608 26.9656V6.63757H34.0408V26.9656C34.0408 27.0341 34.0274 27.1018 34.0011 27.1649C33.975 27.2281 33.9366 27.2856 33.8882 27.334C33.8398 27.3823 33.7824 27.4207 33.7192 27.4469C33.656 27.473 33.5883 27.4866 33.5199 27.4866Z" fill="url(#paint0_linear_2940_24781)"/>
<path d="M26.4937 15.1666H25.4071C25.2715 15.1689 25.1388 15.1278 25.0283 15.0491C24.9179 14.9705 24.8355 14.8585 24.7933 14.7295C24.6775 14.3567 24.516 13.9995 24.3122 13.6664L24.1749 13.4245C24.1122 13.3035 24.0902 13.1656 24.1121 13.0311C24.134 12.8966 24.1986 12.7729 24.2965 12.6781L25.0655 11.909C25.1096 11.8651 25.1446 11.8129 25.1685 11.7556C25.1924 11.6981 25.2047 11.6365 25.2047 11.5743C25.2047 11.5121 25.1924 11.4505 25.1685 11.3931C25.1446 11.3356 25.1096 11.2835 25.0655 11.2396L23.3137 9.48432C23.2232 9.39862 23.1033 9.35085 22.9786 9.35085C22.854 9.35085 22.7341 9.39862 22.6436 9.48432L21.8752 10.252C21.7804 10.3501 21.6568 10.4152 21.5223 10.4378C21.3879 10.4605 21.2498 10.4394 21.1281 10.3778L20.8875 10.2403C20.554 10.0365 20.1964 9.87491 19.823 9.75923C19.694 9.71737 19.5818 9.6351 19.5031 9.52458C19.4244 9.41406 19.3833 9.28116 19.3859 9.1455V8.05893C19.3859 7.93333 19.3361 7.8129 19.2472 7.72409C19.1585 7.63529 19.038 7.58539 18.9124 7.58539H16.0692C16.0069 7.5853 15.9453 7.59749 15.8878 7.62126C15.8303 7.64503 15.7781 7.6799 15.7341 7.72389C15.6902 7.76788 15.6553 7.82011 15.6315 7.8776C15.6077 7.93509 15.5956 7.99671 15.5957 8.05893V9.1455C15.5981 9.28122 15.5568 9.41413 15.478 9.52465C15.3993 9.63515 15.287 9.71739 15.1579 9.75923C14.7853 9.87529 14.4284 10.0369 14.0953 10.2403L13.8541 10.3778C13.7329 10.4399 13.5951 10.4615 13.4607 10.4395C13.3264 10.4175 13.2027 10.353 13.1077 10.2554L12.3373 9.48432C12.2933 9.4403 12.2412 9.40539 12.1837 9.38156C12.1263 9.35775 12.0647 9.34548 12.0026 9.34548C11.9404 9.34548 11.8788 9.35775 11.8213 9.38156C11.764 9.40539 11.7118 9.4403 11.6679 9.48432L9.91122 11.241C9.8225 11.3298 9.77267 11.4502 9.77267 11.5757C9.77267 11.7012 9.8225 11.8216 9.91122 11.9103L10.6803 12.6795C10.778 12.7743 10.8427 12.898 10.8647 13.0324C10.8867 13.1668 10.8649 13.3047 10.8026 13.4258L10.6652 13.6678C10.4615 14.0008 10.2999 14.3581 10.1841 14.7309C10.1421 14.8598 10.0598 14.9717 9.94951 15.0505C9.83917 15.1291 9.70652 15.1703 9.57102 15.168H8.48789C8.36212 15.168 8.2415 15.218 8.15257 15.3069C8.06363 15.3959 8.01367 15.5165 8.01367 15.6422V18.4875C8.01367 18.5498 8.02594 18.6114 8.04978 18.6689C8.07363 18.7264 8.10857 18.7786 8.15261 18.8226C8.19666 18.8667 8.24894 18.9014 8.30647 18.9252C8.364 18.949 8.42565 18.9611 8.48789 18.9611H9.57446C9.70996 18.9588 9.84261 19.0001 9.95295 19.0787C10.0633 19.1574 10.1455 19.2694 10.1875 19.3981C10.3033 19.7711 10.4649 20.1282 10.6686 20.4614L10.806 20.7033C10.8685 20.8243 10.8903 20.9623 10.8683 21.0968C10.8462 21.2311 10.7815 21.3549 10.6837 21.4497L9.91466 22.2187C9.8259 22.3077 9.77604 22.4282 9.77604 22.5538C9.77604 22.6794 9.8259 22.8 9.91466 22.8888L11.6714 24.6448C11.7619 24.7301 11.8816 24.7777 12.006 24.7777C12.1304 24.7777 12.2502 24.7301 12.3407 24.6448L13.1098 23.8757C13.2049 23.7784 13.3286 23.7141 13.463 23.6923C13.5973 23.6703 13.735 23.692 13.8561 23.7541L14.0967 23.8874C14.4301 24.0915 14.7877 24.2531 15.1613 24.3686C15.2904 24.4103 15.4026 24.4926 15.4813 24.6032C15.56 24.7137 15.601 24.8466 15.5984 24.9822V26.0688C15.5984 26.131 15.6106 26.1927 15.6345 26.2502C15.6583 26.3077 15.6933 26.3599 15.7373 26.4039C15.7814 26.4479 15.8336 26.4827 15.8912 26.5065C15.9487 26.5302 16.0104 26.5424 16.0726 26.5423H18.9159C19.0414 26.5423 19.1618 26.4924 19.2507 26.4037C19.3395 26.3148 19.3894 26.1944 19.3894 26.0688V24.9789C19.3867 24.843 19.4277 24.71 19.5066 24.5995C19.5855 24.4889 19.6979 24.4067 19.8272 24.3651C20.2005 24.2494 20.5582 24.0878 20.8917 23.884L21.1322 23.7507C21.2534 23.6885 21.3911 23.6668 21.5255 23.6888C21.6597 23.7107 21.7836 23.7749 21.8786 23.8723L22.6476 24.6413C22.6917 24.6854 22.7439 24.7203 22.8014 24.7442C22.8589 24.768 22.9206 24.7802 22.9827 24.7802C23.045 24.7802 23.1066 24.768 23.1641 24.7442C23.2216 24.7203 23.2738 24.6854 23.3178 24.6413L25.0703 22.886C25.1591 22.7972 25.209 22.6767 25.209 22.5511C25.209 22.4254 25.1591 22.3049 25.0703 22.216L24.3013 21.4463C24.2037 21.3514 24.1392 21.2275 24.1172 21.0931C24.0953 20.9588 24.1172 20.8208 24.1796 20.6999L24.3136 20.4579C24.5171 20.1247 24.6788 19.7676 24.7947 19.3947C24.8367 19.2659 24.9188 19.1538 25.0292 19.0752C25.1396 18.9965 25.2723 18.9553 25.4078 18.9576H26.4937C26.6192 18.9576 26.7397 18.9077 26.8285 18.819C26.9173 18.7301 26.9672 18.6097 26.9672 18.4841V15.6409C26.9673 15.5787 26.9551 15.517 26.9313 15.4595C26.9076 15.402 26.8727 15.3496 26.8288 15.3056C26.7848 15.2615 26.7326 15.2266 26.6751 15.2028C26.6176 15.179 26.5559 15.1666 26.4937 15.1666ZM26.0194 18.0099H25.4071C25.0669 18.0083 24.7351 18.1162 24.4609 18.3175C24.1867 18.5189 23.9845 18.803 23.8841 19.1281C23.7844 19.4662 23.6601 19.6869 23.4876 19.9934L23.3467 20.2462C23.187 20.5471 23.1284 20.8914 23.1795 21.2282C23.2307 21.565 23.3888 21.8764 23.6304 22.1163L24.0642 22.5507L22.9783 23.6366L22.544 23.2022C22.304 22.9607 21.9928 22.8026 21.6561 22.7514C21.3195 22.7004 20.9754 22.7589 20.6746 22.9183L20.4223 23.0558C20.1158 23.229 19.8945 23.3535 19.5557 23.4538C19.2308 23.5542 18.9468 23.7563 18.7456 24.0303C18.5443 24.3045 18.4366 24.636 18.4382 24.9761V25.5885H16.5427V24.9761C16.5444 24.6359 16.4368 24.3042 16.2355 24.03C16.0343 23.7557 15.7502 23.5535 15.4252 23.4531C15.0864 23.3535 14.865 23.2283 14.5585 23.0558L14.3063 22.9183C14.0054 22.7589 13.6612 22.7002 13.3245 22.7512C12.9878 22.8022 12.6764 22.9601 12.4362 23.2015L12.0019 23.6359L10.916 22.55L11.3504 22.1156C11.5919 21.8757 11.7499 21.5644 11.8009 21.2278C11.852 20.8913 11.7936 20.5471 11.6342 20.2462L11.4926 19.9927C11.3208 19.6869 11.1964 19.4655 11.0968 19.1274C10.9963 18.8024 10.794 18.5184 10.5198 18.3172C10.2455 18.1161 9.91389 18.0083 9.57378 18.0099H8.96141V16.1144H9.57446C9.91452 16.1161 10.2461 16.0084 10.5202 15.8071C10.7944 15.6059 10.9965 15.3218 11.0968 14.9969C11.1964 14.6587 11.3215 14.4375 11.494 14.1317L11.6315 13.878C11.7908 13.5771 11.8493 13.2331 11.7981 12.8965C11.7471 12.5599 11.5891 12.2487 11.3476 12.0086L10.9133 11.5743L11.9998 10.4884L12.4335 10.9221C12.6735 11.1636 12.9849 11.3216 13.3216 11.3727C13.6584 11.4239 14.0026 11.3654 14.3036 11.2059L14.5557 11.0685C14.8623 10.896 15.0836 10.7709 15.4224 10.6712C15.7473 10.5707 16.0313 10.3684 16.2323 10.0942C16.4334 9.81993 16.541 9.48831 16.5393 9.14824V8.53589H18.4347V9.14824C18.4332 9.48845 18.541 9.82015 18.7423 10.0944C18.9436 10.3686 19.2279 10.5709 19.5529 10.6712C19.8911 10.7716 20.113 10.896 20.4188 11.0685L20.6711 11.2094C20.9731 11.3704 21.3192 11.4295 21.6575 11.3778C21.9958 11.3262 22.3085 11.1666 22.5488 10.9228L22.9824 10.4884L24.069 11.575L23.6346 12.0086C23.3929 12.2487 23.2346 12.5599 23.1834 12.8967C23.1322 13.2334 23.1907 13.5777 23.3501 13.8787L23.4917 14.1323C23.6642 14.4375 23.7886 14.6587 23.8882 14.9976C23.9887 15.3223 24.1909 15.6062 24.465 15.8072C24.7391 16.0084 25.0705 16.1161 25.4105 16.1144H26.0229L26.0194 18.0099Z" fill="url(#paint1_linear_2940_24781)"/>
<path d="M17.4902 11.3763C16.3655 11.3763 15.2661 11.7098 14.3308 12.3347C13.3957 12.9596 12.6668 13.8477 12.2365 14.8868C11.8061 15.926 11.6936 17.0694 11.913 18.1724C12.1325 19.2755 12.6742 20.2888 13.4694 21.0841C14.2648 21.8792 15.2781 22.4208 16.3812 22.6401C17.4844 22.8594 18.6277 22.7468 19.6668 22.3162C20.7058 21.8857 21.5939 21.1568 22.2187 20.2215C22.8434 19.2863 23.1767 18.1869 23.1766 17.0621C23.175 15.5545 22.5753 14.1092 21.5092 13.0432C20.4432 11.9773 18.9977 11.3778 17.4902 11.3763ZM17.4902 21.8008C16.5531 21.8001 15.6373 21.5216 14.8584 21.0005C14.0796 20.4795 13.4727 19.7391 13.1146 18.8732C12.7565 18.0073 12.6631 17.0545 12.8463 16.1355C13.0295 15.2165 13.4812 14.3725 14.144 13.7101C14.8069 13.0478 15.6513 12.5968 16.5704 12.4143C17.4895 12.2316 18.4421 12.3256 19.3078 12.6845C20.1735 13.0432 20.9134 13.6506 21.434 14.4298C21.9545 15.2089 22.2323 16.125 22.2323 17.0621C22.2314 18.3192 21.7314 19.5245 20.8421 20.4131C19.953 21.3017 18.7473 21.8008 17.4902 21.8008Z" fill="url(#paint2_linear_2940_24781)"/>
<path d="M15.9298 15.3055C15.8409 15.2168 15.7203 15.1668 15.5947 15.1668C15.4691 15.1668 15.3486 15.2168 15.2597 15.3055L13.8385 16.7274C13.7943 16.7714 13.7593 16.8236 13.7354 16.8811C13.7116 16.9386 13.6992 17.0002 13.6992 17.0625C13.6992 17.1247 13.7116 17.1864 13.7354 17.2439C13.7593 17.3014 13.7943 17.3536 13.8385 17.3975L15.2632 18.8188C15.352 18.9077 15.4725 18.9576 15.5982 18.9576C15.7238 18.9576 15.8443 18.9077 15.9332 18.8188C16.022 18.73 16.072 18.6094 16.072 18.4838C16.072 18.3581 16.022 18.2376 15.9332 18.1487L14.8467 17.0621L15.9332 15.9755C15.9771 15.9314 16.0119 15.8791 16.0355 15.8215C16.059 15.7637 16.071 15.702 16.0707 15.6399C16.0703 15.5776 16.0577 15.516 16.0336 15.4586C16.0094 15.4013 15.9741 15.3493 15.9298 15.3055Z" fill="url(#paint3_linear_2940_24781)"/>
<path d="M19.0514 15.3055C19.0073 15.3494 18.9722 15.4016 18.9484 15.4591C18.9245 15.5166 18.9121 15.5783 18.9121 15.6406C18.9121 15.7027 18.9245 15.7644 18.9484 15.8219C18.9722 15.8794 19.0073 15.9317 19.0514 15.9755L20.138 17.0621L19.0514 18.1487C18.9625 18.2376 18.9126 18.3581 18.9126 18.4838C18.9126 18.6094 18.9625 18.73 19.0514 18.8188C19.1402 18.9077 19.2607 18.9576 19.3864 18.9576C19.512 18.9576 19.6326 18.9077 19.7214 18.8188L21.1427 17.3975C21.2314 17.3087 21.2813 17.1881 21.2813 17.0625C21.2813 16.9369 21.2314 16.8164 21.1427 16.7274L19.7214 15.3055C19.6325 15.2168 19.512 15.1668 19.3864 15.1668C19.2607 15.1668 19.1402 15.2168 19.0514 15.3055Z" fill="url(#paint4_linear_2940_24781)"/>
<path d="M18.0945 14.711C17.9735 14.677 17.8439 14.6923 17.7342 14.7534C17.6243 14.8146 17.5431 14.9167 17.5083 15.0375L16.5613 18.3542C16.5441 18.414 16.539 18.4765 16.546 18.5384C16.5531 18.6002 16.5722 18.66 16.6024 18.7143C16.6327 18.7687 16.6732 18.8166 16.722 18.8552C16.7706 18.894 16.8265 18.9226 16.8863 18.9398C16.9289 18.9513 16.9727 18.9574 17.0169 18.9576C17.1198 18.9576 17.2199 18.9242 17.302 18.8621C17.3841 18.8001 17.4438 18.7129 17.4719 18.614L18.4196 15.2972C18.4368 15.2374 18.4421 15.1748 18.4351 15.1129C18.428 15.051 18.4089 14.9912 18.3786 14.9367C18.3484 14.8823 18.3079 14.8342 18.2591 14.7955C18.2104 14.7568 18.1544 14.7281 18.0945 14.711Z" fill="url(#paint5_linear_2940_24781)"/>
<path d="M4.40434 1.92435C4.12803 1.92462 3.85801 2.00677 3.62836 2.16042C3.39873 2.31406 3.21977 2.53233 3.11409 2.78762C3.00842 3.04292 2.98077 3.3238 3.03464 3.5948C3.08851 3.8658 3.22148 4.11476 3.41676 4.31024C3.61205 4.50571 3.86088 4.63893 4.13182 4.69307C4.40277 4.7472 4.68368 4.71984 4.93909 4.61441C5.19449 4.50899 5.41292 4.33024 5.56679 4.10074C5.72066 3.87125 5.80308 3.60131 5.80362 3.325C5.80443 3.14096 5.76882 2.95857 5.6988 2.78835C5.62879 2.61814 5.52577 2.46346 5.39569 2.33326C5.2656 2.20305 5.11104 2.09988 4.9409 2.02969C4.77075 1.95952 4.5884 1.92372 4.40434 1.92435ZM4.40434 3.76829C4.31612 3.76829 4.22989 3.74213 4.15654 3.69312C4.08319 3.64411 4.02602 3.57445 3.99226 3.49294C3.95849 3.41144 3.94967 3.32176 3.96688 3.23524C3.98408 3.14871 4.02657 3.06924 4.08895 3.00686C4.15132 2.94448 4.2308 2.902 4.31733 2.88479C4.40385 2.86758 4.49353 2.87642 4.57503 2.91017C4.65653 2.94393 4.7262 3.0011 4.77521 3.07444C4.82423 3.1478 4.85038 3.23403 4.85038 3.32225C4.85129 3.38122 4.84041 3.43976 4.81836 3.49445C4.7963 3.54913 4.76352 3.59885 4.72196 3.64067C4.68039 3.68249 4.63087 3.71557 4.57633 3.73796C4.52178 3.76035 4.46331 3.77159 4.40434 3.77105V3.76829Z" fill="url(#paint6_linear_2940_24781)"/>
<path d="M8.76802 1.92435C8.49154 1.92435 8.22127 2.00633 7.99139 2.15993C7.76151 2.31354 7.58234 2.53186 7.47652 2.78729C7.37072 3.04272 7.34305 3.3238 7.39697 3.59497C7.45091 3.86613 7.58405 4.11522 7.77955 4.31072C7.97506 4.50621 8.22414 4.63935 8.4953 4.69329C8.76646 4.74723 9.04754 4.71955 9.30297 4.61374C9.55841 4.50794 9.77673 4.32877 9.93034 4.09888C10.0839 3.869 10.1659 3.59873 10.1659 3.32225C10.1664 3.13854 10.1305 2.95656 10.0604 2.78675C9.99034 2.61695 9.88739 2.46267 9.7575 2.33277C9.6276 2.20287 9.47332 2.09993 9.30351 2.02983C9.13371 1.95974 8.95172 1.92389 8.76802 1.92435ZM8.76802 3.76828C8.67978 3.76787 8.59364 3.7413 8.52049 3.69192C8.44736 3.64254 8.39051 3.57257 8.35716 3.49088C8.32379 3.40918 8.31542 3.31942 8.33309 3.23296C8.35076 3.1465 8.39366 3.06723 8.45641 3.00516C8.51914 2.9431 8.59887 2.90104 8.68552 2.88431C8.77217 2.86758 8.86183 2.87692 8.94315 2.91116C9.02449 2.9454 9.09384 3.003 9.14243 3.07666C9.19101 3.15033 9.21666 3.23675 9.21611 3.325C9.21667 3.3839 9.20545 3.44233 9.1831 3.49683C9.16075 3.55132 9.12773 3.60081 9.08598 3.64236C9.04423 3.68393 8.9946 3.71671 8.93999 3.73881C8.88539 3.76091 8.82692 3.77186 8.76802 3.77103V3.76828Z" fill="url(#paint7_linear_2940_24781)"/>
<path d="M13.1293 1.92435C12.8529 1.92435 12.5826 2.00633 12.3527 2.15993C12.1228 2.31354 11.9437 2.53186 11.8379 2.78729C11.732 3.04272 11.7044 3.3238 11.7583 3.59497C11.8123 3.86613 11.9455 4.11522 12.1409 4.31072C12.3364 4.50621 12.5855 4.63935 12.8566 4.69329C13.1278 4.74723 13.4089 4.71955 13.6643 4.61374C13.9198 4.50794 14.1381 4.32877 14.2917 4.09888C14.4453 3.869 14.5273 3.59873 14.5273 3.32225C14.5278 3.13854 14.4918 2.95656 14.4218 2.78675C14.3517 2.61695 14.2488 2.46267 14.1189 2.33277C13.989 2.20287 13.8347 2.09993 13.6649 2.02983C13.4951 1.95974 13.3131 1.92389 13.1293 1.92435ZM13.1293 3.76828C13.0411 3.76828 12.955 3.74212 12.8816 3.69312C12.8082 3.6441 12.751 3.57444 12.7173 3.49294C12.6836 3.41143 12.6747 3.32176 12.6919 3.23524C12.7091 3.14871 12.7516 3.06923 12.814 3.00685C12.8764 2.94448 12.9558 2.90199 13.0423 2.88478C13.1289 2.86758 13.2185 2.8764 13.3001 2.91017C13.3816 2.94393 13.4512 3.0011 13.5002 3.07444C13.5493 3.14779 13.5754 3.23403 13.5754 3.32225C13.5762 3.38118 13.5653 3.43968 13.5432 3.49433C13.5211 3.54897 13.4883 3.59865 13.4468 3.64045C13.4053 3.68226 13.3558 3.71533 13.3012 3.73776C13.2468 3.76019 13.1883 3.7715 13.1293 3.77103V3.76828Z" fill="url(#paint8_linear_2940_24781)"/>
</g>
</g>
<defs>
<linearGradient id="paint0_linear_2940_24781" x1="17.4997" y1="0" x2="17.4997" y2="28.4343" gradientUnits="userSpaceOnUse">
<stop stop-color="#5D45F9"/>
<stop offset="1" stop-color="#267DEB"/>
</linearGradient>
<linearGradient id="paint1_linear_2940_24781" x1="17.4904" y1="7.58539" x2="17.4904" y2="26.5423" gradientUnits="userSpaceOnUse">
<stop stop-color="#5D45F9"/>
<stop offset="1" stop-color="#267DEB"/>
</linearGradient>
<linearGradient id="paint2_linear_2940_24781" x1="17.4902" y1="11.3763" x2="17.4902" y2="22.7493" gradientUnits="userSpaceOnUse">
<stop stop-color="#5D45F9"/>
<stop offset="1" stop-color="#267DEB"/>
</linearGradient>
<linearGradient id="paint3_linear_2940_24781" x1="14.8856" y1="15.1668" x2="14.8856" y2="18.9576" gradientUnits="userSpaceOnUse">
<stop stop-color="#5D45F9"/>
<stop offset="1" stop-color="#267DEB"/>
</linearGradient>
<linearGradient id="paint4_linear_2940_24781" x1="20.0967" y1="15.1668" x2="20.0967" y2="18.9576" gradientUnits="userSpaceOnUse">
<stop stop-color="#5D45F9"/>
<stop offset="1" stop-color="#267DEB"/>
</linearGradient>
<linearGradient id="paint5_linear_2940_24781" x1="17.4905" y1="14.6933" x2="17.4905" y2="18.9576" gradientUnits="userSpaceOnUse">
<stop stop-color="#5D45F9"/>
<stop offset="1" stop-color="#267DEB"/>
</linearGradient>
<linearGradient id="paint6_linear_2940_24781" x1="4.40572" y1="1.92434" x2="4.40572" y2="4.72016" gradientUnits="userSpaceOnUse">
<stop stop-color="#5D45F9"/>
<stop offset="1" stop-color="#267DEB"/>
</linearGradient>
<linearGradient id="paint7_linear_2940_24781" x1="8.76802" y1="1.92434" x2="8.76802" y2="4.72015" gradientUnits="userSpaceOnUse">
<stop stop-color="#5D45F9"/>
<stop offset="1" stop-color="#267DEB"/>
</linearGradient>
<linearGradient id="paint8_linear_2940_24781" x1="13.1294" y1="1.92434" x2="13.1294" y2="4.72015" gradientUnits="userSpaceOnUse">
<stop stop-color="#5D45F9"/>
<stop offset="1" stop-color="#267DEB"/>
</linearGradient>
<clipPath id="clip0_2940_24781">
<rect width="34.9875" height="29.1562" fill="white" transform="translate(0.00585938)"/>
</clipPath>
</defs>
</svg>
