<svg width="28" height="24" viewBox="0 0 28 24" fill="none" xmlns="http://www.w3.org/2000/svg">
<g clip-path="url(#clip0_2370_24724)">
<path d="M3.71429 24C2.76751 24 2 23.2325 2 22.2857V12.1239C2 11.888 2.04869 11.6547 2.14303 11.4384L6.6845 1.02878C6.95711 0.403937 7.57404 0 8.25576 0H10.2861C11.4568 0 12.2831 1.14747 11.9119 2.25779L9.33544 9.96506C9.03934 10.8508 9.69851 11.7663 10.6325 11.7663C11.3877 11.7663 12 12.3785 12 13.1338V22.2857C12 23.2325 11.2325 24 10.2857 24H3.71429ZM17.0477 24C16.1009 24 15.3334 23.2325 15.3334 22.2857V12.1239C15.3334 11.888 15.3821 11.6547 15.4763 11.4384L20.0178 1.02878C20.2904 0.403937 20.9074 0 21.5891 0H23.6194C24.7901 0 25.6164 1.14747 25.2453 2.25779L22.6688 9.96506C22.3727 10.8508 23.0319 11.7663 23.9657 11.7663C24.7211 11.7663 25.3333 12.3785 25.3333 13.1338V22.2857C25.3333 23.2325 24.5658 24 23.619 24H17.0477Z" fill="url(#paint0_linear_2370_24724)"/>
</g>
<defs>
<linearGradient id="paint0_linear_2370_24724" x1="13.6675" y1="0" x2="13.6675" y2="24" gradientUnits="userSpaceOnUse">
<stop stop-color="#5D45F9"/>
<stop offset="1" stop-color="#267DEB"/>
</linearGradient>
<clipPath id="clip0_2370_24724">
<rect width="24" height="24" fill="white" transform="translate(2)"/>
</clipPath>
</defs>
</svg>
