<svg width="680" height="510" viewBox="0 0 680 510" fill="none" xmlns="http://www.w3.org/2000/svg">
<rect width="680" height="509.499" rx="20" fill="#F2F7FF"/>
<path fill-rule="evenodd" clip-rule="evenodd" d="M361.524 238.579H356.421V233.476C356.421 232.112 355.309 231 353.945 231H353.869C352.48 231 351.368 232.112 351.368 233.476V238.579H346.291C344.926 238.579 343.815 239.691 343.789 241.055V241.131C343.789 242.52 344.901 243.632 346.291 243.632H351.368V248.709C351.368 250.074 352.48 251.211 353.869 251.185H353.945C355.309 251.185 356.421 250.074 356.421 248.709V243.632H361.524C362.888 243.632 364 242.52 364 241.156V241.055C364 239.691 362.888 238.579 361.524 238.579ZM348.842 248.709V246.158H346.291C344.952 246.158 343.688 245.627 342.728 244.693C341.794 243.733 341.263 242.469 341.263 241.055C341.263 240.145 341.516 239.312 341.945 238.579H321.053C318.274 238.579 316 240.853 316 243.632V273.947C316 276.726 318.274 279 321.053 279H351.368C354.147 279 356.421 276.726 356.421 273.947V253.029C355.663 253.459 354.804 253.737 353.844 253.737C351.091 253.712 348.842 251.463 348.842 248.709ZM323.579 273.947H348.741C349.802 273.947 350.383 272.735 349.726 271.901L342.274 262.604C341.768 261.947 340.783 261.973 340.278 262.629L333.684 271.421L329.642 265.333C329.137 264.625 328.101 264.575 327.571 265.282L322.568 271.926C321.937 272.76 322.543 273.947 323.579 273.947Z" fill="#ADC6FF"/>
</svg>
