<svg width="152" height="183" viewBox="0 0 152 183" fill="none" xmlns="http://www.w3.org/2000/svg">
<g clip-path="url(#clip0_2386_26312)">
<g opacity="0.47">
<path d="M58.3047 165.606C63.6024 162.799 71.7819 162.886 76.8981 165.802L95.9672 176.673C101.453 179.8 101.29 184.942 95.6095 187.951L77.2222 197.691C71.9245 200.498 63.745 200.411 58.6288 197.495L39.5597 186.624C34.0737 183.497 34.2368 178.356 39.9174 175.346L58.3047 165.606Z" fill="url(#paint0_radial_2386_26312)" fill-opacity="0.56"/>
<path d="M77.1198 165.673C71.8837 162.688 63.5126 162.599 58.0907 165.471L39.7034 175.212C33.8897 178.292 33.7228 183.554 39.3373 186.754L58.4064 197.625C63.6426 200.61 72.0137 200.698 77.4356 197.826L95.8228 188.085C101.637 185.006 101.804 179.744 96.1889 176.543L77.1198 165.673Z" stroke="url(#paint1_radial_2386_26312)" stroke-width="0.51617"/>
<path d="M77.1198 165.673C71.8837 162.688 63.5126 162.599 58.0907 165.471L39.7034 175.212C33.8897 178.292 33.7228 183.554 39.3373 186.754L58.4064 197.625C63.6426 200.61 72.0137 200.698 77.4356 197.826L95.8228 188.085C101.637 185.006 101.804 179.744 96.1889 176.543L77.1198 165.673Z" stroke="url(#paint2_radial_2386_26312)" stroke-width="0.51617"/>
<path d="M77.1198 165.673C71.8837 162.688 63.5126 162.599 58.0907 165.471L39.7034 175.212C33.8897 178.292 33.7228 183.554 39.3373 186.754L58.4064 197.625C63.6426 200.61 72.0137 200.698 77.4356 197.826L95.8228 188.085C101.637 185.006 101.804 179.744 96.1889 176.543L77.1198 165.673Z" stroke="url(#paint3_radial_2386_26312)" stroke-width="0.51617"/>
</g>
<g opacity="0.47">
<path d="M123.232 137.799C117.995 134.814 109.624 134.726 104.202 137.598L85.8148 147.339C80.001 150.418 79.8341 155.68 85.4487 158.881L104.518 169.751C109.754 172.736 118.125 172.825 123.547 169.953L141.935 160.212C147.748 157.132 147.915 151.87 142.301 148.67L123.232 137.799Z" fill="url(#paint4_radial_2386_26312)" fill-opacity="0.56"/>
<path d="M123.232 137.799C117.995 134.814 109.624 134.726 104.202 137.598L85.8148 147.339C80.001 150.418 79.8341 155.68 85.4487 158.881L104.518 169.751C109.754 172.736 118.125 172.825 123.547 169.953L141.935 160.212C147.748 157.132 147.915 151.87 142.301 148.67L123.232 137.799Z" stroke="url(#paint5_radial_2386_26312)" stroke-width="0.51617"/>
<path d="M123.232 137.799C117.995 134.814 109.624 134.726 104.202 137.598L85.8148 147.339C80.001 150.418 79.8341 155.68 85.4487 158.881L104.518 169.751C109.754 172.736 118.125 172.825 123.547 169.953L141.935 160.212C147.748 157.132 147.915 151.87 142.301 148.67L123.232 137.799Z" stroke="url(#paint6_radial_2386_26312)" stroke-width="0.51617"/>
<path d="M123.232 137.799C117.995 134.814 109.624 134.726 104.202 137.598L85.8148 147.339C80.001 150.418 79.8341 155.68 85.4487 158.881L104.518 169.751C109.754 172.736 118.125 172.825 123.547 169.953L141.935 160.212C147.748 157.132 147.915 151.87 142.301 148.67L123.232 137.799Z" stroke="url(#paint7_radial_2386_26312)" stroke-width="0.51617"/>
</g>
<g opacity="0.7">
<path d="M77.1198 157.721C71.8837 154.736 63.5126 154.648 58.0907 157.52L39.7034 167.26C33.8897 170.34 33.7228 175.602 39.3373 178.803L58.4064 189.673C63.6426 192.658 72.0137 192.747 77.4356 189.874L95.8228 180.134C101.637 177.054 101.804 171.792 96.1889 168.592L77.1198 157.721Z" fill="url(#paint8_radial_2386_26312)" fill-opacity="0.7"/>
<path d="M77.1198 157.721C71.8837 154.736 63.5126 154.648 58.0907 157.52L39.7034 167.26C33.8897 170.34 33.7228 175.602 39.3373 178.803L58.4064 189.673C63.6426 192.658 72.0137 192.747 77.4356 189.874L95.8228 180.134C101.637 177.054 101.804 171.792 96.1889 168.592L77.1198 157.721Z" stroke="url(#paint9_radial_2386_26312)" stroke-width="0.51617"/>
<path d="M77.1198 157.721C71.8837 154.736 63.5126 154.648 58.0907 157.52L39.7034 167.26C33.8897 170.34 33.7228 175.602 39.3373 178.803L58.4064 189.673C63.6426 192.658 72.0137 192.747 77.4356 189.874L95.8228 180.134C101.637 177.054 101.804 171.792 96.1889 168.592L77.1198 157.721Z" stroke="url(#paint10_radial_2386_26312)" stroke-width="0.51617"/>
<path d="M77.1198 157.721C71.8837 154.736 63.5126 154.648 58.0907 157.52L39.7034 167.26C33.8897 170.34 33.7228 175.602 39.3373 178.803L58.4064 189.673C63.6426 192.658 72.0137 192.747 77.4356 189.874L95.8228 180.134C101.637 177.054 101.804 171.792 96.1889 168.592L77.1198 157.721Z" stroke="url(#paint11_radial_2386_26312)" stroke-width="0.51617"/>
</g>
<g opacity="0.66">
<path d="M123.232 129.848C117.995 126.863 109.624 126.774 104.202 129.647L85.8148 139.387C80.001 142.467 79.8341 147.729 85.4487 150.929L104.518 161.8C109.754 164.785 118.125 164.873 123.547 162.001L141.935 152.261C147.748 149.181 147.915 143.919 142.301 140.718L123.232 129.848Z" fill="url(#paint12_radial_2386_26312)" fill-opacity="0.56"/>
<path d="M123.232 129.848C117.995 126.863 109.624 126.774 104.202 129.647L85.8148 139.387C80.001 142.467 79.8341 147.729 85.4487 150.929L104.518 161.8C109.754 164.785 118.125 164.873 123.547 162.001L141.935 152.261C147.748 149.181 147.915 143.919 142.301 140.718L123.232 129.848Z" stroke="url(#paint13_radial_2386_26312)" stroke-width="0.51617"/>
<path d="M123.232 129.848C117.995 126.863 109.624 126.774 104.202 129.647L85.8148 139.387C80.001 142.467 79.8341 147.729 85.4487 150.929L104.518 161.8C109.754 164.785 118.125 164.873 123.547 162.001L141.935 152.261C147.748 149.181 147.915 143.919 142.301 140.718L123.232 129.848Z" stroke="url(#paint14_radial_2386_26312)" stroke-width="0.51617"/>
<path d="M123.232 129.848C117.995 126.863 109.624 126.774 104.202 129.647L85.8148 139.387C80.001 142.467 79.8341 147.729 85.4487 150.929L104.518 161.8C109.754 164.785 118.125 164.873 123.547 162.001L141.935 152.261C147.748 149.181 147.915 143.919 142.301 140.718L123.232 129.848Z" stroke="url(#paint15_radial_2386_26312)" stroke-width="0.51617"/>
</g>
<path d="M77.1198 148.591C71.8837 145.606 63.5126 145.518 58.0907 148.39L39.7034 158.131C33.8897 161.21 33.7228 166.472 39.3373 169.673L58.4064 180.543C63.6426 183.528 72.0137 183.617 77.4356 180.745L95.8228 171.004C101.637 167.924 101.804 162.662 96.1889 159.462L77.1198 148.591Z" fill="url(#paint16_radial_2386_26312)" fill-opacity="0.75"/>
<path d="M77.1198 148.591C71.8837 145.606 63.5126 145.518 58.0907 148.39L39.7034 158.131C33.8897 161.21 33.7228 166.472 39.3373 169.673L58.4064 180.543C63.6426 183.528 72.0137 183.617 77.4356 180.745L95.8228 171.004C101.637 167.924 101.804 162.662 96.1889 159.462L77.1198 148.591Z" stroke="url(#paint17_radial_2386_26312)" stroke-width="0.51617"/>
<path d="M77.1198 148.591C71.8837 145.606 63.5126 145.518 58.0907 148.39L39.7034 158.131C33.8897 161.21 33.7228 166.472 39.3373 169.673L58.4064 180.543C63.6426 183.528 72.0137 183.617 77.4356 180.745L95.8228 171.004C101.637 167.924 101.804 162.662 96.1889 159.462L77.1198 148.591Z" stroke="url(#paint18_radial_2386_26312)" stroke-width="0.51617"/>
<path d="M77.1198 148.591C71.8837 145.606 63.5126 145.518 58.0907 148.39L39.7034 158.131C33.8897 161.21 33.7228 166.472 39.3373 169.673L58.4064 180.543C63.6426 183.528 72.0137 183.617 77.4356 180.745L95.8228 171.004C101.637 167.924 101.804 162.662 96.1889 159.462L77.1198 148.591Z" stroke="url(#paint19_radial_2386_26312)" stroke-width="0.51617"/>
<path d="M123.232 120.718C117.995 117.733 109.624 117.645 104.202 120.517L85.8148 130.257C80.001 133.337 79.8341 138.599 85.4487 141.8L104.518 152.67C109.754 155.655 118.125 155.743 123.547 152.871L141.935 143.131C147.748 140.051 147.915 134.789 142.301 131.588L123.232 120.718Z" fill="url(#paint20_radial_2386_26312)" fill-opacity="0.72"/>
<path d="M123.232 120.718C117.995 117.733 109.624 117.645 104.202 120.517L85.8148 130.257C80.001 133.337 79.8341 138.599 85.4487 141.8L104.518 152.67C109.754 155.655 118.125 155.743 123.547 152.871L141.935 143.131C147.748 140.051 147.915 134.789 142.301 131.588L123.232 120.718Z" stroke="url(#paint21_radial_2386_26312)" stroke-width="0.51617"/>
<path d="M123.232 120.718C117.995 117.733 109.624 117.645 104.202 120.517L85.8148 130.257C80.001 133.337 79.8341 138.599 85.4487 141.8L104.518 152.67C109.754 155.655 118.125 155.743 123.547 152.871L141.935 143.131C147.748 140.051 147.915 134.789 142.301 131.588L123.232 120.718Z" stroke="url(#paint22_radial_2386_26312)" stroke-width="0.51617"/>
<path d="M123.232 120.718C117.995 117.733 109.624 117.645 104.202 120.517L85.8148 130.257C80.001 133.337 79.8341 138.599 85.4487 141.8L104.518 152.67C109.754 155.655 118.125 155.743 123.547 152.871L141.935 143.131C147.748 140.051 147.915 134.789 142.301 131.588L123.232 120.718Z" stroke="url(#paint23_radial_2386_26312)" stroke-width="0.51617"/>
<path opacity="0.86" d="M0.210938 81.2435C0.210938 78.5785 2.08188 75.338 4.3898 74.0055L127.76 2.77728C130.068 1.4448 131.939 2.52499 131.939 5.18995V128.622C131.939 131.287 130.068 134.527 127.76 135.86L4.38979 207.088C2.08187 208.421 0.210938 207.34 0.210938 204.675L0.210938 81.2435Z" fill="url(#paint24_linear_2386_26312)" stroke="url(#paint25_linear_2386_26312)" stroke-width="0.486027"/>
<path d="M7.30762 84.0928C7.30762 81.4279 9.17856 78.1873 11.4865 76.8548L134.857 5.62664C137.165 4.29416 139.036 5.37435 139.036 8.03931V132.88C139.036 135.545 137.165 138.786 134.857 140.118L11.4865 211.346C9.17855 212.679 7.30762 211.599 7.30762 208.934V84.0928Z" fill="url(#paint26_linear_2386_26312)" stroke="url(#paint27_linear_2386_26312)" stroke-width="0.486027"/>
<path opacity="0.52" d="M34.6396 101.513H101.053V163.818C101.053 166.349 99.6642 168.676 97.436 169.877L76.4982 181.159C71.0976 184.069 64.5956 184.069 59.195 181.159L38.2571 169.877C36.0289 168.676 34.6396 166.349 34.6396 163.818V101.513Z" fill="url(#paint28_linear_2386_26312)"/>
</g>
<defs>
<radialGradient id="paint0_radial_2386_26312" cx="0" cy="0" r="1" gradientUnits="userSpaceOnUse" gradientTransform="translate(74.5505 156.418) rotate(69.3218) scale(68.9918 184.155)">
<stop stop-color="white" stop-opacity="0.3"/>
<stop offset="1" stop-color="white" stop-opacity="0"/>
</radialGradient>
<radialGradient id="paint1_radial_2386_26312" cx="0" cy="0" r="1" gradientUnits="userSpaceOnUse" gradientTransform="translate(75.8374 155.284) rotate(69.7967) scale(69.4319 185.95)">
<stop stop-color="white"/>
<stop offset="1" stop-color="white" stop-opacity="0"/>
</radialGradient>
<radialGradient id="paint2_radial_2386_26312" cx="0" cy="0" r="1" gradientUnits="userSpaceOnUse" gradientTransform="translate(73.5567 155.427) rotate(68.8492) scale(70.272 186.932)">
<stop stop-color="#4262FE"/>
<stop offset="1" stop-color="#4262FE" stop-opacity="0"/>
</radialGradient>
<radialGradient id="paint3_radial_2386_26312" cx="0" cy="0" r="1" gradientUnits="userSpaceOnUse" gradientTransform="translate(74.8213 154.697) rotate(69.7967) scale(69.4319 185.95)">
<stop stop-color="#151515"/>
<stop offset="1" stop-color="#151515" stop-opacity="0"/>
</radialGradient>
<radialGradient id="paint4_radial_2386_26312" cx="0" cy="0" r="1" gradientUnits="userSpaceOnUse" gradientTransform="translate(120.662 128.545) rotate(69.3218) scale(68.9918 184.155)">
<stop stop-color="white" stop-opacity="0.3"/>
<stop offset="1" stop-color="white" stop-opacity="0"/>
</radialGradient>
<radialGradient id="paint5_radial_2386_26312" cx="0" cy="0" r="1" gradientUnits="userSpaceOnUse" gradientTransform="translate(121.949 127.411) rotate(69.7967) scale(69.4319 185.95)">
<stop stop-color="white"/>
<stop offset="1" stop-color="white" stop-opacity="0"/>
</radialGradient>
<radialGradient id="paint6_radial_2386_26312" cx="0" cy="0" r="1" gradientUnits="userSpaceOnUse" gradientTransform="translate(119.668 127.554) rotate(68.8492) scale(70.272 186.932)">
<stop stop-color="#4262FE"/>
<stop offset="1" stop-color="#4262FE" stop-opacity="0"/>
</radialGradient>
<radialGradient id="paint7_radial_2386_26312" cx="0" cy="0" r="1" gradientUnits="userSpaceOnUse" gradientTransform="translate(120.933 126.824) rotate(69.7967) scale(69.4319 185.95)">
<stop stop-color="#151515"/>
<stop offset="1" stop-color="#151515" stop-opacity="0"/>
</radialGradient>
<radialGradient id="paint8_radial_2386_26312" cx="0" cy="0" r="1" gradientUnits="userSpaceOnUse" gradientTransform="translate(74.5502 148.467) rotate(69.3218) scale(68.9918 184.155)">
<stop stop-color="white" stop-opacity="0.3"/>
<stop offset="1" stop-color="white" stop-opacity="0"/>
</radialGradient>
<radialGradient id="paint9_radial_2386_26312" cx="0" cy="0" r="1" gradientUnits="userSpaceOnUse" gradientTransform="translate(75.8374 147.332) rotate(69.7967) scale(69.4319 185.95)">
<stop stop-color="white"/>
<stop offset="1" stop-color="white" stop-opacity="0"/>
</radialGradient>
<radialGradient id="paint10_radial_2386_26312" cx="0" cy="0" r="1" gradientUnits="userSpaceOnUse" gradientTransform="translate(73.5567 147.476) rotate(68.8492) scale(70.272 186.932)">
<stop stop-color="#4262FE"/>
<stop offset="1" stop-color="#4262FE" stop-opacity="0"/>
</radialGradient>
<radialGradient id="paint11_radial_2386_26312" cx="0" cy="0" r="1" gradientUnits="userSpaceOnUse" gradientTransform="translate(74.8213 146.746) rotate(69.7967) scale(69.4319 185.95)">
<stop stop-color="#151515"/>
<stop offset="1" stop-color="#151515" stop-opacity="0"/>
</radialGradient>
<radialGradient id="paint12_radial_2386_26312" cx="0" cy="0" r="1" gradientUnits="userSpaceOnUse" gradientTransform="translate(120.662 120.593) rotate(69.3218) scale(68.9918 184.155)">
<stop stop-color="white" stop-opacity="0.3"/>
<stop offset="1" stop-color="white" stop-opacity="0"/>
</radialGradient>
<radialGradient id="paint13_radial_2386_26312" cx="0" cy="0" r="1" gradientUnits="userSpaceOnUse" gradientTransform="translate(121.949 119.459) rotate(69.7967) scale(69.4319 185.95)">
<stop stop-color="white"/>
<stop offset="1" stop-color="white" stop-opacity="0"/>
</radialGradient>
<radialGradient id="paint14_radial_2386_26312" cx="0" cy="0" r="1" gradientUnits="userSpaceOnUse" gradientTransform="translate(119.668 119.603) rotate(68.8492) scale(70.272 186.932)">
<stop stop-color="#4262FE"/>
<stop offset="1" stop-color="#4262FE" stop-opacity="0"/>
</radialGradient>
<radialGradient id="paint15_radial_2386_26312" cx="0" cy="0" r="1" gradientUnits="userSpaceOnUse" gradientTransform="translate(120.933 118.872) rotate(69.7967) scale(69.4319 185.95)">
<stop stop-color="#151515"/>
<stop offset="1" stop-color="#151515" stop-opacity="0"/>
</radialGradient>
<radialGradient id="paint16_radial_2386_26312" cx="0" cy="0" r="1" gradientUnits="userSpaceOnUse" gradientTransform="translate(74.5502 139.337) rotate(69.3218) scale(68.9918 184.155)">
<stop stop-color="#2982FF"/>
<stop offset="1" stop-color="#476EA5" stop-opacity="0"/>
</radialGradient>
<radialGradient id="paint17_radial_2386_26312" cx="0" cy="0" r="1" gradientUnits="userSpaceOnUse" gradientTransform="translate(75.8374 138.203) rotate(69.7967) scale(69.4319 185.95)">
<stop stop-color="white"/>
<stop offset="1" stop-color="white" stop-opacity="0"/>
</radialGradient>
<radialGradient id="paint18_radial_2386_26312" cx="0" cy="0" r="1" gradientUnits="userSpaceOnUse" gradientTransform="translate(73.5567 138.346) rotate(68.8492) scale(70.272 186.932)">
<stop stop-color="#4262FE"/>
<stop offset="1" stop-color="#4262FE" stop-opacity="0"/>
</radialGradient>
<radialGradient id="paint19_radial_2386_26312" cx="0" cy="0" r="1" gradientUnits="userSpaceOnUse" gradientTransform="translate(74.8213 137.616) rotate(69.7967) scale(69.4319 185.95)">
<stop stop-color="#151515"/>
<stop offset="1" stop-color="#151515" stop-opacity="0"/>
</radialGradient>
<radialGradient id="paint20_radial_2386_26312" cx="0" cy="0" r="1" gradientUnits="userSpaceOnUse" gradientTransform="translate(120.662 111.464) rotate(69.3218) scale(68.9918 184.155)">
<stop stop-color="#2982FF"/>
<stop offset="1" stop-color="#476EA5" stop-opacity="0"/>
</radialGradient>
<radialGradient id="paint21_radial_2386_26312" cx="0" cy="0" r="1" gradientUnits="userSpaceOnUse" gradientTransform="translate(121.949 110.329) rotate(69.7967) scale(69.4319 185.95)">
<stop stop-color="white"/>
<stop offset="1" stop-color="white" stop-opacity="0"/>
</radialGradient>
<radialGradient id="paint22_radial_2386_26312" cx="0" cy="0" r="1" gradientUnits="userSpaceOnUse" gradientTransform="translate(119.668 110.473) rotate(68.8492) scale(70.272 186.932)">
<stop stop-color="#4262FE"/>
<stop offset="1" stop-color="#4262FE" stop-opacity="0"/>
</radialGradient>
<radialGradient id="paint23_radial_2386_26312" cx="0" cy="0" r="1" gradientUnits="userSpaceOnUse" gradientTransform="translate(120.933 109.743) rotate(69.7967) scale(69.4319 185.95)">
<stop stop-color="#151515"/>
<stop offset="1" stop-color="#151515" stop-opacity="0"/>
</radialGradient>
<linearGradient id="paint24_linear_2386_26312" x1="8.28074" y1="117.795" x2="110.054" y2="65.423" gradientUnits="userSpaceOnUse">
<stop stop-color="#3C88F8" stop-opacity="0.33"/>
<stop offset="1" stop-color="#22324B" stop-opacity="0"/>
</linearGradient>
<linearGradient id="paint25_linear_2386_26312" x1="0.000457366" y1="114.956" x2="95.9454" y2="83.2199" gradientUnits="userSpaceOnUse">
<stop stop-color="#3A94FF" stop-opacity="0.62"/>
<stop offset="1" stop-color="#3A94FF" stop-opacity="0"/>
</linearGradient>
<linearGradient id="paint26_linear_2386_26312" x1="15.3774" y1="122.053" x2="117.152" y2="69.6813" gradientUnits="userSpaceOnUse">
<stop stop-color="#3C88F8" stop-opacity="0.33"/>
<stop offset="1" stop-color="#22324B" stop-opacity="0"/>
</linearGradient>
<linearGradient id="paint27_linear_2386_26312" x1="7.09716" y1="119.214" x2="103.042" y2="87.4782" gradientUnits="userSpaceOnUse">
<stop stop-color="#3A94FF" stop-opacity="0.62"/>
<stop offset="1" stop-color="#3A94FF" stop-opacity="0"/>
</linearGradient>
<linearGradient id="paint28_linear_2386_26312" x1="67.8465" y1="101.513" x2="67.8465" y2="185.821" gradientUnits="userSpaceOnUse">
<stop offset="0.171875" stop-color="#14D5FF" stop-opacity="0"/>
<stop offset="1" stop-color="#14D5FF"/>
</linearGradient>
<clipPath id="clip0_2386_26312">
<rect width="152" height="183" fill="white"/>
</clipPath>
</defs>
</svg>
