<svg width="48" height="41" viewBox="0 0 48 41" fill="none" xmlns="http://www.w3.org/2000/svg">
<g clip-path="url(#clip0_3051_26816)">
<path fill-rule="evenodd" clip-rule="evenodd" d="M47.7068 33.2927L41.7068 27.2927C41.3158 26.9017 40.6838 26.9017 40.2928 27.2927C39.9018 27.6837 39.9018 28.3158 40.2928 28.7068L44.5858 32.9997H23.0189C19.0649 33.0057 15.2609 31.4179 12.4039 28.4709C6.53196 22.416 6.53196 12.5849 12.4039 6.52794C18.2599 0.489978 27.7399 0.489978 33.5958 6.52794C39.4688 12.5849 39.4688 22.416 33.5958 28.4709C33.2108 28.8669 33.2208 29.4997 33.6168 29.8847C34.0138 30.2697 34.6458 30.2598 35.0308 29.8628C41.6558 23.0318 41.6558 11.9679 35.0308 5.13597C28.3909 -1.71199 17.6099 -1.71199 10.9689 5.13597C4.34398 11.9679 4.34398 23.0318 10.9689 29.8628C12.2059 31.1398 13.6039 32.1877 15.1079 32.9997H1C0.448003 32.9997 0 33.4468 0 33.9997C0 34.5527 0.448003 34.9997 1 34.9997H44.5858L40.2928 39.2927C39.9018 39.6837 39.9018 40.3158 40.2928 40.7068C40.6838 41.0978 41.3158 41.0978 41.7068 40.7068L47.7068 34.7068C48.0978 34.3158 48.0978 33.6837 47.7068 33.2927Z" fill="url(#paint0_linear_3051_26816)"/>
</g>
<defs>
<linearGradient id="paint0_linear_3051_26816" x1="24" y1="0" x2="24" y2="41" gradientUnits="userSpaceOnUse">
<stop stop-color="#5D45F9"/>
<stop offset="1" stop-color="#267DEB"/>
</linearGradient>
<clipPath id="clip0_3051_26816">
<rect width="48" height="41" fill="white"/>
</clipPath>
</defs>
</svg>
