<svg width="8" height="32" viewBox="0 0 8 32" fill="none" xmlns="http://www.w3.org/2000/svg">
<g clip-path="url(#clip0_2370_24767)">
<path fill-rule="evenodd" clip-rule="evenodd" d="M1.79983e-06 16C1.79983e-06 15.6431 0.140002 15.308 0.39378 15.0578L6.46756 9.14844C6.81867 8.80178 7.38622 8.80178 7.73734 9.14844C7.8206 9.23056 7.88671 9.3284 7.93183 9.43629C7.97696 9.54417 8.0002 9.65995 8.0002 9.77689C8.0002 9.89383 7.97696 10.0096 7.93183 10.1175C7.88671 10.2254 7.8206 10.3232 7.73734 10.4053L1.98 15.9996L7.73778 21.5938C8.088 21.9404 8.088 22.5031 7.73778 22.8507C7.56867 23.0177 7.34056 23.1113 7.10289 23.1113C6.86522 23.1113 6.63711 23.0177 6.468 22.8507L0.39378 16.9422C0.268802 16.8191 0.169609 16.6724 0.101998 16.5105C0.0343862 16.3487 -0.000287852 16.175 1.79983e-06 15.9996V16Z" fill="#042055"/>
</g>
<defs>
<clipPath id="clip0_2370_24767">
<rect width="8" height="32" fill="white"/>
</clipPath>
</defs>
</svg>
