<svg width="35" height="30" viewBox="0 0 35 30" fill="none" xmlns="http://www.w3.org/2000/svg">
<g clip-path="url(#clip0_2940_24805)">
<mask id="mask0_2940_24805" style="mask-type:luminance" maskUnits="userSpaceOnUse" x="0" y="0" width="35" height="29">
<path d="M34.9934 0H0.00585938V28.4343H34.9934V0Z" fill="white"/>
</mask>
<g mask="url(#mask0_2940_24805)">
<path d="M32.8574 0.00404786H1.51099C1.31307 0.00395693 1.11709 0.0429171 0.934256 0.118696C0.751425 0.194476 0.585345 0.305584 0.445527 0.445657C0.30571 0.585729 0.194905 0.752013 0.119459 0.934981C0.0440137 1.11795 0.00541122 1.314 0.0058633 1.51191V26.9292C0.00577297 27.1268 0.0446424 27.3226 0.12025 27.5053C0.195857 27.6879 0.30672 27.8539 0.446501 27.9937C0.586282 28.1334 0.752242 28.2443 0.934892 28.3199C1.11754 28.3955 1.31331 28.4344 1.51099 28.4343H33.4834C33.8826 28.4343 34.2655 28.2757 34.5477 27.9935C34.83 27.7112 34.9886 27.3284 34.9886 26.9292V1.9339C34.9886 1.54559 35.0758 0.971723 34.5246 0.429468C34.1177 0.0294769 33.6243 -0.0165702 32.8574 0.00404786ZM0.953608 1.47274C0.953608 1.33457 1.00849 1.20207 1.10619 1.10437C1.20389 1.00668 1.33639 0.951792 1.47455 0.951792H33.5199C33.658 0.951792 33.7905 1.00668 33.8882 1.10437C33.986 1.20207 34.0408 1.33457 34.0408 1.47274V5.68983H0.953608V1.47274ZM33.5199 27.4866H1.47455C1.33639 27.4866 1.20389 27.4317 1.10619 27.334C1.00849 27.2363 0.953608 27.1037 0.953608 26.9657V6.63757H34.0408V26.9657C34.0408 27.034 34.0274 27.1018 34.0011 27.165C33.975 27.2282 33.9366 27.2856 33.8882 27.334C33.8398 27.3824 33.7824 27.4207 33.7192 27.447C33.656 27.4731 33.5883 27.4866 33.5199 27.4866Z" fill="url(#paint0_linear_2940_24805)"/>
<path d="M4.40434 1.92436C4.12803 1.92462 3.85801 2.00677 3.62836 2.16043C3.39873 2.31407 3.21977 2.53233 3.11409 2.78762C3.00842 3.04293 2.98077 3.32381 3.03464 3.59481C3.08851 3.86581 3.22148 4.11477 3.41676 4.31025C3.61205 4.50572 3.86088 4.63894 4.13182 4.69308C4.40277 4.7472 4.68368 4.71984 4.93909 4.61442C5.19449 4.509 5.41292 4.33025 5.56679 4.10075C5.72066 3.87126 5.80308 3.60132 5.80362 3.32501C5.80443 3.14096 5.76882 2.95857 5.6988 2.78836C5.62879 2.61815 5.52577 2.46347 5.39569 2.33327C5.2656 2.20305 5.11104 2.09989 4.9409 2.0297C4.77075 1.95953 4.5884 1.92373 4.40434 1.92436ZM4.40434 3.7683C4.31612 3.7683 4.22989 3.74214 4.15654 3.69312C4.08319 3.64412 4.02602 3.57446 3.99226 3.49295C3.95849 3.41145 3.94967 3.32177 3.96688 3.23524C3.98408 3.14872 4.02657 3.06925 4.08895 3.00687C4.15132 2.94449 4.2308 2.90201 4.31733 2.8848C4.40385 2.86758 4.49353 2.87642 4.57503 2.91017C4.65653 2.94394 4.7262 3.00111 4.77521 3.07445C4.82423 3.14781 4.85038 3.23404 4.85038 3.32226C4.85129 3.38122 4.84041 3.43977 4.81836 3.49445C4.7963 3.54914 4.76352 3.59886 4.72196 3.64068C4.68039 3.6825 4.63087 3.71558 4.57633 3.73797C4.52178 3.76036 4.46331 3.7716 4.40434 3.77105V3.7683Z" fill="url(#paint1_linear_2940_24805)"/>
<path d="M8.76802 1.92435C8.49154 1.92435 8.22127 2.00634 7.99139 2.15993C7.76151 2.31354 7.58234 2.53186 7.47652 2.78729C7.37072 3.04273 7.34305 3.3238 7.39697 3.59497C7.45091 3.86613 7.58405 4.11522 7.77955 4.31072C7.97506 4.50622 8.22414 4.63936 8.4953 4.6933C8.76646 4.74724 9.04754 4.71955 9.30297 4.61375C9.55841 4.50794 9.77673 4.32877 9.93034 4.09888C10.0839 3.869 10.1659 3.59874 10.1659 3.32225C10.1664 3.13855 10.1305 2.95656 10.0604 2.78676C9.99034 2.61695 9.88739 2.46267 9.7575 2.33277C9.6276 2.20288 9.47332 2.09993 9.30351 2.02984C9.13371 1.95975 8.95172 1.9239 8.76802 1.92435ZM8.76802 3.76829C8.67978 3.76788 8.59364 3.7413 8.52049 3.69192C8.44736 3.64254 8.39051 3.57258 8.35716 3.49088C8.32379 3.40919 8.31542 3.31942 8.33309 3.23297C8.35076 3.1465 8.39366 3.06723 8.45641 3.00516C8.51914 2.94311 8.59887 2.90104 8.68552 2.88431C8.77217 2.86758 8.86183 2.87692 8.94315 2.91116C9.02449 2.9454 9.09384 3.003 9.14243 3.07666C9.19101 3.15034 9.21666 3.23676 9.21611 3.32501C9.21667 3.3839 9.20545 3.44233 9.1831 3.49683C9.16075 3.55133 9.12773 3.60081 9.08598 3.64237C9.04423 3.68393 8.9946 3.71671 8.93999 3.73881C8.88539 3.76092 8.82692 3.77187 8.76802 3.77104V3.76829Z" fill="url(#paint2_linear_2940_24805)"/>
<path d="M13.1293 1.92435C12.8529 1.92435 12.5826 2.00634 12.3527 2.15993C12.1228 2.31354 11.9437 2.53186 11.8379 2.78729C11.732 3.04273 11.7044 3.3238 11.7583 3.59497C11.8123 3.86613 11.9455 4.11522 12.1409 4.31072C12.3364 4.50622 12.5855 4.63936 12.8566 4.6933C13.1278 4.74724 13.4089 4.71955 13.6643 4.61375C13.9198 4.50794 14.1381 4.32877 14.2917 4.09888C14.4453 3.869 14.5273 3.59874 14.5273 3.32225C14.5278 3.13855 14.4918 2.95656 14.4218 2.78676C14.3517 2.61695 14.2488 2.46267 14.1189 2.33277C13.989 2.20288 13.8347 2.09993 13.6649 2.02984C13.4951 1.95975 13.3131 1.9239 13.1293 1.92435ZM13.1293 3.76829C13.0411 3.76829 12.955 3.74213 12.8816 3.69312C12.8082 3.6441 12.751 3.57444 12.7173 3.49295C12.6836 3.41144 12.6747 3.32176 12.6919 3.23524C12.7091 3.14872 12.7516 3.06924 12.814 3.00685C12.8764 2.94448 12.9558 2.902 13.0423 2.88478C13.1289 2.86758 13.2185 2.87641 13.3001 2.91017C13.3816 2.94393 13.4512 3.0011 13.5002 3.07445C13.5493 3.14779 13.5754 3.23404 13.5754 3.32225C13.5762 3.38118 13.5653 3.43968 13.5432 3.49433C13.5211 3.54897 13.4883 3.59865 13.4468 3.64045C13.4053 3.68226 13.3558 3.71534 13.3012 3.73777C13.2468 3.76019 13.1883 3.7715 13.1293 3.77104V3.76829Z" fill="url(#paint3_linear_2940_24805)"/>
<path d="M22.4363 22.1143L19.7298 20.2271C19.6316 20.1584 19.5123 20.1266 19.3929 20.1372C19.2735 20.1477 19.1616 20.2 19.077 20.2848C18.4572 20.9046 17.6675 21.3266 16.8079 21.4976C15.9483 21.6686 15.0572 21.5808 14.2475 21.2453C13.4378 20.9099 12.7457 20.342 12.2588 19.6132C11.7718 18.8845 11.5119 18.0277 11.5119 17.1512C11.5119 16.2748 11.7718 15.4179 12.2588 14.6892C12.7457 13.9605 13.4378 13.3925 14.2475 13.057C15.0572 12.7216 15.9483 12.6339 16.8079 12.8048C17.6675 12.9758 18.4572 13.3979 19.077 14.0176C19.1623 14.1039 19.2758 14.1569 19.3969 14.1667C19.5179 14.1765 19.6385 14.1426 19.7367 14.0712L22.4445 12.1173C22.5025 12.0757 22.5509 12.0223 22.5869 11.9608C22.6228 11.8992 22.6454 11.8308 22.6534 11.76C22.6613 11.6891 22.6543 11.6174 22.6327 11.5495C22.6112 11.4815 22.5757 11.4188 22.5284 11.3654L21.3655 10.0514C21.278 9.95172 21.155 9.89018 21.0227 9.87991C20.8906 9.86965 20.7595 9.91144 20.6577 9.99639L19.5367 10.9276C18.9976 10.6132 18.4201 10.37 17.8186 10.204L17.6777 8.74557C17.6661 8.61985 17.6079 8.503 17.5146 8.41803C17.4212 8.33305 17.2995 8.28612 17.1732 8.28647H14.7127C14.5863 8.28591 14.4641 8.33273 14.3704 8.41769C14.2767 8.50265 14.2181 8.61961 14.2062 8.74557L14.0688 10.2033C13.4664 10.3669 12.8885 10.6106 12.3506 10.9276L11.2318 10.0005C11.1341 9.91859 11.0093 9.87638 10.882 9.88223C10.7547 9.88808 10.6342 9.94159 10.5445 10.0321L8.81326 11.7634C8.72264 11.8529 8.669 11.9734 8.66302 12.1007C8.65703 12.228 8.69913 12.3529 8.78097 12.4507L9.70878 13.5708C9.39415 14.1099 9.15088 14.6874 8.98509 15.2891L7.52464 15.4265C7.39814 15.4383 7.28065 15.4971 7.1953 15.5912C7.10996 15.6854 7.06293 15.8081 7.06348 15.9351V18.3014C7.0631 18.4283 7.1102 18.5507 7.19554 18.6447C7.28087 18.7387 7.39825 18.7974 7.52464 18.8093L8.98509 18.9502C9.15096 19.5517 9.39422 20.1294 9.70878 20.6683L8.77615 21.7865C8.69439 21.8842 8.65226 22.009 8.65812 22.1362C8.66397 22.2636 8.71738 22.384 8.80777 22.4738L10.5397 24.2049C10.6293 24.2957 10.7497 24.3492 10.877 24.3553C11.0043 24.3612 11.1292 24.3191 11.227 24.2372L12.3458 23.3102C12.8837 23.6273 13.4615 23.8709 14.0639 24.0345L14.2014 25.4915C14.213 25.6175 14.2712 25.7345 14.3647 25.8196C14.4583 25.9047 14.5801 25.9517 14.7065 25.9514H17.1657C17.2922 25.9519 17.4143 25.905 17.508 25.8198C17.6016 25.7347 17.66 25.6176 17.6715 25.4915L17.8124 24.0324C18.4141 23.8667 18.9916 23.6234 19.5305 23.3088L20.6508 24.2372C20.7526 24.3223 20.8837 24.364 21.016 24.3537C21.1481 24.3435 21.2711 24.282 21.3587 24.1823L22.5202 22.869C22.568 22.8151 22.6039 22.7518 22.6255 22.6831C22.6471 22.6144 22.6538 22.5419 22.6452 22.4704C22.6368 22.3998 22.614 22.3317 22.578 22.2705C22.5421 22.2092 22.4938 22.1561 22.4363 22.1143ZM10.7266 21.0381C10.7968 20.9542 10.8381 20.8501 10.8443 20.7411C10.8505 20.6319 10.8213 20.5238 10.761 20.4326C10.3471 19.8025 10.0517 19.1021 9.88954 18.366C9.86653 18.2607 9.81065 18.1655 9.72998 18.0941C9.6493 18.0226 9.54801 17.9788 9.44074 17.9688L8.0827 17.8374V16.3983L9.44074 16.2671C9.54801 16.2569 9.6493 16.2131 9.72998 16.1417C9.81065 16.0702 9.86653 15.9751 9.88954 15.8697C10.0519 15.1336 10.3472 14.4333 10.761 13.8032C10.8217 13.7118 10.8512 13.6033 10.845 13.4936C10.8388 13.3841 10.7973 13.2795 10.7266 13.1957L9.86135 12.151L10.9328 11.0788L11.9781 11.9441C12.0622 12.0144 12.1668 12.0554 12.2762 12.0612C12.3856 12.0671 12.4939 12.0373 12.585 11.9765C13.2118 11.5602 13.9112 11.2655 14.6468 11.1077C14.753 11.086 14.8493 11.0307 14.9216 10.95C14.9939 10.8693 15.0382 10.7675 15.0481 10.6596L15.1788 9.30363H16.7058L16.8365 10.6596C16.8466 10.7669 16.8906 10.8681 16.9622 10.9487C17.0337 11.0293 17.1291 11.085 17.2344 11.1077C17.9705 11.2696 18.671 11.5647 19.301 11.9784C19.3921 12.0386 19.5001 12.0677 19.6091 12.0615C19.718 12.0553 19.8221 12.0141 19.9058 11.9441L20.9278 11.0974L21.3889 11.619L19.4756 12.9997C18.6825 12.3247 17.7129 11.8909 16.6811 11.7495C15.6493 11.6082 14.5987 11.7654 13.6533 12.2024C12.7081 12.6394 11.9078 13.3381 11.347 14.2155C10.7863 15.0931 10.4886 16.1129 10.4892 17.1544C10.4898 18.1957 10.7886 19.2153 11.3504 20.0922C11.9121 20.9691 12.7133 21.6667 13.6591 22.1027C14.6049 22.5386 15.6558 22.6945 16.6873 22.552C17.719 22.4095 18.6881 21.9745 19.4804 21.2985L21.3827 22.6243L20.9278 23.1384L19.9058 22.2916C19.8218 22.2218 19.7176 22.1809 19.6086 22.1748C19.4996 22.1688 19.3915 22.1979 19.3003 22.258C18.6707 22.6717 17.9708 22.9668 17.2351 23.1287C17.1297 23.1513 17.0341 23.207 16.9624 23.2876C16.8907 23.3681 16.8466 23.4695 16.8365 23.5768L16.7058 24.9328H15.1781L15.0467 23.5768C15.0368 23.4691 14.9925 23.3675 14.9206 23.2866C14.8486 23.2059 14.7526 23.1503 14.6468 23.128C13.9112 22.9698 13.2118 22.6749 12.585 22.2587C12.4938 22.1979 12.3855 22.1684 12.2761 22.1744C12.1667 22.1803 12.0622 22.2215 11.9781 22.2916L10.9328 23.1569L9.85861 22.0827L10.7266 21.0381Z" fill="url(#paint4_linear_2940_24805)"/>
<path d="M27.374 17.4677L26.231 17.5364C26.1974 17.4127 26.2132 16.5955 26.2517 16.4733L27.3967 16.5914C27.4789 16.5997 27.5621 16.5878 27.6387 16.5569C27.7154 16.526 27.7834 16.477 27.8371 16.414C27.8906 16.3511 27.9282 16.276 27.9464 16.1954C27.9647 16.1147 27.963 16.0308 27.9417 15.9509C27.6379 14.8225 26.6888 14.0994 25.4613 14.0644C24.3837 14.0438 23.4923 14.5702 23.049 15.4794L18.6828 15.3949C18.2018 14.6101 17.3357 14.0987 16.4431 14.0815C15.1571 14.0561 14.206 14.7743 13.9 16.0025C13.8813 16.0798 13.8809 16.1605 13.8989 16.2379C13.9168 16.3155 13.9528 16.3878 14.0036 16.4489C14.0545 16.5101 14.1191 16.5585 14.192 16.5904C14.265 16.6221 14.3444 16.6363 14.4238 16.632L15.5667 16.5632C15.6004 16.6869 15.5846 17.5041 15.5461 17.6265L14.4011 17.5082C14.3188 17.5001 14.2358 17.5118 14.1591 17.5427C14.0824 17.5736 14.0143 17.6227 13.9607 17.6857C13.9072 17.7487 13.8696 17.8237 13.8514 17.9044C13.8332 17.985 13.8349 18.069 13.8561 18.1488C14.1613 19.2842 15.1152 20.0045 16.3454 20.0285C17.4257 20.0491 18.3172 19.524 18.7584 18.6162L23.1075 18.7C23.5081 19.3412 24.2868 19.9941 25.3377 20.0024C26.6111 20.0271 27.5678 19.3192 27.8956 18.1076C27.9167 18.0295 27.9191 17.9475 27.9024 17.8685C27.8856 17.7893 27.8503 17.7153 27.7994 17.6525C27.7484 17.5896 27.6834 17.5398 27.6093 17.5072C27.5354 17.4744 27.4548 17.4597 27.374 17.4642V17.4677ZM25.3377 18.9797C24.6353 18.9666 24.091 18.4567 23.8813 17.9859C23.842 17.8974 23.7781 17.8221 23.6971 17.7689C23.6163 17.7156 23.5218 17.6867 23.4249 17.6856L18.4285 17.5942C18.3193 17.5914 18.2123 17.6241 18.1233 17.6875C18.0343 17.7508 17.9682 17.8413 17.935 17.9453C17.7172 18.6181 17.1166 19.0271 16.3674 19.0127C15.9795 19.014 15.6034 18.8795 15.3042 18.6326L15.775 18.6808C15.8602 18.6892 15.946 18.6759 16.0246 18.6422C16.1032 18.6083 16.172 18.5552 16.2245 18.4876L16.2334 18.476C16.7069 17.8773 16.7323 16.3453 16.2732 15.7303L16.2643 15.7186C16.2132 15.655 16.1478 15.6047 16.0732 15.5715C15.9988 15.5384 15.9175 15.5236 15.8361 15.5283L15.2334 15.5633C15.5083 15.2478 15.9152 15.0884 16.4231 15.0987C17.0354 15.1104 17.6464 15.5248 17.9082 16.1056C17.9483 16.1934 18.0122 16.2681 18.0928 16.3213C18.1734 16.3744 18.2674 16.4037 18.3639 16.4059L23.381 16.5035C23.4906 16.5059 23.5981 16.4728 23.6874 16.4091C23.7767 16.3455 23.843 16.2546 23.8765 16.1502C24.0937 15.4767 24.6937 15.067 25.4387 15.0815C25.8266 15.0844 26.2016 15.2216 26.4999 15.4698L26.0276 15.4217C25.9423 15.4125 25.856 15.4251 25.7769 15.4584C25.6978 15.4917 25.6284 15.5446 25.5754 15.6121L25.5665 15.6231C25.0923 16.223 25.0682 17.7536 25.5273 18.3722C25.5779 18.4389 25.6443 18.4922 25.7203 18.5273C25.7965 18.5624 25.8801 18.5783 25.9637 18.5735L26.541 18.5399C26.2579 18.8423 25.8538 18.9948 25.3541 18.9852L25.3377 18.9797Z" fill="url(#paint5_linear_2940_24805)"/>
</g>
</g>
<defs>
<linearGradient id="paint0_linear_2940_24805" x1="17.4997" y1="0" x2="17.4997" y2="28.4343" gradientUnits="userSpaceOnUse">
<stop stop-color="#5D45F9"/>
<stop offset="1" stop-color="#267DEB"/>
</linearGradient>
<linearGradient id="paint1_linear_2940_24805" x1="4.40572" y1="1.92435" x2="4.40572" y2="4.72017" gradientUnits="userSpaceOnUse">
<stop stop-color="#5D45F9"/>
<stop offset="1" stop-color="#267DEB"/>
</linearGradient>
<linearGradient id="paint2_linear_2940_24805" x1="8.76802" y1="1.92435" x2="8.76802" y2="4.72016" gradientUnits="userSpaceOnUse">
<stop stop-color="#5D45F9"/>
<stop offset="1" stop-color="#267DEB"/>
</linearGradient>
<linearGradient id="paint3_linear_2940_24805" x1="13.1294" y1="1.92435" x2="13.1294" y2="4.72016" gradientUnits="userSpaceOnUse">
<stop stop-color="#5D45F9"/>
<stop offset="1" stop-color="#267DEB"/>
</linearGradient>
<linearGradient id="paint4_linear_2940_24805" x1="14.86" y1="8.28647" x2="14.86" y2="25.9514" gradientUnits="userSpaceOnUse">
<stop stop-color="#5D45F9"/>
<stop offset="1" stop-color="#267DEB"/>
</linearGradient>
<linearGradient id="paint5_linear_2940_24805" x1="20.8989" y1="14.0638" x2="20.8989" y2="20.0291" gradientUnits="userSpaceOnUse">
<stop stop-color="#5D45F9"/>
<stop offset="1" stop-color="#267DEB"/>
</linearGradient>
<clipPath id="clip0_2940_24805">
<rect width="34.9875" height="29.1562" fill="white" transform="translate(0.00585938)"/>
</clipPath>
</defs>
</svg>
