<svg width="35" height="29" viewBox="0 0 35 29" fill="none" xmlns="http://www.w3.org/2000/svg">
<g clip-path="url(#clip0_2934_24702)">
<mask id="mask0_2934_24702" style="mask-type:luminance" maskUnits="userSpaceOnUse" x="0" y="0" width="35" height="29">
<path d="M34.1658 0H0.946289V28.375H34.1658V0Z" fill="white"/>
</mask>
<g mask="url(#mask0_2934_24702)">
<mask id="mask1_2934_24702" style="mask-type:luminance" maskUnits="userSpaceOnUse" x="3" y="0" width="30" height="29">
<path d="M32.9058 0H3.78516V28.375H32.9058V0Z" fill="white"/>
</mask>
<g mask="url(#mask1_2934_24702)">
<path d="M22.3618 7.19483C22.6821 7.19483 22.993 7.08668 23.2442 6.8879C23.4954 6.68911 23.6721 6.41135 23.7457 6.0996C23.8192 5.78787 23.7854 5.4604 23.6497 5.17028C23.5139 4.88016 23.2842 4.64437 22.9977 4.50113C22.7112 4.35788 22.3847 4.31556 22.0712 4.38103C21.7576 4.44649 21.4754 4.61592 21.2701 4.86184C21.0649 5.10775 20.9486 5.41578 20.9403 5.73598C20.932 6.05618 21.0321 6.36982 21.2243 6.62606L18.8878 9.89074C18.6464 9.81129 18.3881 9.79814 18.14 9.85281C17.8918 9.90748 17.6629 10.0278 17.4772 10.2014L15.9199 9.31745C15.9413 9.21935 15.952 9.11924 15.9518 9.01885C15.9519 8.8194 15.91 8.62216 15.8289 8.43995C15.7478 8.25774 15.6293 8.09462 15.4811 7.96121C15.3327 7.8278 15.1581 7.72707 14.9683 7.66556C14.7787 7.60407 14.5781 7.58316 14.3797 7.60423C14.1814 7.62528 13.9898 7.68784 13.8171 7.78781C13.6445 7.88779 13.495 8.02296 13.378 8.18453C13.2611 8.3461 13.1795 8.53047 13.1384 8.72565C13.0974 8.92084 13.0978 9.12247 13.1398 9.31745L11.5832 10.2014C11.3435 9.97908 11.0347 9.84619 10.7087 9.825C10.3825 9.80372 10.0592 9.89547 9.79272 10.0847C9.52637 10.2739 9.33329 10.5491 9.246 10.8641C9.15872 11.179 9.18255 11.5143 9.3135 11.8137C9.44446 12.1131 9.67449 12.3582 9.96496 12.5079C10.2555 12.6575 10.5886 12.7026 10.9084 12.6355C11.2282 12.5683 11.5152 12.393 11.7209 12.1392C11.9266 11.8853 12.0387 11.5684 12.0381 11.2416C12.038 11.1412 12.0273 11.0412 12.0063 10.943L13.5636 10.0591C13.826 10.3039 14.1716 10.4399 14.5305 10.4399C14.8893 10.4399 15.2349 10.3039 15.4973 10.0591L17.0546 10.943C17.0334 11.0411 17.0227 11.1412 17.0228 11.2416C17.0228 11.4669 17.0763 11.689 17.179 11.8895C17.2816 12.0901 17.4305 12.2634 17.6132 12.3951C17.7961 12.5268 18.0076 12.6132 18.2302 12.6472C18.453 12.6812 18.6806 12.6617 18.8944 12.5905C19.108 12.5193 19.3018 12.3982 19.4596 12.2374C19.6175 12.0767 19.7348 11.8806 19.8019 11.6655C19.8691 11.4505 19.8842 11.2226 19.846 11.0005C19.8078 10.7785 19.7174 10.5687 19.5822 10.3884L21.9187 7.12373C22.0617 7.17073 22.2112 7.19473 22.3618 7.19483ZM22.3618 5.20415C22.4743 5.20415 22.5842 5.23751 22.6777 5.30001C22.7713 5.36251 22.8442 5.45134 22.8872 5.55527C22.9303 5.65919 22.9415 5.77356 22.9196 5.88388C22.8976 5.99421 22.8435 6.09556 22.764 6.1751C22.6844 6.25463 22.583 6.30881 22.4728 6.33076C22.3624 6.3527 22.248 6.34143 22.1441 6.29839C22.0402 6.25534 21.9513 6.18244 21.8889 6.08891C21.8264 5.99537 21.793 5.88541 21.793 5.77292C21.793 5.62207 21.8529 5.47741 21.9595 5.37074C22.0662 5.26408 22.2109 5.20415 22.3618 5.20415ZM10.6168 11.8114C10.5044 11.8114 10.3944 11.7782 10.3008 11.7156C10.2073 11.6531 10.1344 11.5643 10.0913 11.4604C10.0483 11.3564 10.037 11.2421 10.059 11.1318C10.0809 11.0214 10.1351 10.9201 10.2147 10.8405C10.2942 10.761 10.3955 10.7068 10.5059 10.6849C10.6162 10.6629 10.7305 10.6742 10.8345 10.7172C10.9384 10.7602 11.0272 10.8332 11.0897 10.9267C11.1523 11.0203 11.1856 11.1303 11.1856 11.2427C11.1856 11.3936 11.1257 11.5382 11.019 11.6449C10.9123 11.7516 10.7677 11.8114 10.6168 11.8114ZM14.5345 9.58874C14.4219 9.58874 14.312 9.55535 14.2185 9.49292C14.1249 9.4304 14.052 9.34157 14.009 9.23764C13.9659 9.13371 13.9547 9.01935 13.9766 8.90903C13.9986 8.7987 14.0528 8.69735 14.1323 8.61781C14.2118 8.53826 14.3131 8.4841 14.4235 8.46215C14.5338 8.44021 14.6482 8.45147 14.7521 8.49452C14.8561 8.53756 14.9449 8.61047 15.0074 8.704C15.0698 8.79754 15.1032 8.9075 15.1032 9.01999C15.1032 9.17083 15.0433 9.3155 14.9366 9.42216C14.8299 9.52886 14.6853 9.58874 14.5345 9.58874ZM18.4498 11.8114C18.3373 11.8114 18.2274 11.7782 18.1338 11.7156C18.0403 11.6531 17.9674 11.5643 17.9243 11.4604C17.8813 11.3564 17.87 11.2421 17.892 11.1318C17.9139 11.0214 17.9681 10.9201 18.0477 10.8405C18.1272 10.761 18.2285 10.7068 18.3389 10.6849C18.4492 10.6629 18.5635 10.6742 18.6675 10.7172C18.7714 10.7602 18.8602 10.8332 18.9228 10.9267C18.9852 11.0203 19.0186 11.1303 19.0186 11.2427C19.0186 11.3176 19.0038 11.3919 18.975 11.461C18.9462 11.5302 18.9041 11.5931 18.851 11.6459C18.7979 11.6988 18.7348 11.7406 18.6655 11.769C18.5962 11.7974 18.5219 11.8118 18.447 11.8114H18.4498Z" fill="url(#paint0_linear_2934_24702)"/>
<path d="M27.9871 1.90877H18.8574V1.07041C18.8571 0.786612 18.7442 0.514524 18.5436 0.313848C18.3429 0.113173 18.0707 0.000301113 17.787 0H15.1923C14.9084 0.000301113 14.6364 0.113173 14.4357 0.313848C14.235 0.514524 14.1222 0.786612 14.1219 1.07041V1.90877H4.99207C4.67217 1.90907 4.36544 2.03624 4.13919 2.2624C3.91293 2.48854 3.78561 2.79521 3.78516 3.11511V20.7138C3.78546 21.0337 3.91271 21.3406 4.13898 21.5668C4.36526 21.7931 4.67207 21.9204 4.99207 21.9206H7.93315V22.8591C7.93299 22.9867 7.95799 23.113 8.00672 23.231C8.05544 23.3489 8.12694 23.4561 8.2171 23.5463C8.30727 23.6367 8.41435 23.7083 8.53222 23.7572C8.65009 23.806 8.77642 23.8311 8.90402 23.8311H13.1737L11.1643 27.7556C11.1387 27.8054 11.1233 27.8598 11.1188 27.9157C11.1142 27.9715 11.1208 28.0277 11.138 28.081C11.1551 28.1343 11.1826 28.1838 11.2189 28.2264C11.2553 28.2691 11.2995 28.3043 11.3495 28.3298C11.4501 28.3813 11.5672 28.3908 11.6748 28.3561C11.7282 28.3389 11.7775 28.3113 11.8202 28.2751C11.863 28.2388 11.898 28.1944 11.9236 28.1446L14.1315 23.8311H18.8477L21.0567 28.144C21.0804 28.197 21.1145 28.2446 21.1571 28.2839C21.1997 28.3232 21.2499 28.3534 21.3045 28.3727C21.3592 28.392 21.4172 28.3999 21.4751 28.396C21.5329 28.3921 21.5893 28.3765 21.6409 28.35C21.6925 28.3236 21.7382 28.2869 21.7751 28.2423C21.8121 28.1977 21.8395 28.1459 21.8558 28.0902C21.872 28.0346 21.8769 27.9762 21.8699 27.9187C21.8628 27.8611 21.8441 27.8057 21.8149 27.7556L19.8049 23.8311H24.0752C24.3323 23.8308 24.5789 23.7285 24.7608 23.5466C24.9426 23.3646 25.0447 23.1181 25.0449 22.8608V21.9223H27.6044C27.7175 21.9223 27.826 21.8774 27.906 21.7974C27.986 21.7175 28.0309 21.6089 28.0309 21.4958C28.0309 21.3826 27.986 21.2742 27.906 21.1941C27.826 21.1141 27.7175 21.0692 27.6044 21.0692H4.99207C4.94549 21.0692 4.89939 21.0599 4.85638 21.042C4.81338 21.0241 4.77434 20.9979 4.74148 20.9649C4.70862 20.9319 4.68259 20.8926 4.66489 20.8496C4.64719 20.8064 4.63815 20.7603 4.6383 20.7138V3.11511C4.63845 3.02138 4.67579 2.93154 4.74212 2.86533C4.80844 2.7991 4.89835 2.76191 4.99207 2.76191H27.9871C28.0809 2.76191 28.1707 2.7991 28.2371 2.86533C28.3034 2.93154 28.3408 3.02138 28.3409 3.11511V7.17095C28.3409 7.28409 28.3859 7.39259 28.4658 7.47258C28.5458 7.55258 28.6543 7.59752 28.7675 7.59752C28.8806 7.59752 28.9892 7.55258 29.0691 7.47258C29.1491 7.39259 29.194 7.28409 29.194 7.17095V3.11511C29.1936 2.79521 29.0662 2.48854 28.84 2.2624C28.6138 2.03624 28.307 1.90907 27.9871 1.90877ZM8.78629 21.9206H24.1929V22.8591C24.1929 22.8901 24.1806 22.9198 24.1588 22.9418C24.1369 22.9637 24.1073 22.9761 24.0763 22.9763H8.90402C8.87354 22.9754 8.84461 22.9627 8.82336 22.9408C8.80213 22.9189 8.79025 22.8896 8.79027 22.8591L8.78629 21.9206ZM18.0042 1.90877H14.975V1.07041C14.9751 1.01284 14.9981 0.957656 15.0388 0.916945C15.0795 0.876232 15.1347 0.853293 15.1923 0.853144H17.787C17.8446 0.853144 17.8998 0.876034 17.9406 0.916779C17.9814 0.957524 18.0042 1.01279 18.0042 1.07041V1.90877Z" fill="url(#paint1_linear_2934_24702)"/>
<path d="M9.75074 14.8447C9.63762 14.8447 9.52913 14.8896 9.44915 14.9696C9.36915 15.0496 9.32422 15.1581 9.32422 15.2712V19.0405C9.32422 19.1536 9.36915 19.2621 9.44915 19.3421C9.52913 19.4221 9.63762 19.467 9.75074 19.467H11.4815C11.5946 19.467 11.7031 19.4221 11.7831 19.3421C11.8632 19.2621 11.9081 19.1536 11.9081 19.0405V15.2724C11.9081 15.1592 11.8632 15.0508 11.7831 14.9707C11.7031 14.8907 11.5946 14.8458 11.4815 14.8458L9.75074 14.8447ZM11.055 18.6139H10.1774V15.6978H11.055V18.6139Z" fill="url(#paint2_linear_2934_24702)"/>
<path d="M13.6668 12.6658C13.5537 12.6658 13.4452 12.7107 13.3652 12.7907C13.2852 12.8707 13.2402 12.9792 13.2402 13.0923V19.0416C13.2402 19.1548 13.2852 19.2632 13.3652 19.3433C13.4452 19.4233 13.5537 19.4682 13.6668 19.4682H15.397C15.5101 19.4682 15.6186 19.4233 15.6986 19.3433C15.7786 19.2632 15.8236 19.1548 15.8236 19.0416V13.0923C15.8236 12.9792 15.7786 12.8707 15.6986 12.7907C15.6186 12.7107 15.5101 12.6658 15.397 12.6658H13.6668ZM14.971 18.6151H14.0934V13.5189H14.971V18.6151Z" fill="url(#paint3_linear_2934_24702)"/>
<path d="M17.5818 14.8447C17.4687 14.8447 17.3602 14.8896 17.2802 14.9696C17.2003 15.0496 17.1553 15.1581 17.1553 15.2712V19.0405C17.1553 19.1536 17.2003 19.2621 17.2802 19.3421C17.3602 19.4221 17.4687 19.467 17.5818 19.467H19.3126C19.4257 19.467 19.5342 19.4221 19.6143 19.3421C19.6943 19.2621 19.7392 19.1536 19.7392 19.0405V15.2724C19.7394 15.2163 19.7284 15.1607 19.707 15.1088C19.6857 15.0569 19.6543 15.0098 19.6146 14.97C19.575 14.9303 19.528 14.8988 19.4762 14.8773C19.4243 14.8557 19.3687 14.8447 19.3126 14.8447H17.5818ZM18.8861 18.6139H18.0084V15.6978H18.8861V18.6139Z" fill="url(#paint4_linear_2934_24702)"/>
<path d="M32.6888 21.4685L30.243 17.2301C31.0773 16.3397 31.5965 15.2004 31.7213 13.9866C31.8461 12.7729 31.5695 11.5517 30.934 10.5102C30.2984 9.46874 29.3388 8.66432 28.2024 8.22027C27.0659 7.77621 25.8152 7.717 24.6419 8.0517C23.4686 8.38639 22.4374 9.09655 21.7062 10.0733C20.9751 11.0502 20.5844 12.2397 20.5939 13.4598C20.6035 14.6799 21.0127 15.8632 21.7591 16.8285C22.5054 17.7937 23.5477 18.4875 24.7261 18.8038C25.1994 18.9312 25.6874 18.996 26.1776 18.9967C26.6003 18.9969 27.0217 18.9482 27.4333 18.8517L29.8791 23.0906C29.9856 23.2751 30.1273 23.4367 30.2963 23.5664C30.4652 23.6961 30.6581 23.7912 30.8638 23.8464C31.0695 23.9015 31.284 23.9156 31.4952 23.8878C31.7063 23.86 31.91 23.7909 32.0944 23.6844C32.2788 23.5779 32.4405 23.4361 32.5702 23.2672C32.6998 23.0983 32.795 22.9054 32.8501 22.6997C32.9053 22.494 32.9194 22.2795 32.8916 22.0683C32.8637 21.8572 32.7952 21.653 32.6888 21.4685ZM24.9462 17.9797C23.8913 17.6969 22.9672 17.0571 22.3311 16.1692C21.6952 15.2814 21.3866 14.2006 21.4582 13.1108C21.5298 12.021 21.977 10.9897 22.7237 10.1927C23.4703 9.39567 24.4701 8.88217 25.5529 8.73969C26.6357 8.59721 27.7344 8.83456 28.6618 9.41131C29.5893 9.9881 30.288 10.8685 30.6391 11.9027C30.99 12.9368 30.9717 14.0608 30.587 15.0828C30.2024 16.105 29.4752 16.9621 28.5294 17.5082C27.993 17.8198 27.4 18.0219 26.785 18.1028C26.17 18.1837 25.545 18.1419 24.9462 17.9797ZM31.6684 22.9445C31.492 23.0463 31.2823 23.0739 31.0856 23.0212C30.8888 22.9685 30.721 22.8399 30.619 22.6635L28.2649 18.5854C28.7414 18.3915 29.1889 18.1328 29.5947 17.8165L31.9493 21.8974C32 21.9847 32.0329 22.0811 32.0462 22.1811C32.0595 22.2812 32.0529 22.3829 32.0268 22.4804C32.0007 22.5779 31.9556 22.6693 31.8941 22.7493C31.8326 22.8293 31.7559 22.8965 31.6684 22.9468V22.9445Z" fill="url(#paint5_linear_2934_24702)"/>
<path d="M30.036 14.62C30.338 13.6546 30.2662 12.611 29.8347 11.696C29.8118 11.644 29.7788 11.597 29.7374 11.5578C29.6962 11.5186 29.6475 11.4882 29.5942 11.4681C29.541 11.4482 29.4842 11.439 29.4274 11.4412C29.3706 11.4435 29.3147 11.4571 29.2632 11.4812C29.2117 11.5053 29.1655 11.5395 29.1274 11.5817C29.0893 11.624 29.0599 11.6734 29.0412 11.7271C29.0226 11.7808 29.0147 11.8378 29.0184 11.8946C29.022 11.9514 29.037 12.0069 29.0623 12.0578C29.3933 12.7644 29.4543 13.5679 29.2335 14.3163C29.0127 15.0649 28.5256 15.7066 27.8641 16.1206C27.2026 16.5345 26.4124 16.692 25.6427 16.5632C24.873 16.4344 24.1772 16.0284 23.6864 15.4216C23.1956 14.8149 22.9439 14.0495 22.9788 13.2699C23.0137 12.4903 23.3328 11.7505 23.8759 11.1901C24.4189 10.6297 25.1484 10.2874 25.9265 10.228C26.7045 10.1685 27.4775 10.3959 28.0994 10.8673C28.1899 10.9356 28.3038 10.9651 28.4161 10.9493C28.5284 10.9336 28.6298 10.874 28.6981 10.7834C28.7663 10.6929 28.7958 10.5791 28.7801 10.4668C28.7643 10.3545 28.7046 10.2531 28.6142 10.1848C27.9278 9.66481 27.0936 9.37705 26.2326 9.36331C25.3716 9.34958 24.5285 9.61052 23.826 10.1084C23.1234 10.6063 22.5977 11.3151 22.3252 12.1319C22.0528 12.9488 22.0478 13.8312 22.3109 14.6512C22.574 15.4711 23.0915 16.1859 23.7884 16.6917C24.4853 17.1975 25.3252 17.4681 26.1863 17.4642C27.0474 17.4603 27.8848 17.1821 28.5771 16.6699C29.2694 16.1578 29.7804 15.4384 30.036 14.6161V14.62Z" fill="url(#paint6_linear_2934_24702)"/>
</g>
</g>
</g>
<defs>
<linearGradient id="paint0_linear_2934_24702" x1="16.489" y1="4.35101" x2="16.489" y2="12.6658" gradientUnits="userSpaceOnUse">
<stop stop-color="#5D45F9"/>
<stop offset="1" stop-color="#267DEB"/>
</linearGradient>
<linearGradient id="paint1_linear_2934_24702" x1="16.4896" y1="0" x2="16.4896" y2="28.397" gradientUnits="userSpaceOnUse">
<stop stop-color="#5D45F9"/>
<stop offset="1" stop-color="#267DEB"/>
</linearGradient>
<linearGradient id="paint2_linear_2934_24702" x1="10.6162" y1="14.8447" x2="10.6162" y2="19.467" gradientUnits="userSpaceOnUse">
<stop stop-color="#5D45F9"/>
<stop offset="1" stop-color="#267DEB"/>
</linearGradient>
<linearGradient id="paint3_linear_2934_24702" x1="14.5319" y1="12.6658" x2="14.5319" y2="19.4682" gradientUnits="userSpaceOnUse">
<stop stop-color="#5D45F9"/>
<stop offset="1" stop-color="#267DEB"/>
</linearGradient>
<linearGradient id="paint4_linear_2934_24702" x1="18.4472" y1="14.8447" x2="18.4472" y2="19.467" gradientUnits="userSpaceOnUse">
<stop stop-color="#5D45F9"/>
<stop offset="1" stop-color="#267DEB"/>
</linearGradient>
<linearGradient id="paint5_linear_2934_24702" x1="26.7496" y1="7.83771" x2="26.7496" y2="23.9017" gradientUnits="userSpaceOnUse">
<stop stop-color="#5D45F9"/>
<stop offset="1" stop-color="#267DEB"/>
</linearGradient>
<linearGradient id="paint6_linear_2934_24702" x1="26.1685" y1="9.36279" x2="26.1685" y2="17.4643" gradientUnits="userSpaceOnUse">
<stop stop-color="#5D45F9"/>
<stop offset="1" stop-color="#267DEB"/>
</linearGradient>
<clipPath id="clip0_2934_24702">
<rect width="34.9958" height="28.375" fill="white" transform="translate(0.00195312)"/>
</clipPath>
</defs>
</svg>
