<svg width="8" height="32" viewBox="0 0 8 32" fill="none" xmlns="http://www.w3.org/2000/svg">
<g clip-path="url(#clip0_2370_24770)">
<path fill-rule="evenodd" clip-rule="evenodd" d="M8 16C8 15.6431 7.86 15.308 7.60622 15.0578L1.53244 9.14844C1.18133 8.80178 0.613775 8.80178 0.262664 9.14844C0.179404 9.23056 0.113291 9.3284 0.0681653 9.43629C0.0230403 9.54417 -0.000197411 9.65995 -0.000197411 9.77689C-0.000197411 9.89383 0.0230403 10.0096 0.0681653 10.1175C0.113291 10.2254 0.179404 10.3232 0.262664 10.4053L6.02 15.9996L0.26222 21.5938C-0.0880022 21.9404 -0.0880022 22.5031 0.26222 22.8507C0.431332 23.0177 0.659435 23.1113 0.897109 23.1113C1.13478 23.1113 1.36289 23.0177 1.532 22.8507L7.60622 16.9422C7.7312 16.8191 7.83039 16.6724 7.898 16.5105C7.96561 16.3487 8.00029 16.175 8 15.9996V16Z" fill="#042055"/>
</g>
<defs>
<clipPath id="clip0_2370_24770">
<rect width="8" height="32" fill="white" transform="matrix(-1 0 0 1 8 0)"/>
</clipPath>
</defs>
</svg>
