<svg width="170" height="170" viewBox="0 0 170 170" fill="none" xmlns="http://www.w3.org/2000/svg">
<path d="M163.854 122.473V125.806C163.852 125.857 163.838 125.907 163.813 125.951C163.788 125.995 163.752 126.034 163.71 126.062L161.953 127.333C162.08 127.435 162.234 127.5 162.397 127.519L167.517 127.822C167.646 127.831 167.767 127.888 167.855 127.983C167.944 128.077 167.994 128.201 167.996 128.33L168.007 131.186C168.007 131.186 168.007 131.194 168.007 131.198V134.519C168.006 134.649 167.957 134.773 167.869 134.868C167.78 134.963 167.66 135.021 167.531 135.031L162.416 135.374C162.257 135.394 162.107 135.457 161.982 135.556L163.753 136.822C163.797 136.848 163.835 136.886 163.861 136.93C163.887 136.974 163.903 137.024 163.906 137.076V140.415C163.901 140.468 163.881 140.521 163.85 140.565C163.818 140.61 163.776 140.646 163.727 140.67L159.904 142.899C159.774 142.967 159.63 143.005 159.484 143.012C159.338 143.019 159.192 142.996 159.056 142.942L155.156 141.153C154.872 141.042 154.56 141.024 154.265 141.103C153.277 141.414 152.269 141.658 151.247 141.834C151.112 141.862 150.987 141.93 150.887 142.026C150.788 142.123 150.718 142.247 150.687 142.382L150.209 144.949C150.18 145.08 150.11 145.197 150.007 145.283C149.905 145.368 149.776 145.417 149.643 145.421L143.996 145.444C143.863 145.44 143.734 145.392 143.631 145.307C143.527 145.222 143.456 145.105 143.426 144.975L142.929 142.412C142.896 142.277 142.825 142.154 142.726 142.058C142.625 141.962 142.5 141.896 142.364 141.868C141.338 141.7 140.325 141.465 139.332 141.161C139.037 141.084 138.725 141.104 138.443 141.217L134.556 143.035C134.42 143.091 134.274 143.115 134.128 143.109C133.981 143.103 133.838 143.067 133.707 143.001L129.864 140.794C129.813 140.771 129.771 140.735 129.739 140.689C129.707 140.643 129.688 140.59 129.683 140.535V137.201C129.687 137.15 129.702 137.099 129.728 137.055C129.755 137.011 129.791 136.973 129.835 136.946L131.587 135.675C131.46 135.572 131.305 135.507 131.142 135.488L126.022 135.184C125.894 135.175 125.773 135.118 125.685 135.023C125.596 134.93 125.545 134.806 125.543 134.677L125.536 130.672V128.498C125.537 128.369 125.586 128.244 125.675 128.149C125.763 128.055 125.884 127.996 126.013 127.986L131.127 127.643C131.286 127.624 131.437 127.56 131.561 127.459L129.79 126.196C129.746 126.168 129.709 126.131 129.682 126.086C129.654 126.041 129.639 125.99 129.636 125.938V122.616C129.64 122.561 129.658 122.507 129.689 122.461C129.721 122.415 129.763 122.378 129.813 122.354L133.633 120.112C133.764 120.045 133.908 120.006 134.054 120C134.201 119.992 134.347 120.017 134.484 120.07L138.383 121.858C138.667 121.97 138.979 121.987 139.274 121.908C140.262 121.597 141.27 121.353 142.292 121.178C142.428 121.149 142.553 121.082 142.653 120.985C142.751 120.888 142.821 120.764 142.852 120.629L143.331 118.062C143.359 117.932 143.43 117.814 143.532 117.729C143.635 117.643 143.763 117.594 143.897 117.589L149.543 117.567C149.678 117.569 149.808 117.617 149.912 117.702C150.018 117.787 150.091 117.905 150.121 118.037L150.617 120.6C150.65 120.735 150.722 120.857 150.821 120.954C150.921 121.05 151.046 121.116 151.182 121.145C152.207 121.311 153.221 121.547 154.215 121.851C154.51 121.927 154.821 121.908 155.104 121.794L158.99 119.976C159.126 119.921 159.273 119.896 159.419 119.902C159.565 119.908 159.709 119.945 159.84 120.011L163.689 122.213C163.737 122.238 163.778 122.276 163.806 122.321C163.835 122.367 163.852 122.419 163.854 122.473ZM140.29 133.61C143.883 135.665 149.691 135.642 153.266 133.56C154.664 132.744 155.511 131.737 155.812 130.687C155.422 129.833 154.561 129.002 153.244 128.25C149.654 126.194 143.844 126.216 140.27 128.298C138.871 129.113 138.054 130.017 137.782 130.937C138.136 131.924 138.97 132.852 140.29 133.61Z" fill="#C0C0CC"/>
<g opacity="0.1">
<path opacity="0.1" d="M132.926 134.12C132.968 134.161 133.001 134.212 133.022 134.269C133.043 134.325 133.051 134.384 133.045 134.445C133.04 134.504 133.022 134.562 132.993 134.613C132.962 134.665 132.921 134.71 132.872 134.744L131.589 135.68C131.46 135.575 131.304 135.511 131.139 135.494L126.02 135.193C125.891 135.182 125.77 135.124 125.682 135.03C125.593 134.936 125.542 134.812 125.539 134.683V130.68V131.356C125.541 131.485 125.591 131.608 125.679 131.702C125.768 131.797 125.888 131.855 126.017 131.864L131.135 132.166C131.277 132.184 131.414 132.235 131.535 132.314C131.656 132.393 131.756 132.5 131.829 132.624C132.133 133.164 132.501 133.667 132.926 134.12ZM129.626 122.641C129.649 122.731 129.703 122.81 129.781 122.862L132.833 125.04C132.883 125.074 132.925 125.118 132.954 125.169C132.985 125.221 133.005 125.279 133.01 125.338C133.016 125.398 133.008 125.458 132.988 125.514C132.967 125.571 132.935 125.622 132.892 125.664C132.473 126.124 132.11 126.631 131.81 127.176C131.748 127.29 131.662 127.389 131.558 127.465L129.786 126.2C129.741 126.173 129.704 126.135 129.678 126.091C129.651 126.046 129.636 125.995 129.633 125.943L129.626 122.641Z" fill="black"/>
</g>
<g opacity="0.1">
<path opacity="0.1" d="M153.239 126.07C149.649 124.015 143.841 124.035 140.267 126.118C138.006 127.434 137.179 129.257 137.785 130.941C138.05 130.021 138.872 129.114 140.274 128.297C143.849 126.215 149.661 126.194 153.248 128.25C154.562 129.002 155.425 129.838 155.818 130.684C156.287 129.052 155.424 127.321 153.239 126.07Z" fill="black"/>
</g>
<g opacity="0.1">
<path opacity="0.1" d="M168.018 134.516C168.017 134.644 167.966 134.768 167.878 134.863C167.79 134.956 167.669 135.014 167.54 135.024L162.424 135.369C162.336 135.379 162.251 135.403 162.172 135.442V132.11C162.253 132.07 162.34 132.046 162.43 132.039L167.545 131.696C167.661 131.686 167.772 131.636 167.858 131.555C167.943 131.475 167.999 131.368 168.017 131.252L168.018 134.516ZM163.865 125.809C163.862 125.86 163.847 125.91 163.823 125.955C163.798 125.999 163.762 126.037 163.721 126.066L161.953 127.334C161.856 127.259 161.773 127.166 161.71 127.061C161.421 126.544 161.074 126.062 160.673 125.626C160.656 125.602 160.638 125.579 160.617 125.558C160.571 125.508 160.535 125.447 160.514 125.382C160.508 125.36 160.503 125.338 160.498 125.316C160.492 125.274 160.492 125.231 160.498 125.188C160.513 125.117 160.545 125.053 160.594 125C160.614 124.974 160.639 124.951 160.666 124.932L163.699 122.732C163.724 122.715 163.747 122.694 163.768 122.672C163.797 122.646 163.818 122.611 163.829 122.573C163.844 122.541 163.852 122.505 163.849 122.471L163.865 125.809ZM163.92 140.411C163.914 140.465 163.895 140.517 163.863 140.561C163.831 140.606 163.789 140.642 163.739 140.665L159.905 142.9C159.722 142.994 159.516 143.03 159.312 143.004V139.682C159.516 139.709 159.724 139.671 159.907 139.576L163.74 137.346C163.786 137.323 163.826 137.289 163.858 137.248C163.888 137.207 163.909 137.159 163.92 137.109V140.411ZM138.835 141.122C138.704 141.131 138.575 141.161 138.454 141.212L134.569 143.03C134.459 143.075 134.34 143.099 134.22 143.101V139.779C134.34 139.78 134.458 139.754 134.567 139.704L138.451 137.886C138.573 137.835 138.703 137.804 138.834 137.792L138.835 141.122ZM150.137 145.132C150.085 145.217 150.013 145.289 149.927 145.339C149.841 145.389 149.744 145.418 149.645 145.421L144 145.444C143.876 145.44 143.755 145.398 143.657 145.322L143.649 141.99C143.747 142.068 143.869 142.112 143.996 142.114L149.643 142.091C149.736 142.089 149.827 142.065 149.91 142.02C149.992 141.976 150.062 141.913 150.116 141.836L150.137 145.132Z" fill="black"/>
</g>
<path d="M168.017 134.515C168.016 134.644 167.966 134.768 167.877 134.863C167.789 134.956 167.668 135.014 167.54 135.023L162.424 135.369C162.336 135.379 162.25 135.403 162.172 135.442V132.11C162.252 132.07 162.339 132.046 162.429 132.039L167.544 131.696C167.661 131.686 167.771 131.636 167.857 131.555C167.943 131.475 167.999 131.368 168.017 131.252L168.017 134.515ZM163.92 140.411C163.914 140.465 163.894 140.517 163.863 140.561C163.831 140.606 163.789 140.642 163.739 140.665L159.905 142.9C159.722 142.994 159.515 143.03 159.311 143.004V139.682C159.516 139.709 159.723 139.671 159.906 139.576L163.74 137.346C163.786 137.323 163.826 137.289 163.857 137.248C163.888 137.207 163.909 137.159 163.92 137.109V140.411ZM138.835 141.122C138.703 141.131 138.575 141.161 138.454 141.212L134.569 143.03C134.458 143.075 134.34 143.099 134.22 143.101V139.779C134.34 139.78 134.458 139.754 134.567 139.704L138.451 137.886C138.573 137.835 138.702 137.804 138.834 137.792L138.835 141.122ZM150.137 145.132C150.085 145.217 150.013 145.289 149.927 145.339C149.841 145.389 149.743 145.418 149.644 145.421L143.999 145.443C143.875 145.44 143.755 145.398 143.656 145.322L143.648 141.99C143.747 142.068 143.869 142.112 143.995 142.114L149.643 142.091C149.736 142.089 149.827 142.065 149.91 142.02C149.991 141.976 150.062 141.913 150.115 141.835L150.137 145.132Z" fill="#E7E7F1"/>
<path d="M159.826 120.011L163.675 122.213C163.726 122.234 163.769 122.268 163.8 122.313C163.832 122.357 163.85 122.41 163.853 122.465C163.856 122.519 163.844 122.573 163.816 122.62C163.79 122.668 163.751 122.707 163.703 122.733L160.671 124.934C160.621 124.968 160.58 125.012 160.55 125.064C160.52 125.116 160.501 125.174 160.496 125.234C160.491 125.293 160.5 125.354 160.521 125.41C160.541 125.466 160.575 125.517 160.617 125.559C161.041 126.013 161.408 126.518 161.709 127.062C161.782 127.186 161.883 127.292 162.003 127.371C162.123 127.45 162.259 127.5 162.402 127.519L167.522 127.822C167.651 127.831 167.771 127.888 167.86 127.983C167.949 128.077 167.999 128.2 168.001 128.33L168.012 131.185C168.011 131.315 167.962 131.439 167.873 131.533C167.785 131.628 167.665 131.686 167.536 131.696L162.419 132.04C162.277 132.059 162.14 132.111 162.021 132.191C161.902 132.271 161.802 132.377 161.73 132.502C161.433 133.048 161.069 133.555 160.648 134.013C160.607 134.055 160.574 134.106 160.553 134.163C160.533 134.219 160.525 134.28 160.531 134.339C160.537 134.399 160.556 134.456 160.586 134.508C160.617 134.56 160.659 134.604 160.708 134.638L163.759 136.816C163.807 136.842 163.846 136.881 163.873 136.927C163.9 136.974 163.912 137.028 163.91 137.082C163.907 137.136 163.889 137.188 163.859 137.233C163.828 137.278 163.786 137.312 163.736 137.335L159.904 139.567C159.773 139.633 159.63 139.671 159.484 139.679C159.337 139.686 159.191 139.662 159.055 139.608L155.156 137.819C154.871 137.708 154.559 137.691 154.264 137.771C153.276 138.078 152.267 138.32 151.245 138.492C151.11 138.522 150.985 138.589 150.886 138.686C150.787 138.783 150.717 138.906 150.685 139.041L150.208 141.608C150.179 141.739 150.108 141.856 150.005 141.942C149.903 142.028 149.774 142.078 149.64 142.083L143.994 142.102C143.859 142.1 143.729 142.054 143.624 141.969C143.519 141.884 143.446 141.766 143.416 141.635L142.919 139.071C142.886 138.937 142.815 138.814 142.716 138.717C142.616 138.621 142.491 138.555 142.355 138.527C141.332 138.36 140.322 138.123 139.33 137.819C139.036 137.742 138.723 137.763 138.44 137.877L134.555 139.695C134.419 139.749 134.273 139.775 134.126 139.769C133.98 139.763 133.836 139.726 133.704 139.661L129.856 137.459C129.806 137.437 129.763 137.403 129.731 137.358C129.7 137.314 129.682 137.261 129.679 137.207C129.676 137.153 129.689 137.099 129.715 137.051C129.742 137.004 129.781 136.965 129.828 136.938L132.861 134.738C132.911 134.704 132.952 134.66 132.983 134.608C133.013 134.556 133.031 134.498 133.037 134.438C133.042 134.378 133.034 134.318 133.013 134.262C132.992 134.206 132.959 134.155 132.916 134.112C132.492 133.657 132.125 133.153 131.823 132.609C131.75 132.485 131.649 132.38 131.529 132.301C131.409 132.222 131.272 132.171 131.13 132.153L126.012 131.848C125.883 131.838 125.762 131.781 125.674 131.688C125.584 131.594 125.533 131.47 125.531 131.341L125.521 128.486C125.522 128.357 125.572 128.233 125.66 128.137C125.747 128.043 125.868 127.985 125.997 127.975L131.113 127.631C131.255 127.611 131.391 127.559 131.511 127.48C131.63 127.4 131.731 127.293 131.803 127.169C132.1 126.624 132.463 126.115 132.883 125.657C132.926 125.615 132.959 125.564 132.979 125.508C133 125.452 133.007 125.391 133.002 125.332C132.996 125.272 132.978 125.214 132.947 125.162C132.916 125.111 132.875 125.066 132.825 125.033L129.778 122.862C129.731 122.837 129.691 122.798 129.664 122.751C129.637 122.703 129.624 122.649 129.627 122.595C129.629 122.541 129.647 122.488 129.679 122.443C129.709 122.399 129.753 122.364 129.803 122.343L133.634 120.112C133.765 120.045 133.908 120.006 134.055 120C134.202 119.992 134.348 120.017 134.485 120.07L138.384 121.858C138.667 121.97 138.979 121.987 139.274 121.908C140.263 121.597 141.271 121.353 142.293 121.178C142.429 121.149 142.554 121.082 142.653 120.985C142.752 120.888 142.821 120.764 142.853 120.629L143.331 118.062C143.359 117.932 143.431 117.814 143.533 117.729C143.636 117.643 143.763 117.594 143.898 117.589L149.544 117.567C149.678 117.569 149.808 117.617 149.914 117.702C150.018 117.787 150.091 117.905 150.121 118.037L150.618 120.6C150.651 120.735 150.722 120.857 150.822 120.953C150.922 121.05 151.047 121.116 151.183 121.145C152.208 121.311 153.221 121.547 154.216 121.851C154.511 121.927 154.822 121.908 155.105 121.794L158.991 119.976C159.125 119.923 159.268 119.899 159.412 119.905C159.556 119.911 159.696 119.947 159.826 120.011ZM140.266 126.118C136.691 128.2 136.704 131.555 140.294 133.61C143.884 135.665 149.695 135.641 153.27 133.56C156.844 131.477 156.832 128.124 153.241 126.069C149.649 124.014 143.841 124.037 140.266 126.118Z" fill="#BA68C8"/>
<path d="M159.826 120.011L163.675 122.213C163.726 122.234 163.769 122.268 163.8 122.313C163.832 122.357 163.85 122.41 163.853 122.465C163.856 122.519 163.844 122.573 163.816 122.62C163.79 122.668 163.751 122.707 163.703 122.733L160.671 124.934C160.621 124.968 160.58 125.012 160.55 125.064C160.52 125.116 160.501 125.174 160.496 125.234C160.491 125.293 160.5 125.354 160.521 125.41C160.541 125.466 160.575 125.517 160.617 125.559C161.041 126.013 161.408 126.518 161.709 127.062C161.782 127.186 161.883 127.292 162.003 127.371C162.123 127.45 162.259 127.5 162.402 127.519L167.522 127.822C167.651 127.831 167.771 127.888 167.86 127.983C167.949 128.077 167.999 128.2 168.001 128.33L168.012 131.185C168.011 131.315 167.962 131.439 167.873 131.533C167.785 131.628 167.665 131.686 167.536 131.696L162.419 132.04C162.277 132.059 162.14 132.111 162.021 132.191C161.902 132.271 161.802 132.377 161.73 132.502C161.433 133.048 161.069 133.555 160.648 134.013C160.607 134.055 160.574 134.106 160.553 134.163C160.533 134.219 160.525 134.28 160.531 134.339C160.537 134.399 160.556 134.456 160.586 134.508C160.617 134.56 160.659 134.604 160.708 134.638L163.759 136.816C163.807 136.842 163.846 136.881 163.873 136.927C163.9 136.974 163.912 137.028 163.91 137.082C163.907 137.136 163.889 137.188 163.859 137.233C163.828 137.278 163.786 137.312 163.736 137.335L159.904 139.567C159.773 139.633 159.63 139.671 159.484 139.679C159.337 139.686 159.191 139.662 159.055 139.608L155.156 137.819C154.871 137.708 154.559 137.691 154.264 137.771C153.276 138.078 152.267 138.32 151.245 138.492C151.11 138.522 150.985 138.589 150.886 138.686C150.787 138.783 150.717 138.906 150.685 139.041L150.208 141.608C150.179 141.739 150.108 141.856 150.005 141.942C149.903 142.028 149.774 142.078 149.64 142.083L143.994 142.102C143.859 142.1 143.729 142.054 143.624 141.969C143.519 141.884 143.446 141.766 143.416 141.635L142.919 139.071C142.886 138.937 142.815 138.814 142.716 138.717C142.616 138.621 142.491 138.555 142.355 138.527C141.332 138.36 140.322 138.123 139.33 137.819C139.036 137.742 138.723 137.763 138.44 137.877L134.555 139.695C134.419 139.749 134.273 139.775 134.126 139.769C133.98 139.763 133.836 139.726 133.704 139.661L129.856 137.459C129.806 137.437 129.763 137.403 129.731 137.358C129.7 137.314 129.682 137.261 129.679 137.207C129.676 137.153 129.689 137.099 129.715 137.051C129.742 137.004 129.781 136.965 129.828 136.938L132.861 134.738C132.911 134.704 132.952 134.66 132.983 134.608C133.013 134.556 133.031 134.498 133.037 134.438C133.042 134.378 133.034 134.318 133.013 134.262C132.992 134.206 132.959 134.155 132.916 134.112C132.492 133.657 132.125 133.153 131.823 132.609C131.75 132.485 131.649 132.38 131.529 132.301C131.409 132.222 131.272 132.171 131.13 132.153L126.012 131.848C125.883 131.838 125.762 131.781 125.674 131.688C125.584 131.594 125.533 131.47 125.531 131.341L125.521 128.486C125.522 128.357 125.572 128.233 125.66 128.137C125.747 128.043 125.868 127.985 125.997 127.975L131.113 127.631C131.255 127.611 131.391 127.559 131.511 127.48C131.63 127.4 131.731 127.293 131.803 127.169C132.1 126.624 132.463 126.115 132.883 125.657C132.926 125.615 132.959 125.564 132.979 125.508C133 125.452 133.007 125.391 133.002 125.332C132.996 125.272 132.978 125.214 132.947 125.162C132.916 125.111 132.875 125.066 132.825 125.033L129.778 122.862C129.731 122.837 129.691 122.798 129.664 122.751C129.637 122.703 129.624 122.649 129.627 122.595C129.629 122.541 129.647 122.488 129.679 122.443C129.709 122.399 129.753 122.364 129.803 122.343L133.634 120.112C133.765 120.045 133.908 120.006 134.055 120C134.202 119.992 134.348 120.017 134.485 120.07L138.384 121.858C138.667 121.97 138.979 121.987 139.274 121.908C140.263 121.597 141.271 121.353 142.293 121.178C142.429 121.149 142.554 121.082 142.653 120.985C142.752 120.888 142.821 120.764 142.853 120.629L143.331 118.062C143.359 117.932 143.431 117.814 143.533 117.729C143.636 117.643 143.763 117.594 143.898 117.589L149.544 117.567C149.678 117.569 149.808 117.617 149.914 117.702C150.018 117.787 150.091 117.905 150.121 118.037L150.618 120.6C150.651 120.735 150.722 120.857 150.822 120.953C150.922 121.05 151.047 121.116 151.183 121.145C152.208 121.311 153.221 121.547 154.216 121.851C154.511 121.927 154.822 121.908 155.105 121.794L158.991 119.976C159.125 119.923 159.268 119.899 159.412 119.905C159.556 119.911 159.696 119.947 159.826 120.011ZM140.266 126.118C136.691 128.2 136.704 131.555 140.294 133.61C143.884 135.665 149.695 135.641 153.27 133.56C156.844 131.477 156.832 128.124 153.241 126.069C149.649 124.014 143.841 124.037 140.266 126.118Z" fill="#E7E7F1"/>
<path d="M139.903 153.598C140.256 153.734 140.643 153.759 141.01 153.667L143.609 152.841C143.785 152.796 143.967 152.791 144.145 152.825C144.322 152.859 144.489 152.932 144.635 153.039L146.348 154.454C146.398 154.491 146.44 154.538 146.469 154.594C146.499 154.649 146.515 154.709 146.516 154.772L146.527 157.516C146.525 157.59 146.501 157.661 146.459 157.723C146.416 157.783 146.357 157.831 146.289 157.858L145.367 158.324L147.737 158.72C147.86 158.736 147.972 158.796 148.052 158.89C148.133 158.985 148.175 159.106 148.171 159.23H148.182L148.192 161.973C148.193 162.031 148.185 162.088 148.169 162.143L147.711 163.622C147.655 163.781 147.551 163.919 147.413 164.018C147.275 164.115 147.111 164.168 146.941 164.169L143.882 164.058C143.621 164.065 143.366 164.145 143.148 164.289L143.303 164.453C143.382 164.529 143.43 164.632 143.436 164.742L143.446 167.498C143.444 167.578 143.416 167.656 143.366 167.719C143.317 167.783 143.249 167.831 143.173 167.855L140.501 168.936C140.328 168.995 140.146 169.017 139.965 168.999C139.784 168.981 139.609 168.924 139.452 168.832L137.648 167.645C137.321 167.457 136.941 167.382 136.567 167.432C135.998 167.533 135.411 167.607 134.834 167.653C134.656 167.675 134.485 167.738 134.334 167.837C134.184 167.936 134.059 168.068 133.967 168.223L133.307 169.522C133.222 169.674 133.094 169.798 132.941 169.881C132.788 169.964 132.615 170.003 132.441 169.993L129.097 169.657C128.954 169.643 128.822 169.578 128.725 169.473C128.628 169.368 128.574 169.23 128.572 169.087V167.223C128.484 167.111 128.364 167.028 128.229 166.983C127.754 166.84 127.288 166.67 126.832 166.475C126.479 166.338 126.092 166.314 125.725 166.407L123.125 167.233C122.95 167.278 122.767 167.283 122.59 167.249C122.412 167.215 122.245 167.141 122.099 167.033L120.386 165.618C120.337 165.583 120.297 165.537 120.268 165.485C120.24 165.432 120.222 165.373 120.218 165.314L120.208 162.549C120.211 162.476 120.236 162.405 120.279 162.346C120.321 162.286 120.38 162.24 120.448 162.213L121.369 161.747L118.999 161.35C118.882 161.333 118.774 161.276 118.695 161.189C118.616 161.101 118.57 160.988 118.566 160.87L118.556 158.109H118.564C118.56 158.048 118.566 157.987 118.582 157.927L119.039 156.447C119.095 156.288 119.2 156.149 119.338 156.051C119.475 155.954 119.64 155.9 119.809 155.9L122.866 156.012C123.129 156.005 123.384 155.925 123.603 155.781L123.447 155.617C123.366 155.537 123.318 155.428 123.314 155.315L123.305 152.583V152.548C123.311 152.47 123.341 152.396 123.39 152.334C123.439 152.273 123.505 152.228 123.58 152.204L126.252 151.122C126.423 151.064 126.606 151.043 126.787 151.061C126.968 151.079 127.142 151.135 127.3 151.227L129.103 152.415C129.431 152.603 129.811 152.677 130.184 152.626C130.762 152.525 131.339 152.451 131.917 152.405C132.095 152.383 132.266 152.321 132.416 152.222C132.566 152.124 132.692 151.992 132.783 151.837L133.444 150.538C133.531 150.386 133.658 150.263 133.811 150.18C133.964 150.096 134.137 150.057 134.311 150.067L137.656 150.403C137.733 150.411 137.808 150.434 137.876 150.471C137.945 150.509 138.005 150.559 138.054 150.619C138.102 150.68 138.139 150.75 138.16 150.825C138.181 150.9 138.187 150.978 138.179 151.055L138.034 152.326C138.02 152.489 138.061 152.653 138.152 152.79C138.244 152.927 138.379 153.029 138.537 153.078C139.001 153.227 139.457 153.4 139.903 153.598ZM128.114 160.783C130.136 162.45 134.115 162.851 137.01 161.679C138.078 161.246 138.845 160.659 139.293 160.01C139.097 159.74 138.867 159.498 138.609 159.287C136.587 157.621 132.609 157.221 129.713 158.392C128.649 158.826 127.884 159.403 127.436 160.054C127.628 160.328 127.856 160.573 128.114 160.783Z" fill="#C0C0CC"/>
<g opacity="0.1">
<path opacity="0.1" d="M122.817 160.345C122.854 160.412 122.877 160.487 122.885 160.563C122.893 160.64 122.885 160.717 122.862 160.79C122.84 160.864 122.804 160.932 122.754 160.992C122.705 161.05 122.644 161.1 122.576 161.135L121.353 161.754L118.981 161.357C118.865 161.341 118.757 161.284 118.678 161.197C118.599 161.11 118.553 160.997 118.548 160.88L118.539 158.153C118.55 158.266 118.599 158.372 118.677 158.454C118.756 158.536 118.86 158.59 118.973 158.605L121.886 159.089C122.052 159.133 122.205 159.218 122.329 159.336C122.454 159.455 122.546 159.603 122.598 159.767C122.655 159.965 122.728 160.159 122.817 160.345ZM123.285 152.577C123.29 152.686 123.336 152.79 123.416 152.866L124.636 154.153C124.689 154.206 124.729 154.27 124.753 154.34C124.779 154.411 124.788 154.487 124.781 154.561C124.775 154.635 124.752 154.708 124.715 154.772C124.678 154.837 124.627 154.893 124.566 154.936C124.305 155.135 124.062 155.355 123.835 155.591C123.761 155.666 123.676 155.733 123.584 155.785L123.425 155.62C123.346 155.539 123.299 155.432 123.295 155.32L123.285 152.577Z" fill="black"/>
</g>
<g opacity="0.1">
<path opacity="0.1" d="M129.704 155.644C127.205 156.655 126.33 158.506 127.439 160.062C127.882 159.411 128.65 158.831 129.712 158.398C132.609 157.225 136.59 157.624 138.611 159.292C138.867 159.502 139.096 159.745 139.289 160.014C140.061 158.903 139.876 157.597 138.602 156.548C136.582 154.87 132.6 154.473 129.704 155.644Z" fill="black"/>
</g>
<g opacity="0.1">
<path opacity="0.1" d="M134.246 167.907C134.128 167.991 134.029 168.099 133.958 168.225L133.295 169.525C133.187 169.718 133.012 169.866 132.803 169.94L132.795 167.186C133.002 167.11 133.177 166.963 133.286 166.771L133.948 165.471C134.015 165.345 134.11 165.235 134.225 165.149L134.246 167.907ZM143.437 167.502C143.433 167.582 143.405 167.66 143.356 167.724C143.307 167.787 143.239 167.833 143.162 167.857L140.489 168.942C140.263 169.018 140.019 169.028 139.787 168.971L139.778 166.218C140.011 166.277 140.254 166.266 140.481 166.188L143.148 165.106C143.226 165.083 143.294 165.035 143.344 164.971C143.394 164.906 143.422 164.828 143.423 164.746L143.437 167.502ZM125.682 166.419L123.113 167.234C122.9 167.29 122.676 167.285 122.465 167.219V164.475C122.676 164.54 122.9 164.542 123.112 164.483L125.677 163.666L125.682 166.419ZM148.181 161.971C148.183 162.028 148.174 162.086 148.154 162.14L147.7 163.62C147.643 163.779 147.538 163.917 147.4 164.013C147.263 164.111 147.099 164.165 146.93 164.166L143.873 164.054C143.709 164.055 143.547 164.089 143.396 164.155L143.388 161.401C143.538 161.335 143.7 161.301 143.864 161.3L146.921 161.412C147.09 161.412 147.255 161.359 147.393 161.261C147.53 161.163 147.635 161.026 147.691 160.866L148.146 159.386C148.161 159.333 148.17 159.279 148.173 159.224L148.181 161.971ZM146.53 157.517C146.527 157.591 146.503 157.662 146.46 157.723C146.418 157.783 146.359 157.831 146.291 157.859L145.369 158.323L144.83 158.236C144.662 158.194 144.508 158.108 144.383 157.989C144.258 157.87 144.166 157.719 144.117 157.553C144.058 157.355 143.984 157.162 143.896 156.975C143.875 156.929 143.858 156.88 143.845 156.831C143.839 156.795 143.835 156.759 143.832 156.723C143.829 156.65 143.839 156.577 143.863 156.508C143.891 156.422 143.94 156.345 144.007 156.284C144.043 156.244 144.086 156.212 144.136 156.19L146.277 155.104C146.326 155.078 146.372 155.046 146.413 155.009C146.457 154.971 146.488 154.92 146.504 154.864C146.516 154.834 146.524 154.802 146.526 154.769L146.53 157.517Z" fill="black"/>
</g>
<path d="M134.246 167.907C134.128 167.991 134.029 168.099 133.958 168.225L133.295 169.525C133.187 169.718 133.012 169.866 132.803 169.94L132.795 167.186C133.002 167.11 133.177 166.963 133.286 166.771L133.948 165.471C134.015 165.345 134.11 165.235 134.225 165.149L134.246 167.907ZM143.437 167.502C143.433 167.583 143.405 167.66 143.356 167.724C143.307 167.787 143.239 167.834 143.162 167.857L140.489 168.942C140.263 169.018 140.019 169.028 139.787 168.971L139.778 166.218C140.011 166.277 140.254 166.266 140.481 166.188L143.148 165.106C143.226 165.083 143.294 165.036 143.344 164.971C143.394 164.907 143.422 164.828 143.423 164.746L143.437 167.502ZM125.682 166.419L123.113 167.235C122.9 167.29 122.676 167.285 122.465 167.219V164.475C122.676 164.54 122.9 164.542 123.112 164.483L125.677 163.667L125.682 166.419ZM148.181 161.971C148.183 162.029 148.174 162.086 148.154 162.14L147.7 163.62C147.643 163.779 147.538 163.917 147.4 164.014C147.263 164.111 147.099 164.165 146.93 164.166L143.873 164.055C143.709 164.055 143.547 164.089 143.396 164.155L143.388 161.401C143.538 161.335 143.7 161.302 143.864 161.301L146.921 161.412C147.09 161.412 147.255 161.36 147.393 161.262C147.53 161.163 147.635 161.026 147.691 160.866L148.146 159.386C148.161 159.333 148.17 159.279 148.173 159.225L148.181 161.971Z" fill="#E7E7F1"/>
<path d="M144.634 153.039L146.347 154.454C146.601 154.663 146.569 154.954 146.276 155.103L144.133 156.188C144.065 156.222 144.004 156.271 143.954 156.33C143.905 156.389 143.868 156.458 143.845 156.531C143.823 156.605 143.815 156.682 143.823 156.759C143.831 156.835 143.854 156.91 143.89 156.977C143.98 157.163 144.053 157.357 144.113 157.555C144.162 157.72 144.254 157.87 144.379 157.989C144.504 158.108 144.657 158.192 144.824 158.233L147.735 158.721C147.809 158.731 147.88 158.757 147.943 158.798C148.006 158.839 148.059 158.893 148.099 158.957C148.138 159.021 148.162 159.092 148.171 159.167C148.179 159.241 148.171 159.316 148.146 159.388L147.688 160.868C147.632 161.027 147.527 161.165 147.39 161.263C147.252 161.361 147.088 161.413 146.919 161.413L143.861 161.302C143.491 161.316 143.139 161.467 142.874 161.727C142.648 161.962 142.406 162.18 142.152 162.382C142.091 162.426 142.039 162.481 142.002 162.546C141.964 162.611 141.941 162.682 141.934 162.757C141.928 162.832 141.937 162.907 141.962 162.977C141.987 163.048 142.027 163.112 142.08 163.165L143.299 164.452C143.351 164.496 143.391 164.554 143.414 164.62C143.436 164.685 143.441 164.756 143.425 164.823C143.411 164.891 143.377 164.953 143.329 165.003C143.282 165.053 143.221 165.089 143.154 165.107L140.483 166.189C140.31 166.248 140.127 166.269 139.947 166.251C139.766 166.233 139.591 166.177 139.434 166.085L137.63 164.897C137.303 164.709 136.923 164.634 136.549 164.684C135.979 164.785 135.4 164.859 134.816 164.905C134.637 164.927 134.466 164.99 134.316 165.089C134.165 165.187 134.04 165.319 133.95 165.475L133.287 166.774C133.202 166.926 133.075 167.05 132.922 167.133C132.769 167.216 132.595 167.255 132.421 167.245L129.076 166.909C128.999 166.902 128.923 166.88 128.855 166.842C128.786 166.806 128.725 166.756 128.677 166.695C128.628 166.634 128.592 166.564 128.571 166.49C128.549 166.415 128.544 166.336 128.554 166.258L128.698 164.988C128.712 164.824 128.669 164.66 128.578 164.523C128.487 164.387 128.352 164.285 128.196 164.234C127.722 164.09 127.255 163.921 126.799 163.725C126.446 163.588 126.059 163.565 125.692 163.657L123.092 164.484C122.917 164.529 122.735 164.535 122.557 164.5C122.38 164.466 122.213 164.392 122.067 164.285L120.353 162.869C120.1 162.659 120.132 162.371 120.425 162.223L122.568 161.136C122.636 161.101 122.696 161.052 122.746 160.993C122.795 160.934 122.832 160.866 122.854 160.793C122.877 160.719 122.884 160.642 122.877 160.566C122.869 160.489 122.846 160.415 122.809 160.347C122.722 160.161 122.648 159.967 122.588 159.77C122.538 159.605 122.447 159.456 122.322 159.337C122.197 159.218 122.044 159.133 121.876 159.091L118.967 158.605C118.893 158.595 118.821 158.568 118.758 158.528C118.695 158.488 118.643 158.433 118.603 158.369C118.564 158.306 118.539 158.234 118.531 158.16C118.522 158.086 118.531 158.01 118.555 157.939L119.012 156.459C119.069 156.3 119.173 156.161 119.311 156.063C119.449 155.965 119.613 155.912 119.783 155.911L122.84 156.024C123.211 156.01 123.563 155.859 123.828 155.598C124.053 155.365 124.294 155.145 124.549 154.944C124.611 154.901 124.662 154.845 124.699 154.781C124.737 154.716 124.76 154.644 124.767 154.569C124.774 154.495 124.764 154.42 124.739 154.349C124.714 154.278 124.674 154.215 124.622 154.161L123.403 152.874C123.35 152.83 123.31 152.772 123.287 152.707C123.265 152.64 123.261 152.571 123.276 152.503C123.291 152.436 123.325 152.373 123.372 152.323C123.42 152.272 123.48 152.237 123.547 152.219L126.219 151.137C126.39 151.078 126.573 151.058 126.754 151.076C126.935 151.093 127.11 151.15 127.268 151.241L129.071 152.43C129.398 152.618 129.778 152.691 130.151 152.64C130.729 152.539 131.306 152.466 131.884 152.419C132.063 152.397 132.233 152.335 132.384 152.237C132.533 152.138 132.659 152.006 132.75 151.852L133.412 150.552C133.498 150.402 133.626 150.277 133.779 150.194C133.932 150.111 134.104 150.072 134.279 150.082L137.623 150.418C137.701 150.425 137.775 150.449 137.843 150.486C137.912 150.523 137.973 150.573 138.021 150.634C138.07 150.695 138.106 150.764 138.127 150.839C138.149 150.914 138.155 150.992 138.146 151.07L138.001 152.34C137.987 152.504 138.029 152.668 138.12 152.805C138.211 152.941 138.347 153.043 138.504 153.093C138.978 153.237 139.444 153.406 139.9 153.601C140.254 153.738 140.641 153.762 141.008 153.67L143.607 152.844C143.782 152.799 143.965 152.793 144.143 152.826C144.32 152.86 144.488 152.933 144.634 153.039ZM129.702 155.638C126.814 156.81 126.092 159.105 128.113 160.778C130.136 162.452 134.115 162.846 137.01 161.673C139.906 160.501 140.621 158.199 138.599 156.533C136.578 154.866 132.597 154.471 129.702 155.644V155.638Z" fill="#BA68C8"/>
<path d="M144.634 153.039L146.347 154.454C146.601 154.663 146.569 154.954 146.276 155.103L144.133 156.188C144.065 156.222 144.004 156.271 143.954 156.33C143.905 156.389 143.868 156.458 143.845 156.531C143.823 156.605 143.815 156.682 143.823 156.759C143.831 156.835 143.854 156.91 143.89 156.977C143.98 157.163 144.053 157.357 144.113 157.555C144.162 157.72 144.254 157.87 144.379 157.989C144.504 158.108 144.657 158.192 144.824 158.233L147.735 158.721C147.809 158.731 147.88 158.757 147.943 158.798C148.006 158.839 148.059 158.893 148.099 158.957C148.138 159.021 148.162 159.092 148.171 159.167C148.179 159.241 148.171 159.316 148.146 159.388L147.688 160.868C147.632 161.027 147.527 161.165 147.39 161.263C147.252 161.361 147.088 161.413 146.919 161.413L143.861 161.302C143.491 161.316 143.139 161.467 142.874 161.727C142.648 161.962 142.406 162.18 142.152 162.382C142.091 162.426 142.039 162.481 142.002 162.546C141.964 162.611 141.941 162.682 141.934 162.757C141.928 162.832 141.937 162.907 141.962 162.977C141.987 163.048 142.027 163.112 142.08 163.165L143.299 164.452C143.351 164.496 143.391 164.554 143.414 164.62C143.436 164.685 143.441 164.756 143.425 164.823C143.411 164.891 143.377 164.953 143.329 165.003C143.282 165.053 143.221 165.089 143.154 165.107L140.483 166.189C140.31 166.248 140.127 166.269 139.947 166.251C139.766 166.233 139.591 166.177 139.434 166.085L137.63 164.897C137.303 164.709 136.923 164.634 136.549 164.684C135.979 164.785 135.4 164.859 134.816 164.905C134.637 164.927 134.466 164.99 134.316 165.089C134.165 165.187 134.04 165.319 133.95 165.475L133.287 166.774C133.202 166.926 133.075 167.05 132.922 167.133C132.769 167.216 132.595 167.255 132.421 167.245L129.076 166.909C128.999 166.902 128.923 166.88 128.855 166.842C128.786 166.806 128.725 166.756 128.677 166.695C128.628 166.634 128.592 166.564 128.571 166.49C128.549 166.415 128.544 166.336 128.554 166.258L128.698 164.988C128.712 164.824 128.669 164.66 128.578 164.523C128.487 164.387 128.352 164.285 128.196 164.234C127.722 164.09 127.255 163.921 126.799 163.725C126.446 163.588 126.059 163.565 125.692 163.657L123.092 164.484C122.917 164.529 122.735 164.535 122.557 164.5C122.38 164.466 122.213 164.392 122.067 164.285L120.353 162.869C120.1 162.659 120.132 162.371 120.425 162.223L122.568 161.136C122.636 161.101 122.696 161.052 122.746 160.993C122.795 160.934 122.832 160.866 122.854 160.793C122.877 160.719 122.884 160.642 122.877 160.566C122.869 160.489 122.846 160.415 122.809 160.347C122.722 160.161 122.648 159.967 122.588 159.77C122.538 159.605 122.447 159.456 122.322 159.337C122.197 159.218 122.044 159.133 121.876 159.091L118.967 158.605C118.893 158.595 118.821 158.568 118.758 158.528C118.695 158.488 118.643 158.433 118.603 158.369C118.564 158.306 118.539 158.234 118.531 158.16C118.522 158.086 118.531 158.01 118.555 157.939L119.012 156.459C119.069 156.3 119.173 156.161 119.311 156.063C119.449 155.965 119.613 155.912 119.783 155.911L122.84 156.024C123.211 156.01 123.563 155.859 123.828 155.598C124.053 155.365 124.294 155.145 124.549 154.944C124.611 154.901 124.662 154.845 124.699 154.781C124.737 154.716 124.76 154.644 124.767 154.569C124.774 154.495 124.764 154.42 124.739 154.349C124.714 154.278 124.674 154.215 124.622 154.161L123.403 152.874C123.35 152.83 123.31 152.772 123.287 152.707C123.265 152.64 123.261 152.571 123.276 152.503C123.291 152.436 123.325 152.373 123.372 152.323C123.42 152.272 123.48 152.237 123.547 152.219L126.219 151.137C126.39 151.078 126.573 151.058 126.754 151.076C126.935 151.093 127.11 151.15 127.268 151.241L129.071 152.43C129.398 152.618 129.778 152.691 130.151 152.64C130.729 152.539 131.306 152.466 131.884 152.419C132.063 152.397 132.233 152.335 132.384 152.237C132.533 152.138 132.659 152.006 132.75 151.852L133.412 150.552C133.498 150.402 133.626 150.277 133.779 150.194C133.932 150.111 134.104 150.072 134.279 150.082L137.623 150.418C137.701 150.425 137.775 150.449 137.843 150.486C137.912 150.523 137.973 150.573 138.021 150.634C138.07 150.695 138.106 150.764 138.127 150.839C138.149 150.914 138.155 150.992 138.146 151.07L138.001 152.34C137.987 152.504 138.029 152.668 138.12 152.805C138.211 152.941 138.347 153.043 138.504 153.093C138.978 153.237 139.444 153.406 139.9 153.601C140.254 153.738 140.641 153.762 141.008 153.67L143.607 152.844C143.782 152.799 143.965 152.793 144.143 152.826C144.32 152.86 144.488 152.933 144.634 153.039ZM129.702 155.638C126.814 156.81 126.092 159.105 128.113 160.778C130.136 162.452 134.115 162.846 137.01 161.673C139.906 160.501 140.621 158.199 138.599 156.533C136.578 154.866 132.597 154.471 129.702 155.644V155.638Z" fill="#E7E7F1"/>
<path d="M115.825 4.93068C115.82 4.86311 115.808 4.79625 115.789 4.73139C115.797 4.71695 115.789 4.70395 115.789 4.68951C115.782 4.6235 115.765 4.55884 115.74 4.49744C115.712 4.39944 115.669 4.30637 115.613 4.22162C115.596 4.17994 115.572 4.14139 115.542 4.10753C115.525 4.0787 115.502 4.05246 115.477 4.02955C115.437 3.97418 115.388 3.92545 115.332 3.88514L115.318 3.8707C115.261 3.82874 115.2 3.79292 115.135 3.76384C114.745 3.58043 114.241 3.62954 113.681 3.94868L4.92594 66.5235C3.73455 67.2109 2.75978 68.8918 2.75978 71.2977V152.655C2.75978 151.629 2.75978 151.635 2.75978 151.643V152.116C2.75869 152.383 2.83063 152.646 2.96782 152.874C3.10502 153.104 3.30224 153.291 3.53815 153.416L3.63058 153.478C3.66523 153.498 3.70134 153.519 3.74322 153.541C3.80224 153.57 3.86425 153.591 3.92806 153.605C4.01884 153.627 4.11188 153.638 4.20533 153.639C4.46027 153.638 4.71008 153.568 4.92739 153.434L4.98371 153.401L7.04446 152.211L113.677 90.8251C114.867 90.1374 115.842 88.4638 115.842 87.0808V5.19928C115.84 5.10831 115.832 5.01589 115.825 4.93068Z" fill="#E7E7F1"/>
<path d="M115.131 3.76682C114.741 3.58342 114.237 3.63252 113.676 3.95167L4.92587 66.5236C3.73447 67.211 2.7597 68.892 2.7597 70.2682V74.4562L0 72.8416V68.6999C0 67.3251 0.967555 65.6514 2.16617 64.9625L110.918 2.38769C111.534 2.02522 112.088 2.018 112.485 2.25917C112.882 2.50034 114.67 3.5271 115.131 3.76682Z" fill="#BA68C8"/>
<path d="M115.834 5.18499C115.827 3.82031 114.863 3.26866 113.677 3.95461L4.92495 66.5252C3.73067 67.214 2.75879 68.8892 2.75879 70.2669V74.4547L115.832 9.39743L115.834 5.18499Z" fill="#377DF7"/>
<path d="M113.675 3.95455L4.93286 66.5251C4.29719 66.9207 3.77245 67.4712 3.40788 68.1251L0.664062 66.5366C1.02245 65.8922 1.53939 65.3499 2.16594 64.9611L110.915 2.38768C111.533 2.02666 112.084 2.02088 112.485 2.25916C112.884 2.49744 114.667 3.51554 115.121 3.76104C114.741 3.58052 114.229 3.63395 113.675 3.95455Z" fill="#5996FF"/>
<path d="M0 72.8518V68.6984C0 67.9996 0.257052 67.224 0.657071 66.5323L3.40088 68.1209C3.00323 68.7669 2.78167 69.5057 2.75826 70.2639V74.4518L0 72.8518Z" fill="#256BE8"/>
<path d="M6.30412 68.053C5.85067 68.3159 5.48242 69.0928 5.48242 69.7859C5.48242 70.4791 5.85067 70.8373 6.30412 70.5759C6.75757 70.3145 7.12438 69.5361 7.12438 68.8429C7.12438 68.1498 6.75757 67.7917 6.30412 68.053Z" fill="#F75252"/>
<path d="M9.25923 66.3432C8.80575 66.606 8.4375 67.3843 8.4375 68.0761C8.4375 68.7678 8.80575 69.1274 9.25923 68.8661C9.71262 68.6047 10.0795 67.8263 10.0795 67.1331C10.0795 66.4399 9.71262 66.0818 9.25923 66.3432Z" fill="#F7CF52"/>
<path d="M12.2162 64.629C11.7628 64.8918 11.3945 65.6701 11.3945 66.3619C11.3945 67.0536 11.7628 67.4132 12.2162 67.1519C12.6696 66.8905 13.0365 66.1121 13.0365 65.4189C13.0365 64.7257 12.6696 64.3719 12.2162 64.629Z" fill="#80BA27"/>
<path d="M3.5396 153.422L3.42696 153.358L1.15538 152.041C0.851927 151.866 0.592495 151.625 0.396989 151.334C0.201481 151.044 0.0750925 150.713 0.0275211 150.366C0.0131228 150.261 0.00588544 150.155 0.00585938 150.05V72.843L2.767 74.4619V152.11C2.76368 152.356 2.82392 152.598 2.94184 152.813C3.05977 153.028 3.23137 153.208 3.43996 153.337C3.46215 153.356 3.48582 153.372 3.51072 153.387C3.51794 153.394 3.51794 153.4 3.52372 153.4L3.5396 153.422Z" fill="#D5D5DE"/>
<path d="M6.56057 134.593L111.919 74.784C112.091 74.6847 112.286 74.6323 112.485 74.6323C112.684 74.6323 112.878 74.6847 113.051 74.784C113.223 74.8834 113.366 75.0264 113.465 75.1985C113.564 75.3706 113.617 75.5659 113.617 75.7646V83.9339C113.617 84.4315 113.486 84.9204 113.238 85.3511C112.989 85.782 112.631 86.1399 112.2 86.3889L6.83351 146.249C6.66118 146.348 6.46575 146.401 6.26684 146.401C6.06793 146.401 5.87255 146.348 5.70031 146.248C5.52809 146.149 5.38507 146.005 5.28562 145.834C5.18618 145.661 5.13382 145.466 5.13379 145.267L5.14245 137.044C5.14315 136.547 5.27454 136.06 5.52345 135.629C5.77236 135.198 6.13003 134.841 6.56057 134.593Z" fill="#377DF7"/>
<g opacity="0.5">
<path opacity="0.5" d="M112.579 25.5947L112.561 17.3892C112.56 17.1908 112.507 16.9961 112.408 16.8245C112.308 16.6528 112.166 16.5102 111.995 16.4109C111.822 16.3117 111.627 16.2592 111.429 16.2589C111.231 16.2585 111.036 16.3101 110.864 16.4087L46.9762 53.0761C46.5438 53.3237 46.1845 53.6812 45.9347 54.1123C45.685 54.5434 45.5535 55.0328 45.5537 55.5311V63.9763C45.5537 64.175 45.606 64.3702 45.7053 64.5424C45.8047 64.7145 45.9477 64.8575 46.1197 64.9568C46.2919 65.0562 46.4871 65.1086 46.6859 65.1086C46.8846 65.1086 47.0799 65.0562 47.252 64.9568L111.162 28.054C111.594 27.8046 111.952 27.446 112.201 27.0143C112.449 26.5826 112.58 26.0929 112.579 25.5947Z" fill="#377DF7"/>
<path opacity="0.5" d="M101.286 26.6287C101.251 26.6285 101.215 26.6165 101.186 26.5943C101.157 26.5722 101.137 26.5412 101.127 26.5061C101.117 26.471 101.12 26.4338 101.133 26.4001C101.147 26.3664 101.172 26.3382 101.203 26.3197L103.988 24.7124C104.027 24.6905 104.072 24.6848 104.114 24.6965C104.158 24.7081 104.193 24.7362 104.215 24.7744C104.237 24.8128 104.243 24.8582 104.231 24.9007C104.22 24.9432 104.192 24.9794 104.153 25.0012L101.369 26.6099C101.343 26.623 101.315 26.6295 101.286 26.6287Z" fill="white"/>
<path opacity="0.5" d="M101.286 27.8519C101.251 27.8517 101.215 27.8396 101.186 27.8174C101.157 27.7953 101.137 27.7643 101.127 27.7292C101.117 27.6941 101.12 27.6569 101.133 27.6232C101.147 27.5896 101.172 27.5613 101.203 27.5428L103.988 25.9355C104.007 25.9247 104.028 25.9177 104.05 25.915C104.072 25.9122 104.094 25.9139 104.115 25.9196C104.135 25.9253 104.156 25.9352 104.173 25.9486C104.19 25.962 104.204 25.9786 104.215 25.9976C104.226 26.0165 104.233 26.0375 104.236 26.0591C104.238 26.0808 104.237 26.1027 104.232 26.1238C104.226 26.1449 104.215 26.1646 104.202 26.1819C104.189 26.199 104.172 26.2135 104.153 26.2243L101.369 27.8331C101.343 27.8462 101.315 27.8526 101.286 27.8519Z" fill="white"/>
<path opacity="0.5" d="M101.286 29.0749C101.251 29.0748 101.215 29.0627 101.186 29.0406C101.157 29.0184 101.137 28.9874 101.127 28.9524C101.117 28.9173 101.12 28.88 101.133 28.8464C101.147 28.8127 101.172 28.7844 101.203 28.766L103.988 27.1586C104.027 27.1368 104.072 27.1311 104.114 27.1427C104.158 27.1544 104.193 27.1824 104.215 27.2207C104.237 27.259 104.243 27.3045 104.231 27.347C104.22 27.3895 104.192 27.4256 104.153 27.4474L101.369 29.0562C101.343 29.0692 101.315 29.0757 101.286 29.0749Z" fill="white"/>
<path opacity="0.5" d="M108.534 24.8928C108.483 24.8933 108.434 24.8736 108.398 24.838L106.834 23.3274C106.795 23.291 106.772 23.241 106.772 23.1881C106.77 23.1353 106.789 23.0841 106.826 23.0458C106.863 23.0075 106.913 22.9853 106.965 22.9839C107.018 22.9826 107.069 23.0022 107.108 23.0386L108.672 24.5449C108.7 24.5727 108.72 24.6085 108.727 24.6476C108.735 24.6867 108.732 24.7273 108.716 24.7639C108.7 24.8006 108.674 24.8317 108.64 24.8532C108.607 24.8747 108.567 24.8854 108.528 24.8842L108.534 24.8928Z" fill="white"/>
<path opacity="0.5" d="M106.97 25.7968C106.937 25.7972 106.903 25.789 106.875 25.7731C106.845 25.7572 106.82 25.734 106.802 25.7059C106.784 25.6777 106.773 25.6454 106.772 25.612C106.77 25.5786 106.777 25.5453 106.791 25.5152L108.356 22.2024C108.381 22.1588 108.421 22.1262 108.469 22.1111C108.517 22.0959 108.568 22.0994 108.614 22.1208C108.659 22.1422 108.694 22.18 108.712 22.2265C108.731 22.273 108.731 22.3247 108.713 22.3714L107.153 25.6842C107.137 25.7188 107.111 25.7479 107.079 25.7678C107.046 25.7879 107.008 25.7979 106.97 25.7968Z" fill="white"/>
<g opacity="0.6">
<path opacity="0.6" d="M96.9593 30.3141C96.9593 31.6672 95.9486 33.3467 94.6991 34.0688L52.5905 58.275C51.3414 58.997 50.3291 58.4843 50.3291 57.1312C50.3291 55.7781 51.3399 54.0986 52.5905 53.3765L94.6982 29.1703C95.9469 28.4497 96.9593 28.9595 96.9593 30.3141Z" fill="#FAFAFA"/>
</g>
<path opacity="0.5" d="M51.5297 58.8598C51.2769 58.8641 51.0275 58.8003 50.8077 58.675C50.3283 58.3992 50.0654 57.849 50.0654 57.1269C50.0654 55.6928 51.1384 53.9065 52.4569 53.1455L94.569 28.945C95.2906 28.5319 95.9638 28.4685 96.4781 28.766C96.9575 29.0418 97.2218 29.592 97.2218 30.314C97.2218 31.7726 96.1712 33.5199 94.8299 34.2955L52.7212 58.4973C52.3624 58.7199 51.9517 58.8449 51.5297 58.8598ZM95.7615 29.1038C95.4309 29.1179 95.1104 29.2174 94.8299 29.3927L52.7212 53.5989C51.5471 54.2762 50.5911 55.8589 50.5911 57.1269C50.5911 57.654 50.7615 58.0439 51.0734 58.223C51.4157 58.4208 51.9211 58.3558 52.4612 58.0439L94.569 33.842C95.7445 33.1647 96.6991 31.5819 96.6991 30.314C96.6991 29.7869 96.5282 29.397 96.218 29.2179C96.0786 29.1404 95.9213 29.101 95.7615 29.1038Z" fill="#FAFAFA"/>
<path opacity="0.5" d="M95.2192 32.4079L94.7168 32.2519C94.7695 32.0402 94.7967 31.823 94.7976 31.605C94.7976 31.0922 94.6318 30.7009 94.3403 30.5334C94.2264 30.4722 94.0989 30.4433 93.9697 30.4497C93.8413 30.456 93.7164 30.4975 93.6093 30.5695C93.0466 30.8944 92.5986 31.81 92.5986 32.6562C92.5986 33.1689 92.7661 33.5602 93.0568 33.7277C93.1528 33.7835 93.2625 33.8129 93.3738 33.8129C93.52 33.8096 93.6628 33.7683 93.7886 33.6931C94.1261 33.4967 94.4185 33.0866 94.5987 32.6071L95.101 32.7645C95.1197 32.7702 95.1384 32.7731 95.1571 32.7732C95.203 32.774 95.2464 32.7585 95.2812 32.7293C95.3161 32.7001 95.339 32.6594 95.345 32.6146C95.3518 32.5699 95.3424 32.5242 95.3178 32.4862C95.2931 32.4482 95.2557 32.4203 95.2124 32.4079H95.2192ZM93.6093 33.3696C93.5583 33.4081 93.4979 33.4319 93.435 33.4382C93.3713 33.4446 93.3075 33.4334 93.2497 33.4057C93.0823 33.3089 92.9786 33.0216 92.9786 32.6562C92.9786 31.9558 93.3526 31.1471 93.7954 30.8915C93.8634 30.8482 93.9408 30.8238 94.0207 30.8207C94.0674 30.8204 94.1133 30.8324 94.1541 30.8554C94.3216 30.9522 94.4253 31.2395 94.4253 31.605C94.4253 32.3067 94.0513 33.114 93.6093 33.3696Z" fill="#FAFAFA"/>
</g>
<g opacity="0.7">
<path opacity="0.7" d="M83.5919 86.8683L111.531 70.7374C112.22 70.3399 112.792 69.768 113.19 69.0793C113.588 68.3905 113.797 67.6091 113.797 66.8137V33.6628C113.797 33.3646 113.718 33.0716 113.57 32.8134C113.421 32.5551 113.206 32.3406 112.948 32.1915C112.69 32.0423 112.397 31.9637 112.099 31.9637C111.801 31.9637 111.508 32.0421 111.249 32.1912L83.3088 48.3219C82.6201 48.7196 82.0481 49.2915 81.6503 49.9803C81.2526 50.669 81.0431 51.4503 81.043 52.2456V85.397C81.0431 85.6945 81.1218 85.9877 81.2709 86.2461C81.4201 86.5045 81.6346 86.7187 81.8929 86.8675C82.1511 87.0171 82.4441 87.0953 82.7423 87.0953C83.0406 87.0953 83.3336 87.0171 83.5919 86.8683Z" fill="#377DF7"/>
<path opacity="0.7" d="M83.9043 66.0325C83.9043 66.3213 84.1194 66.4282 84.3837 66.2751L86.7467 64.9177C86.8835 64.8316 86.9983 64.7145 87.0824 64.5758C87.1657 64.4371 87.2151 64.2806 87.227 64.119C87.227 63.8302 87.0119 63.7233 86.7475 63.8764L84.3837 65.2412C84.2475 65.3264 84.1332 65.4424 84.0499 65.5799C83.9667 65.7172 83.9168 65.8723 83.9043 66.0325Z" fill="white"/>
<path opacity="0.7" d="M87.8896 63.7306C87.8896 64.0195 88.1047 64.1264 88.3707 63.9733L90.7346 62.6071C90.8714 62.5212 90.9862 62.4043 91.0695 62.2658C91.1536 62.1274 91.2029 61.9712 91.2157 61.81C91.2157 61.5211 90.9998 61.4143 90.7346 61.5674L88.3707 62.932C88.233 63.0179 88.1183 63.1349 88.0341 63.2737C87.9508 63.4125 87.9015 63.569 87.8896 63.7306Z" fill="white"/>
<path opacity="0.7" d="M91.8779 61.4273C91.8779 61.7161 92.093 61.8231 92.3573 61.67L94.7229 60.3067C94.8597 60.2206 94.9736 60.1037 95.0569 59.9652C95.1402 59.8267 95.1904 59.6707 95.2023 59.5095C95.2023 59.2208 94.9872 59.1124 94.7229 59.2655L92.359 60.6302C92.2213 60.7158 92.1066 60.8327 92.0224 60.9712C91.9391 61.1097 91.8898 61.266 91.8779 61.4273Z" fill="white"/>
<path opacity="0.7" d="M95.8652 59.1255C95.8652 59.4142 96.0803 59.5212 96.3455 59.3681L98.7102 58.0034C98.847 57.9177 98.9618 57.8009 99.0459 57.6623C99.1292 57.5238 99.1794 57.3675 99.1904 57.2062C99.1904 56.9174 98.9754 56.8105 98.7102 56.9636L96.3455 58.3283C96.2086 58.414 96.0939 58.5308 96.0097 58.6693C95.9264 58.8079 95.8771 58.9642 95.8652 59.1255Z" fill="white"/>
<path opacity="0.7" d="M99.8545 56.822C99.8545 57.1107 100.07 57.2177 100.334 57.0646L102.699 55.7014C102.835 55.6152 102.95 55.4983 103.033 55.3598C103.117 55.2214 103.166 55.0653 103.179 54.9042C103.179 54.6154 102.963 54.507 102.699 54.6601L100.335 56.0248C100.198 56.1105 100.083 56.2273 99.999 56.3659C99.9157 56.5043 99.8655 56.6607 99.8545 56.822Z" fill="white"/>
<path opacity="0.7" d="M103.841 54.5201C103.841 54.8089 104.056 54.9158 104.322 54.7627L106.686 53.398C106.823 53.3123 106.938 53.1955 107.022 53.057C107.105 52.9185 107.155 52.7621 107.167 52.6008C107.167 52.3121 106.952 52.2051 106.686 52.3582L104.322 53.7229C104.184 53.8086 104.069 53.9254 103.986 54.0639C103.902 54.2025 103.853 54.3588 103.841 54.5201Z" fill="white"/>
<path opacity="0.7" d="M107.83 52.2169C107.83 52.5057 108.045 52.6125 108.309 52.4594L110.675 51.0962C110.812 51.0101 110.927 50.8931 111.009 50.7547C111.092 50.6162 111.143 50.4602 111.154 50.299C111.154 50.0102 110.939 49.9019 110.675 50.055L108.309 51.4196C108.173 51.5055 108.058 51.6225 107.975 51.7609C107.891 51.8995 107.842 52.0556 107.83 52.2169Z" fill="white"/>
<g opacity="0.5">
<path opacity="0.5" d="M84.3066 68.7663L87.2093 67.0969V69.7107L84.3066 71.422V68.7663Z" fill="white"/>
</g>
<g opacity="0.5">
<path opacity="0.5" d="M84.3066 72.4372L87.2093 70.7678V73.3816L84.3066 75.0929V72.4372Z" fill="white"/>
</g>
<g opacity="0.5">
<path opacity="0.5" d="M84.3066 76.1096L87.2093 74.4402V77.054L84.3066 78.7653V76.1096Z" fill="white"/>
</g>
<path opacity="0.7" d="M84.3066 76.1096L87.2097 74.4402V77.054L84.3066 78.7653V76.1096Z" fill="white"/>
<g opacity="0.5">
<path opacity="0.5" d="M84.3066 79.7807L87.2093 78.1113V80.7251L84.3066 82.4379V79.7807Z" fill="white"/>
</g>
<path opacity="0.7" d="M88.2988 66.4614L91.1999 64.7921V67.4059L88.2988 69.1172V66.4614Z" fill="white"/>
<g opacity="0.5">
<path opacity="0.5" d="M88.2988 70.1339L91.1999 68.4645V71.0784L88.2988 72.7897V70.1339Z" fill="white"/>
</g>
<g opacity="0.5">
<path opacity="0.5" d="M88.2988 73.8047L91.1999 72.1353V74.7492L88.2988 76.4604V73.8047Z" fill="white"/>
</g>
<path opacity="0.7" d="M88.2988 73.8047L91.1999 72.1353V74.7492L88.2988 76.4604V73.8047Z" fill="white"/>
<g opacity="0.5">
<path opacity="0.5" d="M88.2988 77.4772L91.1999 75.8078V78.4216L88.2988 80.1328V77.4772Z" fill="white"/>
</g>
<path opacity="0.7" d="M92.29 64.1582L95.1911 62.4888V65.1027L92.29 66.8139V64.1582Z" fill="white"/>
<g opacity="0.5">
<path opacity="0.5" d="M92.29 67.8292L95.1911 66.1598V68.7737L92.29 70.4849V67.8292Z" fill="white"/>
</g>
<g opacity="0.5">
<path opacity="0.5" d="M92.29 71.5015L95.1911 69.8321V72.4459L92.29 74.1572V71.5015Z" fill="white"/>
</g>
<path opacity="0.7" d="M92.29 71.5015L95.1911 69.8321V72.4459L92.29 74.1572V71.5015Z" fill="white"/>
<g opacity="0.5">
<path opacity="0.5" d="M92.29 75.1724L95.1911 73.503V76.1168L92.29 77.8281V75.1724Z" fill="white"/>
</g>
<g opacity="0.5">
<path opacity="0.5" d="M96.2803 61.8534L99.1813 60.184V62.7978L96.2803 64.5091V61.8534Z" fill="white"/>
</g>
<g opacity="0.5">
<path opacity="0.5" d="M96.2803 65.5258L99.1813 63.8564V66.4703L96.2803 68.1816V65.5258Z" fill="white"/>
</g>
<g opacity="0.5">
<path opacity="0.5" d="M96.2803 69.1966L99.1813 67.5272V70.1412L96.2803 71.8524V69.1966Z" fill="white"/>
</g>
<g opacity="0.5">
<path opacity="0.5" d="M96.2803 72.8691L99.1813 71.1997V73.8136L96.2803 75.5249V72.8691Z" fill="white"/>
</g>
<g opacity="0.5">
<path opacity="0.5" d="M100.271 59.5485L103.173 57.8805V60.4943L100.271 62.2056V59.5485Z" fill="white"/>
</g>
<g opacity="0.8">
<path opacity="0.8" d="M100.271 63.2208L103.173 61.5515V64.1653L100.271 65.8765V63.2208Z" fill="white"/>
</g>
<g opacity="0.5">
<path opacity="0.5" d="M100.271 66.8932L103.173 65.2238V67.8376L100.271 69.549V66.8932Z" fill="white"/>
</g>
<path opacity="0.7" d="M100.271 70.5644L103.173 68.895V71.5088L100.271 73.22V70.5644Z" fill="white"/>
<g opacity="0.5">
<path opacity="0.5" d="M104.262 57.2452L107.164 55.5758V58.1896L104.262 59.9009V57.2452Z" fill="white"/>
</g>
<g opacity="0.5">
<path opacity="0.5" d="M104.262 60.9175L107.164 59.2481V61.8619L104.262 63.5732V60.9175Z" fill="white"/>
</g>
<g opacity="0.8">
<path opacity="0.8" d="M104.262 60.9175L107.164 59.2481V61.8619L104.262 63.5732V60.9175Z" fill="white"/>
</g>
<g opacity="0.5">
<path opacity="0.5" d="M104.262 64.5886L107.164 62.9192V65.5331L104.262 67.2444V64.5886Z" fill="white"/>
</g>
<g opacity="0.5">
<path opacity="0.5" d="M104.262 68.2593L107.164 66.5914V69.2052L104.262 70.9164V68.2593Z" fill="white"/>
</g>
<g opacity="0.5">
<path opacity="0.5" d="M108.252 54.9403L111.154 53.2723V55.8848L108.252 57.5976V54.9403Z" fill="white"/>
</g>
<g opacity="0.5">
<path opacity="0.5" d="M108.252 58.6128L111.154 56.9434V59.5572L108.252 61.2685V58.6128Z" fill="white"/>
</g>
<g opacity="0.8">
<path opacity="0.8" d="M108.252 58.6128L111.154 56.9434V59.5572L108.252 61.2685V58.6128Z" fill="white"/>
</g>
<g opacity="0.5">
<path opacity="0.5" d="M108.252 62.2837L111.154 60.6157V63.2296L108.252 64.9408V62.2837Z" fill="white"/>
</g>
<g opacity="0.5">
<path opacity="0.5" d="M108.252 65.956L111.154 64.2866V66.9004L108.252 68.6117V65.956Z" fill="white"/>
</g>
<path opacity="0.7" d="M96.2917 49.1193C96.2976 49.1151 96.3053 49.1129 96.3121 49.1129C96.3197 49.1129 96.3274 49.1151 96.3333 49.1193C96.3393 49.125 96.3444 49.132 96.3469 49.1398C96.3503 49.1475 96.3512 49.1558 96.3503 49.1641V49.3706C96.3503 49.3947 96.3444 49.4183 96.3333 49.4399C96.3231 49.4645 96.3129 49.4875 96.3027 49.5063L95.984 50.1374C96.0401 50.1134 96.1004 50.1002 96.1616 50.0984C96.2126 50.0966 96.2636 50.1112 96.3061 50.1403C96.3461 50.1727 96.3767 50.2164 96.3928 50.2659C96.4141 50.3334 96.4251 50.4043 96.4226 50.4753C96.4217 50.5732 96.4073 50.6705 96.3784 50.7641C96.3486 50.8595 96.307 50.9507 96.2543 51.0356C96.2007 51.12 96.137 51.198 96.0664 51.2681C95.9959 51.3375 95.9177 51.3977 95.8318 51.4472C95.7511 51.4974 95.6618 51.5331 95.5683 51.5526C95.5054 51.5644 95.44 51.559 95.3805 51.5367C95.3312 51.5162 95.2904 51.4788 95.2657 51.4313C95.2394 51.3812 95.2241 51.3261 95.2198 51.2695C95.219 51.2473 95.2241 51.2252 95.2343 51.2054C95.2453 51.1856 95.2606 51.1689 95.2793 51.1569L95.451 51.0573C95.4561 51.0538 95.4629 51.0519 95.4689 51.0519C95.4757 51.0519 95.4816 51.0538 95.4867 51.0573C95.4986 51.0681 95.5088 51.0808 95.5156 51.0948C95.5241 51.1119 95.536 51.1271 95.5505 51.1396C95.5666 51.153 95.587 51.1611 95.6083 51.1627C95.6397 51.1641 95.6703 51.1592 95.6992 51.1482C95.8395 51.1011 95.961 51.0112 96.0477 50.8912C96.0996 50.8189 96.1285 50.7321 96.1293 50.6428C96.1293 50.5547 96.1004 50.5085 96.0477 50.4984C95.9704 50.4977 95.8956 50.5209 95.8318 50.5648L95.6516 50.6688C95.6457 50.6733 95.638 50.6758 95.6304 50.6758C95.6236 50.6758 95.6159 50.6733 95.61 50.6688C95.6032 50.6633 95.5989 50.6563 95.5955 50.6485C95.593 50.6407 95.5913 50.6324 95.5921 50.624V50.4175C95.593 50.3936 95.5989 50.3701 95.6083 50.3482L95.6397 50.2817L95.9449 49.6782L95.3439 50.0262C95.338 50.0303 95.3303 50.0325 95.3235 50.0325C95.3159 50.0325 95.3082 50.0303 95.3023 50.0262C95.2963 50.0203 95.2912 50.0131 95.2878 50.0051C95.2853 49.9971 95.2844 49.9885 95.2844 49.98V49.7734C95.2853 49.7508 95.2912 49.7285 95.3023 49.7085C95.3116 49.6894 95.3261 49.6733 95.3439 49.6623L96.2917 49.1193Z" fill="white"/>
<path opacity="0.7" d="M97.8107 49.0007C97.8107 49.0368 97.8107 49.0772 97.8107 49.122V49.3949C97.8107 49.4383 97.8107 49.4801 97.8107 49.5177C97.8064 49.6302 97.7937 49.7423 97.7716 49.8528C97.7512 49.9589 97.7172 50.0622 97.6721 50.1604C97.6262 50.2583 97.5659 50.3488 97.4928 50.429C97.4154 50.5141 97.3245 50.5867 97.2242 50.6441C97.1434 50.6971 97.0508 50.7299 96.9539 50.7394C96.9216 50.7421 96.8893 50.7379 96.8587 50.7272C96.8281 50.7166 96.8 50.6995 96.7771 50.6773C96.7261 50.6239 96.6912 50.5574 96.6759 50.4852C96.6538 50.3905 96.6411 50.2937 96.6377 50.1964C96.6377 50.1242 96.6377 50.0419 96.6377 49.9466C96.6377 49.8513 96.6377 49.769 96.6377 49.6939C96.6428 49.5805 96.6547 49.4675 96.6759 49.3559C96.6963 49.2482 96.7303 49.1434 96.7771 49.044C96.8221 48.9448 96.8816 48.8528 96.9539 48.771C97.0312 48.6835 97.1222 48.6098 97.2242 48.553C97.3049 48.5001 97.3967 48.4673 97.4928 48.4577C97.5251 48.4547 97.5582 48.4587 97.5888 48.4694C97.6203 48.4801 97.6483 48.4973 97.6721 48.5198C97.7223 48.5732 97.7571 48.6397 97.7716 48.7119C97.7945 48.8065 97.8081 48.9033 97.8107 49.0007ZM96.9326 50.0116C96.9284 50.1104 96.9547 50.2081 97.0074 50.2918C97.0499 50.3437 97.1222 50.3408 97.2242 50.2817C97.3211 50.2281 97.3976 50.1437 97.4409 50.0419C97.4877 49.9245 97.5132 49.7999 97.5157 49.6737C97.5157 49.5986 97.5157 49.5162 97.5157 49.4267C97.5157 49.3386 97.5157 49.2578 97.5157 49.1855C97.52 49.0867 97.4936 48.9892 97.4409 48.9054C97.3976 48.8534 97.3253 48.8577 97.2242 48.9155C97.1273 48.9686 97.0508 49.0531 97.0074 49.1552C96.9615 49.2726 96.936 49.3972 96.9326 49.5235C96.9326 49.5986 96.9326 49.6809 96.9326 49.7704C96.9326 49.86 96.9284 49.9379 96.9326 50.0102V50.0116Z" fill="white"/>
<path opacity="0.7" d="M98.3446 47.9163C98.3879 47.8879 98.4381 47.871 98.4891 47.8672C98.5239 47.8648 98.5579 47.8734 98.5877 47.8917C98.6157 47.912 98.637 47.9402 98.6497 47.9726C98.6633 48.0107 98.6718 48.0506 98.6744 48.091C98.6744 48.1401 98.6744 48.1921 98.6744 48.2498C98.6744 48.3076 98.6744 48.3611 98.6744 48.413C98.6701 48.4618 98.6625 48.5102 98.6497 48.5574C98.6344 48.6078 98.6132 48.6561 98.5877 48.7019C98.5613 48.754 98.5282 48.8025 98.4891 48.8463C98.4466 48.8902 98.3981 48.9277 98.3446 48.9575C98.3012 48.9849 98.2519 49.0022 98.2001 49.008C98.1661 49.0105 98.1312 49.0018 98.1023 48.9835C98.0743 48.9635 98.053 48.9352 98.042 48.9026C98.0267 48.8647 98.0182 48.8248 98.0156 48.7842C98.0156 48.7351 98.0156 48.6831 98.0156 48.6254C98.0156 48.5676 98.0156 48.5142 98.0156 48.4622C98.019 48.4133 98.0284 48.3648 98.042 48.3177C98.0556 48.2648 98.076 48.2139 98.1023 48.1661C98.1295 48.1143 98.1618 48.0658 98.2001 48.0217C98.2426 47.9794 98.2919 47.9438 98.3446 47.9163ZM99.2184 47.483C99.2277 47.4626 99.2379 47.4428 99.2507 47.4239C99.2634 47.4071 99.2796 47.3933 99.2983 47.3834L99.4283 47.3083C99.4334 47.3039 99.4394 47.3011 99.4462 47.2998C99.453 47.2985 99.4606 47.299 99.4666 47.3011C99.4717 47.3053 99.4759 47.3107 99.4776 47.3168C99.4802 47.3228 99.481 47.3294 99.4802 47.3357C99.481 47.3406 99.481 47.3454 99.4802 47.3502C99.4802 47.3574 99.4802 47.3646 99.4802 47.3719L98.4024 49.8832C98.3939 49.9032 98.3828 49.9225 98.3709 49.9409C98.359 49.9588 98.3429 49.9732 98.3233 49.9828L98.1933 50.0593C98.1873 50.0623 98.1814 50.0637 98.1746 50.0637C98.1678 50.0637 98.1618 50.0623 98.1559 50.0593C98.1457 50.0593 98.1414 50.0434 98.1414 50.0246C98.1406 50.0194 98.1406 50.0141 98.1414 50.0088C98.1414 50.0088 98.1414 49.9958 98.1414 49.9886L99.2184 47.483ZM98.4602 48.5084C98.4619 48.4896 98.4619 48.4708 98.4602 48.452V48.2946C98.4619 48.2769 98.4619 48.259 98.4602 48.2412C98.4602 48.2113 98.45 48.1824 98.4313 48.1589C98.4168 48.1401 98.3871 48.143 98.3446 48.1675C98.3063 48.1879 98.2757 48.2204 98.2579 48.2599C98.2417 48.2961 98.2324 48.3347 98.229 48.3741C98.2281 48.3933 98.2281 48.4126 98.229 48.4318C98.229 48.4564 98.229 48.4838 98.229 48.5098C98.229 48.5358 98.229 48.5632 98.229 48.5878C98.2281 48.6056 98.2281 48.6234 98.229 48.6413C98.2298 48.6711 98.24 48.7 98.2579 48.7235C98.274 48.7428 98.3029 48.7399 98.3446 48.7149C98.3828 48.6951 98.4134 48.663 98.4313 48.6239C98.45 48.5867 98.4619 48.5466 98.4661 48.5055L98.4602 48.5084ZM99.2881 48.3942C99.3306 48.3656 99.3807 48.3487 99.4326 48.3452C99.4674 48.3427 99.5023 48.3519 99.532 48.3712C99.5592 48.3911 99.5805 48.4187 99.5924 48.4506C99.6068 48.4885 99.6153 48.5285 99.617 48.569C99.617 48.6181 99.617 48.6701 99.617 48.7279C99.617 48.7857 99.617 48.839 99.617 48.8911C99.6136 48.9399 99.606 48.9883 99.5924 49.0355C99.5779 49.088 99.5575 49.1389 99.532 49.1871C99.504 49.2389 99.4708 49.2873 99.4326 49.3315C99.3909 49.3762 99.3416 49.4136 99.2881 49.4427C99.2439 49.47 99.1946 49.4873 99.1436 49.4932C99.1087 49.4962 99.0739 49.4876 99.0441 49.4687C99.0169 49.4479 98.9957 49.4199 98.9829 49.3878C98.9685 49.3499 98.9608 49.3099 98.9583 49.2694C98.9583 49.2203 98.9583 49.1683 98.9583 49.1105C98.9583 49.0528 98.9583 48.9994 98.9583 48.9473C98.9617 48.8985 98.9702 48.8501 98.9829 48.8029C98.9982 48.7506 99.0186 48.6997 99.0441 48.6514C99.0713 48.5996 99.1053 48.5512 99.1436 48.507C99.1869 48.46 99.2371 48.4209 99.294 48.3914L99.2881 48.3942ZM99.4045 48.9835C99.4045 48.9705 99.4045 48.9517 99.4045 48.9271V48.7698C99.4045 48.7452 99.4045 48.7264 99.4045 48.7163C99.4045 48.6865 99.3943 48.6575 99.3756 48.634C99.3603 48.6167 99.3314 48.6196 99.2881 48.6441C99.2498 48.6639 99.2201 48.6952 99.2014 48.7336C99.1852 48.7703 99.1759 48.8094 99.1742 48.8492C99.1725 48.8684 99.1725 48.8877 99.1742 48.907V49.0629C99.1725 49.0807 99.1725 49.0986 99.1742 49.1163C99.1733 49.1461 99.1835 49.175 99.2014 49.1987C99.2175 49.2174 99.2473 49.213 99.2881 49.19C99.3263 49.1702 99.3578 49.1382 99.3756 49.099C99.3943 49.0618 99.4062 49.0218 99.4105 48.9806L99.4045 48.9835Z" fill="white"/>
<path opacity="0.4" d="M95.3892 46.722L94.6667 45.8165C93.86 47.0711 93.2837 48.4601 92.9658 49.9178L94.1286 49.7503C94.3649 48.6737 94.7916 47.6481 95.3892 46.722Z" fill="white"/>
<g opacity="0.4">
<path opacity="0.4" d="M97.4196 44.6654V43.0364C96.3911 43.63 95.4408 44.625 94.6758 45.8164L95.3974 46.7218C95.9593 45.838 96.6597 45.103 97.4196 44.6654Z" fill="white"/>
</g>
<path opacity="0.7" d="M101.871 44.7783C101.563 43.6909 100.96 42.9514 100.171 42.641C99.3809 42.3305 98.4476 42.4417 97.4268 43.0367V44.6656C98.1867 44.2324 98.8871 44.153 99.4591 44.3768C100.03 44.6007 100.488 45.1495 100.715 45.9538C100.833 46.3857 100.891 46.8319 100.885 47.2796C100.882 47.7919 100.825 48.3026 100.715 48.8031L101.879 48.6341C102.024 47.9582 102.098 47.2689 102.1 46.5777C102.107 45.9702 102.03 45.3648 101.871 44.7783Z" fill="white"/>
<g opacity="0.4">
<path opacity="0.4" d="M101.872 48.6339L100.707 48.8028C100.474 49.8806 100.048 50.9078 99.4512 51.8355L100.174 52.7394C100.979 51.4832 101.555 50.0928 101.872 48.6339Z" fill="white"/>
</g>
<g opacity="0.4">
<path opacity="0.4" d="M93.9616 51.2723C93.965 50.7619 94.022 50.2533 94.1299 49.7546L92.968 49.9221C92.8192 50.5991 92.7419 51.2898 92.7376 51.9829C92.7317 52.5894 92.809 53.1939 92.968 53.7793L94.1299 52.6038C94.0135 52.1698 93.9565 51.7218 93.9616 51.2723Z" fill="white"/>
</g>
<g opacity="0.4">
<path opacity="0.4" d="M95.3886 54.175L94.667 55.908C95.4379 56.2112 96.3882 56.1058 97.4108 55.5122V53.8876C96.6594 54.3267 95.959 54.4003 95.3886 54.175Z" fill="white"/>
</g>
<g opacity="0.4">
<path opacity="0.4" d="M97.4189 53.8875V55.5165C98.4474 54.9229 99.3977 53.928 100.163 52.7351L99.4411 51.8311C98.8792 52.7134 98.1788 53.4485 97.4189 53.8875Z" fill="white"/>
</g>
<g opacity="0.4">
<path opacity="0.4" d="M94.1315 52.5994L92.9688 53.775C93.2764 54.8624 93.8799 55.6017 94.6696 55.9122L95.3921 54.1793C94.8056 53.9424 94.3593 53.4024 94.1315 52.5994Z" fill="white"/>
</g>
</g>
<g opacity="0.2">
<path opacity="0.2" d="M48.1011 107.114L76.0404 90.984C76.7293 90.5862 77.3016 90.015 77.6993 89.3256C78.0971 88.6371 78.3063 87.856 78.3063 87.0604V53.9093C78.3058 53.6112 78.227 53.3185 78.0778 53.0605C77.9284 52.8024 77.714 52.5882 77.4557 52.4393C77.1975 52.2903 76.9046 52.2119 76.6065 52.2119C76.3084 52.2119 76.0156 52.2903 75.7574 52.4392L47.8181 68.5685C47.1297 68.9664 46.5581 69.5385 46.1606 70.2272C45.7632 70.9159 45.5539 71.697 45.5537 72.4922V105.641C45.5533 105.94 45.6315 106.233 45.7804 106.491C45.9292 106.75 46.1436 106.965 46.4018 107.114C46.6601 107.263 46.9532 107.342 47.2514 107.342C47.5497 107.342 47.8428 107.264 48.1011 107.114Z" fill="#9797A1"/>
</g>
<path d="M54.4601 97.614L80.2289 79.9452C80.9176 79.5476 81.4896 78.9756 81.8873 78.2869C82.285 77.5982 82.4946 76.8169 82.4946 76.0215L85.038 44.0432C85.038 43.3428 83.8247 42.5889 82.6737 41.8669C81.2614 40.9788 80.4715 41.0957 79.9458 41.399L52.0066 57.5297C51.3182 57.9273 50.7465 58.4991 50.3491 59.1875C49.9516 59.876 49.7423 60.6569 49.7422 61.4519V94.6042C49.7422 95.1703 49.9112 95.7882 51.2787 96.5855C52.4947 97.2961 53.8175 97.988 54.4601 97.614Z" fill="#2168E6"/>
<path d="M54.8546 97.5443L82.7939 81.4139C83.4825 81.0162 84.0543 80.4443 84.4517 79.7555C84.8492 79.0667 85.0586 78.2855 85.0586 77.4903V44.3407C85.0586 44.0425 84.98 43.7496 84.831 43.4913C84.682 43.233 84.4676 43.0185 84.2094 42.8693C83.9513 42.7202 83.6583 42.6417 83.3602 42.6416C83.062 42.6416 82.7691 42.7201 82.5108 42.8692L54.5715 58.997C53.8826 59.3944 53.3104 59.9663 52.9126 60.6551C52.5148 61.3439 52.3056 62.1253 52.3057 62.9207V96.0729C52.3058 96.3713 52.3845 96.6645 52.5336 96.9229C52.6828 97.1805 52.8973 97.3955 53.1556 97.5443C53.4138 97.693 53.7068 97.7721 54.005 97.7721C54.3033 97.7721 54.5962 97.6939 54.8546 97.5443Z" fill="#377DF7"/>
<path d="M55.7756 83.3576C55.7472 83.3576 55.7193 83.3501 55.6948 83.336C55.6692 83.3215 55.6479 83.3005 55.6332 83.2752C55.6185 83.2498 55.6108 83.2209 55.611 83.1915L55.5186 62.5407C55.5182 62.5114 55.5259 62.4824 55.5406 62.457C55.5554 62.4316 55.5767 62.4107 55.6024 62.3963L82.2939 47.2115C82.3192 47.1974 82.3476 47.1901 82.3764 47.1905C82.4053 47.1907 82.4336 47.1986 82.4586 47.2132C82.4835 47.2278 82.5043 47.2486 82.5186 47.2736C82.5331 47.2987 82.5407 47.327 82.5408 47.3559L82.4932 67.7828C82.4937 67.8119 82.4864 67.8406 82.4722 67.866C82.458 67.8914 82.4374 67.9124 82.4123 67.9272L55.858 83.3345C55.833 83.3493 55.8046 83.3573 55.7756 83.3576ZM55.8479 62.6303L55.9388 82.907L82.1697 67.6861L82.2145 47.6375L55.8479 62.6303Z" fill="white"/>
<path d="M68.4585 63.2931C68.4551 63.2099 68.4702 63.1269 68.5028 63.0502C68.5354 62.9735 68.5847 62.905 68.647 62.8498C68.7094 62.7944 68.7833 62.7537 68.8633 62.7305C68.9433 62.7073 69.0275 62.7021 69.1098 62.7155L71.3583 63.8289C71.8536 64.0138 71.7799 64.5437 71.5446 64.8196L69.4434 67.8059C68.9076 68.4342 68.4671 68.5627 68.4657 67.7367L68.4585 63.2931Z" fill="white"/>
<path d="M65.4182 63.676C65.9584 62.1308 66.8913 60.7198 68.0884 59.8143C69.2698 58.919 70.5435 58.6418 71.654 59.0331C72.7645 59.4244 73.5848 60.4296 73.9472 61.8622C74.6823 64.7677 73.3451 68.596 70.9652 70.3954C69.7911 71.2836 68.5289 71.5579 67.4126 71.1679C66.2963 70.7781 65.476 69.7773 65.102 68.3476C64.728 66.9179 64.8753 65.2211 65.4182 63.676ZM68.3065 60.0483C65.9959 61.8015 64.6963 65.507 65.4182 68.3057C65.7591 69.6257 66.4985 70.5441 67.4978 70.8921C68.4971 71.2402 69.6423 70.9803 70.7254 70.1615C73.0288 68.4198 74.3242 64.7157 73.6137 61.9025C73.2786 60.5798 72.545 59.6584 71.5472 59.3031C70.5493 58.9479 69.3968 59.2165 68.3065 60.0426V60.0483Z" fill="white"/>
<path d="M76.5043 79.0296C76.8177 78.8491 77.082 78.9892 77.082 79.3416C77.0697 79.5362 77.0118 79.7252 76.913 79.8933C76.8141 80.0614 76.6771 80.2039 76.513 80.3091L55.8189 92.2182C55.5055 92.3992 55.2484 92.259 55.2412 91.9071C55.2531 91.7124 55.3107 91.5229 55.4093 91.3546C55.5079 91.1871 55.6447 91.0443 55.8088 90.9389L76.5043 79.0296Z" fill="white"/>
<path d="M82.1993 73.4454C82.5126 73.2648 82.7769 73.4049 82.7769 73.7559C82.7649 73.9499 82.7073 74.1385 82.6087 74.3062C82.5101 74.4738 82.3733 74.6157 82.2094 74.7205L55.808 89.8518C55.4933 90.0329 55.2305 89.8926 55.2305 89.5416C55.2428 89.3469 55.3007 89.1591 55.3995 88.9908C55.4984 88.8233 55.6354 88.6814 55.7995 88.5768L82.1993 73.4454Z" fill="white"/>
<path d="M65.5631 80.2672C65.8765 80.0852 66.1336 80.2253 66.1408 80.5777C66.1288 80.7724 66.0712 80.9616 65.9726 81.1299C65.874 81.2982 65.7372 81.441 65.5732 81.5467L55.8052 87.1989C55.4919 87.3791 55.2348 87.2397 55.2275 86.8887C55.2392 86.694 55.2966 86.5045 55.3952 86.3362C55.4939 86.1679 55.6309 86.0251 55.7951 85.9197L65.5631 80.2672Z" fill="white"/>
<g opacity="0.8">
<path opacity="0.8" d="M40.9302 56.5418L6.54582 76.2713C6.02593 76.5694 5.59417 76.9997 5.29438 77.5186C4.99459 78.0377 4.83744 78.6266 4.83888 79.226L4.95007 128.603C4.95021 128.801 5.00237 128.996 5.10133 129.167C5.2003 129.339 5.3426 129.481 5.51397 129.581C5.68536 129.68 5.87982 129.732 6.07789 129.733C6.27596 129.734 6.47068 129.682 6.64258 129.583L40.9258 109.817C41.443 109.519 41.8725 109.09 42.1711 108.573C42.4698 108.056 42.6269 107.471 42.627 106.873V57.5223C42.6268 57.3238 42.5745 57.1288 42.4752 56.9569C42.3759 56.7849 42.2332 56.6422 42.0613 56.5429C41.8894 56.4435 41.6944 56.3911 41.4958 56.391C41.2974 56.3908 41.1022 56.4428 40.9302 56.5418Z" fill="#377DF7"/>
</g>
<path d="M33.3586 80.3698C34.1183 79.9366 34.7407 79.9626 34.7421 80.4363C34.7436 80.91 34.1226 81.6551 33.363 82.0927L17.6178 91.2399C16.8583 91.6725 16.2358 91.647 16.2344 91.1736C16.2329 90.6993 16.8539 89.953 17.6135 89.5169L33.3586 80.3698Z" fill="white"/>
<path d="M33.3586 86.5011C34.1183 86.0685 34.7407 86.094 34.7421 86.5683C34.7436 87.0417 34.1226 87.7872 33.363 88.2241L17.6178 97.3726C16.8583 97.8061 16.2358 97.7798 16.2344 97.3063C16.2329 96.8329 16.8539 96.0874 17.6135 95.6497L33.3586 86.5011Z" fill="white"/>
<path d="M33.3586 92.6364C34.1183 92.2029 34.7407 92.2275 34.7421 92.7027C34.7436 93.1778 34.1226 93.9216 33.363 94.3593L17.6178 103.506C16.8583 103.94 16.2358 103.913 16.2344 103.44C16.2329 102.966 16.8539 102.221 17.6135 101.783L33.3586 92.6364Z" fill="white"/>
<path d="M33.3586 98.7691C34.1183 98.3356 34.7407 98.362 34.7421 98.8354C34.7436 99.3097 34.1226 100.054 33.363 100.492L17.6178 109.641C16.8583 110.074 16.2358 110.048 16.2344 109.574C16.2329 109.1 16.8539 108.354 17.6135 107.918L33.3586 98.7691Z" fill="white"/>
<path d="M33.3586 108.504C34.1183 108.071 34.7407 108.097 34.7421 108.57C34.7436 109.044 34.1226 109.789 33.363 110.227L17.6178 119.376C16.8583 119.808 16.2358 119.783 16.2344 119.309C16.2329 118.835 16.8539 118.09 17.6135 117.653L33.3586 108.504Z" fill="white"/>
<path d="M107.561 80.2254C108.321 79.7921 108.943 79.8181 108.945 80.2919C108.946 80.7655 108.325 81.5107 107.565 81.9482L11.464 136.715C10.703 137.148 10.0805 137.122 10.0791 136.649C10.0777 136.174 10.6987 135.428 11.4582 134.99L107.561 80.2254Z" fill="white"/>
<path d="M24.0253 70.2335C26.5656 68.7663 28.6234 69.9548 28.6234 72.8878C28.6234 75.8208 26.5656 79.3863 24.0268 80.8506C21.488 82.3149 19.4287 81.1279 19.4287 78.1963C19.4287 75.2648 21.4866 71.7051 24.0253 70.2335Z" fill="#FAFAFA"/>
<path d="M23.8049 71.8567C24.5631 71.4235 25.1797 71.7729 25.1797 72.6495C25.1797 73.5261 24.5631 74.5933 23.8049 75.0265C23.0468 75.4598 22.4287 75.1103 22.4287 74.2337C22.4287 73.3571 23.0454 72.2943 23.8049 71.8567Z" fill="#377DF7"/>
<path d="M26.5142 76.8765C26.5142 75.4324 25.5034 74.7969 24.2557 75.5176L23.4758 75.9667C22.2281 76.6888 21.2158 78.4391 21.2158 79.8803V80.2674C21.2158 80.2674 21.7487 81.3634 23.8658 80.1114C25.9828 78.8593 26.5142 77.2101 26.5142 77.2101V76.8765Z" fill="#377DF7"/>
<path d="M13.4745 91.7057V91.069L13.2161 91.2178V91.5476L12.8117 91.2942L11.7734 93.143L12.1518 92.9245V94.3126L12.6052 94.0517V93.2008L13.0197 92.9628V93.8119L13.4731 93.5501V92.1613L13.853 91.9428L13.4745 91.7057Z" fill="#FAFAFA"/>
<path d="M12.7574 99.1865L11.7783 98.6638L13.8492 97.4678L12.8687 99.1228C12.8355 99.1797 12.7907 99.2035 12.7574 99.1865Z" fill="#FAFAFA"/>
<path d="M12.8774 99.4594L13.8492 97.5392V99.5214L11.7783 100.717V98.7343L12.7502 99.5333C12.7863 99.5622 12.8412 99.5299 12.8774 99.4594Z" fill="#FAFAFA"/>
<path d="M12.8166 103.476C12.239 103.806 11.7812 104.692 11.7812 105.455C11.7812 106.219 12.2448 106.569 12.8166 106.238C13.3885 105.907 13.8536 105.023 13.8536 104.258C13.8536 103.494 13.3885 103.143 12.8166 103.476ZM12.9972 105.642C12.9967 105.663 12.9912 105.684 12.9813 105.703C12.9725 105.72 12.9591 105.736 12.9423 105.748L12.6838 105.891C12.6782 105.896 12.6714 105.898 12.6643 105.898C12.6573 105.898 12.6504 105.896 12.6448 105.891C12.6388 105.886 12.6342 105.88 12.6314 105.873C12.6286 105.866 12.6278 105.857 12.6289 105.85V105.574C12.6287 105.553 12.6342 105.532 12.6448 105.513C12.6535 105.495 12.667 105.48 12.6838 105.469L12.9423 105.324C12.948 105.32 12.9548 105.318 12.9617 105.318C12.9688 105.318 12.9756 105.32 12.9813 105.324C12.9868 105.329 12.9911 105.336 12.9938 105.343C12.9966 105.351 12.9977 105.358 12.9972 105.366V105.642ZM13.3481 104.308C13.3324 104.369 13.3116 104.428 13.286 104.486C13.2609 104.54 13.233 104.593 13.2022 104.643C13.1718 104.692 13.143 104.74 13.1156 104.787C13.0881 104.835 13.0621 104.881 13.039 104.932C13.0177 104.978 13.0022 105.026 12.9928 105.076C12.9892 105.097 12.9829 105.119 12.9741 105.139C12.9669 105.157 12.9542 105.172 12.9379 105.182L12.6881 105.327C12.6825 105.331 12.6757 105.334 12.6686 105.334C12.6616 105.334 12.6547 105.331 12.6491 105.327C12.6432 105.322 12.6387 105.315 12.6359 105.308C12.6332 105.301 12.6323 105.293 12.6332 105.285C12.633 105.225 12.6423 105.165 12.6607 105.108C12.679 105.05 12.7017 104.993 12.7286 104.938C12.7559 104.882 12.7863 104.831 12.8181 104.779C12.8499 104.726 12.8802 104.678 12.9076 104.634C12.9327 104.592 12.9554 104.547 12.9755 104.502C12.9931 104.466 13.0025 104.426 13.003 104.385C13.003 104.333 12.9885 104.3 12.9582 104.287C12.9329 104.282 12.9069 104.283 12.882 104.29C12.8571 104.296 12.8338 104.308 12.8137 104.323C12.7613 104.35 12.7158 104.389 12.6809 104.436C12.6568 104.472 12.6375 104.51 12.6231 104.55C12.6102 104.587 12.6001 104.62 12.5914 104.649C12.5877 104.664 12.5811 104.678 12.5718 104.689C12.5627 104.7 12.5511 104.71 12.5379 104.716L12.2881 104.86C12.2833 104.864 12.2778 104.865 12.2722 104.865C12.2666 104.865 12.2611 104.864 12.2563 104.86C12.2515 104.856 12.2477 104.85 12.2454 104.844C12.2432 104.838 12.2425 104.831 12.2433 104.825C12.2471 104.748 12.2612 104.672 12.2852 104.599C12.3129 104.509 12.3502 104.423 12.3964 104.341C12.446 104.252 12.5056 104.168 12.574 104.093C12.6431 104.015 12.724 103.948 12.8137 103.896C12.8803 103.856 12.9531 103.828 13.0289 103.814C13.088 103.803 13.1489 103.808 13.2051 103.829C13.256 103.851 13.2978 103.89 13.3235 103.939C13.3548 104.002 13.3696 104.071 13.3668 104.14C13.3693 104.197 13.3649 104.254 13.3538 104.31L13.3481 104.308Z" fill="#FAFAFA"/>
<path d="M13.8115 110.746L13.5978 110.734C13.5834 110.734 13.5718 110.712 13.5732 110.688C13.5748 110.628 13.5719 110.569 13.5646 110.51C13.5618 110.485 13.5663 110.459 13.5776 110.436L13.7884 110.137C13.7938 110.127 13.7967 110.116 13.7967 110.104C13.7967 110.093 13.7938 110.081 13.7884 110.071L13.683 109.844C13.6729 109.824 13.6555 109.817 13.644 109.829L13.4086 110.078C13.4024 110.084 13.3941 110.088 13.3855 110.088C13.3769 110.088 13.3686 110.084 13.3624 110.078C13.3312 110.052 13.2961 110.032 13.2584 110.017C13.2502 110.011 13.2439 110.004 13.2403 109.993C13.2367 109.984 13.236 109.974 13.2382 109.964L13.2902 109.628C13.2902 109.604 13.2902 109.585 13.27 109.589L13.0216 109.618C13.0057 109.618 12.9898 109.637 12.9826 109.659L12.8801 110.012C12.8738 110.032 12.8605 110.05 12.8425 110.062C12.7869 110.093 12.7342 110.128 12.6851 110.168C12.6813 110.17 12.6772 110.171 12.6728 110.172C12.6685 110.173 12.6641 110.172 12.6599 110.171C12.6557 110.169 12.6518 110.168 12.6484 110.165C12.645 110.162 12.6423 110.158 12.6404 110.155L12.5248 109.977C12.5133 109.959 12.4945 109.955 12.4829 109.977L12.236 110.279C12.2312 110.289 12.2286 110.301 12.2286 110.313C12.2286 110.325 12.2312 110.336 12.236 110.347L12.3096 110.576C12.3185 110.6 12.3185 110.626 12.3096 110.65C12.2698 110.72 12.2347 110.793 12.2042 110.868C12.2007 110.877 12.1954 110.887 12.1884 110.894C12.1815 110.901 12.1731 110.907 12.1638 110.911L11.927 110.976C11.9177 110.981 11.9098 110.988 11.9038 110.996C11.8977 111.005 11.8938 111.015 11.8923 111.025L11.8057 111.407C11.8057 111.43 11.8057 111.449 11.8244 111.449L12.0367 111.461C12.0526 111.461 12.0627 111.482 12.0627 111.506C12.0611 111.566 12.064 111.625 12.0714 111.684C12.0743 111.71 12.0698 111.735 12.0584 111.758L11.8417 112.05C11.8368 112.06 11.8341 112.071 11.8341 112.083C11.8341 112.094 11.8368 112.106 11.8417 112.116L11.9472 112.343C11.9573 112.364 11.9746 112.37 11.9861 112.357L12.2216 112.11C12.2278 112.104 12.236 112.101 12.2447 112.101C12.2533 112.101 12.2615 112.104 12.2677 112.11C12.2989 112.136 12.334 112.157 12.3718 112.172C12.38 112.178 12.3863 112.186 12.39 112.195C12.3935 112.204 12.3943 112.214 12.3919 112.224L12.34 112.56C12.34 112.585 12.34 112.602 12.3602 112.601L12.6086 112.571C12.623 112.571 12.6404 112.55 12.6476 112.529L12.7501 112.178C12.7565 112.157 12.7696 112.139 12.7877 112.126C12.8435 112.096 12.8963 112.061 12.945 112.021C12.9489 112.018 12.9532 112.017 12.9576 112.016C12.9619 112.016 12.9664 112.016 12.9706 112.018C12.9748 112.019 12.9787 112.021 12.9821 112.024C12.9853 112.027 12.988 112.031 12.9898 112.035L13.1053 112.213C13.1169 112.23 13.1357 112.232 13.1472 112.213L13.3941 111.911C13.4002 111.901 13.4039 111.889 13.4051 111.878C13.4064 111.866 13.4051 111.854 13.4014 111.843L13.3278 111.613C13.319 111.59 13.319 111.564 13.3278 111.541C13.3669 111.47 13.4021 111.397 13.4332 111.321C13.4366 111.312 13.442 111.303 13.4489 111.296C13.4559 111.288 13.4643 111.282 13.4736 111.278L13.709 111.213C13.7186 111.209 13.727 111.202 13.7333 111.194C13.7396 111.184 13.7437 111.175 13.7451 111.164L13.8303 110.783C13.8346 110.765 13.8259 110.746 13.8115 110.746ZM13.2252 111.044C13.1472 111.392 12.8988 111.697 12.6721 111.724C12.4454 111.752 12.3241 111.49 12.402 111.147C12.4801 110.803 12.7284 110.494 12.9551 110.468C13.1819 110.442 13.3032 110.696 13.2252 111.044Z" fill="#FAFAFA"/>
<path d="M13.8072 119.217C13.7797 119.2 13.7479 119.19 13.7155 119.19C13.6831 119.19 13.6514 119.2 13.6238 119.217L12.3718 119.938C12.3442 119.955 12.3214 119.978 12.3057 120.005C12.2899 120.033 12.2818 120.064 12.2822 120.096V120.831L12.4584 120.73V120.096L13.7177 119.374V121.655L12.4584 122.378V121.787L12.2822 121.888V122.378C12.2818 122.409 12.2899 122.441 12.3057 122.468C12.3214 122.496 12.3442 122.519 12.3718 122.535C12.3997 122.551 12.4313 122.56 12.4635 122.56C12.4957 122.56 12.5273 122.551 12.5552 122.535L13.8072 121.813C13.8348 121.797 13.8576 121.774 13.8734 121.746C13.8891 121.718 13.8972 121.688 13.8967 121.655V119.371C13.8971 119.339 13.889 119.309 13.8732 119.281C13.8575 119.254 13.8347 119.232 13.8072 119.217Z" fill="#FAFAFA"/>
<path d="M12.5855 120.884L12.0743 121.173C12.0439 121.19 12.0209 121.173 12.0209 121.141V120.805C12.0209 120.771 12.005 120.766 11.9862 120.795L11.2815 121.887C11.2767 121.893 11.2735 121.9 11.2722 121.908C11.2708 121.916 11.2714 121.924 11.2738 121.931C11.2762 121.938 11.2804 121.945 11.2861 121.951C11.2916 121.956 11.2985 121.961 11.306 121.963L11.9616 122.236C11.968 122.239 11.9752 122.241 11.9825 122.241C11.9897 122.24 11.9967 122.238 12.0028 122.234C12.0088 122.23 12.0137 122.225 12.0169 122.218C12.02 122.211 12.0214 122.205 12.0209 122.197V121.859C12.0216 121.84 12.0267 121.822 12.0361 121.805C12.0454 121.789 12.0585 121.774 12.0743 121.764L12.5855 121.475C12.6014 121.465 12.6147 121.451 12.6242 121.434C12.6337 121.418 12.6393 121.4 12.6404 121.381V120.916C12.6404 120.88 12.6158 120.867 12.5855 120.884Z" fill="#FAFAFA"/>
<path d="M107.561 84.3527C108.321 83.9195 108.943 83.9455 108.945 84.4192C108.946 84.8928 108.325 85.6384 107.565 86.0753L11.464 140.847C10.703 141.279 10.0805 141.254 10.0791 140.78C10.0777 140.306 10.6987 139.562 11.4582 139.124L107.561 84.3527Z" fill="white"/>
<path d="M82.3055 81.6479C81.5661 82.0998 81.2729 82.2847 80.5494 82.7107C80.5234 83.0832 79.8418 93.1991 79.8418 93.1991L83.0738 93.3223C83.0738 93.3223 81.8996 84.9303 82.3055 81.6479Z" fill="#FFC4BA"/>
<path d="M79.5888 150.843C79.8068 151.742 80.0365 153.089 79.7823 153.774C79.5108 154.033 78.5981 154.182 77.8038 154.283C77.0713 154.366 76.3592 154.578 75.6998 154.907C74.156 155.523 71.4425 155.742 70.3566 154.341C69.2793 152.475 74.8954 152.948 75.5857 150.791C75.8427 150.009 78.5692 151.054 79.5888 150.843Z" fill="black"/>
<path d="M94.3089 146.347C94.7883 146.98 95.2065 147.657 95.5584 148.368C95.7071 148.679 95.7513 149.03 95.6859 149.368C95.6196 149.706 95.447 150.014 95.1929 150.246C94.886 150.515 94.5375 150.734 94.1618 150.893C93.4716 151.195 92.24 151.112 90.245 151.182C85.9024 151.326 86.9139 149.069 88.6802 148.974C91.3135 148.829 91.424 146.818 92.3811 147.124C93.1665 147.368 93.4614 146.952 94.3089 146.347Z" fill="black"/>
<path d="M75.0752 110.841C75.0752 110.841 80.5629 126.548 81.4178 129.325C82.2727 131.318 89.8905 148.76 89.8905 148.76C93.2361 149.254 94.7338 146.477 94.7338 146.477C94.7338 146.477 89.1782 131.953 87.4697 127.825C86.8127 124.3 86.3307 118.104 86.1939 116.205C86.1658 115.846 86.1174 115.49 86.0494 115.137C85.6822 113.161 85.4178 111.062 82.498 107.718L82.8128 107.531L75.0752 110.841Z" fill="#414042"/>
<g style="mix-blend-mode:soft-light" opacity="0.2">
<g style="mix-blend-mode:soft-light" opacity="0.2">
<path d="M75.0645 110.86C75.0645 110.86 80.5521 126.57 81.4084 129.345C82.2619 131.339 89.8795 148.781 89.8795 148.781C93.226 149.28 94.7203 146.503 94.7203 146.503C94.7203 146.503 89.1681 131.979 87.4596 127.851C86.7991 124.31 86.3155 118.074 86.1812 116.205C86.1565 115.872 86.1149 115.54 86.0571 115.211C85.7145 113.285 85.6754 111.614 82.7356 108.25L82.8092 107.558L75.0645 110.86Z" fill="#110E1E"/>
</g>
</g>
<path d="M82.8196 107.531L72.0898 108.769C72.0898 108.769 72.1866 117.339 72.7094 124.255C73.2871 131.899 74.5867 151.461 74.5867 151.461C77.3623 151.959 79.9083 151.051 79.9083 151.051C79.9083 151.051 79.8592 132.699 79.8592 131.099C79.8592 128.643 80.2231 124.364 80.6606 119.756C84.7056 114.354 83.1561 109.864 82.8196 107.531Z" fill="#414042"/>
<path d="M52.1553 93.9344C51.6282 93.3368 51.5689 93.1779 50.779 92.8047C49.9891 92.4324 49.7451 92.3721 49.3652 91.9097C48.9855 91.4473 48.8584 90.321 48.841 90.0108C48.7226 87.8441 49.4505 87.4863 49.7075 87.2092L49.7249 88.5794C50.522 89.7048 51.8462 89.59 51.9863 89.4327C52.1264 89.2755 52.1005 88.4638 52.3589 88.0022C52.6174 87.5398 53.159 87.3707 53.1142 87.8254C53.091 88.0872 52.8701 89.0851 52.8831 89.4965C52.8961 89.9079 52.9914 90.9143 53.3063 91.4617C53.7207 92.1927 55.4825 93.0937 55.4825 93.0937" fill="#FFC4BA"/>
<path d="M81.3281 82.2673C81.5014 82.0961 81.6277 81.8831 81.6946 81.6489C81.7617 81.4146 81.7672 81.1671 81.7108 80.9301C81.5895 80.2918 81.6805 79.8773 82.0285 79.8137C82.2856 79.7661 82.3173 80.2268 82.3996 80.595C82.4819 80.9633 82.7866 81.9409 82.7 82.5851C82.6347 83.1564 82.469 83.7118 82.2104 84.2256C82.2104 84.2256 82.183 83.8834 81.7527 83.336C81.501 83.034 81.3524 82.6597 81.3281 82.2673Z" fill="#FFC4BA"/>
<path d="M78.4238 93.7916C78.639 93.7363 79.3019 94.248 79.3394 92.0856C79.3639 90.6763 79.3394 84.4897 79.3394 84.4897C80.394 84.2851 81.4734 84.2413 82.5411 84.3598C82.5411 84.3598 83.0335 90.6313 83.2285 92.9756C83.5173 96.5337 83.2285 98.4631 82.6998 99.5605L78.4238 93.7916Z" fill="#7C7C85"/>
<path d="M74.3389 92.0031L74.5252 96.067L79.3398 96.2676L78.716 91.0732L74.3389 92.0031Z" fill="#FFC4BA"/>
<path d="M71.2469 84.4739C70.0252 82.8854 72.2982 81.5943 72.7892 81.3705C75.4305 80.1748 77.6501 80.6976 78.0674 80.8217C81.5954 81.863 81.9997 85.7319 80.9007 88.4842C79.9404 90.8829 76.5179 90.3168 76.5511 91.8391L76.5266 91.8085C75.9778 91.1515 75.43 90.4936 74.8832 89.8357L73.6326 88.3354C73.2427 87.8679 73.1719 86.2283 73.1415 85.5916C73.1343 85.4327 71.9921 85.4072 71.2469 84.4739Z" fill="#263238"/>
<path d="M74.5262 82.9837C73.6598 83.3852 72.2301 83.3289 71.7146 86.4365C71.186 89.6266 72.4482 91.7278 72.9854 92.0091C73.4547 92.2548 73.9183 92.2879 74.7183 92.0763C75.7293 91.8119 78.0052 91.035 79.0883 89.4243C80.362 87.5288 80.7216 84.9477 79.3959 83.8661C77.5358 82.3483 75.2599 82.6443 74.5262 82.9837Z" fill="#FFC4BA"/>
<path d="M74.1367 82.7944C73.962 82.8667 73.5808 82.8334 73.4392 82.9591C73.0839 83.271 72.2839 83.1642 72.0283 85.1428C73.8335 85.499 73.4998 89.0001 74.206 87.8866C74.206 87.8866 74.775 86.7672 75.7411 87.1386C76.7072 87.5092 76.5657 88.825 75.7599 89.4651C74.9541 90.1043 74.5079 89.5815 74.5079 89.5815C74.5079 89.5815 74.4227 91.1702 75.6299 91.8374C75.6299 91.8374 77.2444 92.2089 78.8272 91.585C79.4958 91.1166 80.0966 90.4094 80.7234 89.222C82.439 85.9673 81.2433 82.1359 78.0099 80.8204C77.0177 80.4174 77.9477 82.0161 76.8805 82.1359C76.4838 82.1817 76.0925 82.2664 75.7122 82.3886C75.5549 82.4392 75.4004 82.4969 75.2473 82.5619C75.0688 82.6208 74.882 82.6505 74.6942 82.65C74.5022 82.6706 74.3145 82.7193 74.1367 82.7944Z" fill="#263238"/>
<path d="M82.877 100.451C83.2885 104.732 86.8985 116.577 86.8985 116.577C86.8985 116.577 84.7673 118.32 80.848 119.352C77.8024 120.155 72.0202 119.785 72.0202 119.785C72.0202 119.785 70.8028 101.502 70.7725 101.362C74.6398 99.6302 73.8051 94.5208 73.8051 94.5208C74.2311 94.4095 75.3113 94.174 75.4297 94.1536C77.7129 93.7635 78.4175 93.6776 79.3158 93.7652C81.147 93.9445 82.4148 95.6454 82.877 100.451Z" fill="#9797A1"/>
<path d="M73.8077 94.5217C72.8098 94.5668 72.5253 94.5506 71.2602 94.9008C69.9952 95.2501 66.3416 96.7963 66.3416 96.7963L61.5212 98.5294L54.793 91.8017C54.793 91.8017 53.707 91.9258 52.6572 92.9756C52.0882 93.5527 51.7676 94.6126 51.7676 94.6126L59.2654 103.453C59.5736 103.817 59.9832 104.08 60.4417 104.208C60.9002 104.337 61.3868 104.326 61.8389 104.176C64.1999 103.395 69.0002 102.258 71.0928 101.682C71.0928 101.682 72.3593 101.084 73.308 99.2851C74.2568 97.4856 74.1413 95.1864 73.8077 94.5217Z" fill="#7C7C85"/>
<path d="M151.094 67.2152L139.591 73.8437C139.456 73.9304 139.344 74.0478 139.264 74.1861C139.184 74.3245 139.138 74.4798 139.13 74.6394V90.3805C139.139 90.5394 139.186 90.6941 139.267 90.8318C139.347 90.9687 139.459 91.086 139.593 91.1719L141.42 92.2114C141.563 92.2828 141.722 92.3202 141.881 92.3202C142.041 92.3202 142.199 92.2828 142.343 92.2114L153.847 85.5831C153.98 85.4964 154.092 85.3782 154.171 85.2405C154.251 85.102 154.297 84.9467 154.306 84.7872V69.042C154.297 68.8829 154.251 68.7281 154.171 68.5904C154.09 68.4528 153.978 68.3363 153.843 68.2507L152.015 67.2109C151.872 67.1403 151.714 67.104 151.554 67.1048C151.395 67.1055 151.236 67.1434 151.094 67.2152Z" fill="#5E99FF"/>
<path d="M142.343 92.2003C142.199 92.2701 142.041 92.3057 141.881 92.3057C141.722 92.3057 141.563 92.2701 141.42 92.2003L139.593 91.1591C139.458 91.0741 139.346 90.9576 139.265 90.8199C139.184 90.6831 139.138 90.5284 139.13 90.3686V74.6395C139.136 74.4731 139.185 74.3112 139.274 74.1702L142.018 75.7486C141.934 75.885 141.887 76.0407 141.882 76.2006V91.9326C141.882 92.2012 142.071 92.3559 142.343 92.2003Z" fill="#276CE3"/>
<path d="M153.845 68.7763L142.342 75.4048C142.207 75.4916 142.096 75.6089 142.016 75.7472C141.936 75.8855 141.889 76.0408 141.881 76.2005V91.9411C141.881 92.2301 142.087 92.3525 142.342 92.2071L153.845 85.5788C153.98 85.4913 154.091 85.374 154.171 85.2363C154.251 85.0977 154.297 84.9423 154.305 84.7828V69.042C154.305 68.7488 154.1 68.6304 153.845 68.7763Z" fill="#377DF7"/>
<path d="M152.541 79.5264L151.613 79.4788C151.548 79.4788 151.499 79.3849 151.502 79.2766C151.509 79.0181 151.498 78.7594 151.467 78.5026C151.452 78.3923 151.472 78.2801 151.525 78.182L152.444 76.8822C152.467 76.8382 152.481 76.7891 152.483 76.7389C152.484 76.6887 152.473 76.6388 152.452 76.5934L151.994 75.6056C151.952 75.5147 151.876 75.4858 151.822 75.5407L150.8 76.6223C150.787 76.6358 150.771 76.6466 150.753 76.6539C150.735 76.6612 150.716 76.6651 150.698 76.6651C150.678 76.6651 150.659 76.6612 150.642 76.6539C150.625 76.6466 150.608 76.6358 150.595 76.6223C150.461 76.5099 150.308 76.4198 150.146 76.3552C150.109 76.3311 150.081 76.2959 150.064 76.2546C150.048 76.2134 150.047 76.1682 150.058 76.1256L150.283 74.6597C150.299 74.5558 150.26 74.4778 150.195 74.4864L149.111 74.615C149.069 74.6291 149.032 74.6534 149.003 74.6858C148.973 74.7181 148.953 74.7573 148.942 74.7998L148.494 76.3263C148.468 76.4181 148.411 76.4983 148.333 76.553C148.09 76.682 147.859 76.8343 147.645 77.0079C147.588 77.0541 147.5 77.0295 147.45 76.9502L146.947 76.1775C146.895 76.0981 146.812 76.0851 146.764 76.1472L145.69 77.4628C145.666 77.5061 145.65 77.5541 145.644 77.6039C145.639 77.6536 145.644 77.7039 145.659 77.7516L145.978 78.7524C146.009 78.8582 146.003 78.9716 145.959 79.0729C145.787 79.3808 145.634 79.6986 145.5 80.0247C145.485 80.0663 145.461 80.1045 145.43 80.137C145.4 80.1694 145.363 80.1955 145.322 80.2138L144.294 80.5026C144.254 80.5232 144.218 80.553 144.192 80.5896C144.165 80.6262 144.147 80.6686 144.14 80.7135L143.767 82.3743C143.744 82.4739 143.779 82.5576 143.845 82.5605L144.773 82.6082C144.839 82.6082 144.886 82.702 144.885 82.8118C144.878 83.0703 144.89 83.329 144.919 83.5859C144.934 83.6957 144.913 83.8073 144.862 83.905L143.944 85.2048C143.92 85.249 143.906 85.2975 143.905 85.3476C143.903 85.3978 143.912 85.4479 143.933 85.4938L144.391 86.4798C144.434 86.5708 144.511 86.5997 144.564 86.5444L145.587 85.4649C145.6 85.4513 145.616 85.4403 145.633 85.4326C145.651 85.4258 145.67 85.4216 145.69 85.4216C145.708 85.4216 145.727 85.4258 145.745 85.4326C145.763 85.4403 145.778 85.4513 145.792 85.4649C145.927 85.5771 146.078 85.6672 146.241 85.7318C146.278 85.7556 146.306 85.7913 146.322 85.8321C146.338 85.8738 146.34 85.9188 146.329 85.9613L146.103 87.4276C146.088 87.5313 146.126 87.6095 146.192 87.6018L147.276 87.4735C147.317 87.459 147.354 87.4344 147.384 87.4021C147.412 87.3698 147.434 87.3307 147.444 87.2882L147.893 85.7582C147.919 85.6664 147.975 85.5865 148.053 85.5312C148.297 85.4029 148.529 85.2499 148.742 85.0765C148.758 85.0663 148.777 85.0595 148.795 85.0569C148.814 85.0544 148.834 85.0561 148.852 85.0612C148.87 85.0663 148.887 85.0756 148.902 85.0884C148.916 85.1011 148.928 85.1164 148.936 85.1343L149.44 85.9069C149.492 85.986 149.574 85.9987 149.623 85.9367L150.694 84.6212C150.72 84.5782 150.737 84.5302 150.742 84.4805C150.748 84.4307 150.743 84.3802 150.727 84.3325L150.409 83.3317C150.377 83.2264 150.384 83.1134 150.427 83.0125C150.599 82.7041 150.752 82.3859 150.886 82.0594C150.903 82.0178 150.926 81.9795 150.957 81.9471C150.987 81.9147 151.023 81.8885 151.064 81.8702L152.091 81.5814C152.132 81.5606 152.167 81.5308 152.194 81.4942C152.221 81.4576 152.239 81.4153 152.247 81.3706L152.62 79.7084C152.643 79.6131 152.608 79.5308 152.541 79.5264ZM149.985 80.8334C149.645 82.3497 148.566 83.6739 147.577 83.7909C146.587 83.9079 146.06 82.7728 146.401 81.2565C146.742 79.7402 147.82 78.4159 148.81 78.2989C149.799 78.182 150.332 79.3171 149.985 80.8334Z" fill="#FAFAFA"/>
<path d="M151.094 38.0372L139.591 44.6656C139.456 44.7524 139.344 44.8697 139.264 45.0081C139.184 45.1464 139.138 45.3017 139.13 45.4613V61.2021C139.139 61.3612 139.186 61.5159 139.267 61.6535C139.347 61.791 139.459 61.9075 139.593 61.9936L141.42 63.0318C141.563 63.1037 141.721 63.1412 141.881 63.1412C142.041 63.1412 142.199 63.1037 142.343 63.0318L153.847 56.3976C153.98 56.3106 154.092 56.1932 154.171 56.0549C154.251 55.9166 154.297 55.7614 154.306 55.6019V39.864C154.297 39.7048 154.251 39.5498 154.171 39.4122C154.09 39.2745 153.978 39.1581 153.843 39.0725L152.015 38.0328C151.872 37.9619 151.714 37.9254 151.554 37.9261C151.395 37.9269 151.236 37.9649 151.094 38.0372Z" fill="#5E99FF"/>
<path d="M142.343 63.0204C142.199 63.0905 142.041 63.1269 141.881 63.1269C141.722 63.1269 141.563 63.0905 141.42 63.0204L139.593 61.9791C139.458 61.8941 139.346 61.778 139.265 61.6406C139.184 61.5031 139.138 61.3483 139.13 61.1892V45.4484C139.136 45.282 139.185 45.12 139.274 44.979L142.018 46.5575C141.934 46.6937 141.887 46.8495 141.882 47.0094V62.7518C141.882 63.0233 142.071 63.1849 142.343 63.0204Z" fill="#276CE3"/>
<path d="M153.845 39.5982L142.342 46.2267C142.207 46.3134 142.096 46.4308 142.016 46.5691C141.936 46.7074 141.889 46.8628 141.881 47.0224V62.7517C141.881 63.0405 142.087 63.1632 142.342 63.0159L153.845 56.3976C153.98 56.3106 154.091 56.1932 154.171 56.055C154.251 55.9166 154.297 55.7614 154.305 55.6019V39.8639C154.305 39.5707 154.1 39.4523 153.845 39.5982Z" fill="#377DF7"/>
<path d="M144.174 53.5368C144.174 53.362 144.235 53.1925 144.346 53.0573L144.446 52.936C144.566 52.7847 144.649 52.6079 144.69 52.4191C144.737 52.2229 144.762 52.0217 144.763 51.8197C144.76 51.3845 144.821 50.951 144.942 50.533C145.054 50.1552 145.208 49.7917 145.405 49.4499C145.58 49.1457 145.793 48.8648 146.039 48.6138C146.245 48.3996 146.48 48.214 146.736 48.0622C146.748 48.0512 146.765 48.0452 146.782 48.0452C146.798 48.0452 146.814 48.0512 146.827 48.0622C146.84 48.0785 146.851 48.0973 146.857 48.1176C146.864 48.138 146.867 48.1593 146.864 48.1806V49.4225C146.864 49.4764 146.852 49.5296 146.83 49.5785C146.811 49.6193 146.786 49.6562 146.754 49.6868C146.646 49.7667 146.545 49.8571 146.456 49.9568C146.363 50.0591 146.282 50.1715 146.215 50.2919C146.142 50.4198 146.089 50.5574 146.056 50.7006C146.017 50.8642 145.998 51.032 146 51.2003C146 51.3933 145.989 51.5863 145.965 51.7778C145.944 51.9498 145.91 52.1201 145.866 52.2877C145.83 52.4266 145.781 52.5623 145.722 52.6935C145.683 52.7908 145.63 52.8814 145.564 52.9621C145.595 52.9641 145.626 52.9736 145.654 52.9899C145.682 53.0063 145.705 53.0289 145.722 53.0559C145.785 53.1356 145.833 53.2249 145.866 53.3202C145.912 53.451 145.945 53.5859 145.965 53.7232C145.989 53.8915 146.001 54.0614 146 54.2315C145.996 54.3779 146.015 54.5243 146.057 54.6647C146.081 54.7564 146.137 54.8363 146.216 54.8899C146.289 54.933 146.373 54.9526 146.457 54.9463C146.56 54.9385 146.66 54.9141 146.754 54.8741C146.768 54.8693 146.782 54.8684 146.796 54.8718C146.81 54.8752 146.822 54.8825 146.831 54.8928C146.857 54.9254 146.87 54.9668 146.866 55.0083V56.2532C146.865 56.3097 146.852 56.3653 146.828 56.4164C146.81 56.4615 146.777 56.5002 146.737 56.5276C146.523 56.6551 146.286 56.7409 146.04 56.7803C145.823 56.8188 145.598 56.7815 145.405 56.6749C145.197 56.5457 145.036 56.3535 144.944 56.1261C144.81 55.7829 144.749 55.4155 144.765 55.0474C144.767 54.8727 144.742 54.6987 144.691 54.5318C144.642 54.3874 144.561 54.3036 144.447 54.2964H144.347C144.233 54.2835 144.176 54.1895 144.176 54.0076L144.174 53.5368Z" fill="white"/>
<path d="M152.014 49.4816C152.015 49.6564 151.954 49.8258 151.844 49.9611L151.743 50.081C151.624 50.2328 151.54 50.4102 151.5 50.5994C151.452 50.7957 151.427 50.9968 151.426 51.1987C151.429 51.6342 151.369 52.0677 151.245 52.4855C151.136 52.8631 150.98 53.2263 150.784 53.5671C150.61 53.8721 150.397 54.1531 150.151 54.4032C149.944 54.6175 149.709 54.8035 149.454 54.9563C149.441 54.9673 149.425 54.9733 149.408 54.9733C149.392 54.9733 149.375 54.9673 149.363 54.9563C149.348 54.9405 149.338 54.9219 149.331 54.9018C149.325 54.8816 149.323 54.8604 149.325 54.8393V53.5973C149.325 53.5435 149.336 53.4902 149.36 53.4415C149.376 53.3999 149.403 53.3627 149.437 53.3331C149.545 53.2528 149.644 53.1618 149.734 53.0616C149.827 52.9601 149.907 52.8482 149.975 52.728C150.047 52.5994 150.1 52.4613 150.134 52.3179C150.173 52.1547 150.191 51.9874 150.19 51.8197C150.19 51.4622 150.235 51.1061 150.323 50.7597C150.361 50.6155 150.409 50.4741 150.468 50.3366C150.505 50.2359 150.559 50.1418 150.627 50.0579C150.595 50.0568 150.565 50.0484 150.536 50.0336C150.509 50.0189 150.485 49.998 150.468 49.9727C150.406 49.8999 150.356 49.8168 150.323 49.7272C150.276 49.5987 150.243 49.4656 150.225 49.33C150.201 49.152 150.189 48.9725 150.19 48.7928C150.195 48.6464 150.176 48.5001 150.134 48.3596C150.113 48.2718 150.061 48.1946 149.987 48.1429C149.913 48.0911 149.823 48.0686 149.734 48.0795C149.631 48.0867 149.531 48.1106 149.437 48.1502C149.423 48.1555 149.409 48.1564 149.395 48.1531C149.381 48.1497 149.369 48.1421 149.36 48.1314C149.346 48.1154 149.337 48.0969 149.331 48.0771C149.325 48.0573 149.323 48.0365 149.325 48.0159V46.774C149.325 46.7179 149.338 46.6625 149.363 46.6122C149.381 46.5671 149.413 46.5285 149.454 46.501C149.668 46.3729 149.905 46.2866 150.151 46.2469C150.368 46.2088 150.591 46.2465 150.784 46.3537C150.993 46.4822 151.154 46.6746 151.245 46.9025C151.381 47.2455 151.443 47.613 151.426 47.9812C151.423 48.1555 151.449 48.329 151.5 48.4954C151.549 48.6398 151.63 48.7235 151.743 48.7308H151.844C151.958 48.7438 152.014 48.8376 152.014 49.0124V49.4816Z" fill="white"/>
<path d="M151.094 8.85878L139.591 15.4858C139.456 15.5726 139.344 15.6899 139.264 15.8283C139.184 15.9666 139.138 16.1219 139.13 16.2815V32.0223C139.139 32.1812 139.186 32.3355 139.267 32.4728C139.347 32.6101 139.459 32.7264 139.593 32.8123L141.42 33.852C141.563 33.9236 141.722 33.9608 141.881 33.9608C142.041 33.9608 142.199 33.9236 142.343 33.852L153.847 27.2235C153.98 27.1366 154.092 27.0192 154.171 26.8809C154.251 26.7425 154.297 26.5873 154.306 26.4279V10.6841C154.297 10.525 154.251 10.3702 154.171 10.2326C154.09 10.0949 153.978 9.97841 153.843 9.89273L152.015 8.85445C151.872 8.78322 151.714 8.7465 151.554 8.74727C151.395 8.74803 151.236 8.78619 151.094 8.85878Z" fill="#5E99FF"/>
<path d="M142.343 33.8419C142.199 33.9118 142.041 33.9481 141.881 33.9481C141.722 33.9481 141.563 33.9118 141.42 33.8419L139.593 32.8007C139.459 32.7155 139.347 32.5993 139.266 32.4619C139.185 32.3245 139.138 32.1699 139.13 32.0108V16.2699C139.136 16.1035 139.185 15.9417 139.274 15.8007L142.018 17.379C141.934 17.5155 141.887 17.6712 141.882 17.831V33.5805C141.882 33.8433 142.071 33.9979 142.343 33.8419Z" fill="#276CE3"/>
<path d="M153.845 10.4199L142.342 17.0469C142.207 17.1337 142.096 17.2511 142.016 17.3894C141.936 17.5277 141.889 17.6831 141.881 17.8426V33.5806C141.881 33.8694 142.087 33.9922 142.342 33.8463L153.845 27.2179C153.98 27.1309 154.091 27.0135 154.171 26.8751C154.251 26.7368 154.297 26.5816 154.305 26.4221V10.6842C154.305 10.391 154.1 10.2726 153.845 10.4199Z" fill="#377DF7"/>
<path d="M143.365 24.8292C143.362 24.7448 143.378 24.6608 143.408 24.5823C143.445 24.5017 143.487 24.4239 143.536 24.3497L145.889 20.5431C145.901 20.5273 145.915 20.5125 145.928 20.4983L145.955 20.4795C145.967 20.4693 145.982 20.4638 145.998 20.4638C146.014 20.4638 146.03 20.4693 146.042 20.4795C146.056 20.4954 146.066 20.5137 146.072 20.5336C146.079 20.5534 146.081 20.5743 146.079 20.595V22.0637C146.081 22.1698 146.059 22.275 146.011 22.3699C145.974 22.4392 145.934 22.5063 145.889 22.5706L144.86 24.1591L145.889 24.5606C145.932 24.5744 145.973 24.5937 146.011 24.6183C146.055 24.6472 146.079 24.7223 146.079 24.8422V26.3108C146.079 26.365 146.066 26.4183 146.042 26.4668C146.025 26.5105 145.995 26.5475 145.955 26.5722C145.946 26.5773 145.938 26.5808 145.928 26.5823C145.916 26.5853 145.902 26.5853 145.889 26.5823L143.536 25.4935C143.487 25.4747 143.444 25.4456 143.408 25.4083C143.373 25.3492 143.358 25.2803 143.365 25.2119V24.8292Z" fill="white"/>
<path d="M148.496 18.3769C148.518 18.2952 148.547 18.2159 148.585 18.1401C148.622 18.0629 148.682 17.9987 148.755 17.9552L149.545 17.5003C149.558 17.4893 149.574 17.4833 149.59 17.4833C149.607 17.4833 149.623 17.4893 149.636 17.5003C149.65 17.5166 149.66 17.5355 149.667 17.5558C149.673 17.5761 149.675 17.5975 149.673 17.6187C149.673 17.6484 149.668 17.678 149.662 17.7069L147.672 26.1881C147.653 26.267 147.626 26.3435 147.589 26.4163C147.553 26.4973 147.491 26.5645 147.413 26.6083L146.642 27.0546C146.63 27.0655 146.613 27.0716 146.596 27.0716C146.58 27.0716 146.564 27.0655 146.551 27.0546C146.537 27.0386 146.526 27.0198 146.519 26.9994C146.512 26.9791 146.511 26.9575 146.512 26.9362C146.513 26.9064 146.517 26.8768 146.525 26.8481L148.496 18.3769Z" fill="white"/>
<path d="M152.823 19.7486C152.826 19.8332 152.811 19.9173 152.779 19.9956C152.743 20.0764 152.702 20.1542 152.653 20.2281L150.298 24.0333C150.287 24.0495 150.274 24.0645 150.261 24.0781C150.252 24.0859 150.243 24.0927 150.233 24.0983C150.221 24.1091 150.205 24.115 150.189 24.115C150.172 24.115 150.157 24.1091 150.145 24.0983C150.119 24.0658 150.106 24.0243 150.11 23.9827V22.5112C150.106 22.4064 150.13 22.3024 150.178 22.2094C150.222 22.13 150.263 22.065 150.298 22.013L151.327 20.4245L150.298 20.0317C150.255 20.0177 150.215 19.9967 150.178 19.9696C150.131 19.9379 150.11 19.8627 150.11 19.7414V18.2728C150.11 18.2189 150.122 18.1657 150.145 18.1168C150.163 18.0736 150.193 18.0369 150.233 18.0114L150.261 17.9999C150.273 17.9977 150.285 17.9977 150.298 17.9999L152.653 19.0873C152.701 19.1052 152.744 19.1344 152.779 19.1724C152.816 19.231 152.831 19.3002 152.823 19.3689V19.7486Z" fill="white"/>
</svg>
