<svg width="1122" height="843" viewBox="0 0 1122 843" fill="none" xmlns="http://www.w3.org/2000/svg">
<path opacity="0.2" d="M380.642 660.078L589.161 780.513" stroke="#8888BA" stroke-width="0.986368" stroke-miterlimit="10"/>
<path opacity="0.2" d="M914.761 598.923L639.268 757.925" stroke="#8888BA" stroke-width="0.986368" stroke-miterlimit="10"/>
<path opacity="0.2" d="M548.621 301.138L340.201 421.475V518.238" stroke="#8888BA" stroke-width="0.986368" stroke-miterlimit="10"/>
<path opacity="0.2" d="M279.244 223.413L70.7255 343.75V440.512" stroke="#8888BA" stroke-width="0.986368" stroke-miterlimit="10"/>
<path opacity="0.2" d="M724.491 498.018L605.732 566.669V717.386" stroke="#8888BA" stroke-width="0.986368" stroke-miterlimit="10"/>
<path opacity="0.2" d="M907.561 370.085L699.141 490.422" stroke="#8888BA" stroke-width="0.986368" stroke-miterlimit="10"/>
<path opacity="0.2" d="M99.5275 488.844L308.046 609.181" stroke="#8888BA" stroke-width="0.986368" stroke-miterlimit="10"/>
<path opacity="0.2" d="M849.069 128.031L573.675 287.033" stroke="#8888BA" stroke-width="0.986368" stroke-miterlimit="10"/>
<g clip-path="url(#clip0_3039_26379)">
<path d="M514.394 424.074L366.142 338.456C355.884 332.538 357.166 322.181 369.002 315.375L511.533 233.112C523.37 226.306 541.223 225.517 551.481 231.435L699.733 317.052C709.992 322.97 708.709 333.327 696.873 340.133L554.342 422.495C542.505 429.301 524.652 429.992 514.394 424.074Z" fill="#E7E8EB"/>
<path d="M692.73 326.521V284.995H630.293L537.574 231.534C527.315 225.615 509.462 226.404 497.626 233.21L407.767 285.094H345.231V327.902C344.935 331.946 347.204 335.793 352.135 338.555L500.387 424.172C510.646 430.091 528.499 429.301 540.335 422.495L682.866 340.232C688.982 336.681 692.336 332.242 692.632 327.902C692.829 327.31 692.73 326.916 692.73 326.521Z" fill="url(#paint0_linear_3039_26379)"/>
<path d="M500.486 381.265L352.234 295.648C341.976 289.73 343.258 279.373 355.095 272.567L497.626 190.303C509.462 183.497 527.315 182.708 537.574 188.626L685.826 274.244C696.084 280.162 694.802 290.519 682.965 297.325L540.434 379.588C528.598 386.493 510.744 387.183 500.486 381.265Z" fill="url(#paint1_linear_3039_26379)"/>
<path d="M520.213 185.667C526.724 185.667 532.74 187.048 537.08 189.514L685.332 275.131C689.475 277.498 691.744 280.753 691.744 284.304C691.744 288.644 688.39 293.083 682.472 296.535L539.941 378.799C533.825 382.35 525.836 384.323 517.846 384.323C511.336 384.323 505.319 382.942 500.979 380.476L352.727 294.859C348.584 292.491 346.316 289.236 346.316 285.685C346.316 281.345 349.669 276.907 355.588 273.454L498.119 191.191C504.234 187.64 512.224 185.667 520.213 185.667ZM520.213 184.681C512.323 184.681 504.037 186.555 497.626 190.303L355.095 272.567C343.258 279.373 341.976 289.729 352.234 295.648L500.486 381.265C505.122 383.928 511.336 385.21 517.846 385.21C525.737 385.21 534.023 383.336 540.434 379.588L682.965 297.325C694.802 290.519 696.084 280.162 685.826 274.243L537.574 188.626C532.938 185.963 526.724 184.681 520.213 184.681Z" fill="white"/>
<path d="M831.513 241.891L683.261 156.273C673.003 150.355 674.285 139.998 686.121 133.192L828.652 50.9286C840.489 44.1227 858.342 43.3336 868.601 49.2518L1016.85 134.869C1027.11 140.787 1025.83 151.144 1013.99 157.95L871.461 240.214C859.625 247.118 841.771 247.809 831.513 241.891Z" fill="#E7E8EB"/>
<path d="M1009.85 144.338V102.812H947.313L854.594 49.3504C844.336 43.4322 826.483 44.2213 814.646 51.0273L724.787 102.911H662.251V145.719C661.955 149.763 664.224 153.61 669.156 156.372L817.408 241.989C827.666 247.907 845.52 247.118 857.356 240.312L999.887 158.049C1006 154.498 1009.36 150.059 1009.65 145.719C1009.95 145.226 1009.85 144.733 1009.85 144.338Z" fill="url(#paint2_linear_3039_26379)"/>
<path d="M817.605 199.082L669.353 113.465C659.095 107.547 660.377 97.1896 672.214 90.3836L814.745 8.12006C826.581 1.31408 844.434 0.524979 854.693 6.44322L1002.94 92.0605C1013.2 97.9787 1011.92 108.336 1000.08 115.142L857.553 197.405C845.717 204.31 827.863 205 817.605 199.082Z" fill="url(#paint3_linear_3039_26379)"/>
<path d="M837.333 3.48393C843.843 3.48393 849.86 4.86486 854.2 7.33079L1002.45 92.948C1006.59 95.3153 1008.86 98.5703 1008.86 102.121C1008.86 106.461 1005.51 110.9 999.591 114.352L857.06 196.616C850.945 200.167 842.955 202.14 834.965 202.14C828.455 202.14 822.438 200.759 818.098 198.293L669.846 112.675C665.704 110.308 663.435 107.053 663.435 103.502C663.435 99.1622 666.789 94.7235 672.707 91.2712L815.238 9.00762C821.353 5.45668 829.343 3.48393 837.333 3.48393ZM837.333 2.49756C829.442 2.49756 821.156 4.37167 814.745 8.11989L672.214 90.4821C660.377 97.2881 659.095 107.645 669.353 113.563L817.605 199.18C822.241 201.844 828.455 203.126 834.965 203.126C842.856 203.126 851.142 201.252 857.553 197.504L1000.08 115.24C1011.92 108.434 1013.2 98.0772 1002.94 92.1589L854.693 6.44305C850.057 3.77984 843.843 2.49756 837.333 2.49756Z" fill="white"/>
<path d="M514.887 646.797V605.27H452.351L359.632 551.809C349.374 545.891 331.52 546.68 319.684 553.486L229.825 605.369H167.289V648.178C166.993 652.222 169.262 656.069 174.194 658.831L322.446 744.448C332.704 750.366 350.557 749.577 362.394 742.771L505.122 660.409C511.237 656.858 514.591 652.419 514.887 648.079C514.887 647.684 514.887 647.191 514.887 646.797Z" fill="url(#paint4_linear_3039_26379)"/>
<path d="M322.643 701.541L174.391 615.923C164.133 610.005 165.415 599.648 177.251 592.842L319.782 510.579C331.619 503.773 349.472 502.983 359.73 508.902L507.982 594.519C518.241 600.437 516.958 610.794 505.122 617.6L362.591 699.864C350.754 706.768 332.901 707.459 322.643 701.541Z" fill="url(#paint5_linear_3039_26379)"/>
<path d="M507.982 594.519C518.241 600.437 516.958 610.794 505.122 617.6L362.591 699.864C350.754 706.67 332.901 707.459 322.643 701.541L174.391 615.923C164.133 610.005 165.415 599.648 177.251 592.842" stroke="white" stroke-width="0.986374"/>
</g>
<path d="M472.374 599.056L355.884 531.786C347.795 527.15 333.592 527.643 324.221 533.068L211.281 598.267C210.196 598.958 209.111 599.648 208.322 600.339H203.588V608.032C203.39 611.189 205.166 614.246 209.013 616.515L326.49 684.279C334.578 688.915 348.782 688.422 358.152 682.997L471.092 617.797C475.925 615.036 478.588 611.386 478.786 608.032V598.958L472.374 599.056Z" fill="#C9C9DC"/>
<path d="M326.49 676.585L209.013 608.821C200.924 604.185 201.911 595.998 211.281 590.573L324.221 525.374C333.592 519.949 347.795 519.357 355.884 524.092L473.361 591.856C481.449 596.492 480.463 604.678 471.092 610.104L358.152 675.303C348.782 680.728 334.578 681.32 326.49 676.585Z" fill="white"/>
<mask id="mask0_3039_26379" style="mask-type:luminance" maskUnits="userSpaceOnUse" x="284" y="565" width="56" height="32">
<path d="M319.905 583.894L297.501 583.898L297.498 596.833L284.697 589.443V583.898V576.508H307.105L319.905 583.894ZM326.307 565.419H284.701V572.809L339.104 572.806C339.104 572.809 326.307 565.419 326.307 565.419Z" fill="white"/>
</mask>
<g mask="url(#mask0_3039_26379)">
<path d="M284.697 583.898L319.905 583.894L307.105 576.504L284.701 576.508L284.697 583.898Z" fill="#39CCFB"/>
</g>
<mask id="mask1_3039_26379" style="mask-type:luminance" maskUnits="userSpaceOnUse" x="284" y="565" width="56" height="32">
<path d="M319.905 583.894L297.501 583.898L297.498 596.833L284.697 589.443V583.898V576.508H307.105L319.905 583.894ZM326.307 565.419H284.701V572.809L339.104 572.806C339.104 572.809 326.307 565.419 326.307 565.419Z" fill="white"/>
</mask>
<g mask="url(#mask1_3039_26379)">
<path d="M284.701 565.419H326.307L339.108 572.809L284.705 572.813L284.701 565.419Z" fill="#39CCFB"/>
</g>
<mask id="mask2_3039_26379" style="mask-type:luminance" maskUnits="userSpaceOnUse" x="284" y="565" width="56" height="32">
<path d="M319.905 583.894L297.501 583.898L297.498 596.833L284.697 589.443V583.898V576.508H307.105L319.905 583.894ZM326.307 565.419H284.701V572.809L339.104 572.806C339.104 572.809 326.307 565.419 326.307 565.419Z" fill="white"/>
</mask>
<g mask="url(#mask2_3039_26379)">
<path d="M284.701 589.443L297.501 596.833V583.898H284.697L284.701 589.443Z" fill="#045698"/>
</g>
<mask id="mask3_3039_26379" style="mask-type:luminance" maskUnits="userSpaceOnUse" x="284" y="565" width="56" height="32">
<path d="M319.905 583.894L297.501 583.898L297.498 596.833L284.697 589.443V583.898V576.508H307.105L319.905 583.894ZM326.307 565.419H284.701V572.809L339.104 572.806C339.104 572.809 326.307 565.419 326.307 565.419Z" fill="white"/>
</mask>
<g mask="url(#mask3_3039_26379)">
<path d="M297.501 583.898H284.697L297.479 587.482L297.501 583.898Z" fill="url(#paint6_linear_3039_26379)"/>
</g>
<mask id="mask4_3039_26379" style="mask-type:luminance" maskUnits="userSpaceOnUse" x="284" y="565" width="56" height="32">
<path d="M319.905 583.894L297.501 583.898L297.498 596.833L284.697 589.443V583.898V576.508H307.105L319.905 583.894ZM326.307 565.419H284.701V572.809L339.104 572.806C339.104 572.809 326.307 565.419 326.307 565.419Z" fill="white"/>
</mask>
<g mask="url(#mask4_3039_26379)">
<path d="M284.705 576.504H297.509V583.894L284.701 583.898L284.705 576.504Z" fill="#16B7FB"/>
</g>
<path d="M319.905 583.894L297.501 583.898L297.498 596.833L284.697 589.443V583.898V576.508H307.105L319.905 583.894ZM326.307 565.419H284.701V572.809L339.104 572.806C339.104 572.809 326.307 565.419 326.307 565.419Z" fill="url(#paint7_radial_3039_26379)"/>
<path d="M332.005 581.595L343.238 588.028L341.093 589.253L332.209 584.148L325.572 587.926L333.537 592.521L331.392 593.747L323.427 589.151L315.054 593.951L312.807 592.623L332.005 581.595Z" fill="#808080"/>
<path d="M345.893 589.56L348.139 590.887L328.839 602.018L326.593 600.69L345.893 589.56Z" fill="#808080"/>
<path d="M336.805 607.226C335.069 606.205 334.456 605.286 334.456 604.162C334.558 603.141 335.477 602.018 337.213 601.099L345.893 596.095L348.139 597.423L339.766 602.222C338.438 602.937 337.826 603.652 337.724 604.367C337.724 605.081 338.132 605.694 339.255 606.307C339.97 606.715 340.991 607.022 341.91 607.124C342.931 607.226 343.953 607.226 344.872 607.022C345.791 606.817 346.812 606.511 347.527 606.103L355.287 601.609L357.534 602.937L343.748 610.902L341.604 609.677L343.646 608.553L343.544 608.451C342.523 608.553 341.298 608.655 339.97 608.349C338.847 608.145 337.724 607.736 336.805 607.226Z" fill="#808080"/>
<path d="M352.632 616.11C352.122 615.803 351.713 615.395 351.305 614.986C351.101 614.578 350.896 614.271 350.896 613.863C350.896 613.455 350.999 613.046 351.203 612.74C351.407 612.331 351.816 612.025 352.53 611.616L360.7 606.919L358.249 605.49L360.291 604.366L362.742 605.796L366.622 603.549L368.869 604.877L364.988 607.123L368.256 609.064L366.214 610.187L362.946 608.247L355.492 612.536C354.777 612.944 354.266 613.352 354.164 613.761C354.062 614.169 354.368 614.578 354.981 614.986C355.492 615.293 356.206 615.497 356.921 615.599L354.675 616.926C354.266 616.824 353.96 616.722 353.449 616.62C353.449 616.518 353.041 616.314 352.632 616.11Z" fill="#808080"/>
<path d="M362.333 621.624C361.823 621.318 361.414 620.909 361.006 620.501C360.802 620.092 360.597 619.786 360.597 619.378C360.597 618.969 360.7 618.561 360.904 618.254C361.108 617.948 361.517 617.54 362.231 617.131L370.401 612.434L368.154 611.106L370.196 609.983L372.647 611.413L376.528 609.166L378.774 610.494L374.894 612.74L378.161 614.68L376.119 615.804L372.851 613.863L365.397 618.152C364.682 618.561 364.172 618.969 364.069 619.378C363.967 619.786 364.274 620.195 364.886 620.603C365.397 620.909 366.112 621.114 366.827 621.216L364.58 622.543C364.172 622.441 363.865 622.339 363.355 622.237C363.15 622.135 362.742 621.93 362.333 621.624Z" fill="#808080"/>
<path d="M372.239 627.649C370.911 626.934 370.094 626.015 369.686 625.096C369.277 624.075 369.379 623.156 369.788 622.237C370.298 621.318 371.32 620.398 372.647 619.582C373.975 618.867 375.506 618.254 377.14 617.948C378.774 617.641 380.51 617.539 382.144 617.743C383.778 617.948 385.207 618.458 386.637 619.173C388.067 619.888 388.883 620.807 389.19 621.726C389.496 622.645 389.496 623.564 388.986 624.483C388.475 625.402 387.556 626.321 386.228 627.036C385.922 627.24 385.718 627.342 385.412 627.444L374.383 621.113C373.464 621.828 372.749 622.441 372.443 623.053C372.137 623.768 372.239 624.381 372.545 624.994C372.953 625.606 373.362 626.117 374.179 626.525C376.017 627.547 378.161 627.853 380.714 627.444L381.633 629.078C379.897 629.282 378.263 629.487 376.527 629.18C375.302 628.976 373.77 628.568 372.239 627.649ZM385.003 624.892C385.514 624.585 385.922 624.075 386.228 623.564C386.535 623.053 386.535 622.543 386.331 621.93C386.126 621.317 385.616 620.807 384.595 620.194C383.573 619.582 382.246 619.173 380.714 619.173C379.285 619.071 377.957 619.377 376.425 619.888L385.003 624.892Z" fill="#808080"/>
<path d="M395.521 624.688L397.665 625.913L395.419 627.24L395.521 627.343C396.542 627.138 397.665 626.934 398.891 627.24C400.218 627.343 401.239 627.751 402.056 628.262C402.669 628.67 403.077 628.976 403.384 629.385L400.933 630.814C400.729 630.304 400.218 629.895 399.401 629.487C398.789 629.078 397.87 628.874 397.053 628.772C396.134 628.67 395.215 628.67 394.193 628.874C393.274 629.079 392.355 629.283 391.641 629.691L383.982 634.082L381.735 632.755L395.521 624.688Z" fill="#808080"/>
<path d="M650.217 278.781L533.727 211.51C525.638 206.874 511.435 207.367 502.064 212.793L389.124 277.992C388.039 278.682 386.954 279.373 386.165 280.063H381.431V287.757C381.233 290.913 383.009 293.971 386.856 296.24L504.333 364.004C512.421 368.64 526.625 368.146 535.995 362.721L648.935 297.522C653.768 294.76 656.432 291.111 656.629 287.757V278.682L650.217 278.781Z" fill="#C9C9DC"/>
<path d="M504.333 356.31L386.856 288.546C378.768 283.91 379.754 275.723 389.124 270.298L502.064 205.099C511.435 199.674 525.639 199.082 533.727 203.816L651.204 271.58C659.292 276.216 658.306 284.403 648.935 289.828L535.996 355.027C526.625 360.452 512.421 361.044 504.333 356.31Z" fill="white"/>
<path d="M967.337 96.5978L850.846 29.3271C842.758 24.6912 828.554 25.1843 819.183 30.6094L706.342 95.8087C705.257 96.4992 704.172 97.1896 703.383 97.8801H698.648V105.574C698.451 108.73 700.227 111.788 704.073 114.057L821.551 181.82C829.639 186.456 843.843 185.963 853.213 180.538L966.153 115.339C970.986 112.577 973.649 108.927 973.847 105.574V96.4992L967.337 96.5978Z" fill="#C9C9DC"/>
<path d="M821.452 174.127L703.975 106.363C695.887 101.727 696.873 93.5399 706.244 88.1148L819.183 22.9155C828.554 17.4904 842.758 16.8986 850.846 21.6332L968.323 89.3971C976.411 94.033 975.425 102.22 966.054 107.645L853.115 172.844C843.744 178.269 829.54 178.861 821.452 174.127Z" fill="white"/>
<g clip-path="url(#clip1_3039_26379)">
<path d="M708.611 570.846C756.386 570.846 795.116 548.5 795.116 520.935C795.116 493.371 756.386 471.025 708.611 471.025C660.835 471.025 622.106 493.371 622.106 520.935C622.106 548.5 660.835 570.846 708.611 570.846Z" fill="#E7E8EB"/>
<path d="M778.347 505.943C774.303 498.446 767.201 491.344 756.943 485.426C723.111 465.896 668.367 465.896 634.633 485.426C624.375 491.344 617.174 498.446 613.228 505.943H609.382V520.738C609.382 533.561 617.864 546.285 634.731 556.05C668.564 575.581 723.308 575.581 757.042 556.05C773.909 546.285 782.392 533.561 782.392 520.738V505.943H778.347Z" fill="#C9C9DC"/>
<path d="M695.689 555.853C743.465 555.853 782.194 533.508 782.194 505.943C782.194 478.378 743.465 456.032 695.689 456.032C647.914 456.032 609.184 478.378 609.184 505.943C609.184 533.508 647.914 555.853 695.689 555.853Z" fill="url(#paint8_linear_3039_26379)"/>
<path d="M695.689 457.019C718.573 457.019 740.175 462.148 756.351 471.518C772.331 480.79 781.208 493.021 781.208 505.943C781.208 518.963 772.429 531.194 756.351 540.367C740.175 549.738 718.573 554.867 695.689 554.867C672.707 554.867 651.204 549.738 635.027 540.367C619.048 531.095 610.171 518.864 610.171 505.943C610.171 492.923 618.949 480.692 635.027 471.518C651.204 462.148 672.805 457.019 695.689 457.019ZM695.689 456.032C673.595 456.032 651.401 460.865 634.534 470.631C600.702 490.161 600.702 521.725 634.534 541.255C651.401 551.02 673.595 555.853 695.689 555.853C717.784 555.853 739.978 551.02 756.845 541.255C790.677 521.725 790.677 490.161 756.845 470.631C739.978 460.865 717.883 456.032 695.689 456.032Z" fill="white"/>
<path d="M92.7192 536.915C137.28 536.915 173.405 516.071 173.405 490.358C173.405 464.645 137.28 443.801 92.7192 443.801C48.1579 443.801 12.0338 464.645 12.0338 490.358C12.0338 516.071 48.1579 536.915 92.7192 536.915Z" fill="#E7E8EB"/>
<path d="M157.82 476.45C154.072 469.447 147.364 462.838 137.796 457.314C106.232 439.165 55.1383 439.067 23.673 457.314C14.1051 462.838 7.3978 469.447 3.64958 476.45H0V490.259C0 502.194 7.89099 514.13 23.673 523.204C55.2369 541.452 106.331 541.452 137.796 523.204C153.578 514.13 161.469 502.194 161.469 490.259V476.45H157.82Z" fill="#C9C9DC"/>
<path d="M80.6854 523.007C125.247 523.007 161.371 502.163 161.371 476.45C161.371 450.737 125.247 429.893 80.6854 429.893C36.1241 429.893 0 450.737 0 476.45C0 502.163 36.1241 523.007 80.6854 523.007Z" fill="url(#paint9_linear_3039_26379)"/>
<path d="M80.6854 429.794V430.781C102.09 430.781 122.113 435.614 137.303 444.294C152.197 452.876 160.483 464.317 160.483 476.351C160.483 488.385 152.296 499.827 137.303 508.408C122.212 517.089 102.09 521.922 80.6854 521.922C59.2811 521.922 39.159 517.089 24.0675 508.408C9.17328 499.926 0.986379 488.484 0.986379 476.45C0.986379 464.416 9.17328 452.974 24.1662 444.393C39.2577 435.713 59.3797 430.879 80.784 430.879L80.6854 429.794ZM80.6854 429.794C60.0702 429.794 39.3563 434.332 23.5743 443.406C-7.98962 461.556 -7.98962 491.147 23.5743 509.296C39.3563 518.371 59.9715 522.908 80.6854 522.908C101.301 522.908 122.014 518.371 137.796 509.296C169.36 491.147 169.36 461.556 137.796 443.406C122.014 434.332 101.399 429.794 80.6854 429.794Z" fill="white"/>
<path d="M616.977 839.83C661.538 839.83 697.662 818.986 697.662 793.273C697.662 767.561 661.538 746.716 616.977 746.716C572.415 746.716 536.291 767.561 536.291 793.273C536.291 818.986 572.415 839.83 616.977 839.83Z" fill="#E7E8EB"/>
<path d="M682.077 779.267C678.329 772.264 671.622 765.655 662.054 760.131C630.49 741.982 579.396 741.883 547.931 760.131C538.363 765.655 531.655 772.264 527.907 779.267H524.258V793.076C524.258 805.011 532.149 816.947 547.931 826.021C579.494 844.269 630.589 844.269 662.054 826.021C677.836 816.947 685.727 805.011 685.727 793.076V779.267H682.077Z" fill="#C9C9DC"/>
<path d="M604.943 825.824C649.504 825.824 685.628 804.979 685.628 779.267C685.628 753.554 649.504 732.71 604.943 732.71C560.382 732.71 524.258 753.554 524.258 779.267C524.258 804.979 560.382 825.824 604.943 825.824Z" fill="url(#paint10_linear_3039_26379)"/>
<path d="M604.943 733.598C626.347 733.598 646.371 738.431 661.561 747.111C676.455 755.692 684.741 767.134 684.741 779.168C684.741 791.202 676.554 802.644 661.561 811.225C646.469 819.905 626.347 824.739 604.943 824.739C583.539 824.739 563.417 819.905 548.325 811.225C533.431 802.644 525.145 791.202 525.145 779.168C525.145 767.134 533.332 755.692 548.325 747.111C563.417 738.431 583.539 733.598 604.943 733.598ZM604.943 732.611C584.328 732.611 563.614 737.149 547.832 746.223C516.268 764.373 516.268 793.964 547.832 812.113C563.614 821.188 584.229 825.725 604.943 825.725C625.558 825.725 646.272 821.188 662.054 812.113C693.618 793.964 693.618 764.373 662.054 746.223C646.272 737.247 625.657 732.611 604.943 732.611Z" fill="white"/>
</g>
<g clip-path="url(#clip2_3039_26379)">
<path d="M682.077 758.257C678.329 751.254 671.622 744.645 662.054 739.121C630.49 720.874 579.396 720.874 547.931 739.121C538.363 744.645 531.655 751.254 527.907 758.257H524.258V772.066C524.258 784.002 532.149 795.937 547.931 805.011C579.494 823.259 630.589 823.259 662.054 805.011C677.836 795.937 685.727 784.002 685.727 772.066V758.257H682.077Z" fill="#C9C9DC"/>
<path d="M604.943 804.814C649.504 804.814 685.628 783.97 685.628 758.257C685.628 732.544 649.504 711.7 604.943 711.7C560.382 711.7 524.258 732.544 524.258 758.257C524.258 783.97 560.382 804.814 604.943 804.814Z" fill="url(#paint11_linear_3039_26379)"/>
<path d="M604.943 711.7V712.687C626.347 712.687 646.371 717.52 661.561 726.2C676.455 734.781 684.741 746.223 684.741 758.257C684.741 770.291 676.554 781.733 661.561 790.314C646.469 798.994 626.347 803.828 604.943 803.828C583.539 803.828 563.417 798.994 548.325 790.314C527.71 778.478 520.115 761.118 528.499 745.138C532.247 738.036 539.053 731.428 548.325 726.101C563.417 717.421 583.539 712.588 604.943 712.588V711.7ZM604.943 711.7C584.328 711.7 563.614 716.238 547.832 725.312C538.067 730.934 531.359 737.642 527.611 744.744C519.326 760.624 526.033 778.675 547.832 791.202C563.614 800.277 584.229 804.814 604.943 804.814C625.558 804.814 646.272 800.277 662.054 791.202C693.618 773.053 693.618 743.461 662.054 725.312C646.272 716.238 625.657 711.7 604.943 711.7Z" fill="white"/>
<path d="M778.347 483.453C774.303 475.957 767.201 468.855 756.943 462.937C723.111 443.407 668.367 443.407 634.633 462.937C624.375 468.855 617.174 475.957 613.228 483.453H609.382V498.249C609.382 511.072 617.864 523.796 634.731 533.561C668.564 553.091 723.308 553.091 757.042 533.561C773.909 523.796 782.392 511.072 782.392 498.249V483.453H778.347Z" fill="#C9C9DC"/>
<path d="M695.689 533.364C743.465 533.364 782.194 511.018 782.194 483.453C782.194 455.889 743.465 433.543 695.689 433.543C647.914 433.543 609.184 455.889 609.184 483.453C609.184 511.018 647.914 533.364 695.689 533.364Z" fill="url(#paint12_linear_3039_26379)"/>
<path d="M695.689 434.529C718.573 434.529 740.175 439.658 756.351 449.029C772.331 458.301 781.208 470.532 781.208 483.453C781.208 496.474 772.429 508.705 756.351 517.878C740.175 527.248 718.573 532.378 695.689 532.378C672.707 532.378 651.204 527.248 635.027 517.878C619.048 508.606 610.171 496.375 610.171 483.453C610.171 470.433 618.949 458.202 635.027 449.029C651.204 439.658 672.805 434.529 695.689 434.529ZM695.689 433.543C673.595 433.543 651.401 438.376 634.534 448.141C600.702 467.671 600.702 499.235 634.534 518.766C651.401 528.531 673.595 533.364 695.689 533.364C717.784 533.364 739.978 528.531 756.845 518.766C790.677 499.235 790.677 467.671 756.845 448.141C739.978 438.376 717.883 433.543 695.689 433.543Z" fill="white"/>
<path d="M157.82 455.44C154.072 448.437 147.364 441.828 137.796 436.305C106.232 418.155 55.1383 418.057 23.673 436.305C14.1051 441.828 7.3978 448.437 3.64958 455.44H0V469.25C0 481.185 7.89099 493.12 23.673 502.195C55.2369 520.442 106.331 520.442 137.796 502.195C153.578 493.12 161.469 481.185 161.469 469.25V455.44H157.82Z" fill="#C9C9DC"/>
<path d="M80.6854 501.997C125.247 501.997 161.371 481.153 161.371 455.44C161.371 429.728 125.247 408.883 80.6854 408.883C36.1241 408.883 0 429.728 0 455.44C0 481.153 36.1241 501.997 80.6854 501.997Z" fill="url(#paint13_linear_3039_26379)"/>
<path d="M80.6854 408.883V409.87C102.09 409.87 122.113 414.703 137.303 423.383C152.197 431.964 160.483 443.406 160.483 455.44C160.483 467.474 152.296 478.916 137.303 487.497C122.212 496.177 102.09 501.011 80.6854 501.011C59.2811 501.011 39.159 496.177 24.0675 487.497C9.17328 478.916 0.986379 467.573 0.986379 455.44C0.986379 443.406 9.17328 431.964 24.1662 423.383C39.2577 414.703 59.3797 409.87 80.784 409.87L80.6854 408.883ZM80.6854 408.883C60.0702 408.883 39.3563 413.421 23.5743 422.495C-7.98962 440.645 -7.98962 470.236 23.5743 488.385C39.3563 497.46 59.9715 501.997 80.6854 501.997C101.301 501.997 122.014 497.46 137.796 488.385C169.36 470.236 169.36 440.645 137.796 422.495C122.014 413.421 101.399 408.883 80.6854 408.883Z" fill="white"/>
</g>
<path d="M604.943 795.542C640.625 795.542 669.55 778.849 669.55 758.257C669.55 737.665 640.625 720.972 604.943 720.972C569.261 720.972 540.335 737.665 540.335 758.257C540.335 778.849 569.261 795.542 604.943 795.542Z" fill="#C9C9DC"/>
<path d="M604.943 789.525C640.625 789.525 669.55 772.832 669.55 752.24C669.55 731.648 640.625 714.955 604.943 714.955C569.261 714.955 540.335 731.648 540.335 752.24C540.335 772.832 569.261 789.525 604.943 789.525Z" fill="white"/>
<path d="M695.689 523.402C733.931 523.402 764.933 505.516 764.933 483.454C764.933 461.391 733.931 443.505 695.689 443.505C657.447 443.505 626.446 461.391 626.446 483.454C626.446 505.516 657.447 523.402 695.689 523.402Z" fill="#C9C9DC"/>
<path d="M695.689 516.99C733.931 516.99 764.933 499.105 764.933 477.042C764.933 454.979 733.931 437.094 695.689 437.094C657.447 437.094 626.446 454.979 626.446 477.042C626.446 499.105 657.447 516.99 695.689 516.99Z" fill="white"/>
<path d="M662.942 481.382C662.744 481.283 662.547 481.185 662.35 481.185C662.153 481.185 661.857 481.185 661.659 481.283C661.659 481.283 661.561 481.283 661.462 481.382L655.248 488.188C655.149 488.286 655.149 488.484 655.149 488.582C655.248 488.681 655.347 488.78 655.445 488.878C655.741 489.076 656.234 489.174 656.629 489.076L668.367 485.426C668.367 485.426 668.367 485.426 668.465 485.426C668.663 485.327 668.663 485.13 668.663 485.031C668.663 484.933 668.465 484.736 668.367 484.637C668.169 484.538 667.775 484.44 667.479 484.538L657.813 487.596L663.04 481.974C663.139 481.875 663.139 481.776 663.139 481.678C663.139 481.579 663.04 481.48 662.942 481.382ZM684.543 494.402C684.149 494.106 683.36 494.106 682.965 494.402C682.571 494.599 682.571 495.092 682.965 495.29C683.36 495.586 684.149 495.586 684.543 495.29C684.938 494.994 684.938 494.599 684.543 494.402ZM675.173 492.331C673.693 491.443 671.227 491.443 669.748 492.232L668.268 493.12C667.479 493.613 667.085 494.205 667.183 494.797C667.282 495.388 667.775 495.98 668.663 496.473C669.353 496.868 669.945 497.065 670.537 497.164C670.833 497.262 671.129 497.262 671.326 497.262C671.523 497.262 671.819 497.262 671.918 497.164C672.115 497.065 672.115 496.967 672.214 496.868C672.214 496.769 672.214 496.572 672.016 496.473C671.918 496.375 671.72 496.375 671.523 496.375C671.326 496.375 671.227 496.375 671.03 496.276C670.734 496.177 670.34 496.177 669.846 495.882C669.353 495.586 668.959 495.191 668.959 494.895C668.86 494.599 669.057 494.205 669.55 494.007L669.846 493.81L672.608 495.388C672.904 495.586 673.2 495.783 673.693 495.783C674.186 495.882 674.68 495.684 675.271 495.388C676.751 494.501 676.554 493.12 675.173 492.331ZM685.628 498.347C684.839 497.854 683.951 497.657 683.261 497.657C682.472 497.657 681.781 497.854 681.387 498.15C680.795 498.545 680.598 498.841 680.696 499.235C680.795 499.63 681.091 499.926 681.387 500.222C681.683 500.518 681.979 500.813 682.077 501.109C682.176 501.405 682.176 501.504 681.781 501.8C681.584 501.898 681.387 501.997 681.091 501.997C680.795 501.997 680.401 501.898 679.907 501.603C679.316 501.307 679.217 501.011 679.118 500.813C679.118 500.715 679.02 500.616 679.02 500.517C679.02 500.419 678.921 500.32 678.822 500.222C678.625 500.123 678.428 500.123 678.23 500.123C678.033 500.123 677.836 500.222 677.737 500.32C677.54 500.419 677.54 500.518 677.441 500.715C677.343 500.912 677.441 501.011 677.54 501.208C677.737 501.603 678.132 501.997 678.822 502.293C679.513 502.688 680.302 502.983 680.992 502.983C681.781 502.983 682.472 502.885 683.064 502.49C683.754 502.096 683.952 501.701 683.952 501.307C683.952 500.912 683.656 500.616 683.36 500.222C683.064 499.827 682.768 499.63 682.669 499.334C682.571 499.137 682.571 498.939 682.866 498.742C683.064 498.643 683.261 498.545 683.656 498.545C683.951 498.545 684.346 498.643 684.839 498.841C685.234 499.038 685.332 499.235 685.53 499.432C685.628 499.531 685.628 499.63 685.727 499.63C685.826 499.63 685.826 499.728 685.924 499.827C686.122 499.926 686.417 499.926 686.615 499.926C686.812 499.926 687.009 499.827 687.108 499.728C687.305 499.63 687.305 499.531 687.305 499.334C687.305 499.235 687.206 499.038 687.108 498.939C686.417 498.939 686.023 498.643 685.628 498.347ZM666.591 487.497C666.197 487.3 665.704 487.201 665.408 487.399L661.857 489.47C660.377 490.259 660.377 491.739 661.857 492.627C663.336 493.514 665.802 493.514 667.282 492.627L670.833 490.555C671.03 490.456 671.03 490.358 671.03 490.161C671.03 489.963 670.931 489.963 670.734 489.865C670.537 489.766 670.34 489.667 670.142 489.667C669.945 489.667 669.649 489.667 669.55 489.766L665.999 491.837C665.21 492.232 663.829 492.331 663.04 491.837C662.251 491.344 662.35 490.555 663.04 490.161L666.591 488.089C666.789 487.991 666.789 487.892 666.789 487.695C666.887 487.695 666.789 487.596 666.591 487.497ZM681.584 496.079C681.387 495.98 681.19 495.882 680.992 495.882C680.795 495.882 680.499 495.882 680.401 495.98L673.89 499.728C673.397 500.024 673.003 500.222 672.608 500.32C672.214 500.419 672.016 500.419 671.622 500.222C671.326 500.024 670.734 500.024 670.438 500.222C670.34 500.32 670.142 500.419 670.142 500.517C670.142 500.616 670.241 500.813 670.438 500.912C671.129 501.307 671.918 501.405 672.805 501.307C673.595 501.208 674.384 500.912 675.173 500.419L681.683 496.671C681.88 496.572 681.88 496.473 681.88 496.276C681.88 496.276 681.781 496.177 681.584 496.079ZM673.989 492.922C674.877 493.416 674.68 494.205 673.989 494.599C673.89 494.599 673.89 494.698 673.792 494.698C673.792 494.698 673.595 494.599 673.299 494.501L670.833 493.12L671.129 492.922C671.918 492.528 673.2 492.528 673.989 492.922ZM674.088 497.657C673.595 497.361 672.904 497.361 672.411 497.657C672.016 497.953 671.918 498.347 672.411 498.643C672.904 498.939 673.595 498.939 674.088 498.643C674.482 498.347 674.482 497.953 674.088 497.657Z" fill="#35495E"/>
<path d="M704.751 456.867L713.296 461.774L709.658 470.319L724.463 468.204L733.008 473.111L694.683 479.033L704.751 456.867Z" fill="#35495E"/>
<path d="M695.36 451.537L704.666 456.867L694.514 479.033L732.839 473.111L742.145 478.525L678.778 488.17L695.36 451.537Z" fill="#42B681"/>
<path d="M80.6854 492.725C116.367 492.725 145.293 476.032 145.293 455.44C145.293 434.848 116.367 418.155 80.6854 418.155C45.0036 418.155 16.0779 434.848 16.0779 455.44C16.0779 476.032 45.0036 492.725 80.6854 492.725Z" fill="#C9C9DC"/>
<path d="M80.6854 486.709C116.367 486.709 145.293 470.016 145.293 449.424C145.293 428.832 116.367 412.139 80.6854 412.139C45.0036 412.139 16.0779 428.832 16.0779 449.424C16.0779 470.016 45.0036 486.709 80.6854 486.709Z" fill="white"/>
<g clip-path="url(#clip3_3039_26379)">
<path d="M183.268 332.242L108.402 289.039C103.865 286.376 101.301 282.924 101.202 279.373C101.103 275.723 103.668 272.172 108.304 269.509L293.249 162.685C297.983 159.923 304 158.246 310.017 157.95C313.47 157.753 316.922 158.049 320.177 158.838C323.333 159.528 326.391 160.712 329.054 162.29L402.934 204.902C405.597 206.48 407.668 208.157 408.95 210.031C410.233 211.905 410.726 213.878 410.43 215.949C409.937 219.401 407.076 222.854 402.243 225.616L217.199 332.242C212.563 334.906 206.448 336.385 200.037 336.385C193.822 336.287 187.806 334.807 183.268 332.242Z" fill="#E7E8EB"/>
<path d="M394.648 205.79C393.563 204.803 392.379 203.915 390.9 203.126L317.02 160.515C314.357 158.937 311.299 157.753 308.143 157.063C304.888 156.274 301.436 155.978 297.983 156.175C291.967 156.471 286.048 158.148 281.215 160.91L96.27 267.635C94.6918 268.523 93.3109 269.608 92.2259 270.693V270.002H89.1682V277.499C89.2668 281.148 91.8314 284.601 96.3687 287.165L171.234 330.368C175.772 333.032 181.789 334.511 188.003 334.511C194.414 334.511 200.53 333.13 205.166 330.368L390.111 223.544C394.845 220.782 397.804 217.33 398.298 213.878C398.396 213.483 398.396 213.187 398.396 212.793V205.494H394.648V205.79Z" fill="#C9C9DC"/>
<path d="M171.333 323.069L96.4673 279.866C91.93 277.203 89.3654 273.75 89.2668 270.2C89.1681 266.55 91.7327 262.999 96.3687 260.336L281.314 153.413C286.048 150.651 292.065 148.974 298.082 148.678C301.534 148.481 304.987 148.777 308.242 149.566C311.398 150.257 314.456 151.44 317.119 153.018L390.998 195.63C393.662 197.208 395.733 198.885 397.015 200.759C398.298 202.633 398.791 204.606 398.495 206.677C398.002 210.129 395.141 213.582 390.308 216.344L205.264 323.069C200.628 325.732 194.513 327.212 188.101 327.212C181.789 327.113 175.87 325.634 171.333 323.069Z" fill="url(#paint14_linear_3039_26379)"/>
<path d="M299.858 149.566C302.619 149.566 305.381 149.862 307.946 150.454C311.004 151.144 313.963 152.328 316.527 153.807L390.407 196.419C392.971 197.898 394.845 199.575 396.029 201.252C397.213 202.929 397.607 204.704 397.41 206.381C396.917 209.537 394.254 212.694 389.716 215.357L204.771 322.28C200.332 324.845 194.513 326.225 188.397 326.225H188.101C181.986 326.225 176.265 324.746 171.826 322.181L96.9605 278.978C92.7191 276.512 90.3518 273.356 90.2532 270.101C90.1545 266.747 92.5218 263.591 96.8619 261.026L281.807 154.202C286.443 151.539 292.262 149.862 298.082 149.665C298.674 149.665 299.266 149.566 299.858 149.566ZM299.858 148.58C299.266 148.58 298.575 148.58 297.983 148.58C291.967 148.876 286.048 150.552 281.215 153.314L96.27 260.138C91.6341 262.802 89.0695 266.353 89.1681 270.002C89.2668 273.652 91.8314 277.104 96.3687 279.669L171.234 322.872C175.772 325.535 181.789 327.015 188.003 327.015C188.101 327.015 188.2 327.015 188.299 327.015C194.611 327.015 200.53 325.535 205.166 322.872L390.111 216.048C394.845 213.286 397.804 209.833 398.298 206.381C398.594 204.408 398.1 202.436 396.818 200.463C395.536 198.589 393.563 196.912 390.801 195.334L316.922 152.722C314.259 151.144 311.201 149.961 308.044 149.27C305.48 148.974 302.718 148.58 299.858 148.58Z" fill="white"/>
<path d="M176.068 320.505L100.61 276.907C93.9028 273.06 93.9028 266.747 100.61 262.9L287.725 154.892C294.433 151.046 305.283 151.046 311.99 154.892L387.546 198.49C394.254 202.337 394.254 208.65 387.546 212.497L200.332 320.505C193.625 324.351 182.775 324.351 176.068 320.505Z" fill="#383839"/>
<path d="M385.771 199.97L309.425 155.879C304.198 152.821 295.518 152.821 290.29 155.879L102.188 264.479C96.9605 267.536 96.9605 272.468 102.188 275.526L178.534 319.617C183.761 322.675 192.441 322.675 197.669 319.617L385.771 211.017C390.999 207.959 390.999 202.929 385.771 199.97Z" fill="url(#paint15_linear_3039_26379)"/>
<path d="M319.388 163.276L318.5 163.77C315.541 165.447 315.541 168.208 318.5 169.885L361.407 194.643C364.366 196.32 369.101 196.32 372.06 194.643L373.441 193.854C374.131 193.657 375.019 193.755 375.611 194.051L377.584 192.868L321.459 160.416L319.388 161.6C320.177 162.093 320.177 162.783 319.388 163.276Z" fill="#383839"/>
<path d="M350.557 183.103L339.017 176.395C338.523 176.099 338.523 175.705 339.017 175.409L339.115 175.31C339.608 175.014 340.398 175.014 340.792 175.31L352.333 182.018C352.826 182.314 352.826 182.708 352.333 183.004L352.234 183.103C351.741 183.399 350.952 183.399 350.557 183.103Z" fill="#202023"/>
<path d="M358.843 186.95C357.955 187.443 356.475 187.443 355.489 186.95C354.601 186.456 354.601 185.569 355.489 185.075C356.377 184.582 357.856 184.582 358.843 185.075C359.829 185.569 359.829 186.456 358.843 186.95Z" fill="#4D39AD"/>
<g opacity="0.4">
<path d="M141.939 267.043L130.793 260.632C128.722 259.448 125.467 259.448 123.395 260.632L112.249 267.043C110.178 268.227 110.178 270.101 112.249 271.285L123.395 277.696C125.467 278.88 128.722 278.88 130.793 277.696L141.939 271.285C144.011 270.101 144.011 268.227 141.939 267.043Z" fill="white"/>
<path d="M163.146 279.274L152 272.863C149.929 271.679 146.674 271.679 144.602 272.863L133.456 279.274C131.385 280.458 131.385 282.332 133.456 283.516L144.602 289.927C146.674 291.111 149.929 291.111 152 289.927L163.146 283.516C165.218 282.332 165.218 280.458 163.146 279.274Z" fill="white"/>
<path d="M184.353 291.505L173.207 285.094C171.136 283.91 167.881 283.91 165.809 285.094L154.663 291.505C152.592 292.689 152.592 294.563 154.663 295.747L165.809 302.158C167.881 303.342 171.136 303.342 173.207 302.158L184.353 295.747C186.326 294.563 186.326 292.689 184.353 291.505Z" fill="white"/>
<path d="M205.462 303.736L194.316 297.325C192.244 296.141 188.989 296.141 186.918 297.325L175.772 303.736C173.7 304.92 173.7 306.794 175.772 307.978L186.918 314.389C188.989 315.573 192.244 315.573 194.316 314.389L205.462 307.978C207.533 306.794 207.533 304.92 205.462 303.736Z" fill="white"/>
<path d="M305.381 172.647L294.235 166.236C292.164 165.052 288.909 165.052 286.837 166.236L275.691 172.647C273.62 173.831 273.62 175.705 275.691 176.889L286.837 183.3C288.909 184.484 292.164 184.484 294.235 183.3L305.381 176.889C307.453 175.804 307.453 173.831 305.381 172.647Z" fill="white"/>
<path d="M326.588 184.878L315.442 178.467C313.371 177.283 310.116 177.283 308.044 178.467L296.898 184.878C294.827 186.062 294.827 187.936 296.898 189.12L308.044 195.531C310.116 196.715 313.371 196.715 315.442 195.531L326.588 189.12C328.66 188.035 328.66 186.062 326.588 184.878Z" fill="white"/>
<path d="M347.795 197.109L336.649 190.698C334.578 189.514 331.323 189.514 329.251 190.698L318.105 197.109C316.034 198.293 316.034 200.167 318.105 201.351L329.251 207.762C331.323 208.946 334.578 208.946 336.649 207.762L347.795 201.351C349.768 200.266 349.768 198.293 347.795 197.109Z" fill="white"/>
<path d="M368.904 209.34L357.758 202.929C355.686 201.745 352.431 201.745 350.36 202.929L339.214 209.34C337.142 210.524 337.142 212.398 339.214 213.582L350.36 219.993C352.431 221.177 355.686 221.177 357.758 219.993L368.904 213.582C370.975 212.398 370.975 210.524 368.904 209.34Z" fill="white"/>
<path d="M284.273 184.878L273.127 178.467C271.055 177.283 267.8 177.283 265.729 178.467L254.583 184.878C252.512 186.062 252.512 187.936 254.583 189.12L265.729 195.531C267.8 196.715 271.055 196.715 273.127 195.531L284.273 189.12C286.246 188.035 286.246 186.062 284.273 184.878Z" fill="white"/>
<path d="M305.381 197.109L294.235 190.698C292.164 189.514 288.909 189.514 286.837 190.698L275.691 197.109C273.62 198.293 273.62 200.167 275.691 201.351L286.837 207.762C288.909 208.946 292.164 208.946 294.235 207.762L305.381 201.351C307.453 200.266 307.453 198.293 305.381 197.109Z" fill="white"/>
<path d="M326.588 209.34L315.442 202.929C313.371 201.745 310.116 201.745 308.044 202.929L296.898 209.34C294.827 210.524 294.827 212.398 296.898 213.582L308.044 219.993C310.116 221.177 313.371 221.177 315.442 219.993L326.588 213.582C328.66 212.398 328.66 210.524 326.588 209.34Z" fill="white"/>
<path d="M347.795 221.572L336.649 215.16C334.578 213.977 331.323 213.977 329.251 215.16L318.105 221.572C316.034 222.755 316.034 224.629 318.105 225.813L329.251 232.224C331.323 233.408 334.578 233.408 336.649 232.224L347.795 225.813C349.768 224.629 349.768 222.755 347.795 221.572Z" fill="white"/>
<path d="M263.066 197.109L251.92 190.698C249.848 189.514 246.593 189.514 244.522 190.698L233.376 197.109C231.305 198.293 231.305 200.167 233.376 201.351L244.522 207.762C246.593 208.946 249.848 208.946 251.92 207.762L263.066 201.351C265.137 200.266 265.137 198.293 263.066 197.109Z" fill="white"/>
<path d="M284.273 209.34L273.127 202.929C271.055 201.745 267.8 201.745 265.729 202.929L254.583 209.34C252.512 210.524 252.512 212.398 254.583 213.582L265.729 219.993C267.8 221.177 271.055 221.177 273.127 219.993L284.273 213.582C286.246 212.398 286.246 210.524 284.273 209.34Z" fill="white"/>
<path d="M305.381 221.571L294.235 215.16C292.164 213.976 288.909 213.976 286.837 215.16L275.691 221.571C273.62 222.755 273.62 224.629 275.691 225.813L286.837 232.224C288.909 233.408 292.164 233.408 294.235 232.224L305.381 225.813C307.453 224.629 307.453 222.755 305.381 221.571Z" fill="white"/>
<path d="M326.588 233.802L315.442 227.391C313.371 226.207 310.116 226.207 308.044 227.391L296.898 233.802C294.827 234.986 294.827 236.86 296.898 238.044L308.044 244.455C310.116 245.639 313.371 245.639 315.442 244.455L326.588 238.044C328.66 236.86 328.66 234.986 326.588 233.802Z" fill="white"/>
<path d="M241.859 209.34L230.713 202.929C228.641 201.745 225.386 201.745 223.315 202.929L212.169 209.34C210.098 210.524 210.098 212.398 212.169 213.582L223.315 219.993C225.386 221.177 228.641 221.177 230.713 219.993L241.859 213.582C243.93 212.398 243.93 210.524 241.859 209.34Z" fill="white"/>
<path d="M263.066 221.571L251.92 215.16C249.848 213.976 246.593 213.976 244.522 215.16L233.376 221.571C231.305 222.755 231.305 224.629 233.376 225.813L244.522 232.224C246.593 233.408 249.848 233.408 251.92 232.224L263.066 225.813C265.137 224.629 265.137 222.755 263.066 221.571Z" fill="white"/>
<path d="M284.273 233.802L273.127 227.391C271.055 226.207 267.8 226.207 265.729 227.391L254.583 233.802C252.512 234.986 252.512 236.86 254.583 238.044L265.729 244.455C267.8 245.639 271.055 245.639 273.127 244.455L284.273 238.044C286.246 236.86 286.246 234.986 284.273 233.802Z" fill="white"/>
</g>
<path d="M1038.06 591.659L936.562 533.068C934.688 531.983 931.334 532.082 929.164 533.364L735.933 644.824C733.763 646.107 733.467 647.981 735.44 649.164L827.469 702.231L825.891 702.429L829.639 708.445H840.094C841.574 708.445 843.251 708.15 844.434 707.459L1037.57 595.9C1039.74 594.717 1039.93 592.744 1038.06 591.659Z" fill="#E7E8EB"/>
<path d="M1028.69 586.036L1018.83 582.979L1018.63 586.53L925.909 532.97C924.035 531.885 920.681 531.983 918.511 533.265L734.552 639.498L734.158 635.651L723.505 639.794V647.389C723.505 648.079 723.998 648.671 724.787 649.164L826.285 707.755C828.159 708.84 831.513 708.741 833.683 707.459L1026.81 595.999C1028 595.308 1028.59 594.421 1028.59 593.533V586.036H1028.69Z" fill="#C9C9DC"/>
<path d="M826.285 700.258L724.689 641.668C722.815 640.583 723.012 638.61 725.182 637.328L918.314 525.769C920.484 524.487 923.838 524.388 925.712 525.473L1027.21 584.064C1029.08 585.149 1028.89 587.121 1026.72 588.404L833.683 699.962C831.513 701.245 828.159 701.343 826.285 700.258Z" fill="url(#paint16_linear_3039_26379)"/>
<path d="M922.555 525.769C923.64 525.769 924.627 525.966 925.317 526.36L1026.81 584.951C1027.11 585.148 1027.6 585.444 1027.6 585.937C1027.6 586.431 1027.11 587.022 1026.32 587.516L833.19 699.173C832.203 699.765 830.823 700.061 829.442 700.061C828.357 700.061 827.37 699.864 826.68 699.469L725.182 640.878C724.886 640.681 724.393 640.385 724.393 639.892C724.393 639.399 724.886 638.807 725.675 638.314L918.807 526.755C919.892 526.163 921.273 525.769 922.555 525.769ZM922.555 524.782C921.076 524.782 919.596 525.177 918.314 525.867L725.281 637.327C723.11 638.61 722.815 640.484 724.787 641.668L826.285 700.258C827.173 700.751 828.258 701.047 829.54 701.047C831.02 701.047 832.499 700.653 833.782 699.962L1026.81 588.502C1028.98 587.22 1029.28 585.346 1027.31 584.162L925.81 525.571C924.923 525.078 923.838 524.782 922.555 524.782Z" fill="white"/>
<path d="M827.469 696.214L731.791 640.977C730.804 640.385 731.002 639.498 732.087 638.807L920.878 529.813C921.963 529.221 923.64 529.122 924.627 529.616L1020.3 584.853C1021.29 585.444 1021.09 586.332 1020.01 587.022L831.217 696.017C830.132 696.707 828.455 696.707 827.469 696.214Z" fill="#383839"/>
<path d="M827.469 694.044L735.44 640.878C734.454 640.287 734.651 639.399 735.736 638.708L920.78 531.884C921.865 531.292 923.542 531.194 924.528 531.687L1016.56 584.852C1017.54 585.444 1017.35 586.332 1016.26 587.022L831.217 693.945C830.132 694.537 828.455 694.636 827.469 694.044Z" fill="url(#paint17_linear_3039_26379)"/>
<g opacity="0.4">
<path d="M781.109 631.015C775.98 628.056 767.695 628.056 762.565 631.015C757.436 633.974 757.436 638.807 762.565 641.668C767.695 644.627 775.98 644.627 781.109 641.668C786.238 638.807 786.238 633.974 781.109 631.015Z" fill="white"/>
<path d="M802.316 643.246C797.187 640.287 788.902 640.287 783.772 643.246C778.643 646.205 778.643 651.038 783.772 653.997C788.902 656.956 797.187 656.956 802.316 653.997C807.347 651.038 807.347 646.205 802.316 643.246Z" fill="white"/>
<path d="M823.425 655.477C818.295 652.518 810.01 652.518 804.881 655.477C799.752 658.436 799.752 663.269 804.881 666.228C810.01 669.187 818.295 669.187 823.425 666.228C828.554 663.269 828.554 658.436 823.425 655.477Z" fill="white"/>
<path d="M844.632 667.708C839.502 664.749 831.217 664.749 826.088 667.708C820.959 670.667 820.959 675.5 826.088 678.459C831.217 681.418 839.502 681.418 844.632 678.459C849.761 675.5 849.761 670.667 844.632 667.708Z" fill="white"/>
<path d="M926.007 547.37C920.878 544.411 912.593 544.411 907.464 547.37C902.335 550.329 902.335 555.163 907.464 558.122C912.593 561.081 920.878 561.081 926.007 558.122C931.137 555.163 931.137 550.329 926.007 547.37Z" fill="white"/>
<path d="M947.116 559.601C941.987 556.642 933.701 556.642 928.572 559.601C923.443 562.56 923.443 567.394 928.572 570.353C933.701 573.312 941.987 573.312 947.116 570.353C952.245 567.394 952.245 562.56 947.116 559.601Z" fill="white"/>
<path d="M968.323 571.832C963.194 568.873 954.908 568.873 949.779 571.832C944.65 574.791 944.65 579.624 949.779 582.485C954.908 585.444 963.194 585.444 968.323 582.485C973.452 579.624 973.452 574.791 968.323 571.832Z" fill="white"/>
<path d="M989.53 584.063C984.401 581.104 976.115 581.104 970.986 584.063C965.857 587.022 965.857 591.855 970.986 594.815C976.115 597.774 984.401 597.774 989.53 594.815C994.659 591.855 994.659 587.022 989.53 584.063Z" fill="white"/>
<path d="M904.8 559.601C899.671 556.642 891.386 556.642 886.257 559.601C881.128 562.56 881.128 567.394 886.257 570.254C891.386 573.213 899.671 573.213 904.8 570.254C909.93 567.394 909.93 562.56 904.8 559.601Z" fill="white"/>
<path d="M926.008 571.832C920.878 568.873 912.593 568.873 907.464 571.832C902.335 574.791 902.335 579.624 907.464 582.584C912.593 585.543 920.878 585.543 926.008 582.584C931.137 579.624 931.137 574.791 926.008 571.832Z" fill="white"/>
<path d="M947.116 584.063C941.987 581.104 933.701 581.104 928.572 584.063C923.443 587.022 923.443 591.855 928.572 594.815C933.701 597.774 941.987 597.774 947.116 594.815C952.245 591.855 952.245 587.022 947.116 584.063Z" fill="white"/>
<path d="M968.323 596.295C963.194 593.335 954.908 593.335 949.779 596.295C944.65 599.254 944.65 604.087 949.779 606.947C954.908 609.906 963.194 609.906 968.323 606.947C973.452 604.087 973.452 599.254 968.323 596.295Z" fill="white"/>
<path d="M883.692 571.832C878.563 568.873 870.277 568.873 865.148 571.832C860.019 574.791 860.019 579.624 865.148 582.584C870.277 585.543 878.563 585.543 883.692 582.584C888.821 579.624 888.821 574.791 883.692 571.832Z" fill="white"/>
<path d="M904.8 584.063C899.671 581.104 891.386 581.104 886.257 584.063C881.128 587.022 881.128 591.855 886.257 594.716C891.386 597.675 899.671 597.675 904.8 594.716C909.93 591.855 909.93 587.022 904.8 584.063Z" fill="white"/>
<path d="M926.007 596.294C920.878 593.335 912.593 593.335 907.464 596.294C902.335 599.253 902.335 604.086 907.464 607.046C912.593 610.005 920.878 610.005 926.007 607.046C931.137 604.086 931.137 599.253 926.007 596.294Z" fill="white"/>
<path d="M947.116 608.525C941.987 605.566 933.701 605.566 928.572 608.525C923.443 611.484 923.443 616.317 928.572 619.276C933.701 622.236 941.987 622.236 947.116 619.276C952.245 616.317 952.245 611.484 947.116 608.525Z" fill="white"/>
<path d="M862.485 584.063C857.356 581.104 849.07 581.104 843.941 584.063C838.812 587.022 838.812 591.855 843.941 594.815C849.07 597.774 857.356 597.774 862.485 594.815C867.614 591.855 867.614 587.022 862.485 584.063Z" fill="white"/>
<path d="M883.692 596.294C878.563 593.335 870.277 593.335 865.148 596.294C860.019 599.253 860.019 604.086 865.148 607.046C870.277 610.005 878.563 610.005 883.692 607.046C888.821 604.086 888.821 599.253 883.692 596.294Z" fill="white"/>
<path d="M904.8 608.525C899.671 605.566 891.386 605.566 886.257 608.525C881.128 611.484 881.128 616.317 886.257 619.276C891.386 622.236 899.671 622.236 904.8 619.276C909.93 616.317 909.93 611.484 904.8 608.525Z" fill="white"/>
</g>
<path d="M1119.73 397.836L935.279 291.406C932.024 289.532 926.303 289.73 922.457 291.9L912.79 297.522L796.004 364.99C792.255 367.16 791.762 370.514 795.116 372.388L979.568 478.817C982.823 480.692 988.544 480.494 992.39 478.324L1109.18 410.856L1118.84 405.234C1122.59 402.965 1123.08 399.71 1119.73 397.836Z" fill="#E7E8EB"/>
<path d="M979.568 468.066L795.214 361.538C791.959 359.664 792.354 356.31 796.102 354.14L912.889 286.672L1109.18 400.006L992.39 467.474C988.544 469.743 982.823 469.94 979.568 468.066Z" fill="url(#paint18_linear_3039_26379)"/>
<path d="M1109.18 400.105L912.889 286.771L922.555 281.148C926.303 278.978 932.024 278.682 935.378 280.655L1119.83 387.085C1123.09 388.959 1122.69 392.312 1118.94 394.482L1109.18 400.105Z" fill="#F7F8FC"/>
<path d="M1067.75 371.007L952.442 304.427C950.667 303.342 950.864 301.566 952.936 300.382C955.007 299.199 958.163 299.1 959.939 300.087L1075.25 366.667C1077.02 367.752 1076.82 369.527 1074.75 370.711C1072.68 371.895 1069.52 371.993 1067.75 371.007Z" fill="#CCDAF2"/>
<path d="M927.093 288.743C925.712 287.954 925.909 286.573 927.487 285.685C929.065 284.798 931.433 284.699 932.814 285.488C934.194 286.277 933.997 287.658 932.419 288.546C930.841 289.434 928.474 289.532 927.093 288.743Z" fill="#F95C58"/>
<path d="M934.096 292.787C932.715 291.998 932.912 290.617 934.49 289.729C936.069 288.842 938.436 288.743 939.817 289.532C941.198 290.321 941 291.702 939.422 292.59C937.844 293.478 935.378 293.576 934.096 292.787Z" fill="#68C900"/>
<path d="M941 296.733C939.62 295.944 939.817 294.563 941.395 293.675C942.973 292.787 945.34 292.689 946.721 293.478C948.102 294.267 947.905 295.648 946.327 296.536C944.749 297.423 942.381 297.522 941 296.733Z" fill="#FFCF50"/>
<path d="M1106.51 393.398L1079.59 377.813C1077.81 376.728 1078.01 374.952 1080.08 373.769C1082.15 372.585 1085.31 372.486 1087.08 373.473L1114.01 389.058C1115.79 390.143 1115.59 391.918 1113.52 393.102C1111.45 394.285 1108.29 394.384 1106.51 393.398Z" fill="#CCDAF2"/>
<path opacity="0.3" d="M909.634 347.235L878.07 328.987C875.209 327.311 875.505 324.351 878.859 322.477L908.845 305.216C912.198 303.243 917.229 303.046 920.188 304.723L951.752 322.971C954.612 324.647 954.316 327.606 950.963 329.481L920.977 346.742C917.623 348.715 912.593 348.912 909.634 347.235Z" fill="white"/>
<path d="M869.192 370.317L837.628 352.069C834.768 350.392 835.064 347.433 838.418 345.559L862.682 331.552C866.036 329.579 871.066 329.382 874.026 331.059L905.59 349.307C908.45 350.984 908.154 353.943 904.8 355.817L880.536 369.824C877.182 371.698 872.152 371.994 869.192 370.317Z" fill="white"/>
<path d="M892.274 354.732L864.655 338.753C863.57 338.161 863.669 336.978 864.951 336.287C866.233 335.597 868.107 335.498 869.192 336.09L896.811 352.069C897.896 352.661 897.797 353.844 896.515 354.535C895.233 355.225 893.359 355.324 892.274 354.732Z" fill="#277CFF"/>
<path d="M883.1 359.96L855.482 343.981C854.397 343.389 854.495 342.206 855.778 341.515C857.06 340.825 858.934 340.726 860.019 341.318L887.638 357.297C888.723 357.889 888.624 359.073 887.342 359.763C886.059 360.552 884.185 360.651 883.1 359.96Z" fill="#277CFF"/>
<path d="M852.917 353.055L846.407 349.307C845.322 348.715 845.421 347.532 846.703 346.841C847.985 346.151 849.86 346.052 850.945 346.644L857.455 350.392C858.54 350.984 858.441 352.168 857.159 352.858C855.876 353.647 854.002 353.647 852.917 353.055Z" fill="#277CFF"/>
<path opacity="0.5" d="M850.649 381.167L819.085 362.919C816.224 361.242 816.52 358.283 819.874 356.409L820.663 355.916C824.016 353.943 829.047 353.745 832.006 355.422L863.57 373.67C866.431 375.347 866.135 378.306 862.781 380.18L861.992 380.673C858.638 382.646 853.509 382.844 850.649 381.167Z" stroke="white" stroke-width="0.986374" stroke-miterlimit="10" stroke-dasharray="3.95 3.95"/>
<path opacity="0.3" d="M971.677 382.449L940.113 364.201C937.252 362.524 937.548 359.565 940.902 357.691L970.888 340.429C974.241 338.456 979.272 338.259 982.231 339.936L1013.79 358.184C1016.66 359.861 1016.36 362.82 1013.01 364.694L983.02 381.956C979.568 383.928 974.537 384.126 971.677 382.449Z" fill="white"/>
<path d="M931.235 405.431L899.671 387.183C896.811 385.506 897.107 382.547 900.461 380.673L924.725 366.666C928.079 364.694 933.109 364.496 936.069 366.173L967.633 384.421C970.493 386.098 970.197 389.057 966.843 390.931L942.579 404.938C939.225 406.911 934.096 407.108 931.235 405.431Z" fill="white"/>
<path d="M954.218 389.945L926.599 373.966C925.514 373.374 925.613 372.19 926.895 371.5C928.178 370.809 930.052 370.711 931.137 371.303L958.755 387.282C959.84 387.874 959.742 389.057 958.459 389.748C957.177 390.438 955.303 390.537 954.218 389.945Z" fill="#277CFF"/>
<path d="M945.143 395.173L917.525 379.193C916.44 378.602 916.538 377.418 917.821 376.727C919.103 376.037 920.977 375.938 922.062 376.53L949.681 392.509C950.766 393.101 950.667 394.285 949.385 394.975C948.102 395.764 946.228 395.863 945.143 395.173Z" fill="#277CFF"/>
<path d="M914.862 388.268L908.352 384.52C907.266 383.928 907.365 382.745 908.647 382.054C909.93 381.364 911.804 381.265 912.889 381.857L919.399 385.605C920.484 386.197 920.385 387.381 919.103 388.071C917.821 388.86 915.947 388.86 914.862 388.268Z" fill="#277CFF"/>
<path opacity="0.5" d="M912.593 416.38L881.029 398.132C878.168 396.455 878.464 393.496 881.818 391.622L882.607 391.129C885.961 389.156 890.991 388.959 893.95 390.636L925.514 408.884C928.375 410.56 928.079 413.52 924.725 415.394L923.936 415.887C920.583 417.761 915.552 418.057 912.593 416.38Z" stroke="white" stroke-width="0.986374" stroke-miterlimit="10" stroke-dasharray="3.95 3.95"/>
<path opacity="0.3" d="M1030.96 417.366L999.394 399.118C996.533 397.441 996.829 394.482 1000.18 392.608L1030.17 375.347C1033.52 373.374 1038.55 373.177 1041.51 374.853L1073.08 393.101C1075.94 394.778 1075.64 397.737 1072.29 399.611L1042.3 416.873C1038.95 418.846 1033.82 419.043 1030.96 417.366Z" fill="white"/>
<path d="M990.516 440.448L958.952 422.2C956.092 420.523 956.388 417.564 959.741 415.69L984.006 401.683C987.36 399.71 992.39 399.513 995.35 401.19L1026.91 419.438C1029.77 421.115 1029.48 424.074 1026.12 425.948L1001.86 439.954C998.506 441.828 993.377 442.124 990.516 440.448Z" fill="white"/>
<path d="M1013.5 424.863L985.88 408.883C984.795 408.292 984.894 407.108 986.176 406.417C987.459 405.727 989.333 405.628 990.418 406.22L1018.04 422.199C1019.12 422.791 1019.02 423.975 1017.74 424.665C1016.46 425.454 1014.58 425.454 1013.5 424.863Z" fill="#277CFF"/>
<path d="M1004.42 430.09L976.806 414.111C975.721 413.519 975.819 412.335 977.102 411.645C978.384 410.954 980.258 410.856 981.343 411.448L1008.96 427.427C1010.05 428.019 1009.95 429.202 1008.67 429.893C1007.38 430.682 1005.51 430.781 1004.42 430.09Z" fill="#277CFF"/>
<path d="M974.143 423.186L967.633 419.438C966.548 418.846 966.646 417.662 967.928 416.972C969.211 416.281 971.085 416.183 972.17 416.774L978.68 420.523C979.765 421.114 979.666 422.298 978.384 422.988C977.2 423.778 975.228 423.876 974.143 423.186Z" fill="#277CFF"/>
<path opacity="0.5" d="M971.874 451.298L940.31 433.05C937.449 431.373 937.745 428.414 941.099 426.54L941.888 426.046C945.242 424.074 950.272 423.876 953.231 425.553L984.795 443.801C987.656 445.478 987.36 448.437 984.006 450.311L983.217 450.804C979.864 452.777 974.833 452.974 971.874 451.298Z" stroke="white" stroke-width="0.986374" stroke-miterlimit="10" stroke-dasharray="3.95 3.95"/>
</g>
<path opacity="0.4" d="M284.273 201.844L273.127 195.432C271.055 194.249 267.8 194.249 265.729 195.432L254.583 201.844C252.512 203.027 252.512 204.901 254.583 206.085L265.729 212.496C267.8 213.68 271.055 213.68 273.127 212.496L284.273 206.085C286.246 204.901 286.246 203.027 284.273 201.844Z" fill="white"/>
<path opacity="0.4" d="M926.008 589.883C920.878 586.924 912.593 586.924 907.464 589.883C902.335 592.842 902.335 597.675 907.464 600.634C912.593 603.594 920.878 603.594 926.008 600.634C931.137 597.577 931.137 592.842 926.008 589.883Z" fill="white"/>
<g opacity="0.2">
<path d="M909.634 342.994L878.07 324.746C875.209 323.069 875.505 320.11 878.859 318.236L908.845 300.974C912.198 299.001 917.229 298.804 920.188 300.481L951.752 318.729C954.612 320.406 954.316 323.365 950.963 325.239L920.977 342.5C917.623 344.473 912.593 344.67 909.634 342.994Z" fill="white"/>
</g>
<g opacity="0.2">
<path d="M971.677 378.207L940.113 359.96C937.252 358.283 937.548 355.324 940.902 353.45L970.888 336.188C974.241 334.215 979.272 334.018 982.231 335.695L1013.79 353.943C1016.66 355.62 1016.36 358.579 1013.01 360.453L983.02 377.714C979.568 379.687 974.537 379.884 971.677 378.207Z" fill="white"/>
</g>
<g opacity="0.2">
<path d="M1030.96 413.125L999.394 394.877C996.533 393.2 996.829 390.241 1000.18 388.367L1030.17 371.105C1033.52 369.133 1038.55 368.935 1041.51 370.612L1073.08 388.86C1075.94 390.537 1075.64 393.496 1072.29 395.37L1042.3 412.632C1038.95 414.605 1033.82 414.802 1030.96 413.125Z" fill="white"/>
</g>
<g opacity="0.5">
<path d="M360.125 137.138L361.999 136.053L363.281 136.842L361.407 137.927L360.125 137.138ZM348.486 143.845L358.152 138.321L359.435 139.11L349.768 144.634L348.486 143.845Z" fill="#808080"/>
<path d="M362.492 150.355C360.618 150.454 358.744 150.158 357.067 149.073C355.292 148.087 354.7 147.002 354.897 145.917C355.193 144.634 356.771 143.352 358.941 142.07C361.111 140.787 363.281 139.9 365.55 139.801C367.424 139.702 369.298 139.998 370.975 141.083C372.751 142.07 373.342 143.155 373.145 144.24C372.849 145.522 371.271 146.804 369.101 148.087C367.03 149.27 364.86 150.158 362.492 150.355ZM371.37 143.944C371.567 143.155 370.975 142.366 369.791 141.675C368.608 140.985 367.227 140.689 365.945 140.787C364.169 140.886 362.394 141.576 360.322 142.859C358.152 144.141 356.969 145.127 356.771 146.114C356.574 146.903 357.166 147.692 358.35 148.382C359.533 149.073 360.914 149.369 362.196 149.27C363.972 149.172 365.747 148.481 367.819 147.199C369.989 146.015 371.172 145.029 371.37 143.944Z" fill="#808080"/>
<path d="M368.805 155.879C365.846 154.202 365.945 152.328 368.115 151.045L368.509 150.848L369.89 151.637L369.496 151.835C368.016 152.722 368.016 154.005 370.087 155.188C372.06 156.372 374.427 156.372 375.907 155.484C377.189 154.695 377.288 153.709 375.907 152.426L374.526 151.243C372.849 149.763 372.751 148.382 374.723 147.297C376.696 146.114 379.852 146.015 382.614 147.692C385.376 149.27 385.278 151.144 383.305 152.229L383.009 152.426L381.628 151.637L381.924 151.44C383.403 150.651 383.305 149.369 381.431 148.382C379.557 147.297 377.485 147.297 376.006 148.086C374.723 148.875 374.723 149.763 376.006 150.848L377.387 152.032C379.261 153.709 379.261 155.09 377.189 156.273C375.019 157.556 371.764 157.556 368.805 155.879Z" fill="#808080"/>
<path d="M399.481 157.753L390.801 168.307L389.42 167.518L391.59 164.953L385.573 161.501L381.135 162.783L379.754 161.994L398.002 156.964L399.481 157.753ZM387.053 161.008L392.281 164.066L397.311 158.148L387.053 161.008Z" fill="#808080"/>
<path d="M389.322 172.351L388.039 171.562L401.849 163.573L403.131 164.362L401.651 165.25C403.131 164.855 404.808 165.052 406.386 165.94C408.95 167.42 408.655 169.195 405.301 171.168C401.947 173.141 398.889 173.239 396.325 171.76C394.747 170.872 394.451 169.886 395.043 168.998L389.322 172.351ZM397.213 171.069C399.284 172.253 401.553 171.858 404.019 170.379C406.485 168.899 407.175 167.617 405.202 166.433C403.23 165.25 400.862 165.644 398.396 167.124C395.93 168.603 395.24 169.886 397.213 171.069Z" fill="#808080"/>
<path d="M399.777 178.368L398.495 177.579L412.304 169.589L413.586 170.378L412.107 171.266C413.586 170.872 415.263 171.069 416.841 171.957C419.406 173.436 419.11 175.212 415.756 177.184C412.403 179.157 409.345 179.256 406.78 177.776C405.202 176.889 404.906 175.902 405.498 175.014L399.777 178.368ZM407.668 177.086C409.74 178.269 412.008 177.875 414.474 176.395C416.94 174.916 417.631 173.633 415.658 172.45C413.586 171.266 411.318 171.661 408.852 173.14C406.287 174.521 405.597 175.902 407.668 177.086Z" fill="#808080"/>
</g>
<path d="M269.379 206.184C267.899 206.184 266.617 205.888 265.532 205.296L254.386 198.884C253.301 198.293 252.709 197.405 252.709 196.517C252.709 195.629 253.301 194.742 254.386 194.15L265.532 187.738C266.518 187.147 267.899 186.851 269.379 186.851C270.858 186.851 272.14 187.147 273.225 187.738L284.371 194.15C285.457 194.742 286.048 195.629 286.048 196.517C286.048 197.405 285.457 198.293 284.371 198.884L273.225 205.296C272.239 205.888 270.858 206.184 269.379 206.184Z" fill="url(#paint19_linear_3039_26379)"/>
<path d="M269.379 187.048C270.76 187.048 272.042 187.344 273.127 187.936L284.273 194.347C286.344 195.531 286.344 197.405 284.273 198.588L273.127 205C272.14 205.592 270.76 205.888 269.379 205.888C267.998 205.888 266.715 205.592 265.63 205L254.484 198.588C252.413 197.405 252.413 195.531 254.484 194.347L265.63 187.936C266.715 187.344 268.096 187.048 269.379 187.048ZM269.379 186.555C267.899 186.555 266.518 186.851 265.433 187.541L254.287 193.952C253.103 194.643 252.512 195.531 252.512 196.517C252.512 197.503 253.103 198.391 254.287 199.082L265.433 205.493C266.518 206.085 267.899 206.479 269.379 206.479C270.858 206.479 272.239 206.184 273.324 205.493L284.47 199.082C285.654 198.391 286.246 197.503 286.246 196.517C286.246 195.531 285.654 194.643 284.47 193.952L273.324 187.541C272.338 186.851 270.858 186.555 269.379 186.555Z" fill="white"/>
<path d="M916.736 595.506C913.185 595.506 909.831 594.717 907.365 593.237C904.801 591.757 903.42 589.785 903.42 587.713C903.42 585.642 904.801 583.669 907.365 582.19C909.831 580.71 913.185 579.921 916.736 579.921C920.287 579.921 923.64 580.71 926.106 582.19C928.671 583.669 930.052 585.642 930.052 587.713C930.052 589.785 928.671 591.757 926.106 593.237C923.64 594.717 920.287 595.506 916.736 595.506Z" fill="url(#paint20_linear_3039_26379)"/>
<path d="M916.736 580.217C920.089 580.217 923.443 580.907 926.008 582.387C931.137 585.346 931.137 590.179 926.008 593.138C923.443 594.618 920.089 595.308 916.736 595.308C913.382 595.308 910.028 594.618 907.464 593.138C902.335 590.179 902.335 585.346 907.464 582.485C910.028 580.907 913.382 580.217 916.736 580.217ZM916.736 579.724C913.185 579.724 909.732 580.513 907.266 581.992C904.603 583.472 903.222 585.543 903.222 587.812C903.222 589.982 904.702 592.053 907.266 593.631C909.831 595.111 913.185 595.9 916.736 595.9C920.287 595.9 923.739 595.111 926.205 593.631C928.868 592.152 930.249 590.081 930.249 587.812C930.249 585.543 928.769 583.57 926.205 581.992C923.739 580.513 920.287 579.724 916.736 579.724Z" fill="white"/>
<g opacity="0.5">
<path d="M1027.8 291.998L1013.2 296.634L1011.62 295.747L1021.39 285.784L1022.77 286.573L1014.39 295.155L1029.38 290.42L1030.76 291.209L1022.57 299.889L1037.37 295.056L1038.75 295.845L1021.49 301.468L1019.91 300.58L1027.8 291.998Z" fill="#808080"/>
<path d="M1036.48 306.695C1034.21 307.583 1031.75 307.485 1029.48 306.202C1026.62 304.624 1027.21 302.75 1030.37 300.876C1033.52 299.002 1036.78 298.706 1039.54 300.383C1042.3 301.961 1041.81 303.835 1038.65 305.709L1038.26 305.906L1031.25 301.862C1028.99 303.243 1028.59 304.427 1030.56 305.61C1031.94 306.4 1033.52 306.498 1035.1 305.906L1036.48 306.695ZM1037.96 304.624C1040.03 303.342 1040.33 302.158 1038.45 301.073C1036.58 299.988 1034.51 300.185 1032.24 301.369L1037.96 304.624Z" fill="#808080"/>
<path d="M1045.36 305.808C1046.84 305.413 1048.52 305.611 1050.09 306.498C1052.66 307.978 1052.36 309.753 1049.01 311.726C1045.65 313.699 1042.6 313.797 1040.03 312.318C1038.45 311.43 1038.16 310.444 1038.75 309.556L1037.27 310.444L1035.99 309.655L1049.5 301.862L1050.78 302.651L1045.36 305.808ZM1040.92 311.627C1042.99 312.811 1045.26 312.417 1047.73 310.937C1050.19 309.457 1050.88 308.175 1048.91 306.991C1046.84 305.808 1044.57 306.202 1042.1 307.682C1039.64 309.161 1038.95 310.444 1040.92 311.627Z" fill="#808080"/>
<path d="M1070.12 313.896L1061.44 324.45L1060.06 323.661L1062.23 321.097L1056.21 317.644L1051.77 318.927L1050.39 318.137L1068.64 313.107L1070.12 313.896ZM1057.69 317.151L1062.92 320.209L1067.95 314.291L1057.69 317.151Z" fill="#808080"/>
<path d="M1060.06 328.494L1058.77 327.705L1072.58 319.715L1073.86 320.504L1072.39 321.392C1073.86 320.998 1075.54 321.195 1077.12 322.083C1079.68 323.562 1079.39 325.338 1076.04 327.31C1072.68 329.283 1069.62 329.382 1067.06 327.902C1065.48 327.014 1065.18 326.028 1065.78 325.14L1060.06 328.494ZM1067.85 327.212C1069.92 328.395 1072.19 328.001 1074.65 326.521C1077.12 325.042 1077.81 323.759 1075.84 322.576C1073.77 321.392 1071.5 321.787 1069.03 323.266C1066.57 324.746 1065.88 326.028 1067.85 327.212Z" fill="#808080"/>
<path d="M1070.41 334.511L1069.13 333.722L1082.94 325.732L1084.22 326.522L1082.74 327.409C1084.22 327.015 1085.9 327.212 1087.48 328.1C1090.04 329.579 1089.75 331.355 1086.39 333.327C1083.04 335.3 1079.98 335.399 1077.42 333.919C1075.84 333.032 1075.54 332.045 1076.13 331.157L1070.41 334.511ZM1078.3 333.229C1080.37 334.412 1082.64 334.018 1085.11 332.538C1087.58 331.059 1088.27 329.777 1086.29 328.593C1084.22 327.409 1081.95 327.804 1079.49 329.283C1076.92 330.763 1076.23 332.045 1078.3 333.229Z" fill="#808080"/>
</g>
<path d="M909.634 338.752L878.07 320.505C875.209 318.828 875.505 315.869 878.859 313.994L908.845 296.733C912.198 294.76 917.229 294.563 920.188 296.24L951.752 314.488C954.612 316.164 954.316 319.124 950.963 320.998L920.977 338.259C917.623 340.232 912.593 340.429 909.634 338.752Z" fill="white"/>
<path d="M895.529 316.658L916.341 328.692C916.834 328.988 917.623 328.988 918.117 328.692C918.314 328.593 918.413 328.396 918.511 328.297L919.498 324.352C919.596 323.957 919.103 323.562 918.412 323.562C918.314 323.562 918.314 323.562 918.215 323.562L912.494 323.464L914.96 314.192C915.059 313.797 914.566 313.403 913.875 313.403C913.678 313.403 913.579 313.403 913.382 313.403L896.022 315.474C895.331 315.573 894.937 315.967 895.035 316.362C895.134 316.461 895.331 316.559 895.529 316.658Z" fill="#277CFF"/>
<path d="M927.29 320.406C929.741 320.406 931.729 319.258 931.729 317.841C931.729 316.425 929.741 315.277 927.29 315.277C924.838 315.277 922.851 316.425 922.851 317.841C922.851 319.258 924.838 320.406 927.29 320.406Z" fill="#277CFF"/>
<path d="M971.677 373.966L940.113 355.718C937.252 354.041 937.548 351.082 940.902 349.208L970.888 331.946C974.241 329.974 979.272 329.776 982.231 331.453L1013.79 349.701C1016.66 351.378 1016.36 354.337 1013.01 356.211L983.02 373.473C979.568 375.445 974.537 375.643 971.677 373.966Z" fill="white"/>
<path d="M957.473 351.871L978.285 363.905C978.779 364.201 979.568 364.201 980.061 363.905C980.258 363.806 980.357 363.609 980.455 363.51L981.442 359.565C981.54 359.17 981.047 358.776 980.357 358.776C980.258 358.776 980.258 358.776 980.159 358.776L974.439 358.677L976.904 349.405C977.003 349.011 976.51 348.616 975.819 348.616C975.622 348.616 975.524 348.616 975.326 348.616L957.966 350.688C957.276 350.786 956.881 351.181 956.98 351.575C957.177 351.674 957.276 351.773 957.473 351.871Z" fill="#277CFF"/>
<path d="M989.234 355.619C991.686 355.619 993.673 354.471 993.673 353.055C993.673 351.638 991.686 350.49 989.234 350.49C986.783 350.49 984.795 351.638 984.795 353.055C984.795 354.471 986.783 355.619 989.234 355.619Z" fill="#277CFF"/>
<path d="M1030.96 408.883L999.394 390.635C996.533 388.959 996.829 385.999 1000.18 384.125L1030.17 366.864C1033.52 364.891 1038.55 364.694 1041.51 366.371L1073.08 384.618C1075.94 386.295 1075.64 389.254 1072.29 391.129L1042.3 408.39C1038.95 410.363 1033.82 410.56 1030.96 408.883Z" fill="white"/>
<path d="M1016.75 386.789L1037.57 398.822C1038.06 399.118 1038.85 399.118 1039.34 398.822C1039.54 398.724 1039.64 398.527 1039.74 398.428L1040.72 394.482C1040.82 394.088 1040.33 393.693 1039.64 393.693C1039.54 393.693 1039.54 393.693 1039.44 393.693L1033.72 393.595L1036.19 384.323C1036.28 383.928 1035.79 383.534 1035.1 383.534C1034.9 383.534 1034.8 383.534 1034.61 383.534L1017.25 385.605C1016.56 385.704 1016.16 386.098 1016.26 386.493C1016.46 386.591 1016.56 386.69 1016.75 386.789Z" fill="#277CFF"/>
<path d="M1048.52 390.537C1050.97 390.537 1052.95 389.389 1052.95 387.972C1052.95 386.556 1050.97 385.408 1048.52 385.408C1046.06 385.408 1044.08 386.556 1044.08 387.972C1044.08 389.389 1046.06 390.537 1048.52 390.537Z" fill="#277CFF"/>
<g opacity="0.5">
<path d="M976.313 506.055L967.633 516.609L966.252 515.82L968.422 513.255L962.405 509.803L957.966 511.085L956.585 510.296L974.833 505.266L976.313 506.055ZM963.884 509.31L969.112 512.368L974.143 506.449L963.884 509.31Z" fill="#808080"/>
<path d="M976.904 522.034L975.622 521.245L981.146 517.99C983.415 516.708 983.513 515.623 981.935 514.735C980.258 513.749 977.595 513.847 975.129 515.327L970.197 518.187L968.915 517.398L978.581 511.875L979.864 512.664L978.088 513.65C979.666 513.255 981.54 513.354 983.217 514.34C985.387 515.623 985.19 517.102 982.724 518.582L976.904 522.034Z" fill="#808080"/>
<path d="M999.492 519.469L1000.77 520.258L987.261 528.051L985.979 527.262L987.459 526.374C985.979 526.768 984.302 526.571 982.724 525.683C980.159 524.204 980.455 522.428 983.809 520.456C987.163 518.483 990.22 518.384 992.785 519.864C994.363 520.751 994.659 521.738 994.067 522.626L999.492 519.469ZM991.996 520.554C989.925 519.371 987.656 519.765 985.19 521.245C982.724 522.724 982.034 524.007 984.006 525.19C986.078 526.374 988.346 525.979 990.812 524.5C993.278 523.02 993.969 521.738 991.996 520.554Z" fill="#808080"/>
<path d="M996.04 527.361L991.108 530.221L989.826 529.432L999.492 523.908L1000.77 524.697L998.999 525.684C1000.58 525.191 1002.25 525.289 1003.83 526.177C1004.13 526.374 1004.33 526.473 1004.42 526.67L1003.34 527.262C1003.24 527.163 1002.94 526.966 1002.65 526.769C1001.07 525.782 998.605 525.881 996.04 527.361Z" fill="#808080"/>
<path d="M1018.04 532.194L1019.91 531.109L1021.19 531.898L1019.32 532.983L1018.04 532.194ZM1006.4 539L1016.06 533.476L1017.35 534.265L1007.68 539.789L1006.4 539Z" fill="#808080"/>
<path d="M999.788 535.35C997.026 533.772 997.52 531.898 1000.68 530.024C1003.83 528.15 1007.09 527.854 1009.85 529.531C1012.61 531.109 1012.12 532.983 1008.96 534.857C1005.71 536.632 1002.55 537.027 999.788 535.35ZM1000.87 534.758C1002.94 535.942 1005.21 535.547 1007.68 534.068C1010.15 532.588 1010.84 531.306 1008.86 530.122C1006.79 528.939 1004.52 529.333 1002.06 530.813C999.492 532.292 998.802 533.575 1000.87 534.758Z" fill="#808080"/>
<path d="M1030.37 537.323L1031.65 538.112L1018.13 545.904L1016.85 545.115L1018.33 544.227C1016.85 544.622 1015.18 544.425 1013.6 543.537C1011.03 542.057 1011.33 540.282 1014.68 538.309C1018.04 536.336 1021.09 536.238 1023.66 537.717C1025.24 538.605 1025.53 539.591 1024.94 540.479L1030.37 537.323ZM1022.87 538.408C1020.8 537.224 1018.53 537.619 1016.06 539.098C1013.6 540.578 1012.91 541.86 1014.88 543.044C1016.95 544.227 1019.22 543.833 1021.69 542.353C1024.25 540.874 1024.94 539.591 1022.87 538.408Z" fill="#808080"/>
<path d="M1044.47 545.411L1035.79 555.965L1034.41 555.176L1036.58 552.612L1030.56 549.159L1026.12 550.442L1024.74 549.653L1042.99 544.622L1044.47 545.411ZM1032.04 548.666L1037.27 551.724L1042.3 545.806L1032.04 548.666Z" fill="#808080"/>
<path d="M1034.41 560.009L1033.13 559.22L1046.94 551.23L1048.22 552.02L1046.74 552.907C1048.22 552.513 1049.9 552.71 1051.47 553.598C1054.04 555.077 1053.74 556.853 1050.39 558.826C1047.04 560.798 1043.98 560.897 1041.41 559.417C1039.84 558.53 1039.54 557.543 1040.13 556.656L1034.41 560.009ZM1042.3 558.727C1044.37 559.911 1046.64 559.516 1049.11 558.036C1051.57 556.557 1052.26 555.275 1050.29 554.091C1048.22 552.907 1045.95 553.302 1043.48 554.781C1040.92 556.261 1040.23 557.543 1042.3 558.727Z" fill="#808080"/>
<path d="M1044.77 566.026L1043.48 565.237L1057.29 557.248L1058.58 558.037L1057.1 558.924C1058.58 558.53 1060.25 558.727 1061.83 559.615C1064.4 561.094 1064.1 562.87 1060.75 564.843C1057.39 566.815 1054.33 566.914 1051.77 565.434C1050.19 564.547 1049.9 563.56 1050.49 562.673L1044.77 566.026ZM1052.66 564.744C1054.73 565.928 1057 565.533 1059.46 564.054C1061.93 562.574 1062.62 561.292 1060.65 560.108C1058.58 558.924 1056.31 559.319 1053.84 560.798C1051.28 562.278 1050.59 563.56 1052.66 564.744Z" fill="#808080"/>
</g>
<mask id="mask5_3039_26379" style="mask-type:luminance" maskUnits="userSpaceOnUse" x="791" y="51" width="82" height="92">
<path d="M872.215 103.348C872.633 102.942 872.874 102.387 872.885 101.804C872.895 101.222 872.675 100.658 872.273 100.237C871.965 99.9 871.551 99.678 871.1 99.6077L855.254 96.7631L864.122 79.7248C864.255 79.4697 864.338 79.1908 864.363 78.9039C864.389 78.6171 864.358 78.328 864.272 78.0531C864.186 77.7783 864.046 77.5231 863.862 77.3022C863.677 77.0813 863.45 76.899 863.195 76.7658C862.791 76.5759 862.343 76.496 861.899 76.5341L851.482 77.8728L863.233 54.7532C863.361 54.497 863.436 54.2181 863.456 53.9326C863.475 53.6471 863.438 53.3605 863.346 53.0895C863.254 52.8184 863.11 52.5681 862.921 52.353C862.733 52.1378 862.503 51.9621 862.246 51.8359C861.946 51.6827 861.616 51.599 861.279 51.5911C860.942 51.5831 860.608 51.651 860.301 51.7898L791.32 85.3907L794.779 121.589C794.898 122.696 795.294 123.756 795.931 124.669C796.568 125.583 797.424 126.322 798.422 126.817L831.278 142.865L872.215 103.348Z" fill="white"/>
</mask>
<g mask="url(#mask5_3039_26379)">
<path d="M791.319 85.391L860.3 51.79C860.811 51.5434 861.399 51.5085 861.936 51.6928C862.473 51.8771 862.915 52.2658 863.167 52.7744C863.307 53.0812 863.377 53.4149 863.374 53.7519C863.37 54.0889 863.292 54.4211 863.146 54.7248L851.38 77.8548L861.796 76.5162C862.082 76.4792 862.372 76.4988 862.65 76.574C862.928 76.6492 863.189 76.7785 863.417 76.9544C863.645 77.1304 863.836 77.3495 863.979 77.5994C864.122 77.8493 864.215 78.1249 864.251 78.4106C864.29 78.8556 864.21 79.3027 864.02 79.7069L831.307 142.779L791.319 85.391Z" fill="#FFA000"/>
<path opacity="0.12" d="M877.705 74.5325L848.614 24.1279L762.45 84.1663L791.319 85.3907L877.705 74.5325Z" fill="url(#paint21_linear_3039_26379)"/>
<path d="M838.964 102.128L851.446 77.8535L791.319 85.3909L838.964 102.128Z" fill="#F57C00"/>
<path opacity="0.2" d="M848.614 24.1279L908.652 110.292L822.488 170.33L762.45 84.1663L848.614 24.1279Z" fill="url(#paint22_linear_3039_26379)"/>
<path d="M831.348 142.839L872.207 103.242C872.625 102.836 872.866 102.281 872.877 101.698C872.887 101.116 872.668 100.552 872.265 100.131C871.954 99.7976 871.542 99.5763 871.092 99.5019L791.319 85.3911L794.779 121.589C794.898 122.697 795.294 123.756 795.93 124.67C796.567 125.584 797.424 126.322 798.421 126.817L831.348 142.839Z" fill="#FFCA28"/>
<path d="M872.215 103.347C872.633 102.941 872.874 102.387 872.885 101.804C872.895 101.221 872.676 100.658 872.273 100.236C871.965 99.8995 871.551 99.6776 871.1 99.6072L855.254 96.7626L864.122 79.7244C864.256 79.4692 864.338 79.1903 864.363 78.9034C864.389 78.6166 864.358 78.3275 864.272 78.0526C864.186 77.7778 864.047 77.5226 863.862 77.3017C863.677 77.0808 863.45 76.8986 863.195 76.7653C862.791 76.5754 862.344 76.4955 861.899 76.5337L851.483 77.8723L863.234 54.7527C863.361 54.4965 863.437 54.2176 863.456 53.9321C863.475 53.6466 863.438 53.3601 863.346 53.089C863.255 52.8179 863.11 52.5676 862.922 52.3525C862.733 52.1374 862.503 51.9616 862.247 51.8354C861.947 51.6822 861.616 51.5986 861.279 51.5906C860.942 51.5826 860.608 51.6505 860.301 51.7893L791.32 85.3903L791.373 85.7538L854.917 97.1088L870.763 99.9535C871.049 99.9991 871.323 100.102 871.568 100.256C871.814 100.41 872.026 100.612 872.192 100.849C872.357 101.087 872.473 101.356 872.533 101.64C872.592 101.923 872.594 102.216 872.537 102.5C872.47 102.958 872.241 103.378 871.893 103.683L831.4 142.847L831.462 142.937L872.215 103.347ZM791.472 85.4175L859.851 52.1024C860.104 51.9724 860.381 51.8942 860.664 51.8724C860.948 51.8506 861.232 51.8856 861.502 51.9753C861.772 52.065 862.021 52.2077 862.235 52.395C862.449 52.5823 862.623 52.8104 862.748 53.066C862.891 53.3717 862.964 53.7058 862.961 54.0435C862.957 54.3812 862.877 54.7137 862.727 55.0163L850.961 78.1464L861.378 76.8077C861.664 76.7682 861.955 76.7861 862.234 76.8602C862.513 76.9344 862.774 77.0635 863.003 77.2399C863.231 77.4162 863.422 77.6364 863.565 77.8875C863.707 78.1385 863.798 78.4155 863.833 78.7021C863.871 79.1471 863.791 79.5943 863.601 79.9984L854.954 96.6826L791.472 85.4175Z" fill="white" fill-opacity="0.2"/>
<path opacity="0.2" d="M798.932 126.462C797.93 125.967 797.07 125.226 796.431 124.31C795.793 123.393 795.396 122.33 795.278 121.219L791.681 85.2057L791.276 85.4876L794.779 121.589C794.898 122.696 795.295 123.755 795.931 124.669C796.568 125.583 797.425 126.321 798.422 126.817L831.279 142.865L831.683 142.583L798.932 126.462Z" fill="#A52714"/>
<path d="M872.215 103.347C872.633 102.941 872.874 102.387 872.885 101.804C872.895 101.221 872.676 100.658 872.273 100.236C871.965 99.8995 871.551 99.6776 871.1 99.6072L855.254 96.7626L864.122 79.7244C864.256 79.4692 864.338 79.1903 864.363 78.9034C864.389 78.6166 864.358 78.3275 864.272 78.0526C864.186 77.7778 864.047 77.5226 863.862 77.3017C863.677 77.0808 863.45 76.8986 863.195 76.7653C862.791 76.5754 862.344 76.4955 861.899 76.5337L851.483 77.8723L863.234 54.7527C863.361 54.4965 863.437 54.2176 863.456 53.9321C863.475 53.6466 863.438 53.3601 863.346 53.089C863.255 52.8179 863.11 52.5676 862.922 52.3525C862.733 52.1374 862.503 51.9616 862.247 51.8354C861.947 51.6822 861.616 51.5986 861.279 51.5906C860.942 51.5826 860.608 51.6505 860.301 51.7893L791.32 85.3903L794.779 121.588C794.898 122.696 795.295 123.755 795.931 124.669C796.568 125.583 797.425 126.321 798.422 126.816L831.279 142.865L872.215 103.347Z" fill="url(#paint23_linear_3039_26379)"/>
</g>
<g clip-path="url(#clip4_3039_26379)">
<path fill-rule="evenodd" clip-rule="evenodd" d="M87.2086 458.986V442.825C87.2085 442.549 87.0987 442.284 86.9033 442.088C86.7078 441.893 86.4428 441.783 86.1664 441.783H70.0244V425.102H102.83C102.967 425.102 103.102 425.128 103.229 425.181C103.355 425.233 103.47 425.31 103.567 425.407C103.664 425.504 103.74 425.618 103.793 425.745C103.845 425.871 103.872 426.007 103.872 426.144V458.986H87.2086Z" fill="#8E75FF"/>
<path opacity="0.405" fill-rule="evenodd" clip-rule="evenodd" d="M70.0244 425.102V441.783H54.618C54.5149 441.783 54.4142 441.753 54.3285 441.695C54.2429 441.638 54.1761 441.557 54.1366 441.462C54.0972 441.366 54.0868 441.262 54.1069 441.161C54.1269 441.06 54.1765 440.967 54.2493 440.894L70.0244 425.102ZM87.2086 474.409V458.986H103.872L88.0982 474.777C88.0254 474.85 87.9325 474.9 87.8315 474.92C87.7304 474.94 87.6257 474.929 87.5304 474.89C87.4352 474.851 87.3538 474.784 87.2966 474.698C87.2393 474.613 87.2087 474.512 87.2086 474.409ZM70.0244 441.783H86.6874C86.8256 441.783 86.9581 441.838 87.0559 441.936C87.1536 442.034 87.2085 442.166 87.2086 442.304V458.986H71.0665C70.9297 458.986 70.7941 458.959 70.6677 458.907C70.5413 458.855 70.4264 458.778 70.3296 458.681C70.2328 458.584 70.1561 458.469 70.1037 458.343C70.0513 458.216 70.0244 458.081 70.0244 457.944V441.783Z" fill="#8E75FF"/>
</g>
<path d="M632 750.492C632 747.18 627.852 744.041 621.492 742.094C622.96 735.612 622.308 730.455 619.434 728.804C618.771 728.417 617.997 728.233 617.151 728.233V730.506C617.62 730.506 617.997 730.598 618.313 730.771C619.699 731.566 620.3 734.593 619.831 738.486C619.719 739.444 619.536 740.453 619.311 741.482C617.314 740.993 615.133 740.616 612.84 740.372C611.464 738.486 610.037 736.774 608.6 735.276C611.923 732.188 615.041 730.496 617.161 730.496V728.223C614.358 728.223 610.689 730.221 606.98 733.686C603.27 730.241 599.601 728.264 596.798 728.264V730.537C598.908 730.537 602.037 732.218 605.359 735.286C603.932 736.784 602.506 738.486 601.15 740.372C598.847 740.616 596.666 740.993 594.668 741.493C594.434 740.473 594.26 739.485 594.138 738.537C593.659 734.644 594.25 731.617 595.626 730.812C595.932 730.628 596.329 730.547 596.798 730.547V728.274C595.942 728.274 595.168 728.458 594.495 728.845C591.631 730.496 590.989 735.643 592.467 742.104C586.128 744.061 582 747.19 582 750.492C582 753.804 586.148 756.943 592.508 758.89C591.04 765.372 591.692 770.528 594.566 772.18C595.229 772.567 596.003 772.75 596.859 772.75C599.662 772.75 603.331 770.753 607.041 767.288C610.751 770.732 614.419 772.709 617.222 772.709C618.078 772.709 618.853 772.526 619.525 772.139C622.389 770.488 623.031 765.341 621.554 758.879C627.872 756.933 632 753.794 632 750.492ZM618.731 743.694C618.353 745.009 617.885 746.364 617.355 747.72C616.937 746.904 616.499 746.089 616.02 745.274C615.551 744.458 615.051 743.663 614.552 742.889C615.999 743.103 617.395 743.368 618.731 743.694ZM614.063 754.548C613.268 755.924 612.453 757.228 611.607 758.441C610.088 758.574 608.549 758.645 607 758.645C605.461 758.645 603.922 758.574 602.414 758.451C601.568 757.239 600.742 755.944 599.947 754.579C599.173 753.244 598.47 751.888 597.828 750.522C598.459 749.157 599.173 747.791 599.937 746.456C600.732 745.08 601.547 743.776 602.393 742.563C603.912 742.43 605.451 742.359 607 742.359C608.539 742.359 610.078 742.43 611.586 742.553C612.432 743.765 613.258 745.06 614.053 746.425C614.827 747.76 615.53 749.116 616.172 750.482C615.53 751.847 614.827 753.213 614.063 754.548ZM617.355 753.223C617.905 754.589 618.374 755.954 618.761 757.279C617.426 757.606 616.02 757.881 614.562 758.095C615.062 757.31 615.561 756.505 616.03 755.679C616.499 754.864 616.937 754.038 617.355 753.223ZM607.02 764.098C606.073 763.119 605.125 762.029 604.187 760.836C605.104 760.877 606.042 760.908 606.99 760.908C607.948 760.908 608.896 760.887 609.823 760.836C608.906 762.029 607.958 763.119 607.02 764.098ZM599.438 758.095C597.991 757.881 596.594 757.616 595.259 757.29C595.636 755.975 596.105 754.619 596.635 753.264C597.053 754.079 597.491 754.895 597.97 755.71C598.449 756.525 598.938 757.32 599.438 758.095ZM606.969 736.886C607.917 737.864 608.865 738.955 609.803 740.147C608.885 740.107 607.948 740.076 607 740.076C606.042 740.076 605.094 740.096 604.167 740.147C605.084 738.955 606.032 737.864 606.969 736.886ZM599.428 742.889C598.928 743.674 598.429 744.479 597.96 745.304C597.491 746.12 597.053 746.935 596.635 747.75C596.085 746.385 595.616 745.019 595.229 743.694C596.564 743.378 597.97 743.103 599.428 742.889ZM590.204 755.649C586.596 754.11 584.263 752.092 584.263 750.492C584.263 748.892 586.596 746.864 590.204 745.335C591.081 744.958 592.039 744.621 593.027 744.305C593.608 746.303 594.373 748.382 595.32 750.512C594.383 752.632 593.629 754.701 593.058 756.688C592.049 756.372 591.091 756.026 590.204 755.649ZM595.687 770.213C594.301 769.418 593.7 766.391 594.169 762.498C594.281 761.539 594.464 760.531 594.689 759.501C596.686 759.99 598.867 760.367 601.16 760.612C602.536 762.498 603.963 764.21 605.4 765.708C602.077 768.796 598.959 770.488 596.839 770.488C596.38 770.478 595.993 770.386 595.687 770.213ZM619.862 762.447C620.341 766.34 619.75 769.367 618.374 770.172C618.068 770.355 617.671 770.437 617.202 770.437C615.092 770.437 611.963 768.755 608.641 765.687C610.068 764.189 611.494 762.487 612.85 760.602C615.153 760.357 617.334 759.98 619.332 759.481C619.566 760.51 619.75 761.499 619.862 762.447ZM623.786 755.649C622.909 756.026 621.951 756.362 620.962 756.678C620.382 754.681 619.617 752.601 618.669 750.471C619.607 748.352 620.361 746.283 620.932 744.295C621.941 744.611 622.899 744.958 623.796 745.335C627.404 746.874 629.737 748.892 629.737 750.492C629.727 752.092 627.393 754.12 623.786 755.649Z" fill="#61DAFB"/>
<path d="M606.99 755.15C609.562 755.15 611.647 753.064 611.647 750.492C611.647 747.92 609.562 745.834 606.99 745.834C604.418 745.834 602.332 747.92 602.332 750.492C602.332 753.064 604.418 755.15 606.99 755.15Z" fill="#61DAFB"/>
<g clip-path="url(#clip5_3039_26379)">
<path d="M556.844 236.747C559.795 237.801 562.103 240.487 562.682 243.567C565.703 258.971 568.735 274.371 571.751 289.777C572.322 292.671 571.267 295.837 569.001 297.743L533.704 327.956C531.374 329.977 527.92 330.446 525.082 329.306C510.39 323.952 495.694 318.609 481.003 313.256C477.993 312.18 475.737 309.356 475.293 306.197C474.436 301.555 473.565 296.916 472.706 292.275C472.541 291.317 472.23 290.345 472.462 289.371C473.334 289.31 474.006 289.961 474.731 290.336C476.252 291.279 477.931 291.903 479.591 292.543C480.054 292.668 480.289 293.103 480.352 293.549C481.102 297.504 481.787 301.473 482.559 305.425C482.718 306.273 483.645 306.476 484.331 306.73C498.763 311.972 513.184 317.245 527.617 322.484C528.12 322.705 528.697 322.571 529.083 322.188C540.733 312.228 552.374 302.254 564.019 292.289C564.523 291.932 564.721 291.294 564.551 290.707C561.531 275.423 558.525 260.137 555.508 244.853C555.478 244.57 555.363 244.302 555.177 244.085C554.992 243.868 554.745 243.712 554.47 243.637C539.833 238.301 525.19 232.979 510.556 227.639C510.004 227.382 509.339 227.461 508.913 227.913C497.271 237.881 485.624 247.848 473.978 257.816C473.762 257.97 473.598 258.187 473.509 258.438C473.419 258.688 473.409 258.959 473.478 259.216C474.273 263.303 475.082 267.384 475.884 271.468C476.377 273.734 477.511 276.063 479.614 277.225C481.445 278.27 483.889 278.009 485.466 276.61C497.054 266.716 508.613 256.784 520.202 246.895C520.683 246.417 521.525 246.541 521.904 247.082C523.045 248.397 524.187 249.713 525.297 251.053C525.782 251.595 525.554 252.448 524.978 252.823C513.324 262.789 501.692 272.78 490.023 282.728C486.922 285.389 482.452 287.005 478.475 285.434C473.614 283.465 470.26 278.76 469.025 273.761C467.945 269.442 467.256 265.029 466.33 260.673C465.631 257.692 466.643 254.352 468.996 252.363L504.293 222.149C506.571 220.162 509.946 219.626 512.753 220.712C527.449 226.06 542.147 231.403 556.844 236.747Z" fill="#8CC84B"/>
<path d="M540.121 266.703C544.274 270.967 548.291 275.899 549.544 281.863C550.531 286.465 548.448 291.269 545.003 294.314C544.456 294.629 543.775 294.359 543.422 293.882C542.303 292.571 541.163 291.278 540.069 289.946C539.572 289.409 539.808 288.648 540.239 288.158C541.588 286.351 542.463 284.023 541.923 281.76C541.065 278.31 538.607 275.562 536.328 272.951C534.581 271.116 532.645 269.191 530.12 268.53C528.194 268.013 526.14 269.113 525.13 270.751C524.491 272.027 525.156 273.457 525.667 274.656C528.9 281.311 533.974 286.953 536.669 293.89C537.796 296.752 538.162 300.182 536.497 302.917C534.244 306.559 530.168 309.296 525.793 309.221C522.215 309.186 518.871 307.535 516.043 305.456C512.314 302.66 509.225 299.09 506.563 295.288C504.115 291.667 502.042 287.491 502.11 283.019C502.137 279.221 504.173 275.635 507.108 273.306C507.61 272.92 508.354 273.111 508.709 273.605C509.848 274.915 510.98 276.23 512.093 277.562C512.581 278.057 512.46 278.837 511.987 279.289C510.603 280.895 509.444 282.924 509.688 285.12C510.253 289.28 513.25 292.541 515.828 295.651C518.117 298.096 520.593 300.921 524.049 301.557C525.945 301.831 527.825 300.783 528.952 299.307C529.842 297.989 529.342 296.307 528.801 294.957C525.904 288.134 520.299 282.835 517.669 275.874C516.584 273.063 516.24 269.741 517.747 267.014C519.895 263.17 524.231 260.378 528.72 260.756C533.145 261.084 537.001 263.725 540.121 266.703Z" fill="#8CC84B"/>
</g>
<rect x="583.438" y="227.422" width="16" height="16" rx="8" fill="#007FFF"/>
<rect x="897.594" y="42.1094" width="16" height="16" rx="8" fill="#007FFF"/>
<rect x="89.75" y="480.125" width="16" height="16" rx="8" fill="#007FFF"/>
<rect x="718.078" y="505.391" width="16" height="16" rx="8" fill="#007FFF"/>
<rect x="403.906" y="547.5" width="16" height="16" rx="8" fill="#007FFF"/>
<rect x="628.312" y="774.938" width="16" height="16" rx="8" fill="#007FFF"/>
<defs>
<linearGradient id="paint0_linear_3039_26379" x1="345.291" y1="327.783" x2="692.771" y2="327.783" gradientUnits="userSpaceOnUse">
<stop offset="0.000724005" stop-color="#C9C9DC"/>
<stop offset="0.1605" stop-color="#CCCCDE"/>
<stop offset="0.2866" stop-color="#D6D6E4"/>
<stop offset="0.4008" stop-color="#E7E7EF"/>
<stop offset="0.5081" stop-color="#FEFEFE"/>
<stop offset="0.5119" stop-color="white"/>
<stop offset="0.6172" stop-color="#E7E7F0"/>
<stop offset="0.7284" stop-color="#D6D6E5"/>
<stop offset="0.85" stop-color="#CCCCDE"/>
<stop offset="1" stop-color="#C9C9DC"/>
</linearGradient>
<linearGradient id="paint1_linear_3039_26379" x1="345.291" y1="284.974" x2="692.775" y2="284.974" gradientUnits="userSpaceOnUse">
<stop offset="0.00155072" stop-color="#EAEAF1"/>
<stop offset="1" stop-color="#EEEFF4"/>
</linearGradient>
<linearGradient id="paint2_linear_3039_26379" x1="662.411" y1="145.616" x2="1009.89" y2="145.616" gradientUnits="userSpaceOnUse">
<stop offset="0.000724005" stop-color="#C9C9DC"/>
<stop offset="0.1605" stop-color="#CCCCDE"/>
<stop offset="0.2866" stop-color="#D6D6E4"/>
<stop offset="0.4008" stop-color="#E7E7EF"/>
<stop offset="0.5081" stop-color="#FEFEFE"/>
<stop offset="0.5119" stop-color="white"/>
<stop offset="0.6172" stop-color="#E7E7F0"/>
<stop offset="0.7284" stop-color="#D6D6E5"/>
<stop offset="0.85" stop-color="#CCCCDE"/>
<stop offset="1" stop-color="#C9C9DC"/>
</linearGradient>
<linearGradient id="paint3_linear_3039_26379" x1="662.412" y1="102.808" x2="1009.9" y2="102.808" gradientUnits="userSpaceOnUse">
<stop offset="0.00155072" stop-color="#EAEAF1"/>
<stop offset="1" stop-color="#EEEFF4"/>
</linearGradient>
<linearGradient id="paint4_linear_3039_26379" x1="167.443" y1="648.066" x2="514.924" y2="648.066" gradientUnits="userSpaceOnUse">
<stop offset="0.000724005" stop-color="#C9C9DC"/>
<stop offset="0.1605" stop-color="#CCCCDE"/>
<stop offset="0.2866" stop-color="#D6D6E4"/>
<stop offset="0.4008" stop-color="#E7E7EF"/>
<stop offset="0.5081" stop-color="#FEFEFE"/>
<stop offset="0.5119" stop-color="white"/>
<stop offset="0.6172" stop-color="#E7E7F0"/>
<stop offset="0.7284" stop-color="#D6D6E5"/>
<stop offset="0.85" stop-color="#CCCCDE"/>
<stop offset="1" stop-color="#C9C9DC"/>
</linearGradient>
<linearGradient id="paint5_linear_3039_26379" x1="167.443" y1="605.257" x2="514.927" y2="605.257" gradientUnits="userSpaceOnUse">
<stop offset="0.00155072" stop-color="#EAEAF1"/>
<stop offset="1" stop-color="#EEEFF4"/>
</linearGradient>
<linearGradient id="paint6_linear_3039_26379" x1="-3886.42" y1="-5425.03" x2="-3886.42" y2="-5425.03" gradientUnits="userSpaceOnUse">
<stop stop-color="#1A237E" stop-opacity="0.4"/>
<stop offset="1" stop-color="#1A237E" stop-opacity="0"/>
</linearGradient>
<radialGradient id="paint7_radial_3039_26379" cx="0" cy="0" r="1" gradientUnits="userSpaceOnUse" gradientTransform="translate(-3326.21 -5748.43) scale(1.09203e-05 6.30482e-06)">
<stop stop-color="white" stop-opacity="0.1"/>
<stop offset="1" stop-color="white" stop-opacity="0"/>
</radialGradient>
<linearGradient id="paint8_linear_3039_26379" x1="609.212" y1="505.956" x2="782.23" y2="505.956" gradientUnits="userSpaceOnUse">
<stop offset="0.00155072" stop-color="#EAEAF1"/>
<stop offset="1" stop-color="#EEEFF4"/>
</linearGradient>
<linearGradient id="paint9_linear_3039_26379" x1="0" y1="476.427" x2="161.428" y2="476.427" gradientUnits="userSpaceOnUse">
<stop offset="0.00155072" stop-color="#EAEAF1"/>
<stop offset="1" stop-color="#EEEFF4"/>
</linearGradient>
<linearGradient id="paint10_linear_3039_26379" x1="524.246" y1="779.25" x2="685.673" y2="779.25" gradientUnits="userSpaceOnUse">
<stop offset="0.00155072" stop-color="#EAEAF1"/>
<stop offset="1" stop-color="#EEEFF4"/>
</linearGradient>
<linearGradient id="paint11_linear_3039_26379" x1="524.246" y1="758.281" x2="685.673" y2="758.281" gradientUnits="userSpaceOnUse">
<stop offset="0.00155072" stop-color="#EAEAF1"/>
<stop offset="1" stop-color="#EEEFF4"/>
</linearGradient>
<linearGradient id="paint12_linear_3039_26379" x1="609.212" y1="483.482" x2="782.23" y2="483.482" gradientUnits="userSpaceOnUse">
<stop offset="0.00155072" stop-color="#EAEAF1"/>
<stop offset="1" stop-color="#EEEFF4"/>
</linearGradient>
<linearGradient id="paint13_linear_3039_26379" x1="0" y1="455.458" x2="161.428" y2="455.458" gradientUnits="userSpaceOnUse">
<stop offset="0.00155072" stop-color="#EAEAF1"/>
<stop offset="1" stop-color="#EEEFF4"/>
</linearGradient>
<linearGradient id="paint14_linear_3039_26379" x1="189.636" y1="206.709" x2="244.119" y2="301.069" gradientUnits="userSpaceOnUse">
<stop offset="0.00155072" stop-color="#EAEAF1"/>
<stop offset="1" stop-color="#EEEFF4"/>
</linearGradient>
<linearGradient id="paint15_linear_3039_26379" x1="347.818" y1="178.204" x2="244.191" y2="357.687" gradientUnits="userSpaceOnUse">
<stop offset="0.00604585" stop-color="#4FB1FF"/>
<stop offset="1" stop-color="#427CFF"/>
</linearGradient>
<linearGradient id="paint16_linear_3039_26379" x1="773.016" y1="553.426" x2="802.46" y2="706.407" gradientUnits="userSpaceOnUse">
<stop offset="0.00155072" stop-color="#EAEAF1"/>
<stop offset="1" stop-color="#EEEFF4"/>
</linearGradient>
<linearGradient id="paint17_linear_3039_26379" x1="1017.86" y1="585.625" x2="923.319" y2="749.372" gradientUnits="userSpaceOnUse">
<stop offset="0.00604585" stop-color="#4FB1FF"/>
<stop offset="1" stop-color="#427CFF"/>
</linearGradient>
<linearGradient id="paint18_linear_3039_26379" x1="820.174" y1="304.612" x2="856.69" y2="494.336" gradientUnits="userSpaceOnUse">
<stop offset="0.00604585" stop-color="#4FB1FF"/>
<stop offset="1" stop-color="#427CFF"/>
</linearGradient>
<linearGradient id="paint19_linear_3039_26379" x1="253.787" y1="196.517" x2="273.686" y2="196.517" gradientUnits="userSpaceOnUse">
<stop offset="0.00635993" stop-color="#7EF070"/>
<stop offset="1" stop-color="#1AC67C"/>
</linearGradient>
<linearGradient id="paint20_linear_3039_26379" x1="903.373" y1="587.713" x2="930.081" y2="587.713" gradientUnits="userSpaceOnUse">
<stop offset="0.00635993" stop-color="#7EF070"/>
<stop offset="1" stop-color="#1AC67C"/>
</linearGradient>
<linearGradient id="paint21_linear_3039_26379" x1="820.403" y1="81.7485" x2="819.781" y2="76.8636" gradientUnits="userSpaceOnUse">
<stop stop-color="#A52714"/>
<stop offset="0.4" stop-color="#A52714" stop-opacity="0.5"/>
<stop offset="0.8" stop-color="#A52714" stop-opacity="0"/>
</linearGradient>
<linearGradient id="paint22_linear_3039_26379" x1="836.257" y1="93.3552" x2="836.743" y2="90.6355" gradientUnits="userSpaceOnUse">
<stop stop-color="#A52714" stop-opacity="0.8"/>
<stop offset="0.5" stop-color="#A52714" stop-opacity="0.21"/>
<stop offset="1" stop-color="#A52714" stop-opacity="0"/>
</linearGradient>
<linearGradient id="paint23_linear_3039_26379" x1="840.068" y1="49.1496" x2="821.849" y2="150.907" gradientUnits="userSpaceOnUse">
<stop stop-color="white" stop-opacity="0.1"/>
<stop offset="1" stop-color="white" stop-opacity="0"/>
</linearGradient>
<clipPath id="clip0_3039_26379">
<rect width="1122" height="837.333" fill="white" transform="translate(0 2.49756)"/>
</clipPath>
<clipPath id="clip1_3039_26379">
<rect width="1122" height="837.333" fill="white" transform="translate(0 2.49756)"/>
</clipPath>
<clipPath id="clip2_3039_26379">
<rect width="1122" height="837.333" fill="white" transform="translate(0 2.49756)"/>
</clipPath>
<clipPath id="clip3_3039_26379">
<rect width="1122" height="837.333" fill="white" transform="translate(0 2.49756)"/>
</clipPath>
<clipPath id="clip4_3039_26379">
<rect width="50" height="50" fill="white" transform="translate(54 425)"/>
</clipPath>
<clipPath id="clip5_3039_26379">
<rect width="100" height="110.132" fill="white" transform="translate(528.319 201.273) rotate(49.4368)"/>
</clipPath>
</defs>
</svg>
