<svg width="48" height="48" viewBox="0 0 48 48" fill="none" xmlns="http://www.w3.org/2000/svg">
<g clip-path="url(#clip0_2370_24733)">
<g clip-path="url(#clip1_2370_24733)">
<mask id="mask0_2370_24733" style="mask-type:luminance" maskUnits="userSpaceOnUse" x="0" y="0" width="48" height="48">
<path d="M48 0H0V48H48V0Z" fill="white"/>
</mask>
<g mask="url(#mask0_2370_24733)">
<path d="M47.4052 24.0007C47.4245 27.0866 46.8333 30.146 45.6658 33.0026C44.4982 35.8592 42.7772 38.4567 40.6019 40.6457C38.4265 42.8347 35.8398 44.5718 32.9906 45.7573C30.1413 46.9427 27.0857 47.553 23.9997 47.553C20.9137 47.553 17.8581 46.9427 15.0089 45.7573C12.1596 44.5718 9.57287 42.8347 7.39755 40.6457C5.22223 38.4567 3.50126 35.8592 2.33367 33.0026C1.16608 30.146 0.574916 27.0866 0.594207 24.0007C0.594207 11.0744 11.0739 0.594727 24.0002 0.594727C36.9264 0.594727 47.4052 11.0744 47.4052 24.0007Z" fill="white"/>
<path d="M23.9995 48C18.6578 48.0085 13.4672 46.2268 9.25682 42.9394C6.4277 40.729 4.12528 37.9173 2.51609 34.7079C0.693231 31.0483 -0.164744 26.9838 0.0235122 22.8997C0.211768 18.8156 1.44002 14.8473 3.59181 11.3709C5.7436 7.89453 8.74763 5.02535 12.3191 3.03539C15.8906 1.04542 19.9111 0.000605439 23.9995 6.02645e-08C28.9797 -0.000352776 33.8366 1.54864 37.8969 4.43225C41.9573 7.31586 45.02 11.3912 46.6605 16.0934C48.301 20.7956 48.4379 25.8917 47.0524 30.6753C45.6669 35.4588 42.8275 39.6928 38.9279 42.7903C34.6879 46.1724 29.4232 48.0109 23.9995 48.0037V48ZM23.9995 1.189C20.1138 1.19022 16.2927 2.1837 12.8984 4.07529C9.50417 5.96689 6.64919 8.69393 4.60406 11.998C2.55893 15.302 1.39142 19.0735 1.21217 22.9551C1.03292 26.8368 1.84788 30.6999 3.57979 34.1783C5.10947 37.2289 7.2982 39.9012 9.9876 42.0019C13.9842 45.1357 18.9209 46.83 23.9995 46.811C30.0244 46.7728 35.7894 44.3527 40.0362 40.079C44.283 35.8052 46.6665 30.0249 46.6665 24C46.6665 17.975 44.283 12.1948 40.0362 7.92101C35.7894 3.64726 30.0244 1.22715 23.9995 1.189Z" fill="url(#paint0_linear_2370_24733)"/>
<path d="M23.7224 32.3506C21.6414 32.3482 19.6464 31.5204 18.1751 30.0489C16.7037 28.5774 15.8762 26.5823 15.874 24.5014V19.9219C15.8785 19.5704 15.9596 19.2242 16.1118 18.9073C16.2639 18.5904 16.4833 18.3105 16.7548 18.0872C17.0034 17.876 17.2957 17.7223 17.6107 17.6373C17.9257 17.5522 18.2555 17.5378 18.5767 17.5951C19.0907 17.6939 19.5572 18.0524 20.0968 18.4668C20.9684 19.1363 22.0175 19.943 23.6785 20.1021C23.2742 18.9405 23.6647 17.7451 23.6867 17.6793C23.7203 17.58 23.7796 17.4913 23.8585 17.4223C23.9374 17.3533 24.0332 17.3064 24.136 17.2864C24.2389 17.2663 24.3453 17.2738 24.4444 17.3081C24.5434 17.3424 24.6316 17.4023 24.7001 17.4817C24.7797 17.5732 26.7287 19.7289 30.9936 19.4454C31.0716 19.4402 31.15 19.4505 31.2241 19.4756C31.2982 19.5007 31.3666 19.5402 31.4255 19.5917C31.4843 19.6433 31.5324 19.7059 31.5671 19.7761C31.6017 19.8462 31.6222 19.9225 31.6274 20.0006C31.6326 20.0786 31.6223 20.157 31.5972 20.2311C31.5721 20.3052 31.5326 20.3736 31.4811 20.4325C31.4295 20.4913 31.3669 20.5395 31.2967 20.5741C31.2266 20.6087 31.1503 20.6292 31.0722 20.6344C27.8583 20.8493 25.7674 19.803 24.6854 19.0293C24.6955 19.4518 24.8043 19.9329 25.1592 20.2997C25.238 20.3814 25.2918 20.484 25.3142 20.5953C25.3365 20.7067 25.3265 20.8221 25.2853 20.9279C25.2442 21.0338 25.1735 21.1256 25.0818 21.1925C24.9901 21.2595 24.8811 21.2988 24.7678 21.3057C22.0541 21.4704 20.4407 20.232 19.3715 19.4116C18.9691 19.1024 18.5886 18.8107 18.3526 18.7649C18.2035 18.7407 18.0508 18.7496 17.9055 18.7912C17.7602 18.8328 17.6258 18.906 17.5121 19.0055C17.3752 19.1161 17.264 19.2552 17.1863 19.4132C17.1086 19.5711 17.0662 19.7441 17.0621 19.9201V24.4996C17.0518 25.3807 17.2164 26.2551 17.5465 27.0722C17.8765 27.8893 18.3654 28.6327 18.9849 29.2594C19.6043 29.8862 20.342 30.3838 21.1551 30.7234C21.9682 31.063 22.8407 31.2379 23.7219 31.2379C24.6031 31.2379 25.4755 31.063 26.2887 30.7234C27.1018 30.3838 27.8395 29.8862 28.4589 29.2594C29.0784 28.6327 29.5673 27.8893 29.8973 27.0722C30.2274 26.2551 30.392 25.3807 30.3817 24.4996V22.3457C30.3817 22.188 30.4443 22.0368 30.5558 21.9253C30.6673 21.8138 30.8185 21.7512 30.9762 21.7512C31.1339 21.7512 31.2851 21.8138 31.3966 21.9253C31.508 22.0368 31.5707 22.188 31.5707 22.3457V24.5014C31.5685 26.5823 30.741 28.5774 29.2696 30.0489C27.7983 31.5204 25.8033 32.3482 23.7224 32.3506Z" fill="url(#paint1_linear_2370_24733)"/>
<path d="M16.4678 25.0403C15.8445 25.0398 15.2469 24.792 14.8062 24.3513C14.3655 23.9106 14.1177 23.313 14.1172 22.6897V15.253C14.1177 14.6782 14.3286 14.1234 14.7101 13.6934C15.0916 13.2634 15.6172 12.9879 16.1879 12.9189C16.3291 11.8849 16.8398 10.937 17.6256 10.2504C18.4114 9.56378 19.4192 9.18483 20.4628 9.18359H26.9685C28.6874 9.18626 30.3351 9.87034 31.5505 11.0859C32.7659 12.3014 33.4498 13.9493 33.4522 15.6682V22.5525C33.4522 22.7102 33.3895 22.8614 33.2781 22.9729C33.1666 23.0844 33.0153 23.147 32.8577 23.147C32.7 23.147 32.5488 23.0844 32.4373 22.9729C32.3258 22.8614 32.2632 22.7102 32.2632 22.5525V15.6682C32.2608 14.2646 31.7022 12.9192 30.7098 11.9266C29.7174 10.9341 28.372 10.3753 26.9685 10.3726H20.4619C19.6335 10.3733 18.8392 10.7027 18.2534 11.2885C17.6677 11.8743 17.3383 12.6685 17.3376 13.4969C17.3376 13.6546 17.2749 13.8058 17.1634 13.9173C17.0519 14.0288 16.9007 14.0914 16.7431 14.0914H16.4687C16.1607 14.0917 15.8654 14.2141 15.6476 14.4319C15.4298 14.6497 15.3073 14.945 15.3071 15.253V22.6897C15.3073 22.9977 15.4298 23.293 15.6476 23.5108C15.8654 23.7286 16.1607 23.8511 16.4687 23.8513C16.6263 23.8513 16.7776 23.9139 16.889 24.0254C17.0005 24.1369 17.0632 24.2881 17.0632 24.4458C17.0632 24.6035 17.0005 24.7547 16.889 24.8662C16.7776 24.9777 16.6263 25.0403 16.4687 25.0403H16.4678Z" fill="url(#paint2_linear_2370_24733)"/>
<path d="M12.4724 44.4266C12.3148 44.4266 12.1635 44.364 12.0521 44.2525C11.9406 44.141 11.8779 43.9898 11.8779 43.8321V39.2764C11.8796 37.9346 12.4135 36.6483 13.3623 35.6996C14.3112 34.7509 15.5976 34.2173 16.9394 34.2158H18.9607C19.3469 34.2156 19.7172 34.0621 19.9904 33.7891C20.2635 33.5161 20.4172 33.1459 20.4177 32.7597V31.4363C20.4177 31.2786 20.4803 31.1274 20.5918 31.0159C20.7033 30.9044 20.8545 30.8418 21.0122 30.8418C21.1699 30.8418 21.3211 30.9044 21.4326 31.0159C21.5441 31.1274 21.6067 31.2786 21.6067 31.4363V32.7597C21.6048 33.4608 21.3254 34.1326 20.8295 34.6283C20.3337 35.1239 19.6618 35.4031 18.9607 35.4048H16.9394C15.9129 35.406 14.9288 35.8143 14.2028 36.5401C13.4769 37.2658 13.0684 38.2499 13.0669 39.2764V43.8321C13.0669 43.9898 13.0043 44.141 12.8928 44.2525C12.7813 44.364 12.6301 44.4266 12.4724 44.4266Z" fill="url(#paint3_linear_2370_24733)"/>
<path d="M35.5535 44.4268C35.3959 44.4268 35.2446 44.3641 35.1332 44.2527C35.0217 44.1412 34.959 43.9899 34.959 43.8323V39.2766C34.9578 38.2501 34.5495 37.2661 33.8237 36.5403C33.0979 35.8145 32.1139 35.4062 31.0875 35.405H29.0652C28.5448 35.4057 28.0358 35.2527 27.602 34.9652C27.1682 34.6776 26.829 34.2684 26.6269 33.7889C26.5655 33.6433 26.5645 33.4794 26.624 33.3331C26.6835 33.1868 26.7987 33.0701 26.9442 33.0087C27.0898 32.9473 27.2537 32.9463 27.4001 33.0058C27.5464 33.0653 27.663 33.1805 27.7244 33.3261C27.8357 33.5901 28.0225 33.8154 28.2614 33.9738C28.5002 34.1321 28.7805 34.2163 29.0671 34.216H31.0875C32.4292 34.2175 33.7155 34.7511 34.6642 35.6998C35.6129 36.6485 36.1466 37.9349 36.148 39.2766V43.8323C36.148 43.9899 36.0854 44.1412 35.9739 44.2527C35.8624 44.3641 35.7112 44.4268 35.5535 44.4268Z" fill="url(#paint4_linear_2370_24733)"/>
<path d="M23.7674 41.5686C23.6097 41.5686 23.4585 41.5059 23.347 41.3944C23.2356 41.2829 23.1729 41.1317 23.1729 40.9741V37.3357L20.2205 34.4812C20.1193 34.3695 20.0642 34.2236 20.0665 34.0728C20.0688 33.9221 20.1282 33.7778 20.2328 33.6693C20.3374 33.5607 20.4794 33.496 20.6299 33.4881C20.7804 33.4803 20.9283 33.5299 21.0437 33.6269L24.1772 36.6571C24.2347 36.7124 24.2806 36.7787 24.312 36.852C24.3434 36.9254 24.3598 37.0044 24.3601 37.0842V40.975C24.3599 41.1322 24.2974 41.2829 24.1863 41.3941C24.0752 41.5053 23.9246 41.5681 23.7674 41.5686Z" fill="url(#paint5_linear_2370_24733)"/>
<path d="M23.768 37.6825C23.6516 37.6823 23.5378 37.6479 23.4407 37.5837C23.3436 37.5194 23.2675 37.4281 23.2217 37.3211C23.176 37.214 23.1626 37.0959 23.1833 36.9813C23.204 36.8668 23.2578 36.7608 23.3381 36.6765C23.5009 36.5073 24.9295 35.0164 25.0347 34.9113C25.09 34.8561 25.1556 34.8123 25.2277 34.7824C25.2999 34.7526 25.3772 34.7373 25.4553 34.7373C25.5334 34.7373 25.6107 34.7528 25.6829 34.7827C25.755 34.8126 25.8205 34.8565 25.8757 34.9117C25.9309 34.967 25.9747 35.0325 26.0045 35.1047C26.0344 35.1769 26.0497 35.2542 26.0497 35.3323C26.0496 35.4104 26.0342 35.4877 26.0043 35.5598C25.9743 35.632 25.9305 35.6975 25.8753 35.7527C25.803 35.825 24.8317 36.8365 24.1969 37.4996C24.1415 37.5575 24.0749 37.6036 24.0012 37.635C23.9275 37.6665 23.8481 37.6826 23.768 37.6825Z" fill="url(#paint6_linear_2370_24733)"/>
<path d="M20.0489 39.4691C19.9996 39.4689 19.9504 39.4628 19.9026 39.4508C19.7962 39.4236 19.6994 39.3675 19.6229 39.2888C19.5464 39.21 19.4931 39.1116 19.469 39.0045L18.6084 35.1832C18.5899 35.1066 18.5868 35.0271 18.5994 34.9492C18.6119 34.8714 18.6398 34.7969 18.6814 34.7299C18.723 34.663 18.7775 34.605 18.8417 34.5593C18.9059 34.5136 18.9786 34.4811 19.0555 34.4638C19.1324 34.4464 19.212 34.4446 19.2896 34.4583C19.3672 34.472 19.4413 34.5009 19.5076 34.5435C19.574 34.5862 19.6311 34.6415 19.6759 34.7064C19.7206 34.7713 19.7519 34.8445 19.7681 34.9216L20.3718 37.6033L22.0464 35.6936C22.0979 35.6348 22.1604 35.5868 22.2305 35.5522C22.3005 35.5177 22.3766 35.4972 22.4546 35.4921C22.5325 35.487 22.6107 35.4972 22.6846 35.5223C22.7586 35.5474 22.8269 35.5868 22.8856 35.6382C22.9443 35.6897 22.9924 35.7522 23.0269 35.8222C23.0615 35.8923 23.0819 35.9684 23.0871 36.0463C23.0922 36.1243 23.0819 36.2024 23.0569 36.2764C23.0318 36.3504 22.9924 36.4187 22.9409 36.4774L20.4962 39.266C20.4404 39.3298 20.3717 39.381 20.2945 39.416C20.2174 39.451 20.1336 39.4691 20.0489 39.4691Z" fill="url(#paint7_linear_2370_24733)"/>
<path d="M27.3462 39.4691C27.2615 39.4691 27.1777 39.451 27.1006 39.416C27.0234 39.381 26.9547 39.3298 26.899 39.266L24.456 36.4774C24.3521 36.3588 24.2995 36.2037 24.3099 36.0463C24.3203 35.889 24.3927 35.7422 24.5113 35.6382C24.63 35.5343 24.785 35.4817 24.9424 35.4921C25.0998 35.5025 25.2466 35.5749 25.3505 35.6936L27.0252 37.6033L27.6288 34.9216C27.645 34.8445 27.6764 34.7713 27.7211 34.7064C27.7658 34.6415 27.823 34.5862 27.8893 34.5435C27.9556 34.5009 28.0297 34.472 28.1074 34.4583C28.185 34.4446 28.2646 34.4464 28.3414 34.4638C28.4183 34.4811 28.491 34.5136 28.5552 34.5593C28.6195 34.605 28.674 34.663 28.7156 34.7299C28.7572 34.7969 28.7851 34.8714 28.7976 34.9492C28.8101 35.0271 28.807 35.1066 28.7885 35.1832L27.9279 39.0045C27.9037 39.1116 27.8505 39.2099 27.774 39.2887C27.6975 39.3674 27.6007 39.4235 27.4944 39.4508C27.4459 39.4629 27.3961 39.469 27.3462 39.4691Z" fill="url(#paint8_linear_2370_24733)"/>
</g>
</g>
</g>
<defs>
<linearGradient id="paint0_linear_2370_24733" x1="23.999" y1="0" x2="23.999" y2="48.0037" gradientUnits="userSpaceOnUse">
<stop stop-color="#5D45F9"/>
<stop offset="1" stop-color="#267DEB"/>
</linearGradient>
<linearGradient id="paint1_linear_2370_24733" x1="23.7514" y1="17.2754" x2="23.7514" y2="32.3506" gradientUnits="userSpaceOnUse">
<stop stop-color="#5D45F9"/>
<stop offset="1" stop-color="#267DEB"/>
</linearGradient>
<linearGradient id="paint2_linear_2370_24733" x1="23.7847" y1="9.18359" x2="23.7847" y2="25.0403" gradientUnits="userSpaceOnUse">
<stop stop-color="#5D45F9"/>
<stop offset="1" stop-color="#267DEB"/>
</linearGradient>
<linearGradient id="paint3_linear_2370_24733" x1="16.7423" y1="30.8418" x2="16.7423" y2="44.4266" gradientUnits="userSpaceOnUse">
<stop stop-color="#5D45F9"/>
<stop offset="1" stop-color="#267DEB"/>
</linearGradient>
<linearGradient id="paint4_linear_2370_24733" x1="31.364" y1="32.9619" x2="31.364" y2="44.4268" gradientUnits="userSpaceOnUse">
<stop stop-color="#5D45F9"/>
<stop offset="1" stop-color="#267DEB"/>
</linearGradient>
<linearGradient id="paint5_linear_2370_24733" x1="22.2132" y1="33.4873" x2="22.2132" y2="41.5686" gradientUnits="userSpaceOnUse">
<stop stop-color="#5D45F9"/>
<stop offset="1" stop-color="#267DEB"/>
</linearGradient>
<linearGradient id="paint6_linear_2370_24733" x1="24.6118" y1="34.7373" x2="24.6118" y2="37.6825" gradientUnits="userSpaceOnUse">
<stop stop-color="#5D45F9"/>
<stop offset="1" stop-color="#267DEB"/>
</linearGradient>
<linearGradient id="paint7_linear_2370_24733" x1="20.8401" y1="34.4492" x2="20.8401" y2="39.4691" gradientUnits="userSpaceOnUse">
<stop stop-color="#5D45F9"/>
<stop offset="1" stop-color="#267DEB"/>
</linearGradient>
<linearGradient id="paint8_linear_2370_24733" x1="26.5569" y1="34.4492" x2="26.5569" y2="39.4691" gradientUnits="userSpaceOnUse">
<stop stop-color="#5D45F9"/>
<stop offset="1" stop-color="#267DEB"/>
</linearGradient>
<clipPath id="clip0_2370_24733">
<rect width="48" height="48" rx="24" fill="white"/>
</clipPath>
<clipPath id="clip1_2370_24733">
<rect width="48" height="48" fill="white"/>
</clipPath>
</defs>
</svg>
