<svg width="40" height="46" viewBox="0 0 40 46" fill="none" xmlns="http://www.w3.org/2000/svg">
<g clip-path="url(#clip0_3051_26812)">
<path fill-rule="evenodd" clip-rule="evenodd" d="M24 21.2117V13.176C24 12.077 23.131 10.9741 22.059 10.7065L19 9.94434V8.9187V8.00024L22.685 8.9187L24 9.24683L29 10.4934L37.57 12.6289C37.755 12.6755 38 12.9858 38 13.176V24.7009L29 22.4585L24 21.2117ZM22 24.7009L19 23.9539L17 23.4553L12 22.2087L8 21.2117L3.42999 20.0732C3.24499 20.0267 3 19.7154 3 19.5261V8.9187V8.00024L6.685 8.9187L8 9.24683L12 10.2437L17 11.4893L19 11.9878L21.57 12.6289C21.755 12.6755 22 12.9858 22 13.176V20.7134V22.7578V24.7009ZM38.059 10.7065L29 8.44897L25 7.45117L24 7.20239L19 5.95581V3.96387C19 3.87568 18.971 3.79732 18.949 3.71606C19.572 3.38012 20 2.73408 20 1.98193C20 1.59347 19.883 1.23468 19.688 0.928467C19.334 0.372537 18.713 0 18 0C17.287 0 16.666 0.372537 16.312 0.928467C16.117 1.23468 16 1.59347 16 1.98193C16 2.73408 16.428 3.38012 17.051 3.71606C17.029 3.79732 17 3.87568 17 3.96387V7.44214V8.9187V9.44604L14.884 8.9187L12 8.19922L11 7.95068L9 7.45117L8 7.20239L3 5.95581V3.68848C3.596 3.34561 4 2.71327 4 1.98193C4 1.59347 3.883 1.23468 3.688 0.928467C3.334 0.372537 2.713 0 2 0C1.287 0 0.665996 0.372537 0.311996 0.928467C0.116996 1.23468 0 1.59347 0 1.98193C0 2.71327 0.404 3.34561 1 3.68848V7.44214V8.9187V19.5261V31.7727V45.009C1 45.556 1.447 46 2 46C2.553 46 3 45.556 3 45.009V31.7727V22.0095L8 23.2561L12 24.2522L17 25.4988V31.7727V44.5938C17 45.1408 17.447 45.5847 18 45.5847C18.553 45.5847 19 45.1408 19 44.5938V31.7727V25.9973L22.059 26.7603C23.127 27.0258 24 26.3551 24 25.259V23.2561L29 24.5017L38.059 26.7603C39.127 27.0258 40 26.3551 40 25.259V13.176C40 12.077 39.131 10.9741 38.059 10.7065Z" fill="url(#paint0_linear_3051_26812)"/>
</g>
<defs>
<linearGradient id="paint0_linear_3051_26812" x1="20" y1="0" x2="20" y2="46" gradientUnits="userSpaceOnUse">
<stop stop-color="#5D45F9"/>
<stop offset="1" stop-color="#267DEB"/>
</linearGradient>
<clipPath id="clip0_3051_26812">
<rect width="40" height="46" fill="white"/>
</clipPath>
</defs>
</svg>
