<svg width="35" height="29" viewBox="0 0 35 29" fill="none" xmlns="http://www.w3.org/2000/svg">
<g clip-path="url(#clip0_2940_24796)">
<mask id="mask0_2940_24796" style="mask-type:luminance" maskUnits="userSpaceOnUse" x="0" y="0" width="34" height="29">
<path d="M33.9664 0H0.00878906V28.8125H33.9664V0Z" fill="white"/>
</mask>
<g mask="url(#mask0_2940_24796)">
<path d="M33.9482 28.1594L33.1824 25.2781V19.0067C33.18 18.8683 33.1241 18.7364 33.0269 18.6393C32.9296 18.5424 32.7988 18.4881 32.6626 18.4881H21.9421C21.8066 18.4881 21.6768 18.5427 21.5811 18.6399C21.4854 18.7372 21.4316 18.8691 21.4316 19.0067V25.2302L20.7414 28.1691C20.7209 28.2453 20.718 28.3253 20.7333 28.4028C20.7484 28.4803 20.7811 28.5532 20.8289 28.6156C20.8766 28.6781 20.9379 28.7284 21.0081 28.7626C21.0782 28.7968 21.1553 28.8138 21.2331 28.8125H33.4567C33.5349 28.8123 33.612 28.7938 33.682 28.7585C33.7521 28.7232 33.8132 28.672 33.8607 28.609C33.9082 28.5458 33.9408 28.4725 33.956 28.3945C33.9712 28.3166 33.9685 28.2361 33.9482 28.1594ZM22.462 19.5156H32.1521V24.8844H22.462V19.5156ZM21.8854 27.756L22.3297 25.9312H32.2939L32.776 27.7657L21.8854 27.756Z" fill="url(#paint0_linear_2940_24796)"/>
<path d="M13.2447 28.1594L12.4695 25.2781V19.0067C12.4695 18.8691 12.4157 18.7372 12.3199 18.6399C12.2242 18.5427 12.0943 18.4881 11.9589 18.4881H1.22904C1.09365 18.4881 0.963803 18.5427 0.868066 18.6399C0.772329 18.7372 0.718544 18.8691 0.718544 19.0067V25.2302L0.00951895 28.1691C-0.00868333 28.2466 -0.00964361 28.3275 0.00670804 28.4055C0.0230596 28.4836 0.0563129 28.557 0.104056 28.6204C0.151502 28.681 0.211926 28.7298 0.28073 28.7631C0.349534 28.7963 0.424907 28.8133 0.50111 28.8125H12.7436C12.8219 28.8122 12.8992 28.7939 12.9696 28.7589C13.04 28.724 13.1017 28.6734 13.1501 28.6108C13.1978 28.5474 13.2311 28.4741 13.2474 28.396C13.2638 28.3178 13.2629 28.2371 13.2447 28.1594ZM1.75845 19.5156H11.4391V24.8844H1.74899L1.75845 19.5156ZM1.18178 27.756L1.61664 25.9312H11.5808L12.0724 27.7657L1.18178 27.756Z" fill="url(#paint1_linear_2940_24796)"/>
<path d="M27.029 13.7819C26.8367 13.7856 26.6486 13.8397 26.483 13.939C26.3173 14.0383 26.1797 14.1794 26.0836 14.3486H20.0332V13.7724C20.0333 13.634 19.9798 13.501 19.8843 13.4022C19.7888 13.3035 19.6591 13.2466 19.5227 13.2442H17.6982V10.3244H23.3231C23.4017 10.3273 23.4798 10.3114 23.5512 10.2778C23.6226 10.2443 23.6852 10.1942 23.734 10.1316C23.7827 10.0689 23.8163 9.9955 23.832 9.91722C23.8477 9.83895 23.845 9.75802 23.8242 9.681L23.0489 6.79975V0.518625C23.0489 0.381077 22.9952 0.249163 22.8994 0.151902C22.8037 0.0546406 22.6739 0 22.5385 0H11.818C11.691 0.0120006 11.5729 0.0718955 11.4872 0.167886C11.4015 0.263878 11.3543 0.389007 11.3548 0.518625V6.72291L10.6458 9.66179C10.6277 9.7379 10.6267 9.81719 10.6431 9.89371C10.6595 9.97022 10.6927 10.042 10.7402 10.1036C10.7892 10.1649 10.8513 10.2141 10.9217 10.2474C10.9922 10.2807 11.0691 10.2972 11.1468 10.2956H16.7056V13.2537H14.8148C14.7478 13.255 14.6816 13.2697 14.6202 13.2969C14.5587 13.3241 14.5032 13.3633 14.4565 13.4124C14.41 13.4615 14.3735 13.5193 14.349 13.5827C14.3245 13.6462 14.3125 13.7138 14.3138 13.7819V14.4062H8.29179C8.19566 14.237 8.05809 14.0959 7.89245 13.9966C7.72681 13.8973 7.53872 13.8433 7.34642 13.8396C7.1462 13.8321 6.94763 13.879 6.77122 13.9755C6.59483 14.072 6.447 14.2146 6.34303 14.3887C6.23905 14.5627 6.18271 14.7617 6.1798 14.9652C6.17691 15.1688 6.22757 15.3693 6.32655 15.5463C6.42552 15.7233 6.56924 15.8702 6.74281 15.9719C6.9164 16.0736 7.11356 16.1263 7.31391 16.1246C7.51426 16.1229 7.71053 16.0669 7.88245 15.9623C8.05437 15.8578 8.19568 15.7086 8.29179 15.5299H14.276V16.0581C14.276 16.1941 14.3284 16.3245 14.4222 16.4216C14.5158 16.5185 14.6432 16.5743 14.777 16.5768H19.5039C19.6392 16.5768 19.7691 16.5221 19.8649 16.4249C19.9606 16.3276 20.0144 16.1957 20.0144 16.0581V15.5299H26.0269C26.1183 15.7047 26.2543 15.8512 26.4206 15.9543C26.5869 16.0574 26.7775 16.1132 26.9723 16.1158C27.2516 16.0897 27.5113 15.9585 27.7003 15.748C27.8894 15.5374 27.9942 15.2627 27.9942 14.9777C27.9942 14.6927 27.8894 14.418 27.7003 14.2074C27.5113 13.9969 27.2516 13.8657 26.9723 13.8396L27.029 13.7819ZM12.3001 1.04685H22.0185V6.40598H12.3001V1.04685ZM11.7329 9.29684L12.1678 7.45284H22.1698V7.51046L22.6992 9.29684H11.7329ZM18.9839 15.4435H15.3064V14.3294H19.0122L18.9839 15.4435Z" fill="url(#paint2_linear_2940_24796)"/>
</g>
</g>
<defs>
<linearGradient id="paint0_linear_2940_24796" x1="27.3447" y1="18.4881" x2="27.3447" y2="28.8126" gradientUnits="userSpaceOnUse">
<stop stop-color="#5D45F9"/>
<stop offset="1" stop-color="#267DEB"/>
</linearGradient>
<linearGradient id="paint1_linear_2940_24796" x1="6.62709" y1="18.4881" x2="6.62709" y2="28.8125" gradientUnits="userSpaceOnUse">
<stop stop-color="#5D45F9"/>
<stop offset="1" stop-color="#267DEB"/>
</linearGradient>
<linearGradient id="paint2_linear_2940_24796" x1="17.0869" y1="0" x2="17.0869" y2="16.5768" gradientUnits="userSpaceOnUse">
<stop stop-color="#5D45F9"/>
<stop offset="1" stop-color="#267DEB"/>
</linearGradient>
<clipPath id="clip0_2940_24796">
<rect width="34.9866" height="28.8125" fill="white" transform="translate(0.00683594)"/>
</clipPath>
</defs>
</svg>
