<svg width="35" height="35" viewBox="0 0 35 35" fill="none" xmlns="http://www.w3.org/2000/svg">
<g clip-path="url(#clip0_2940_24749)">
<mask id="mask0_2940_24749" style="mask-type:luminance" maskUnits="userSpaceOnUse" x="0" y="0" width="35" height="35">
<path d="M34.916 0H0V35H34.916V0Z" fill="white"/>
</mask>
<g mask="url(#mask0_2940_24749)">
<path d="M5.68245 6.19488H0.512426C0.376522 6.19488 0.246184 6.14089 0.150086 6.04479C0.0539875 5.94869 0 5.81835 0 5.68245V0.512426C0 0.376522 0.0539875 0.246184 0.150086 0.150086C0.246184 0.0539875 0.376522 0 0.512426 0H5.68245C5.81835 0 5.94869 0.0539875 6.04479 0.150086C6.14089 0.246184 6.19488 0.376522 6.19488 0.512426V5.68245C6.19488 5.81835 6.14089 5.94869 6.04479 6.04479C5.94869 6.14089 5.81835 6.19488 5.68245 6.19488ZM1.02485 5.17003H5.17003V1.02485H1.02485V5.17003Z" fill="url(#paint0_linear_2940_24749)"/>
<path d="M5.68245 35H0.512426C0.376522 35 0.246184 34.946 0.150086 34.85C0.0539875 34.7538 0 34.6235 0 34.4876V29.3175C0 29.1817 0.0539875 29.0513 0.150086 28.9553C0.246184 28.8591 0.376522 28.8051 0.512426 28.8051H5.68245C5.81835 28.8051 5.94869 28.8591 6.04479 28.9553C6.14089 29.0513 6.19488 29.1817 6.19488 29.3175V34.4876C6.19488 34.6235 6.14089 34.7538 6.04479 34.85C5.94869 34.946 5.81835 35 5.68245 35ZM1.02485 33.9752H5.17003V29.83H1.02485V33.9752Z" fill="url(#paint1_linear_2940_24749)"/>
<path d="M34.404 35H29.2341C29.0982 35 28.9678 34.9461 28.8717 34.85C28.7756 34.7538 28.7217 34.6235 28.7217 34.4876V29.3175C28.7217 29.1817 28.7756 29.0513 28.8717 28.9553C28.9678 28.8591 29.0982 28.8051 29.2341 28.8051H34.404C34.4714 28.805 34.5381 28.8183 34.6003 28.844C34.6625 28.8696 34.719 28.9074 34.7666 28.955C34.8142 29.0026 34.8519 29.0591 34.8777 29.1214C34.9034 29.1836 34.9166 29.2502 34.9166 29.3175V34.4876C34.9166 34.6235 34.8625 34.7538 34.7664 34.85C34.6704 34.9461 34.54 35 34.404 35ZM29.7465 33.9752H33.889V29.83H29.7465V33.9752Z" fill="url(#paint2_linear_2940_24749)"/>
<path d="M34.404 6.19488H29.2341C29.0982 6.19488 28.9678 6.14089 28.8717 6.04479C28.7756 5.94869 28.7217 5.81835 28.7217 5.68245V0.512426C28.7217 0.376522 28.7756 0.246184 28.8717 0.150086C28.9678 0.0539875 29.0982 0 29.2341 0H34.404C34.5395 0.000722301 34.6691 0.0550285 34.7647 0.151048C34.8602 0.247069 34.9138 0.376993 34.9138 0.512426V5.68245C34.9138 5.81789 34.8602 5.94781 34.7647 6.04382C34.6691 6.13985 34.5395 6.19416 34.404 6.19488ZM29.7465 5.17003H33.889V1.02485H29.7465V5.17003Z" fill="url(#paint3_linear_2940_24749)"/>
<path d="M7.38847 3.99963H5.68039C5.54449 3.99963 5.41415 3.94563 5.31805 3.84954C5.22195 3.75344 5.16797 3.6231 5.16797 3.4872C5.16797 3.3513 5.22195 3.22096 5.31805 3.12486C5.41415 3.02876 5.54449 2.97477 5.68039 2.97477H7.38847C7.52438 2.97477 7.65472 3.02876 7.75082 3.12486C7.84692 3.22096 7.9009 3.3513 7.9009 3.4872C7.9009 3.6231 7.84692 3.75344 7.75082 3.84954C7.65472 3.94563 7.52438 3.99963 7.38847 3.99963Z" fill="url(#paint4_linear_2940_24749)"/>
<path d="M14.6344 3.99963H12.8224C12.6865 3.99963 12.5562 3.94563 12.46 3.84954C12.364 3.75344 12.31 3.6231 12.31 3.4872C12.31 3.3513 12.364 3.22096 12.46 3.12486C12.5562 3.02876 12.6865 2.97477 12.8224 2.97477H14.6344C14.7703 2.97477 14.9006 3.02876 14.9967 3.12486C15.0927 3.22096 15.1468 3.3513 15.1468 3.4872C15.1468 3.6231 15.0927 3.75344 14.9967 3.84954C14.9006 3.94563 14.7703 3.99963 14.6344 3.99963ZM11.0132 3.99963H9.19992C9.06402 3.99963 8.93368 3.94563 8.83758 3.84954C8.74148 3.75344 8.6875 3.6231 8.6875 3.4872C8.6875 3.3513 8.74148 3.22096 8.83758 3.12486C8.93368 3.02876 9.06402 2.97477 9.19992 2.97477H11.0112C11.1471 2.97477 11.2774 3.02876 11.3735 3.12486C11.4696 3.22096 11.5236 3.3513 11.5236 3.4872C11.5236 3.6231 11.4696 3.75344 11.3735 3.84954C11.2774 3.94563 11.1471 3.99963 11.0112 3.99963H11.0132Z" fill="url(#paint5_linear_2940_24749)"/>
<path d="M25.5027 3.99963H23.6908C23.5549 3.99963 23.4245 3.94563 23.3285 3.84954C23.2323 3.75344 23.1783 3.6231 23.1783 3.4872C23.1783 3.3513 23.2323 3.22096 23.3285 3.12486C23.4245 3.02876 23.5549 2.97477 23.6908 2.97477H25.5027C25.6386 2.97477 25.7689 3.02876 25.865 3.12486C25.9612 3.22096 26.0152 3.3513 26.0152 3.4872C26.0152 3.6231 25.9612 3.75344 25.865 3.84954C25.7689 3.94563 25.6386 3.99963 25.5027 3.99963ZM21.8816 3.99963H20.0683C19.9324 3.99963 19.802 3.94563 19.706 3.84954C19.6098 3.75344 19.5558 3.6231 19.5558 3.4872C19.5558 3.3513 19.6098 3.22096 19.706 3.12486C19.802 3.02876 19.9324 2.97477 20.0683 2.97477H21.8796C22.0154 2.97477 22.1458 3.02876 22.2418 3.12486C22.338 3.22096 22.392 3.3513 22.392 3.4872C22.392 3.6231 22.338 3.75344 22.2418 3.84954C22.1458 3.94563 22.0154 3.99963 21.8796 3.99963H21.8816ZM18.2605 3.99963H16.4451C16.3092 3.99963 16.1789 3.94563 16.0828 3.84954C15.9866 3.75344 15.9326 3.6231 15.9326 3.4872C15.9326 3.3513 15.9866 3.22096 16.0828 3.12486C16.1789 3.02876 16.3092 2.97477 16.4451 2.97477H18.2564C18.3923 2.97477 18.5226 3.02876 18.6186 3.12486C18.7148 3.22096 18.7688 3.3513 18.7688 3.4872C18.7688 3.6231 18.7148 3.75344 18.6186 3.84954C18.5226 3.94563 18.3923 3.99963 18.2564 3.99963H18.2605Z" fill="url(#paint6_linear_2940_24749)"/>
<path d="M29.0222 3.99963H27.3142C27.1782 3.99963 27.0479 3.94563 26.9518 3.84954C26.8557 3.75344 26.8018 3.6231 26.8018 3.4872C26.8018 3.3513 26.8557 3.22096 26.9518 3.12486C27.0479 3.02876 27.1782 2.97477 27.3142 2.97477H29.0222C29.1581 2.97477 29.2885 3.02876 29.3845 3.12486C29.4807 3.22096 29.5347 3.3513 29.5347 3.4872C29.5347 3.6231 29.4807 3.75344 29.3845 3.84954C29.2885 3.94563 29.1581 3.99963 29.0222 3.99963Z" fill="url(#paint7_linear_2940_24749)"/>
<path d="M3.05051 29.8389C2.9146 29.8389 2.78428 29.7849 2.68818 29.6887C2.59208 29.5926 2.53809 29.4623 2.53809 29.3264V27.6184C2.53809 27.4825 2.59208 27.3521 2.68818 27.256C2.78428 27.1599 2.9146 27.1059 3.05051 27.1059C3.18641 27.1059 3.31675 27.1599 3.41285 27.256C3.50895 27.3521 3.56293 27.4825 3.56293 27.6184V29.3264C3.56293 29.4623 3.50895 29.5926 3.41285 29.6887C3.31675 29.7849 3.18641 29.8389 3.05051 29.8389Z" fill="url(#paint8_linear_2940_24749)"/>
<path d="M3.05051 26.3045C2.9146 26.3045 2.78428 26.2505 2.68818 26.1543C2.59208 26.0583 2.53809 25.9279 2.53809 25.7921V23.9603C2.53809 23.8244 2.59208 23.6941 2.68818 23.5979C2.78428 23.5018 2.9146 23.4479 3.05051 23.4479C3.18641 23.4479 3.31675 23.5018 3.41285 23.5979C3.50895 23.6941 3.56293 23.8244 3.56293 23.9603V25.7893C3.56329 25.8568 3.55031 25.9238 3.52472 25.9862C3.49913 26.0487 3.46144 26.1056 3.41382 26.1534C3.3662 26.2012 3.30959 26.2393 3.24724 26.2652C3.1849 26.2911 3.11804 26.3045 3.05051 26.3045ZM3.05051 22.6464C2.9146 22.6464 2.78428 22.5924 2.68818 22.4964C2.59208 22.4002 2.53809 22.2699 2.53809 22.134V20.3022C2.53809 20.1663 2.59208 20.036 2.68818 19.94C2.78428 19.8438 2.9146 19.7898 3.05051 19.7898C3.18641 19.7898 3.31675 19.8438 3.41285 19.94C3.50895 20.036 3.56293 20.1663 3.56293 20.3022V22.1313C3.56293 22.1985 3.54968 22.2653 3.52393 22.3273C3.49818 22.3895 3.46043 22.446 3.41285 22.4936C3.36526 22.5412 3.30877 22.579 3.24661 22.6046C3.18444 22.6304 3.1178 22.6437 3.05051 22.6437V22.6464Z" fill="url(#paint9_linear_2940_24749)"/>
<path d="M3.05051 18.9857C2.9146 18.9857 2.78428 18.9317 2.68818 18.8356C2.59208 18.7396 2.53809 18.6091 2.53809 18.4733V16.6442C2.53809 16.5083 2.59208 16.378 2.68818 16.282C2.78428 16.1859 2.9146 16.1318 3.05051 16.1318C3.18641 16.1318 3.31675 16.1859 3.41285 16.282C3.50895 16.378 3.56293 16.5083 3.56293 16.6442V18.4733C3.56293 18.6091 3.50895 18.7396 3.41285 18.8356C3.31675 18.9317 3.18641 18.9857 3.05051 18.9857ZM3.05051 15.3277C2.9146 15.3277 2.78428 15.2736 2.68818 15.1776C2.59208 15.0815 2.53809 14.9512 2.53809 14.8153V12.9863C2.53809 12.8504 2.59208 12.72 2.68818 12.6239C2.78428 12.5278 2.9146 12.4739 3.05051 12.4739C3.18641 12.4739 3.31675 12.5278 3.41285 12.6239C3.50895 12.72 3.56293 12.8504 3.56293 12.9863V14.8153C3.56293 14.9512 3.50895 15.0815 3.41285 15.1776C3.31675 15.2736 3.18641 15.3277 3.05051 15.3277ZM3.05051 11.6697C2.9146 11.6697 2.78428 11.6157 2.68818 11.5196C2.59208 11.4235 2.53809 11.2931 2.53809 11.1572V9.32822C2.53809 9.19231 2.59208 9.06197 2.68818 8.96588C2.78428 8.86978 2.9146 8.8158 3.05051 8.8158C3.18641 8.8158 3.31675 8.86978 3.41285 8.96588C3.50895 9.06197 3.56293 9.19231 3.56293 9.32822V11.1572C3.56293 11.2931 3.50895 11.4235 3.41285 11.5196C3.31675 11.6157 3.18641 11.6697 3.05051 11.6697Z" fill="url(#paint10_linear_2940_24749)"/>
<path d="M3.05051 8.01163C2.9146 8.01163 2.78428 7.95765 2.68818 7.86155C2.59208 7.76545 2.53809 7.63511 2.53809 7.49921V5.79113C2.53809 5.65522 2.59208 5.52488 2.68818 5.42878C2.78428 5.33268 2.9146 5.2787 3.05051 5.2787C3.18641 5.2787 3.31675 5.33268 3.41285 5.42878C3.50895 5.52488 3.56293 5.65522 3.56293 5.79113V7.49921C3.56293 7.63511 3.50895 7.76545 3.41285 7.86155C3.31675 7.95765 3.18641 8.01163 3.05051 8.01163Z" fill="url(#paint11_linear_2940_24749)"/>
<path d="M29.1746 32.5357H27.4665C27.3306 32.5357 27.2003 32.4816 27.1043 32.3855C27.0081 32.2894 26.9541 32.1591 26.9541 32.0231C26.9541 31.8872 27.0081 31.7569 27.1043 31.6609C27.2003 31.5648 27.3306 31.5107 27.4665 31.5107H29.1746C29.3105 31.5107 29.4409 31.5648 29.537 31.6609C29.6331 31.7569 29.687 31.8872 29.687 32.0231C29.687 32.1591 29.6331 32.2894 29.537 32.3855C29.4409 32.4816 29.3105 32.5357 29.1746 32.5357Z" fill="url(#paint12_linear_2940_24749)"/>
<path d="M25.6524 32.5357H23.8378C23.7019 32.5357 23.5716 32.4816 23.4754 32.3855C23.3794 32.2894 23.3254 32.1591 23.3254 32.0231C23.3254 31.8872 23.3794 31.7569 23.4754 31.6609C23.5716 31.5648 23.7019 31.5107 23.8378 31.5107H25.6524C25.7883 31.5107 25.9187 31.5648 26.0148 31.6609C26.1109 31.7569 26.1649 31.8872 26.1649 32.0231C26.1649 32.1591 26.1109 32.2894 26.0148 32.3855C25.9187 32.4816 25.7883 32.5357 25.6524 32.5357ZM22.0225 32.5357H20.2078C20.0719 32.5357 19.9416 32.4816 19.8455 32.3855C19.7493 32.2894 19.6953 32.1591 19.6953 32.0231C19.6953 31.8872 19.7493 31.7569 19.8455 31.6609C19.9416 31.5648 20.0719 31.5107 20.2078 31.5107H22.0225C22.1584 31.5107 22.2887 31.5648 22.3848 31.6609C22.4808 31.7569 22.5349 31.8872 22.5349 32.0231C22.5349 32.1591 22.4808 32.2894 22.3848 32.3855C22.2887 32.4816 22.1584 32.5357 22.0225 32.5357Z" fill="url(#paint13_linear_2940_24749)"/>
<path d="M18.3944 32.5357H16.5791C16.4431 32.5357 16.3128 32.4816 16.2168 32.3855C16.1207 32.2894 16.0667 32.1591 16.0667 32.0231C16.0667 31.8872 16.1207 31.7569 16.2168 31.6609C16.3128 31.5648 16.4431 31.5107 16.5791 31.5107H18.3944C18.5303 31.5107 18.6606 31.5648 18.7568 31.6609C18.8529 31.7569 18.9069 31.8872 18.9069 32.0231C18.9069 32.1591 18.8529 32.2894 18.7568 32.3855C18.6606 32.4816 18.5303 32.5357 18.3944 32.5357ZM14.7644 32.5357H12.9491C12.8132 32.5357 12.6829 32.4816 12.5867 32.3855C12.4906 32.2894 12.4367 32.1591 12.4367 32.0231C12.4367 31.8872 12.4906 31.7569 12.5867 31.6609C12.6829 31.5648 12.8132 31.5107 12.9491 31.5107H14.7644C14.9003 31.5107 15.0307 31.5648 15.1268 31.6609C15.2228 31.7569 15.2768 31.8872 15.2768 32.0231C15.2768 32.1591 15.2228 32.2894 15.1268 32.3855C15.0307 32.4816 14.9003 32.5357 14.7644 32.5357ZM11.1344 32.5357H9.31906C9.18316 32.5357 9.05282 32.4816 8.95672 32.3855C8.86062 32.2894 8.80664 32.1591 8.80664 32.0231C8.80664 31.8872 8.86062 31.7569 8.95672 31.6609C9.05282 31.5648 9.18316 31.5107 9.31906 31.5107H11.1371C11.273 31.5107 11.4034 31.5648 11.4995 31.6609C11.5956 31.7569 11.6496 31.8872 11.6496 32.0231C11.6496 32.1591 11.5956 32.2894 11.4995 32.3855C11.4034 32.4816 11.273 32.5357 11.1371 32.5357H11.1344Z" fill="url(#paint14_linear_2940_24749)"/>
<path d="M7.50371 32.5357H5.79563C5.65972 32.5357 5.52939 32.4816 5.4333 32.3855C5.3372 32.2894 5.2832 32.1591 5.2832 32.0231C5.2832 31.8872 5.3372 31.7569 5.4333 31.6609C5.52939 31.5648 5.65972 31.5107 5.79563 31.5107H7.50371C7.63961 31.5107 7.76995 31.5648 7.86605 31.6609C7.96215 31.7569 8.01614 31.8872 8.01614 32.0231C8.01614 32.1591 7.96215 32.2894 7.86605 32.3855C7.76995 32.4816 7.63961 32.5357 7.50371 32.5357Z" fill="url(#paint15_linear_2940_24749)"/>
<path d="M31.6013 8.08811C31.4654 8.08811 31.335 8.03413 31.2389 7.93803C31.1428 7.84193 31.0889 7.71159 31.0889 7.57568V5.8676C31.0889 5.7317 31.1428 5.60136 31.2389 5.50526C31.335 5.40916 31.4654 5.35518 31.6013 5.35518C31.7372 5.35518 31.8675 5.40916 31.9636 5.50526C32.0597 5.60136 32.1137 5.7317 32.1137 5.8676V7.57568C32.1138 7.643 32.1006 7.70968 32.0748 7.77189C32.0492 7.8341 32.0114 7.89063 31.9638 7.93823C31.9162 7.98583 31.8597 8.02357 31.7975 8.04929C31.7352 8.07501 31.6686 8.0882 31.6013 8.08811Z" fill="url(#paint16_linear_2940_24749)"/>
<path d="M31.6017 15.3482C31.4658 15.3482 31.3355 15.2942 31.2393 15.198C31.1432 15.1019 31.0893 14.9716 31.0893 14.8357V13.021C31.0893 12.8851 31.1432 12.7548 31.2393 12.6587C31.3355 12.5627 31.4658 12.5086 31.6017 12.5086C31.7376 12.5086 31.8679 12.5627 31.9641 12.6587C32.0601 12.7548 32.1141 12.8851 32.1141 13.021V14.8357C32.1142 14.903 32.101 14.9697 32.0752 15.0319C32.0496 15.0941 32.0118 15.1507 31.9642 15.1983C31.9166 15.2459 31.8601 15.2836 31.7979 15.3093C31.7356 15.335 31.669 15.3482 31.6017 15.3482ZM31.6017 11.7181C31.5343 11.7183 31.4674 11.7052 31.405 11.6795C31.3426 11.6537 31.286 11.616 31.2382 11.5683C31.1904 11.5206 31.1526 11.464 31.1269 11.4016C31.1011 11.3393 31.0878 11.2725 31.0879 11.205V9.39102C31.0879 9.25512 31.1419 9.12478 31.2379 9.02868C31.3341 8.93258 31.4644 8.8786 31.6003 8.8786C31.7362 8.8786 31.8665 8.93258 31.9627 9.02868C32.0588 9.12478 32.1127 9.25512 32.1127 9.39102V11.205C32.1129 11.2723 32.0999 11.3389 32.0742 11.4011C32.0486 11.4633 32.0111 11.5199 31.9636 11.5675C31.9161 11.6152 31.8598 11.653 31.7976 11.6788C31.7355 11.7047 31.6689 11.718 31.6017 11.7181Z" fill="url(#paint17_linear_2940_24749)"/>
<path d="M31.6013 26.2361C31.4654 26.2361 31.335 26.1822 31.2389 26.0861C31.1428 25.99 31.0889 25.8596 31.0889 25.7237V23.9132C31.0889 23.7773 31.1428 23.6469 31.2389 23.5508C31.335 23.4548 31.4654 23.4008 31.6013 23.4008C31.7372 23.4008 31.8675 23.4548 31.9636 23.5508C32.0597 23.6469 32.1137 23.7773 32.1137 23.9132V25.7278C32.1126 25.863 32.0581 25.9923 31.9621 26.0875C31.8662 26.1827 31.7365 26.2361 31.6013 26.2361ZM31.6013 22.6062C31.4654 22.6062 31.335 22.5521 31.2389 22.456C31.1428 22.36 31.0889 22.2297 31.0889 22.0938V20.2811C31.0889 20.1452 31.1428 20.0149 31.2389 19.9187C31.335 19.8227 31.4654 19.7687 31.6013 19.7687C31.7372 19.7687 31.8675 19.8227 31.9636 19.9187C32.0597 20.0149 32.1137 20.1452 32.1137 20.2811V22.0957C32.1137 22.2317 32.0597 22.362 31.9636 22.4581C31.8675 22.5542 31.7372 22.6081 31.6013 22.6081V22.6062ZM31.6013 18.9761C31.4654 18.9761 31.335 18.9222 31.2389 18.826C31.1428 18.7299 31.0889 18.5996 31.0889 18.4637V16.6511C31.0889 16.5152 31.1428 16.3848 31.2389 16.2888C31.335 16.1926 31.4654 16.1386 31.6013 16.1386C31.7372 16.1386 31.8675 16.1926 31.9636 16.2888C32.0597 16.3848 32.1137 16.5152 32.1137 16.6511V18.4658C32.1138 18.5331 32.1006 18.5997 32.0748 18.662C32.0492 18.7242 32.0114 18.7807 31.9638 18.8283C31.9162 18.8759 31.8597 18.9137 31.7975 18.9393C31.7352 18.9651 31.6686 18.9783 31.6013 18.9782V18.9761Z" fill="url(#paint18_linear_2940_24749)"/>
<path d="M31.6013 29.7617C31.4654 29.7617 31.335 29.7076 31.2389 29.6115C31.1428 29.5155 31.0889 29.3852 31.0889 29.2493V27.5411C31.0889 27.4052 31.1428 27.2749 31.2389 27.1788C31.335 27.0828 31.4654 27.0287 31.6013 27.0287C31.7372 27.0287 31.8675 27.0828 31.9636 27.1788C32.0597 27.2749 32.1137 27.4052 32.1137 27.5411V29.2493C32.1137 29.3852 32.0597 29.5155 31.9636 29.6115C31.8675 29.7076 31.7372 29.7617 31.6013 29.7617Z" fill="url(#paint19_linear_2940_24749)"/>
<path d="M24.5004 12.0857C24.5005 11.9849 24.4708 11.8865 24.4149 11.8027C24.359 11.7188 24.2795 11.6535 24.1866 11.6149C24.0935 11.5763 23.991 11.5661 23.8923 11.5858C23.7935 11.6054 23.7027 11.6539 23.6315 11.7251C23.5603 11.7963 23.5118 11.887 23.4922 11.9859C23.4726 12.0847 23.4827 12.1871 23.5213 12.2801C23.5598 12.3732 23.6253 12.4526 23.709 12.5085C23.7928 12.5644 23.8914 12.5942 23.9921 12.594C24.1268 12.5938 24.2561 12.5403 24.3513 12.4449C24.4466 12.3496 24.5003 12.2205 24.5004 12.0857Z" fill="url(#paint20_linear_2940_24749)"/>
<path d="M10.8984 11.5767C10.7977 11.5766 10.6992 11.6063 10.6154 11.6622C10.5316 11.718 10.4662 11.7975 10.4276 11.8904C10.389 11.9835 10.3788 12.0859 10.3984 12.1847C10.4179 12.2834 10.4664 12.3741 10.5375 12.4454C10.6087 12.5167 10.6994 12.5652 10.7981 12.585C10.8969 12.6047 10.9993 12.5946 11.0923 12.556C11.1854 12.5175 11.2649 12.4523 11.3209 12.3687C11.3768 12.2849 11.4067 12.1864 11.4067 12.0857C11.4065 11.9509 11.3529 11.8216 11.2576 11.7263C11.1624 11.6309 11.0332 11.5771 10.8984 11.5767Z" fill="url(#paint21_linear_2940_24749)"/>
<path d="M26.8014 16.041H26.2704C26.1215 14.9981 25.7816 13.9915 25.2682 13.0716C25.2025 12.954 25.0928 12.8672 24.9632 12.8303C24.8336 12.7934 24.6946 12.8094 24.5768 12.8749C24.5183 12.9073 24.4669 12.9509 24.4254 13.0033C24.3838 13.0557 24.3531 13.1158 24.3348 13.1801C24.3165 13.2444 24.3111 13.3117 24.3188 13.3781C24.3267 13.4444 24.3474 13.5086 24.38 13.5669C24.8086 14.3354 25.1004 15.1725 25.2423 16.041H24.9005C24.7657 16.0411 24.6363 16.0948 24.5409 16.1902C24.4454 16.2856 24.3918 16.415 24.3916 16.55V18.4472C24.3918 18.5822 24.4454 18.7115 24.5409 18.8068C24.6364 18.9021 24.7657 18.9557 24.9005 18.9557H26.7986C26.9333 18.9554 27.0626 18.9018 27.1578 18.8066C27.2531 18.7112 27.3068 18.5821 27.3069 18.4472V16.55C27.3069 16.4155 27.2538 16.2866 27.1591 16.1912C27.0644 16.0958 26.9358 16.0418 26.8014 16.041ZM26.2924 17.0583V17.9389H25.4117V17.0583H26.2924Z" fill="url(#paint22_linear_2940_24749)"/>
<path d="M21.5367 18.8791L21.6733 18.8722C21.6733 18.8648 21.6733 18.8572 21.6733 18.8504C21.6725 18.8385 21.6709 18.8266 21.6685 18.8148C21.6685 18.8095 21.6685 18.8033 21.6685 18.7992C21.6685 18.7951 21.6631 18.7746 21.6597 18.7609V18.7479C21.6556 18.7342 21.6508 18.7206 21.6453 18.7062L21.6419 18.6987C21.6353 18.6818 21.6276 18.6654 21.6187 18.6495L17.8985 11.8418C17.8548 11.7615 17.7903 11.6944 17.7117 11.6478C17.6332 11.6011 17.5434 11.5764 17.452 11.5764C17.3606 11.5764 17.2709 11.6011 17.1923 11.6478C17.1138 11.6944 17.0492 11.7615 17.0055 11.8418L13.2792 18.6523C13.2694 18.6697 13.2606 18.6877 13.2533 18.7062C13.2478 18.7206 13.2423 18.7356 13.2382 18.7507C13.2341 18.7657 13.2382 18.7602 13.2341 18.7643C13.2299 18.7684 13.228 18.7896 13.2259 18.8012C13.2255 18.8081 13.2255 18.8148 13.2259 18.8217L13.2218 18.8538C13.2218 18.862 13.2218 18.8702 13.2218 18.8784C13.2218 18.8866 13.2218 18.8901 13.2218 18.8961C13.2217 18.8994 13.2217 18.9026 13.2218 18.9057C13.2218 18.914 13.2218 18.9222 13.2218 18.9303C13.2218 18.9385 13.2218 18.9502 13.2218 18.9611C13.2218 18.972 13.2218 18.9741 13.2218 18.9808C13.2218 18.9877 13.2258 19.0028 13.2286 19.013C13.2313 19.0233 13.2286 19.0253 13.2334 19.0322L13.2423 19.0615L14.5472 22.5207C14.467 22.5713 14.3924 22.6306 14.3252 22.6977C14.1814 22.8415 14.0747 23.018 14.0144 23.2122C13.9541 23.4064 13.9419 23.6124 13.9792 23.8122C14.0163 24.0122 14.1016 24.2 14.2276 24.3596C14.3536 24.5192 14.5165 24.6457 14.7024 24.7283V26.6714C14.7025 26.8063 14.7563 26.9355 14.8517 27.0308C14.9471 27.1262 15.0765 27.1797 15.2114 27.1797H19.6776C19.8124 27.1795 19.9417 27.1259 20.0369 27.0306C20.1322 26.9353 20.1858 26.8061 20.186 26.6714V24.7262C20.3937 24.6338 20.5725 24.4866 20.703 24.3004C20.8336 24.1142 20.9109 23.8959 20.9269 23.6691C20.9428 23.4422 20.8967 23.2153 20.7935 23.0126C20.6903 22.81 20.5338 22.6392 20.3411 22.5186L21.6392 19.0724L21.6427 19.0636C21.6467 19.0526 21.6508 19.041 21.6542 19.0287L21.6583 19.0109C21.6583 19.0007 21.6631 18.9898 21.6652 18.9782C21.6673 18.9665 21.6652 18.9638 21.6685 18.9576C21.672 18.9516 21.6685 18.9372 21.6685 18.9269C21.6685 18.9167 21.6685 18.9112 21.6685 18.9064V18.8935C21.6685 18.8873 21.6685 18.8811 21.6685 18.8729L21.5367 18.8791ZM15.7238 26.1596V24.8334H19.1707V26.1596H15.7238ZM15.7238 18.8935C15.7238 18.7586 15.6702 18.6292 15.5749 18.5338C15.4796 18.4383 15.3503 18.3846 15.2155 18.3844H14.5848L16.9385 14.08V17.7518C16.6762 17.8683 16.4617 18.0715 16.3312 18.3273C16.2006 18.5831 16.1619 18.876 16.2215 19.1569C16.281 19.4378 16.4354 19.6898 16.6584 19.8705C16.8816 20.0514 17.1601 20.15 17.4472 20.15C17.7344 20.15 18.0129 20.0514 18.236 19.8705C18.4592 19.6898 18.6134 19.4378 18.673 19.1569C18.7326 18.876 18.6939 18.5831 18.5633 18.3273C18.4328 18.0715 18.2184 17.8683 17.9559 17.7518V14.0745L20.3096 18.379H19.6776C19.5417 18.379 19.4114 18.433 19.3153 18.529C19.2193 18.6251 19.1652 18.7554 19.1652 18.8914C19.1652 19.0273 19.2193 19.1576 19.3153 19.2537C19.4114 19.3499 19.5417 19.4038 19.6776 19.4038H20.4292L19.3258 22.328H15.5681L14.4605 19.4038H15.212C15.2791 19.4039 15.3455 19.3908 15.4074 19.3651C15.4692 19.3395 15.5256 19.3019 15.5728 19.2545C15.6202 19.2071 15.6578 19.1507 15.6833 19.0888C15.7089 19.0268 15.7219 18.9604 15.7217 18.8935H15.7238ZM17.4456 19.1305C17.3989 19.1306 17.3532 19.1169 17.3143 19.0911C17.2755 19.0652 17.2451 19.0284 17.2272 18.9853C17.2093 18.9422 17.2045 18.8947 17.2136 18.849C17.2227 18.8032 17.2451 18.7612 17.2782 18.7281C17.3112 18.6951 17.3533 18.6726 17.399 18.6636C17.4449 18.6545 17.4922 18.6592 17.5354 18.6772C17.5785 18.6951 17.6153 18.7255 17.6411 18.7643C17.667 18.8032 17.6806 18.8488 17.6805 18.8954C17.6804 18.9577 17.6556 19.0175 17.6115 19.0615C17.5675 19.1056 17.5077 19.1303 17.4456 19.1305ZM15.0467 23.4144C15.0686 23.3926 15.0946 23.3753 15.1232 23.3635C15.1518 23.3519 15.1825 23.3459 15.2134 23.346H19.6817C19.7279 23.3469 19.7729 23.3612 19.8111 23.3873C19.8491 23.4135 19.8788 23.4503 19.896 23.4932C19.9133 23.5361 19.9175 23.5831 19.9083 23.6284C19.8989 23.6736 19.8764 23.7152 19.8437 23.7478C19.8218 23.7695 19.7959 23.7868 19.7675 23.7985C19.739 23.8103 19.7084 23.8162 19.6776 23.8161H15.2134C15.1667 23.8163 15.1211 23.8027 15.0823 23.7769C15.0434 23.751 15.0132 23.7142 14.9953 23.6712C14.9774 23.6281 14.9727 23.5807 14.9819 23.5349C14.991 23.4892 15.0136 23.4473 15.0467 23.4144Z" fill="url(#paint23_linear_2940_24749)"/>
<path d="M10.312 12.8749C10.2537 12.8423 10.1896 12.8216 10.1233 12.8139C10.0569 12.806 9.98973 12.8115 9.9255 12.8298C9.86126 12.848 9.80128 12.8788 9.74896 12.9204C9.69664 12.9619 9.65303 13.0132 9.6206 13.0717C9.10725 13.9916 8.76749 14.9981 8.61831 16.041H8.08743C7.95255 16.0412 7.82326 16.0949 7.72795 16.1903C7.63264 16.2857 7.5791 16.4151 7.5791 16.55V18.4473C7.57929 18.5821 7.6329 18.7112 7.72819 18.8066C7.82348 18.9019 7.95267 18.9555 8.08743 18.9557H9.98546C10.1203 18.9557 10.2497 18.9021 10.3451 18.8068C10.4406 18.7115 10.4943 18.5822 10.4945 18.4473V16.55C10.4943 16.415 10.4406 16.2857 10.3452 16.1903C10.2498 16.0949 10.1204 16.0412 9.98546 16.041H9.64385C9.7856 15.1725 10.0776 14.3353 10.5068 13.5671C10.5721 13.449 10.5881 13.3099 10.5511 13.1802C10.5141 13.0505 10.4271 12.9407 10.3093 12.8749H10.312ZM8.59645 17.939V17.0583H9.47713V17.939H8.59645Z" fill="url(#paint24_linear_2940_24749)"/>
<path d="M23.2673 10.6448C22.7818 10.2425 22.2507 9.89854 21.685 9.61994H24.7069C24.8235 9.88212 25.0267 10.0963 25.2823 10.2266C25.538 10.357 25.8306 10.3956 26.1113 10.336C26.392 10.2763 26.6438 10.1221 26.8244 9.89914C27.005 9.67615 27.1036 9.39788 27.1036 9.11092C27.1036 8.82395 27.005 8.5457 26.8244 8.32271C26.6438 8.09971 26.392 7.9455 26.1113 7.88588C25.8306 7.82627 25.538 7.86485 25.2823 7.9952C25.0267 8.12554 24.8235 8.33972 24.7069 8.60191H18.8994V8.16191C18.8994 8.02703 18.8459 7.89767 18.7506 7.80223C18.6553 7.70679 18.526 7.65309 18.3911 7.6529H16.4952C16.3602 7.65309 16.2308 7.70677 16.1354 7.80219C16.0399 7.89761 15.9863 8.02697 15.9862 8.16191V8.60191H10.1793C10.0627 8.33953 9.85945 8.12516 9.60365 7.99469C9.34786 7.86422 9.05502 7.82556 8.77413 7.88518C8.49324 7.9448 8.24135 8.09908 8.06061 8.32222C7.87987 8.54534 7.78125 8.82378 7.78125 9.11092C7.78125 9.39807 7.87987 9.67651 8.06061 9.89963C8.24135 10.1228 8.49324 10.277 8.77413 10.3367C9.05502 10.3963 9.34786 10.3576 9.60365 10.2272C9.85945 10.0967 10.0627 9.88232 10.1793 9.61994H13.2012C12.6356 9.8987 12.1045 10.2427 11.6189 10.6448C11.5192 10.7328 11.4579 10.8563 11.4482 10.9889C11.4384 11.1215 11.4809 11.2527 11.5666 11.3544C11.6523 11.456 11.7744 11.5201 11.9067 11.533C12.0391 11.5458 12.1712 11.5063 12.2748 11.423C13.3292 10.5201 14.6149 9.92995 15.9867 9.719V10.0606C15.987 10.1956 16.0406 10.3249 16.1361 10.4203C16.2315 10.5158 16.3609 10.5694 16.4958 10.5696H18.3938C18.5287 10.5694 18.6579 10.5157 18.7533 10.4203C18.8486 10.3249 18.9021 10.1955 18.9021 10.0606V9.719C20.2741 9.92995 21.5598 10.5201 22.6141 11.423C22.7058 11.5 22.8217 11.5424 22.9415 11.5425C23.0457 11.5424 23.1474 11.5103 23.2328 11.4505C23.3182 11.3907 23.3832 11.3061 23.4189 11.2082C23.4547 11.1103 23.4595 11.0037 23.4328 10.903C23.406 10.8022 23.349 10.7121 23.2694 10.6448H23.2673ZM25.6156 9.10955C25.6156 9.06293 25.6295 9.01736 25.6554 8.9786C25.6813 8.93984 25.718 8.90962 25.7611 8.89178C25.8041 8.87395 25.8516 8.86928 25.8973 8.87837C25.9431 8.88747 25.9851 8.90991 26.018 8.94288C26.051 8.97584 26.0734 9.01784 26.0825 9.06356C26.0916 9.1093 26.0869 9.15669 26.0691 9.19976C26.0512 9.24283 26.021 9.27964 25.9823 9.30554C25.9435 9.33144 25.8979 9.34527 25.8513 9.34527C25.7888 9.34509 25.729 9.3202 25.6849 9.27604C25.6407 9.23187 25.6158 9.17202 25.6156 9.10955ZM17.0069 9.55024V8.66887H17.8876V9.55024H17.0069ZM9.27539 9.10955C9.27539 9.15617 9.26156 9.20174 9.23566 9.24051C9.20976 9.27928 9.17296 9.30949 9.12988 9.32732C9.08681 9.34517 9.03942 9.34984 8.9937 9.34074C8.94796 9.33165 8.90596 9.30919 8.87301 9.27624C8.84004 9.24327 8.81759 9.20127 8.80849 9.15554C8.7994 9.10982 8.80407 9.06242 8.82191 9.01935C8.83974 8.97627 8.86996 8.93947 8.90872 8.91357C8.94749 8.88767 8.99305 8.87384 9.03967 8.87384C9.10154 8.87491 9.16052 8.9002 9.20395 8.94427C9.24739 8.98834 9.27181 9.04769 9.27198 9.10955H9.27539Z" fill="url(#paint25_linear_2940_24749)"/>
</g>
</g>
<defs>
<linearGradient id="paint0_linear_2940_24749" x1="3.09744" y1="0" x2="3.09744" y2="6.19488" gradientUnits="userSpaceOnUse">
<stop stop-color="#5D45F9"/>
<stop offset="1" stop-color="#267DEB"/>
</linearGradient>
<linearGradient id="paint1_linear_2940_24749" x1="3.09744" y1="28.8051" x2="3.09744" y2="35" gradientUnits="userSpaceOnUse">
<stop stop-color="#5D45F9"/>
<stop offset="1" stop-color="#267DEB"/>
</linearGradient>
<linearGradient id="paint2_linear_2940_24749" x1="31.8191" y1="28.8051" x2="31.8191" y2="35" gradientUnits="userSpaceOnUse">
<stop stop-color="#5D45F9"/>
<stop offset="1" stop-color="#267DEB"/>
</linearGradient>
<linearGradient id="paint3_linear_2940_24749" x1="31.8177" y1="0" x2="31.8177" y2="6.19488" gradientUnits="userSpaceOnUse">
<stop stop-color="#5D45F9"/>
<stop offset="1" stop-color="#267DEB"/>
</linearGradient>
<linearGradient id="paint4_linear_2940_24749" x1="6.53443" y1="2.97477" x2="6.53443" y2="3.99963" gradientUnits="userSpaceOnUse">
<stop stop-color="#5D45F9"/>
<stop offset="1" stop-color="#267DEB"/>
</linearGradient>
<linearGradient id="paint5_linear_2940_24749" x1="11.9171" y1="2.97477" x2="11.9171" y2="3.99963" gradientUnits="userSpaceOnUse">
<stop stop-color="#5D45F9"/>
<stop offset="1" stop-color="#267DEB"/>
</linearGradient>
<linearGradient id="paint6_linear_2940_24749" x1="20.9739" y1="2.97477" x2="20.9739" y2="3.99963" gradientUnits="userSpaceOnUse">
<stop stop-color="#5D45F9"/>
<stop offset="1" stop-color="#267DEB"/>
</linearGradient>
<linearGradient id="paint7_linear_2940_24749" x1="28.1682" y1="2.97477" x2="28.1682" y2="3.99963" gradientUnits="userSpaceOnUse">
<stop stop-color="#5D45F9"/>
<stop offset="1" stop-color="#267DEB"/>
</linearGradient>
<linearGradient id="paint8_linear_2940_24749" x1="3.05051" y1="27.1059" x2="3.05051" y2="29.8389" gradientUnits="userSpaceOnUse">
<stop stop-color="#5D45F9"/>
<stop offset="1" stop-color="#267DEB"/>
</linearGradient>
<linearGradient id="paint9_linear_2940_24749" x1="3.05051" y1="19.7898" x2="3.05051" y2="26.3045" gradientUnits="userSpaceOnUse">
<stop stop-color="#5D45F9"/>
<stop offset="1" stop-color="#267DEB"/>
</linearGradient>
<linearGradient id="paint10_linear_2940_24749" x1="3.05051" y1="8.8158" x2="3.05051" y2="18.9857" gradientUnits="userSpaceOnUse">
<stop stop-color="#5D45F9"/>
<stop offset="1" stop-color="#267DEB"/>
</linearGradient>
<linearGradient id="paint11_linear_2940_24749" x1="3.05051" y1="5.2787" x2="3.05051" y2="8.01163" gradientUnits="userSpaceOnUse">
<stop stop-color="#5D45F9"/>
<stop offset="1" stop-color="#267DEB"/>
</linearGradient>
<linearGradient id="paint12_linear_2940_24749" x1="28.3206" y1="31.5107" x2="28.3206" y2="32.5357" gradientUnits="userSpaceOnUse">
<stop stop-color="#5D45F9"/>
<stop offset="1" stop-color="#267DEB"/>
</linearGradient>
<linearGradient id="paint13_linear_2940_24749" x1="22.9301" y1="31.5107" x2="22.9301" y2="32.5357" gradientUnits="userSpaceOnUse">
<stop stop-color="#5D45F9"/>
<stop offset="1" stop-color="#267DEB"/>
</linearGradient>
<linearGradient id="paint14_linear_2940_24749" x1="13.8568" y1="31.5107" x2="13.8568" y2="32.5357" gradientUnits="userSpaceOnUse">
<stop stop-color="#5D45F9"/>
<stop offset="1" stop-color="#267DEB"/>
</linearGradient>
<linearGradient id="paint15_linear_2940_24749" x1="6.64967" y1="31.5107" x2="6.64967" y2="32.5357" gradientUnits="userSpaceOnUse">
<stop stop-color="#5D45F9"/>
<stop offset="1" stop-color="#267DEB"/>
</linearGradient>
<linearGradient id="paint16_linear_2940_24749" x1="31.6013" y1="5.35518" x2="31.6013" y2="8.08811" gradientUnits="userSpaceOnUse">
<stop stop-color="#5D45F9"/>
<stop offset="1" stop-color="#267DEB"/>
</linearGradient>
<linearGradient id="paint17_linear_2940_24749" x1="31.601" y1="8.8786" x2="31.601" y2="15.3482" gradientUnits="userSpaceOnUse">
<stop stop-color="#5D45F9"/>
<stop offset="1" stop-color="#267DEB"/>
</linearGradient>
<linearGradient id="paint18_linear_2940_24749" x1="31.6013" y1="16.1386" x2="31.6013" y2="26.2361" gradientUnits="userSpaceOnUse">
<stop stop-color="#5D45F9"/>
<stop offset="1" stop-color="#267DEB"/>
</linearGradient>
<linearGradient id="paint19_linear_2940_24749" x1="31.6013" y1="27.0287" x2="31.6013" y2="29.7617" gradientUnits="userSpaceOnUse">
<stop stop-color="#5D45F9"/>
<stop offset="1" stop-color="#267DEB"/>
</linearGradient>
<linearGradient id="paint20_linear_2940_24749" x1="23.9914" y1="11.576" x2="23.9914" y2="12.594" gradientUnits="userSpaceOnUse">
<stop stop-color="#5D45F9"/>
<stop offset="1" stop-color="#267DEB"/>
</linearGradient>
<linearGradient id="paint21_linear_2940_24749" x1="10.8977" y1="11.5767" x2="10.8977" y2="12.5948" gradientUnits="userSpaceOnUse">
<stop stop-color="#5D45F9"/>
<stop offset="1" stop-color="#267DEB"/>
</linearGradient>
<linearGradient id="paint22_linear_2940_24749" x1="25.8112" y1="12.8109" x2="25.8112" y2="18.9557" gradientUnits="userSpaceOnUse">
<stop stop-color="#5D45F9"/>
<stop offset="1" stop-color="#267DEB"/>
</linearGradient>
<linearGradient id="paint23_linear_2940_24749" x1="17.4475" y1="11.5764" x2="17.4475" y2="27.1797" gradientUnits="userSpaceOnUse">
<stop stop-color="#5D45F9"/>
<stop offset="1" stop-color="#267DEB"/>
</linearGradient>
<linearGradient id="paint24_linear_2940_24749" x1="9.07487" y1="12.8104" x2="9.07487" y2="18.9557" gradientUnits="userSpaceOnUse">
<stop stop-color="#5D45F9"/>
<stop offset="1" stop-color="#267DEB"/>
</linearGradient>
<linearGradient id="paint25_linear_2940_24749" x1="17.4424" y1="7.6529" x2="17.4424" y2="11.5425" gradientUnits="userSpaceOnUse">
<stop stop-color="#5D45F9"/>
<stop offset="1" stop-color="#267DEB"/>
</linearGradient>
<clipPath id="clip0_2940_24749">
<rect width="35" height="35" fill="white"/>
</clipPath>
</defs>
</svg>
