<svg width="80" height="121" viewBox="0 0 80 121" fill="none" xmlns="http://www.w3.org/2000/svg">
<path d="M39.9773 60.034C39.9773 49.0074 48.9166 40.0227 59.9886 40.0227C71.0153 40.0227 80 48.962 80 60.034C80 71.0607 71.0607 80.0454 59.9886 80.0454C48.962 80.0454 39.9773 71.0607 39.9773 60.034Z" fill="#1ABCFE"/>
<path d="M0 100.011C0 88.9847 8.93931 80 20.0113 80H40.0227V100.011C40.0227 111.038 31.0834 120.023 20.0113 120.023C8.93931 120.023 0 111.083 0 100.011Z" fill="#0ACF83"/>
<path d="M39.9773 0.0453772V40.0227H59.9886C71.0153 40.0227 80 31.0834 80 20.0113C80 8.98468 71.0607 0 59.9886 0H39.9773V0.0453772Z" fill="#FF7262"/>
<path d="M0 20.0568C0 31.0834 8.93931 40.0681 20.0113 40.0681H40.0227V0.0454102H20.0113C8.93931 0.0454102 0 8.98472 0 20.0568Z" fill="#F24E1E"/>
<path d="M0 60.034C0 71.0607 8.93931 80.0454 20.0113 80.0454H40.0227V40.0227H20.0113C8.93931 40.0227 0 49.0074 0 60.034Z" fill="#A259FF"/>
</svg>
