<svg width="80" height="111" viewBox="0 0 80 111" fill="none" xmlns="http://www.w3.org/2000/svg">
<g clip-path="url(#clip0_3047_26777)">
<path d="M52.5277 40.0223L41.4463 50.3401L31.1599 29.5833L36.4738 17.6484C37.8168 15.2677 40.0134 15.2363 41.3564 17.6484L52.5277 40.0223Z" fill="#FFA000"/>
<path d="M41.4509 50.3359L0 88.8895L31.1645 29.5835L41.4509 50.3359Z" fill="#F57F17"/>
<path d="M64.6783 24.2427C66.6637 22.3516 68.7075 22.9894 69.224 25.6756L80 88.3684L44.2583 109.826C43.0051 110.527 39.6811 110.801 39.6811 110.801C39.6811 110.801 36.6581 110.432 35.4992 109.795L0 88.8895L64.6783 24.2427Z" fill="#FFCA28"/>
<path d="M31.1645 29.5833L0 88.8893L13.8888 2.20544C14.4099 -0.480694 15.9326 -0.754697 17.3071 1.62599L31.1645 29.5833Z" fill="#FFA000"/>
</g>
<defs>
<clipPath id="clip0_3047_26777">
<rect width="80" height="110.805" fill="white"/>
</clipPath>
</defs>
</svg>
