<svg width="16" height="16" viewBox="0 0 16 16" fill="none" xmlns="http://www.w3.org/2000/svg">
<g clip-path="url(#clip0_3011_24706)">
<path d="M15.5699 6.96L9.04088 0.432C8.76288 0.153 8.39388 0 7.99988 0C7.60688 0 7.23688 0.153 6.95788 0.432L0.433877 6.955L0.427877 6.962C-0.144123 7.537 -0.142123 8.469 0.430877 9.042C0.691877 9.304 1.03788 9.456 1.40788 9.472L1.45388 9.474H1.71388V14.278C1.71388 15.228 2.48688 16.002 3.43788 16.002H5.99188C6.24988 16.002 6.45988 15.792 6.45988 15.532V11.767C6.45988 11.333 6.81288 10.98 7.24688 10.98H8.75288C9.18688 10.98 9.53988 11.333 9.53988 11.767V15.533C9.53988 15.792 9.74988 16.002 10.0089 16.002H12.5619C13.5129 16.002 14.2869 15.228 14.2869 14.278V9.474H14.5269C14.9209 9.474 15.2909 9.321 15.5689 9.043C16.1429 8.468 16.1439 7.534 15.5699 6.96Z" fill="url(#paint0_linear_3011_24706)"/>
</g>
<defs>
<linearGradient id="paint0_linear_3011_24706" x1="7.99994" y1="0" x2="7.99994" y2="16.002" gradientUnits="userSpaceOnUse">
<stop stop-color="#5D45F9"/>
<stop offset="1" stop-color="#267DEB"/>
</linearGradient>
<clipPath id="clip0_3011_24706">
<rect width="16" height="16" fill="white"/>
</clipPath>
</defs>
</svg>
