<svg width="131" height="44" viewBox="0 0 131 44" fill="none" xmlns="http://www.w3.org/2000/svg">
<g filter="url(#filter0_d_2335_28755)">
<path d="M14.992 11.504L13.024 28H8.672L10.64 11.504H14.992ZM15.952 6.816C15.952 7.18933 15.872 7.536 15.712 7.856C15.5627 8.176 15.36 8.45867 15.104 8.704C14.8587 8.94933 14.5707 9.14133 14.24 9.28C13.92 9.41867 13.5893 9.488 13.248 9.488C12.9067 9.488 12.576 9.41867 12.256 9.28C11.9467 9.14133 11.6693 8.94933 11.424 8.704C11.1893 8.45867 10.9973 8.176 10.848 7.856C10.7093 7.536 10.64 7.18933 10.64 6.816C10.64 6.45333 10.7147 6.112 10.864 5.792C11.0133 5.46133 11.2053 5.17333 11.44 4.928C11.6853 4.68267 11.9627 4.49067 12.272 4.352C12.592 4.20267 12.9227 4.128 13.264 4.128C13.616 4.128 13.952 4.19733 14.272 4.336C14.6027 4.47467 14.8907 4.66667 15.136 4.912C15.3813 5.15733 15.5787 5.44533 15.728 5.776C15.8773 6.096 15.952 6.44267 15.952 6.816ZM27.3265 15.424C26.9852 15.104 26.5958 14.88 26.1585 14.752C25.7318 14.6133 25.3158 14.544 24.9105 14.544C24.2705 14.544 23.6838 14.752 23.1505 15.168C22.6172 15.5733 22.1585 16.112 21.7745 16.784C21.3905 17.4453 21.0918 18.2027 20.8785 19.056C20.6652 19.8987 20.5585 20.752 20.5585 21.616C20.5585 22.7147 20.7292 23.5253 21.0705 24.048C21.4118 24.5707 21.8865 24.832 22.4945 24.832C22.8785 24.832 23.2785 24.6933 23.6945 24.416C24.1105 24.128 24.5105 23.7387 24.8945 23.248C25.2785 22.7573 25.6358 22.1813 25.9665 21.52C26.3078 20.8587 26.5958 20.1493 26.8305 19.392L27.3265 15.424ZM33.0545 4.144L30.0945 28H27.7425C27.4652 28 27.2305 27.9627 27.0385 27.888C26.8572 27.8133 26.7132 27.712 26.6065 27.584C26.4998 27.456 26.4252 27.3067 26.3825 27.136C26.3398 26.9653 26.3185 26.7787 26.3185 26.576L26.3985 24.704C25.6198 25.8027 24.7505 26.6667 23.7905 27.296C22.8412 27.9253 21.8278 28.24 20.7505 28.24C20.0678 28.24 19.4438 28.1173 18.8785 27.872C18.3132 27.6267 17.8278 27.2533 17.4225 26.752C17.0278 26.24 16.7185 25.5947 16.4945 24.816C16.2812 24.0373 16.1745 23.1147 16.1745 22.048C16.1745 21.1093 16.2705 20.192 16.4625 19.296C16.6652 18.3893 16.9425 17.536 17.2945 16.736C17.6572 15.936 18.0838 15.2 18.5745 14.528C19.0758 13.856 19.6198 13.28 20.2065 12.8C20.8038 12.3093 21.4385 11.9307 22.1105 11.664C22.7932 11.3867 23.4972 11.248 24.2225 11.248C24.9372 11.248 25.5825 11.3707 26.1585 11.616C26.7345 11.8613 27.2412 12.1973 27.6785 12.624L28.7345 4.144H33.0545ZM41.7728 14.304C41.3034 14.304 40.8608 14.4053 40.4448 14.608C40.0288 14.8 39.6501 15.0773 39.3088 15.44C38.9781 15.792 38.6848 16.2187 38.4288 16.72C38.1728 17.2213 37.9648 17.7813 37.8048 18.4C38.9888 18.2293 39.9434 18.048 40.6688 17.856C41.4048 17.6533 41.9701 17.44 42.3648 17.216C42.7701 16.9813 43.0368 16.7307 43.1648 16.464C43.3034 16.1973 43.3728 15.9093 43.3728 15.6C43.3728 15.4507 43.3408 15.3013 43.2768 15.152C43.2128 14.992 43.1168 14.8533 42.9888 14.736C42.8608 14.608 42.6954 14.5067 42.4928 14.432C42.2901 14.3467 42.0501 14.304 41.7728 14.304ZM37.4528 21.232C37.4528 23.6747 38.4821 24.896 40.5408 24.896C41.2234 24.896 41.7781 24.8107 42.2048 24.64C42.6421 24.4587 43.0154 24.2667 43.3248 24.064C43.6341 23.8507 43.9168 23.6587 44.1728 23.488C44.4394 23.3067 44.7434 23.216 45.0848 23.216C45.2341 23.216 45.3728 23.2533 45.5008 23.328C45.6394 23.392 45.7621 23.4827 45.8688 23.6L46.9888 24.944C46.4128 25.52 45.8528 26.016 45.3088 26.432C44.7648 26.8373 44.1994 27.1787 43.6128 27.456C43.0261 27.7227 42.4128 27.92 41.7728 28.048C41.1328 28.176 40.4288 28.24 39.6608 28.24C38.6901 28.24 37.8048 28.0747 37.0048 27.744C36.2048 27.4133 35.5168 26.9493 34.9408 26.352C34.3754 25.744 33.9328 25.0187 33.6128 24.176C33.3034 23.3227 33.1488 22.3733 33.1488 21.328C33.1488 20.4533 33.2448 19.6 33.4368 18.768C33.6288 17.936 33.9061 17.1467 34.2688 16.4C34.6314 15.6533 35.0688 14.9707 35.5808 14.352C36.1034 13.7227 36.6954 13.184 37.3568 12.736C38.0181 12.2773 38.7381 11.92 39.5168 11.664C40.3061 11.408 41.1434 11.28 42.0288 11.28C42.8928 11.28 43.6554 11.408 44.3168 11.664C44.9888 11.9093 45.5488 12.2347 45.9968 12.64C46.4448 13.0347 46.7808 13.4773 47.0048 13.968C47.2394 14.4587 47.3568 14.9493 47.3568 15.44C47.3568 16.176 47.2074 16.8533 46.9088 17.472C46.6101 18.0907 46.0874 18.6453 45.3408 19.136C44.5941 19.616 43.5808 20.032 42.3008 20.384C41.0208 20.7253 39.4048 20.992 37.4528 21.184V21.232ZM59.1082 14.352C59.0122 14.3413 58.9162 14.336 58.8202 14.336C58.7242 14.336 58.6282 14.336 58.5322 14.336C57.6789 14.336 56.8949 14.528 56.1802 14.912C55.4656 15.296 54.8469 15.8187 54.3242 16.48C53.8122 17.1413 53.4069 17.9093 53.1082 18.784C52.8202 19.6587 52.6762 20.5813 52.6762 21.552C52.6762 22.6613 52.8469 23.4667 53.1882 23.968C53.5296 24.4587 53.9776 24.704 54.5322 24.704C54.9269 24.704 55.3162 24.56 55.7002 24.272C56.0949 23.984 56.4629 23.5893 56.8042 23.088C57.1456 22.5867 57.4602 22 57.7482 21.328C58.0362 20.6453 58.2869 19.92 58.5002 19.152L59.1082 14.352ZM58.0202 24.896C57.3162 25.9307 56.5269 26.7467 55.6522 27.344C54.7882 27.9413 53.8336 28.24 52.7882 28.24C52.1802 28.24 51.5989 28.1227 51.0442 27.888C50.5002 27.6427 50.0202 27.28 49.6042 26.8C49.1882 26.3093 48.8576 25.696 48.6122 24.96C48.3776 24.2133 48.2602 23.344 48.2602 22.352C48.2602 21.36 48.3829 20.4 48.6282 19.472C48.8736 18.5333 49.2256 17.6533 49.6842 16.832C50.1429 16.0107 50.6976 15.2587 51.3482 14.576C52.0096 13.8827 52.7402 13.2907 53.5402 12.8C54.3509 12.3093 55.2256 11.9307 56.1642 11.664C57.1136 11.3867 58.1109 11.248 59.1562 11.248C59.9242 11.248 60.6922 11.3067 61.4602 11.424C62.2282 11.5307 62.9856 11.7227 63.7322 12L61.7482 28H59.3962C59.1189 28 58.8842 27.9627 58.6922 27.888C58.5109 27.8133 58.3616 27.712 58.2442 27.584C58.1376 27.456 58.0629 27.3067 58.0202 27.136C57.9776 26.9653 57.9562 26.7787 57.9562 26.576L58.0202 24.896ZM71.6968 14.672L70.1448 27.296L69.3128 30.208C69.1314 30.7627 68.8648 31.1947 68.5128 31.504C68.1608 31.824 67.6701 31.984 67.0408 31.984H65.2488L67.3768 14.672L66.3208 14.448C66.0008 14.384 65.7501 14.2773 65.5688 14.128C65.3874 13.968 65.3181 13.7333 65.3608 13.424L65.5688 11.6H67.7608L67.8408 10.928C67.9474 10.064 68.1714 9.23733 68.5128 8.448C68.8648 7.648 69.3394 6.944 69.9368 6.336C70.5448 5.728 71.2754 5.24267 72.1288 4.88C72.9928 4.50667 73.9848 4.32 75.1048 4.32C75.9688 4.32 76.7848 4.352 77.5528 4.416C78.3208 4.46933 79.0994 4.50133 79.8888 4.512H82.7208L79.8248 28H75.5528L78.0328 7.6C77.5848 7.54667 77.1368 7.49867 76.6888 7.456C76.2514 7.40267 75.8301 7.376 75.4248 7.376C74.4434 7.376 73.6541 7.67467 73.0568 8.272C72.4594 8.85867 72.1021 9.744 71.9848 10.928L71.9208 11.6H75.2488L74.8808 14.672H71.6968ZM89.7625 24.928C90.3812 24.928 90.9358 24.7467 91.4265 24.384C91.9172 24.0213 92.3332 23.536 92.6745 22.928C93.0158 22.3093 93.2772 21.5947 93.4585 20.784C93.6505 19.9733 93.7465 19.1147 93.7465 18.208C93.7465 16.928 93.5492 16.0053 93.1545 15.44C92.7598 14.864 92.1465 14.576 91.3145 14.576C90.7065 14.576 90.1518 14.7573 89.6505 15.12C89.1598 15.472 88.7438 15.952 88.4025 16.56C88.0612 17.168 87.7945 17.8827 87.6025 18.704C87.4212 19.5147 87.3305 20.3733 87.3305 21.28C87.3305 22.5387 87.5278 23.4613 87.9225 24.048C88.3172 24.6347 88.9305 24.928 89.7625 24.928ZM89.3785 28.24C88.4612 28.24 87.6078 28.0907 86.8185 27.792C86.0292 27.4827 85.3465 27.0347 84.7705 26.448C84.1945 25.8613 83.7412 25.136 83.4105 24.272C83.0905 23.408 82.9305 22.4213 82.9305 21.312C82.9305 19.872 83.1652 18.5387 83.6345 17.312C84.1038 16.0747 84.7385 15.008 85.5385 14.112C86.3385 13.216 87.2718 12.5173 88.3385 12.016C89.4052 11.504 90.5305 11.248 91.7145 11.248C92.6318 11.248 93.4798 11.4027 94.2585 11.712C95.0478 12.0107 95.7305 12.4587 96.3065 13.056C96.8825 13.6427 97.3358 14.368 97.6665 15.232C97.9972 16.096 98.1625 17.0827 98.1625 18.192C98.1625 19.6213 97.9278 20.9493 97.4585 22.176C96.9892 23.4027 96.3492 24.464 95.5385 25.36C94.7385 26.256 93.8052 26.96 92.7385 27.472C91.6825 27.984 90.5625 28.24 89.3785 28.24ZM122.837 11.504L116.069 28H112.645C112.464 28 112.32 27.9413 112.213 27.824C112.106 27.7067 112.026 27.5093 111.973 27.232L110.565 18.304C110.501 17.8773 110.453 17.4453 110.421 17.008C110.346 17.232 110.266 17.456 110.181 17.68C110.096 17.8933 110.01 18.112 109.925 18.336L106.357 27.232C106.144 27.744 105.829 28 105.413 28H102.117L99.365 11.504H102.741C103.029 11.504 103.264 11.5787 103.445 11.728C103.637 11.8773 103.76 12.0693 103.813 12.304L104.549 20.464C104.613 21.4773 104.661 22.4533 104.693 23.392C104.874 22.912 105.056 22.432 105.237 21.952C105.418 21.472 105.616 20.976 105.829 20.464L109.045 12.272C109.13 12.048 109.28 11.8613 109.493 11.712C109.717 11.5627 109.962 11.488 110.229 11.488H112.117C112.426 11.488 112.672 11.5627 112.853 11.712C113.045 11.8613 113.152 12.048 113.173 12.272L114.357 20.464C114.432 20.9653 114.496 21.456 114.549 21.936C114.613 22.416 114.672 22.896 114.725 23.376C114.864 22.896 115.008 22.4213 115.157 21.952C115.306 21.472 115.472 20.976 115.653 20.464L118.437 12.304C118.522 12.0693 118.672 11.8773 118.885 11.728C119.098 11.5787 119.338 11.504 119.605 11.504H122.837Z" fill="#0E0F11"/>
</g>
<defs>
<filter id="filter0_d_2335_28755" x="0.671875" y="0.12793" width="130.165" height="43.856" filterUnits="userSpaceOnUse" color-interpolation-filters="sRGB">
<feFlood flood-opacity="0" result="BackgroundImageFix"/>
<feColorMatrix in="SourceAlpha" type="matrix" values="0 0 0 0 0 0 0 0 0 0 0 0 0 0 0 0 0 0 127 0" result="hardAlpha"/>
<feOffset dy="4"/>
<feGaussianBlur stdDeviation="4"/>
<feColorMatrix type="matrix" values="0 0 0 0 0.364706 0 0 0 0 0.388235 0 0 0 0 0.439216 0 0 0 0.1 0"/>
<feBlend mode="normal" in2="BackgroundImageFix" result="effect1_dropShadow_2335_28755"/>
<feBlend mode="normal" in="SourceGraphic" in2="effect1_dropShadow_2335_28755" result="shape"/>
</filter>
</defs>
</svg>
