<svg width="46" height="41" viewBox="0 0 46 41" fill="none" xmlns="http://www.w3.org/2000/svg">
<g clip-path="url(#clip0_3051_26820)">
<path fill-rule="evenodd" clip-rule="evenodd" d="M10 5C10 4.448 10.448 4 11 4C11.552 4 12 4.448 12 5C12 5.552 11.552 6 11 6C10.448 6 10 5.552 10 5ZM7 5C7 4.448 7.448 4 8 4C8.552 4 9 4.448 9 5C9 5.552 8.552 6 8 6C7.448 6 7 5.552 7 5ZM5 6C4.448 6 4 5.552 4 5C4 4.448 4.448 4 5 4C5.552 4 6 4.448 6 5C6 5.552 5.552 6 5 6ZM38 18C37.448 18 37 17.551 37 17C37 16.449 37.448 16 38 16C38.552 16 39 16.449 39 17C39 17.551 38.552 18 38 18ZM38 14C36.346 14 35 15.346 35 17C35 17.469 35.117 17.907 35.311 18.302C35.273 18.337 35.23 18.3589 35.2 18.3999L29.959 25.3889L25.768 20.3601C25.34 19.8461 24.539 19.8891 24.168 20.4451L18.846 28.4309L14.707 24.293C14.295 23.881 13.62 23.9061 13.241 24.3501L7.24103 31.3501C6.88103 31.7691 6.92998 32.4 7.34998 32.76C7.76998 33.119 8.39997 33.0699 8.75897 32.6499L14.057 26.4709L18.293 30.707C18.738 31.153 19.482 31.0799 19.832 30.5549L25.089 22.6689L29.232 27.6411C29.645 28.1371 30.412 28.1161 30.8 27.6001L36.723 19.7041C37.111 19.8881 37.541 20 38 20C39.654 20 41 18.654 41 17C41 15.346 39.654 14 38 14ZM44 38.002C44 38.549 43.548 39 43 39H3C2.447 39 2 38.554 2 38.002V38V11V10H5H11H14H17H44V38V38.002ZM2 2.99805C2 2.45105 2.452 2 3 2H5H11H14H17H43C43.553 2 44 2.44605 44 2.99805V8H17H14H11H5H2V2.99805ZM43 0H17H14H11H5H3C2.648 0 2.314 0.0720586 2 0.185059C0.841 0.599059 0 1.69505 0 2.99805V11V38.002C0 39.659 1.343 41 3 41H43C44.648 41 46 39.658 46 38.002V38V9V2.99805C46 1.34105 44.656 0 43 0Z" fill="url(#paint0_linear_3051_26820)"/>
</g>
<defs>
<linearGradient id="paint0_linear_3051_26820" x1="23" y1="0" x2="23" y2="41" gradientUnits="userSpaceOnUse">
<stop stop-color="#5D45F9"/>
<stop offset="1" stop-color="#267DEB"/>
</linearGradient>
<clipPath id="clip0_3051_26820">
<rect width="46" height="41" fill="white"/>
</clipPath>
</defs>
</svg>
