<svg width="46" height="45" viewBox="0 0 46 45" fill="none" xmlns="http://www.w3.org/2000/svg">
<g clip-path="url(#clip0_3051_26824)">
<path fill-rule="evenodd" clip-rule="evenodd" d="M13.373 25.8079H17V26.8005V27.793H7V26.8005V25.8079H13.373ZM14 19.8523H27V20.8447V21.8374H26.007H22H14H12H7V20.8447V19.8523H12H14ZM44 22.8389C44 23.9268 43.104 24.8152 42.004 24.8152H39.429H39H37.429V26.8005V29.9729L34 26.856V26.8005V24.8152V22.8301V20.8447V15.8728C34 13.6881 32.209 11.9114 30.004 11.9114H14V6.94824V3.96143C14 2.87353 14.895 1.98511 15.996 1.98511H42.004C43.111 1.98511 44 2.86757 44 3.96143V22.8389ZM32 34.7502C32 35.8441 31.111 36.7266 30.004 36.7266H17.602H14.619L12.994 38.1858L12.407 38.7119L9 41.77V38.7119V38.1858V36.7266H7H3.99597C2.89497 36.7266 2 35.8381 2 34.7502V32.7561V26.8005V20.8447V15.8728C2 15.5125 2.10297 15.18 2.27197 14.8892C2.61597 14.2976 3.25397 13.8965 3.99597 13.8965H7H12H14H30.004C30.741 13.8965 31.379 14.2996 31.725 14.8892C31.894 15.18 32 15.5135 32 15.8728V20.8447V22.8301V24.8152V25.0376V26.8005V27.7295V34.7502ZM42.004 0H15.996C13.791 0 12 1.77669 12 3.96143V6.94824V11.9114H7H3.99597C1.78497 11.9114 0 13.6821 0 15.8728V34.7502C0 36.935 1.79097 38.7119 3.99597 38.7119H7V44.0054C7 44.866 8.02702 45.3186 8.67102 44.7419L15.391 38.7119H30.004C30.72 38.7119 31.381 38.5114 31.962 38.1858C33.174 37.5059 34 36.2312 34 34.7502V29.5481L37.753 32.9597C38.131 33.3032 38.642 33.2811 39 33.033C39.25 32.8602 39.429 32.5824 39.429 32.228V26.8005H42.004C44.209 26.8005 46 25.0236 46 22.8389V3.96143C46 1.77074 44.215 0 42.004 0Z" fill="url(#paint0_linear_3051_26824)"/>
</g>
<defs>
<linearGradient id="paint0_linear_3051_26824" x1="23" y1="0" x2="23" y2="45" gradientUnits="userSpaceOnUse">
<stop stop-color="#5D45F9"/>
<stop offset="1" stop-color="#267DEB"/>
</linearGradient>
<clipPath id="clip0_3051_26824">
<rect width="46" height="45" fill="white"/>
</clipPath>
</defs>
</svg>
