<svg width="607" height="481" viewBox="0 0 607 481" fill="none" xmlns="http://www.w3.org/2000/svg">
<g clip-path="url(#clip0_2352_30202)">
<path d="M242.146 127.537C266.593 111.919 278.817 104.11 293.192 101.675C302.464 100.104 312.218 100.104 321.491 101.675C335.865 104.11 348.089 111.919 372.537 127.537L563.137 249.301C587.584 264.92 599.808 272.728 603.619 281.912C606.078 287.835 606.078 294.067 603.619 299.99C599.808 309.173 587.584 316.982 563.136 332.6L376.329 451.941C351.882 467.56 339.658 475.368 325.283 477.803C316.011 479.374 306.257 479.374 296.984 477.803C282.61 475.368 270.386 467.56 245.939 451.941L66.3886 337.237C37.7971 318.971 23.5014 309.839 19.0443 299.099C16.1688 292.171 16.1688 284.884 19.0443 277.956C23.5014 267.217 37.7971 258.084 66.3886 239.819L242.146 127.537Z" fill="url(#paint0_linear_2352_30202)"/>
<mask id="mask0_2352_30202" style="mask-type:luminance" maskUnits="userSpaceOnUse" x="0" y="0" width="604" height="452">
<path d="M603.373 0.5H0.626953V451.955H603.373V0.5Z" fill="white"/>
</mask>
<g mask="url(#mask0_2352_30202)">
<g opacity="0.2">
<path opacity="0.2" d="M301.985 273.506L334.536 251.73L379.015 259.691L390.944 289.426L358.394 311.201L313.858 303.241L301.985 273.506Z" stroke="#8888BA" stroke-width="0.958196" stroke-miterlimit="10"/>
<path opacity="0.2" d="M272.617 268.243L326.64 232.061L400.546 245.284L420.314 294.689L366.234 330.805L292.386 317.583L272.617 268.243Z" stroke="#8888BA" stroke-width="0.958196" stroke-miterlimit="10"/>
<path opacity="0.2" d="M223.877 259.493L313.631 199.497L436.22 221.469L469.054 303.439L379.299 363.435L256.711 341.463L223.877 259.493Z" stroke="#8888BA" stroke-width="0.958196" stroke-miterlimit="10"/>
<path opacity="0.2" d="M142.928 245.021L291.931 145.355L495.412 181.866L549.946 317.912L401 417.512L197.462 381.066L142.928 245.021Z" stroke="#8888BA" stroke-width="0.958196" stroke-miterlimit="10"/>
<path opacity="0.2" d="M-38.5811 220.943L196.362 55.5571L517.338 116.08L603.37 341.989L368.373 507.309L47.3975 446.786L-38.5811 220.943Z" stroke="#8888BA" stroke-width="0.958196" stroke-miterlimit="10"/>
</g>
<path opacity="0.5" d="M458.089 336.002L467.803 340.871L456.612 344.094L458.089 336.002Z" stroke="#C9C9DC" stroke-width="1.4373" stroke-miterlimit="10"/>
<path opacity="0.5" d="M342.147 19.8354L349.93 11.1517L347.317 2.53369L339.534 11.2174L342.147 19.8354Z" stroke="#C9C9DC" stroke-width="1.4373" stroke-miterlimit="10"/>
<path opacity="0.5" d="M450.193 194.957C451.727 193.971 452.92 191.471 452.92 189.498C452.92 187.524 451.67 186.669 450.193 187.656" stroke="#C9C9DC" stroke-width="1.4373" stroke-miterlimit="10"/>
<path opacity="0.5" d="M147.017 387.513C144.972 387.184 143.722 385.737 144.234 384.355C144.745 382.974 146.847 382.119 148.949 382.513C150.994 382.843 153.096 382.053 153.663 380.672C154.175 379.29 152.982 377.909 150.88 377.514" stroke="#C9C9DC" stroke-width="1.4373" stroke-miterlimit="10"/>
<path d="M159.768 159.866C161.337 156.72 161.331 153.315 159.755 152.261C158.179 151.208 155.63 152.904 154.061 156.051C152.493 159.197 152.498 162.602 154.074 163.655C155.65 164.709 158.199 163.012 159.768 159.866Z" fill="#FFCD2D"/>
<path d="M420.995 249.297C423.505 249.297 425.54 247.942 425.54 246.271C425.54 244.6 423.505 243.245 420.995 243.245C418.485 243.245 416.45 244.6 416.45 246.271C416.45 247.942 418.485 249.297 420.995 249.297Z" fill="#73DF15"/>
<path d="M276.934 433.76C278.565 433.76 279.888 432.877 279.888 431.787C279.888 430.697 278.565 429.813 276.934 429.813C275.302 429.813 273.979 430.697 273.979 431.787C273.979 432.877 275.302 433.76 276.934 433.76Z" fill="#6A7AFF"/>
<path opacity="0.5" d="M473.389 28.475C474.989 25.2657 474.986 21.7951 473.384 20.7233C471.781 19.6515 469.184 21.3843 467.584 24.5936C465.984 27.8029 465.986 31.2735 467.589 32.3452C469.193 33.4171 471.789 31.6843 473.389 28.475Z" stroke="#C9C9DC" stroke-width="1.4373" stroke-miterlimit="10"/>
</g>
<mask id="mask1_2352_30202" style="mask-type:luminance" maskUnits="userSpaceOnUse" x="0" y="0" width="604" height="452">
<path d="M603.373 0.5H0.626953V451.955H603.373V0.5Z" fill="white"/>
</mask>
<g mask="url(#mask1_2352_30202)">
<path d="M194.338 157.789L407.93 14.9675C412.02 12.2045 415.315 14.4412 415.315 19.9014V172.59C415.315 178.051 412.02 184.695 407.93 187.458L194.338 330.28C190.247 333.043 186.953 330.806 186.953 325.346V172.59C186.953 167.131 190.247 160.486 194.338 157.789Z" fill="#C9C9DC"/>
<path d="M196.213 158.841L409.806 16.02C413.896 13.2569 417.19 15.4937 417.19 20.954V173.643C417.19 179.104 413.896 185.748 409.806 188.511L196.213 331.332C192.123 334.095 188.828 331.859 188.828 326.398V173.709C188.828 168.248 192.123 161.604 196.213 158.841Z" fill="#F5F5F7"/>
<path d="M273.071 337.384H275.57V337.45L394.467 257.915C394.978 257.586 395.887 257.586 396.512 257.981L439.344 286.598V285.742H440.423V287.782C440.423 288.045 440.31 288.242 440.082 288.44L319.085 369.356C318.573 369.686 317.664 369.686 317.039 369.291L273.582 340.279C273.184 340.016 273.014 339.687 273.071 339.358V337.384Z" fill="#B9BDC8"/>
<path d="M319.084 367.317L440.139 286.4C440.649 286.072 440.593 285.414 439.968 285.019L396.568 255.942C395.943 255.547 395.034 255.481 394.523 255.875L273.468 336.792C272.957 337.121 273.014 337.779 273.639 338.174L317.096 367.185C317.606 367.646 318.515 367.646 319.084 367.317Z" fill="#DCDFE1"/>
<path d="M280.116 338.7L397.023 260.547C397.364 260.349 397.307 259.888 396.909 259.625L395.319 258.573C394.921 258.309 394.353 258.309 394.013 258.507L277.161 336.661C276.821 336.858 276.877 337.318 277.275 337.581L278.865 338.635C279.207 338.897 279.774 338.897 280.116 338.7Z" fill="#C9C9DC"/>
<path d="M397.762 269.954C398.102 270.151 398.671 270.151 399.011 269.954L405.089 265.875C405.43 265.677 405.43 265.283 405.089 265.02L399.75 261.467C399.409 261.27 398.841 261.27 398.5 261.467L392.422 265.546C392.081 265.744 392.081 266.138 392.422 266.401L397.762 269.954Z" fill="#C9C9DC"/>
<path d="M389.524 275.414C389.865 275.611 390.433 275.611 390.774 275.414L396.852 271.336C397.193 271.138 397.193 270.744 396.852 270.48L391.513 266.928C391.171 266.731 390.604 266.731 390.262 266.928L384.184 271.006C383.844 271.204 383.844 271.598 384.184 271.862L389.524 275.414Z" fill="#C9C9DC"/>
<path d="M381.288 280.94C381.628 281.137 382.197 281.137 382.537 280.94L388.616 276.861C388.957 276.664 388.957 276.269 388.616 276.006L383.276 272.453C382.935 272.256 382.367 272.256 382.026 272.453L375.948 276.533C375.607 276.73 375.607 277.125 375.948 277.387L381.288 280.94Z" fill="#C9C9DC"/>
<path d="M373.107 286.4C373.448 286.597 374.016 286.597 374.357 286.4L380.435 282.322C380.776 282.124 380.776 281.729 380.435 281.467L375.095 277.914C374.755 277.717 374.186 277.717 373.846 277.914L367.768 281.992C367.426 282.19 367.426 282.584 367.768 282.848L373.107 286.4Z" fill="#C9C9DC"/>
<path d="M364.87 291.926C365.211 292.123 365.779 292.123 366.12 291.926L372.199 287.848C372.539 287.65 372.539 287.256 372.199 286.992L366.859 283.44C366.518 283.243 365.95 283.243 365.609 283.44L359.531 287.519C359.19 287.716 359.19 288.111 359.531 288.374L364.87 291.926Z" fill="#C9C9DC"/>
<path d="M356.634 297.387C356.975 297.584 357.543 297.584 357.884 297.387L363.961 293.308C364.303 293.11 364.303 292.716 363.961 292.453L358.622 288.9C358.281 288.703 357.713 288.703 357.372 288.9L351.294 292.979C350.953 293.176 350.953 293.571 351.294 293.834L356.634 297.387Z" fill="#C9C9DC"/>
<path d="M348.453 302.912C348.795 303.11 349.362 303.11 349.704 302.912L355.782 298.834C356.122 298.637 356.122 298.242 355.782 297.979L350.442 294.426C350.101 294.229 349.533 294.229 349.192 294.426L343.114 298.505C342.773 298.702 342.773 299.097 343.114 299.36L348.453 302.912Z" fill="#C9C9DC"/>
<path d="M340.217 308.373C340.557 308.57 341.126 308.57 341.466 308.373L347.545 304.294C347.886 304.096 347.886 303.702 347.545 303.439L342.205 299.886C341.864 299.689 341.296 299.689 340.955 299.886L334.876 303.965C334.536 304.163 334.536 304.557 334.876 304.82L340.217 308.373Z" fill="#C9C9DC"/>
<path d="M331.979 313.899C332.32 314.096 332.888 314.096 333.229 313.899L339.307 309.82C339.648 309.623 339.648 309.228 339.307 308.965L333.967 305.413C333.626 305.215 333.058 305.215 332.717 305.413L326.64 309.491C326.299 309.688 326.299 310.083 326.64 310.347L331.979 313.899Z" fill="#C9C9DC"/>
<path d="M323.8 319.359C324.14 319.556 324.709 319.556 325.049 319.359L331.128 315.28C331.469 315.083 331.469 314.688 331.128 314.425L325.788 310.872C325.447 310.675 324.879 310.675 324.538 310.872L318.459 314.952C318.119 315.149 318.119 315.544 318.459 315.807L323.8 319.359Z" fill="#C9C9DC"/>
<path d="M315.563 324.885C315.904 325.083 316.472 325.083 316.813 324.885L322.891 320.806C323.232 320.609 323.232 320.214 322.891 319.951L317.551 316.399C317.211 316.201 316.642 316.201 316.302 316.399L310.223 320.478C309.883 320.675 309.883 321.07 310.223 321.333L315.563 324.885Z" fill="#C9C9DC"/>
<path d="M307.326 330.411C307.667 330.608 308.235 330.608 308.576 330.411L314.654 326.332C314.995 326.135 314.995 325.74 314.654 325.477L309.314 321.925C308.974 321.727 308.405 321.727 308.065 321.925L301.986 326.003C301.645 326.2 301.645 326.595 301.986 326.859L307.326 330.411Z" fill="#C9C9DC"/>
<path d="M299.145 335.871C299.486 336.069 300.054 336.069 300.395 335.871L306.473 331.792C306.814 331.595 306.814 331.2 306.473 330.937L301.134 327.385C300.792 327.187 300.225 327.187 299.883 327.385L293.806 331.464C293.465 331.661 293.465 332.056 293.806 332.319L299.145 335.871Z" fill="#C9C9DC"/>
<path d="M286.932 344.029C287.273 344.226 287.841 344.226 288.182 344.029L298.009 337.45C298.35 337.253 298.35 336.858 298.009 336.595L292.67 333.043C292.329 332.845 291.761 332.845 291.42 333.043L281.593 339.621C281.252 339.819 281.252 340.213 281.593 340.476L286.932 344.029Z" fill="#C9C9DC"/>
<path d="M302.27 344.489C302.611 344.686 302.611 345.081 302.27 345.344L296.192 349.423C295.851 349.621 295.283 349.621 294.942 349.423L289.603 345.871C289.261 345.673 289.261 345.279 289.603 345.016L295.68 340.936C296.021 340.739 296.589 340.739 296.93 340.936L302.27 344.489Z" fill="#C9C9DC"/>
<path d="M310.507 338.963C310.847 339.16 310.847 339.555 310.507 339.818L304.428 343.897C304.087 344.094 303.519 344.094 303.179 343.897L297.838 340.344C297.498 340.147 297.498 339.752 297.838 339.489L303.917 335.411C304.258 335.213 304.826 335.213 305.167 335.411L310.507 338.963Z" fill="#C9C9DC"/>
<path d="M318.686 333.503C319.027 333.7 319.027 334.095 318.686 334.358L312.608 338.437C312.267 338.635 311.699 338.635 311.358 338.437L306.019 334.885C305.677 334.687 305.677 334.293 306.019 334.03L312.096 329.951C312.437 329.753 313.005 329.753 313.346 329.951L318.686 333.503Z" fill="#C9C9DC"/>
<path d="M326.923 327.977C327.264 328.174 327.264 328.569 326.923 328.832L320.846 332.911C320.504 333.108 319.937 333.108 319.595 332.911L314.256 329.358C313.915 329.161 313.915 328.766 314.256 328.503L320.334 324.424C320.675 324.227 321.243 324.227 321.584 324.424L326.923 327.977Z" fill="#C9C9DC"/>
<path d="M335.161 322.517C335.501 322.714 335.501 323.109 335.161 323.372L329.082 327.451C328.741 327.648 328.173 327.648 327.832 327.451L322.493 323.898C322.152 323.701 322.152 323.306 322.493 323.043L328.571 318.964C328.912 318.767 329.48 318.767 329.821 318.964L335.161 322.517Z" fill="#C9C9DC"/>
<path d="M343.34 316.991C343.681 317.188 343.681 317.583 343.34 317.845L337.263 321.925C336.921 322.122 336.354 322.122 336.012 321.925L330.673 318.372C330.332 318.175 330.332 317.78 330.673 317.517L336.751 313.438C337.092 313.241 337.66 313.241 338.001 313.438L343.34 316.991Z" fill="#C9C9DC"/>
<path d="M351.578 311.531C351.919 311.728 351.919 312.123 351.578 312.386L345.499 316.464C345.159 316.662 344.59 316.662 344.25 316.464L338.91 312.912C338.569 312.715 338.569 312.32 338.91 312.057L344.988 307.978C345.329 307.781 345.897 307.781 346.238 307.978L351.578 311.531Z" fill="#C9C9DC"/>
<path d="M359.815 306.005C360.156 306.202 360.156 306.597 359.815 306.86L353.737 310.939C353.396 311.136 352.828 311.136 352.487 310.939L347.147 307.386C346.806 307.189 346.806 306.794 347.147 306.531L353.225 302.452C353.566 302.255 354.134 302.255 354.475 302.452L359.815 306.005Z" fill="#C9C9DC"/>
<path d="M367.995 300.544C368.336 300.742 368.336 301.136 367.995 301.4L361.916 305.478C361.576 305.675 361.007 305.675 360.667 305.478L355.327 301.926C354.986 301.728 354.986 301.334 355.327 301.07L361.405 296.992C361.746 296.795 362.314 296.795 362.655 296.992L367.995 300.544Z" fill="#C9C9DC"/>
<path d="M376.232 295.019C376.573 295.216 376.573 295.611 376.232 295.873L370.154 299.952C369.813 300.149 369.245 300.149 368.904 299.952L363.564 296.4C363.223 296.203 363.223 295.808 363.564 295.544L369.643 291.466C369.983 291.269 370.552 291.269 370.892 291.466L376.232 295.019Z" fill="#C9C9DC"/>
<path d="M384.469 289.558C384.81 289.755 384.81 290.15 384.469 290.413L378.391 294.492C378.05 294.689 377.482 294.689 377.141 294.492L371.801 290.939C371.461 290.742 371.461 290.347 371.801 290.084L377.88 286.005C378.22 285.808 378.789 285.808 379.129 286.005L384.469 289.558Z" fill="#C9C9DC"/>
<path d="M392.649 284.032C392.99 284.229 392.99 284.624 392.649 284.887L386.571 288.966C386.23 289.163 385.662 289.163 385.321 288.966L379.981 285.414C379.64 285.216 379.64 284.821 379.981 284.558L386.06 280.48C386.4 280.282 386.969 280.282 387.309 280.48L392.649 284.032Z" fill="#C9C9DC"/>
<path d="M400.885 278.572C401.226 278.769 401.226 279.164 400.885 279.427L394.807 283.506C394.466 283.703 393.898 283.703 393.558 283.506L388.217 279.953C387.877 279.756 387.877 279.361 388.217 279.098L394.296 275.019C394.637 274.822 395.205 274.822 395.546 275.019L400.885 278.572Z" fill="#C9C9DC"/>
<path d="M413.099 270.414C413.44 270.611 413.44 271.006 413.099 271.269L403.272 277.848C402.931 278.045 402.363 278.045 402.022 277.848L396.683 274.296C396.341 274.099 396.341 273.704 396.683 273.44L406.51 266.861C406.851 266.664 407.418 266.664 407.76 266.861L413.099 270.414Z" fill="#C9C9DC"/>
<path d="M326.299 360.541C326.64 360.739 326.64 361.133 326.299 361.396L320.221 365.475C319.88 365.672 319.313 365.672 318.971 365.475L313.632 361.923C313.291 361.725 313.291 361.331 313.632 361.067L319.71 356.989C320.051 356.791 320.619 356.791 320.96 356.989L326.299 360.541Z" fill="#C9C9DC"/>
<path d="M334.649 355.015C334.99 355.212 334.99 355.607 334.649 355.87L328.571 359.949C328.23 360.146 327.662 360.146 327.321 359.949L325.561 358.765C325.219 358.568 325.219 358.173 325.561 357.91L331.638 353.831C331.979 353.633 332.547 353.633 332.888 353.831L334.649 355.015Z" fill="#C9C9DC"/>
<path d="M342.943 349.423C343.284 349.621 343.284 350.015 342.943 350.278L336.865 354.357C336.524 354.555 335.956 354.555 335.615 354.357L330.275 350.805C329.934 350.607 329.934 350.213 330.275 349.949L336.354 345.871C336.694 345.673 337.263 345.673 337.603 345.871L342.943 349.423Z" fill="#C9C9DC"/>
<path d="M351.294 343.897C351.635 344.094 351.635 344.489 351.294 344.752L345.216 348.831C344.875 349.029 344.307 349.029 343.966 348.831L338.626 345.279C338.285 345.081 338.285 344.686 338.626 344.424L344.704 340.344C345.045 340.147 345.613 340.147 345.954 340.344L351.294 343.897Z" fill="#C9C9DC"/>
<path d="M361.007 337.384C361.348 337.581 361.348 337.976 361.007 338.24L353.68 343.108C353.338 343.305 352.771 343.305 352.429 343.108L347.09 339.555C346.749 339.358 346.749 338.963 347.09 338.7L354.418 333.832C354.759 333.635 355.327 333.635 355.668 333.832L361.007 337.384Z" fill="#C9C9DC"/>
<path d="M437.129 286.466C437.47 286.664 437.47 287.058 437.129 287.321L431.05 291.4C430.71 291.598 430.141 291.598 429.801 291.4L424.46 287.848C424.12 287.651 424.12 287.256 424.46 286.992L430.539 282.914C430.88 282.716 431.448 282.716 431.789 282.914L437.129 286.466Z" fill="#C9C9DC"/>
<path d="M428.835 291.992C429.175 292.19 429.175 292.584 428.835 292.848L422.699 296.926C422.359 297.123 421.791 297.123 421.45 296.926L416.11 293.374C415.769 293.176 415.769 292.782 416.11 292.518L422.188 288.44C422.529 288.243 423.097 288.243 423.438 288.44L428.835 291.992Z" fill="#C9C9DC"/>
<path d="M420.484 297.584C420.825 297.781 420.825 298.176 420.484 298.439L414.406 302.518C414.065 302.715 413.497 302.715 413.156 302.518L407.816 298.966C407.475 298.768 407.475 298.373 407.816 298.11L413.894 294.032C414.235 293.834 414.803 293.834 415.144 294.032L420.484 297.584Z" fill="#C9C9DC"/>
<path d="M412.19 303.176C412.531 303.373 412.531 303.768 412.19 304.031L404.918 308.899C404.578 309.096 404.009 309.096 403.669 308.899L398.329 305.347C397.988 305.149 397.988 304.755 398.329 304.491L405.6 299.623C405.941 299.426 406.509 299.426 406.85 299.623L412.19 303.176Z" fill="#C9C9DC"/>
<path d="M402.362 309.754C402.703 309.952 402.703 310.346 402.362 310.609L363.734 336.463C363.393 336.661 362.825 336.661 362.484 336.463L357.144 332.911C356.804 332.713 356.804 332.319 357.144 332.056L395.773 306.202C396.113 306.005 396.682 306.005 397.022 306.202L402.362 309.754Z" fill="#C9C9DC"/>
<path d="M410.77 293.373C411.111 293.571 411.111 293.965 410.77 294.229L404.692 298.307C404.351 298.505 403.783 298.505 403.442 298.307L398.102 294.755C397.762 294.557 397.762 294.163 398.102 293.9L404.18 289.821C404.522 289.624 405.089 289.624 405.431 289.821L410.77 293.373Z" fill="#C9C9DC"/>
<path d="M402.59 298.834C402.931 299.031 402.931 299.426 402.59 299.689L396.511 303.768C396.171 303.965 395.602 303.965 395.262 303.768L389.921 300.216C389.581 300.018 389.581 299.623 389.921 299.36L396 295.281C396.341 295.084 396.909 295.084 397.25 295.281L402.59 298.834Z" fill="#C9C9DC"/>
<path d="M394.353 304.36C394.694 304.557 394.694 304.952 394.353 305.215L388.275 309.293C387.934 309.491 387.366 309.491 387.025 309.293L381.686 305.741C381.344 305.544 381.344 305.149 381.686 304.886L387.764 300.808C388.104 300.61 388.672 300.61 389.013 300.808L394.353 304.36Z" fill="#C9C9DC"/>
<path d="M386.116 309.82C386.457 310.017 386.457 310.412 386.116 310.675L380.038 314.754C379.697 314.952 379.129 314.952 378.788 314.754L373.448 311.202C373.107 311.004 373.107 310.61 373.448 310.347L379.527 306.267C379.867 306.07 380.436 306.07 380.776 306.267L386.116 309.82Z" fill="#C9C9DC"/>
<path d="M377.936 315.346C378.277 315.544 378.277 315.938 377.936 316.201L371.858 320.28C371.517 320.478 370.949 320.478 370.608 320.28L365.269 316.728C364.927 316.53 364.927 316.136 365.269 315.872L371.346 311.794C371.687 311.596 372.255 311.596 372.596 311.794L377.936 315.346Z" fill="#C9C9DC"/>
<path d="M369.699 320.806C370.04 321.003 370.04 321.398 369.699 321.661L363.621 325.74C363.28 325.938 362.712 325.938 362.371 325.74L357.031 322.188C356.69 321.99 356.69 321.596 357.031 321.333L363.11 317.254C363.45 317.056 364.019 317.056 364.359 317.254L369.699 320.806Z" fill="#C9C9DC"/>
<path d="M361.519 326.332C361.86 326.53 361.86 326.925 361.519 327.187L355.441 331.266C355.1 331.464 354.532 331.464 354.191 331.266L348.851 327.714C348.511 327.517 348.511 327.122 348.851 326.859L354.929 322.78C355.271 322.582 355.838 322.582 356.179 322.78L361.519 326.332Z" fill="#C9C9DC"/>
<path d="M353.282 331.792C353.623 331.989 353.623 332.384 353.282 332.648L347.204 336.726C346.863 336.924 346.295 336.924 345.954 336.726L340.614 333.174C340.273 332.976 340.273 332.582 340.614 332.319L346.693 328.24C347.033 328.043 347.602 328.043 347.942 328.24L353.282 331.792Z" fill="#C9C9DC"/>
<path d="M345.045 337.318C345.385 337.516 345.385 337.911 345.045 338.173L338.966 342.253C338.625 342.45 338.057 342.45 337.717 342.253L332.376 338.7C332.036 338.503 332.036 338.108 332.376 337.845L338.455 333.766C338.796 333.569 339.364 333.569 339.705 333.766L345.045 337.318Z" fill="#C9C9DC"/>
<path d="M336.865 342.778C337.205 342.976 337.205 343.37 336.865 343.634L330.787 347.712C330.445 347.91 329.878 347.91 329.537 347.712L324.197 344.16C323.856 343.962 323.856 343.568 324.197 343.305L330.275 339.226C330.616 339.029 331.184 339.029 331.525 339.226L336.865 342.778Z" fill="#C9C9DC"/>
<path d="M429.119 281.072C429.46 281.269 429.46 281.664 429.119 281.927L413.383 292.453C413.043 292.65 412.475 292.65 412.134 292.453L406.794 288.9C406.453 288.703 406.453 288.308 406.794 288.045L422.529 277.519C422.87 277.322 423.438 277.322 423.779 277.519L429.119 281.072Z" fill="#C9C9DC"/>
<path d="M406.737 285.347C407.078 285.545 407.078 285.94 406.737 286.203L400.658 290.282C400.318 290.479 399.749 290.479 399.409 290.282L394.069 286.729C393.728 286.532 393.728 286.137 394.069 285.874L400.147 281.795C400.488 281.598 401.056 281.598 401.397 281.795L406.737 285.347Z" fill="#C9C9DC"/>
<path d="M398.501 290.874C398.841 291.071 398.841 291.466 398.501 291.729L392.422 295.808C392.081 296.005 391.513 296.005 391.173 295.808L385.832 292.255C385.492 292.058 385.492 291.663 385.832 291.4L391.911 287.321C392.252 287.124 392.82 287.124 393.161 287.321L398.501 290.874Z" fill="#C9C9DC"/>
<path d="M390.32 296.334C390.661 296.531 390.661 296.926 390.32 297.189L384.242 301.268C383.901 301.465 383.333 301.465 382.992 301.268L377.652 297.715C377.311 297.518 377.311 297.123 377.652 296.86L383.731 292.781C384.071 292.584 384.64 292.584 384.98 292.781L390.32 296.334Z" fill="#C9C9DC"/>
<path d="M382.084 301.86C382.424 302.057 382.424 302.452 382.084 302.715L376.005 306.794C375.664 306.991 375.096 306.991 374.755 306.794L369.416 303.241C369.075 303.044 369.075 302.649 369.416 302.387L375.494 298.307C375.835 298.11 376.403 298.11 376.743 298.307L382.084 301.86Z" fill="#C9C9DC"/>
<path d="M373.846 307.32C374.186 307.517 374.186 307.912 373.846 308.176L367.767 312.254C367.426 312.451 366.858 312.451 366.517 312.254L361.178 308.702C360.837 308.504 360.837 308.11 361.178 307.846L367.256 303.768C367.597 303.571 368.165 303.571 368.506 303.768L373.846 307.32Z" fill="#C9C9DC"/>
<path d="M365.609 312.846C365.95 313.043 365.95 313.438 365.609 313.702L359.531 317.78C359.19 317.978 358.622 317.978 358.281 317.78L352.941 314.228C352.6 314.03 352.6 313.636 352.941 313.373L359.02 309.294C359.36 309.096 359.929 309.096 360.269 309.294L365.609 312.846Z" fill="#C9C9DC"/>
<path d="M357.372 318.372C357.713 318.57 357.713 318.964 357.372 319.227L351.293 323.306C350.953 323.504 350.384 323.504 350.044 323.306L344.704 319.754C344.363 319.556 344.363 319.162 344.704 318.899L350.782 314.82C351.123 314.622 351.691 314.622 352.032 314.82L357.372 318.372Z" fill="#C9C9DC"/>
<path d="M349.192 323.832C349.533 324.029 349.533 324.424 349.192 324.688L343.114 328.766C342.773 328.964 342.205 328.964 341.864 328.766L336.524 325.214C336.183 325.016 336.183 324.622 336.524 324.359L342.603 320.28C342.943 320.083 343.511 320.083 343.852 320.28L349.192 323.832Z" fill="#C9C9DC"/>
<path d="M340.955 329.358C341.296 329.556 341.296 329.95 340.955 330.213L334.877 334.292C334.536 334.49 333.968 334.49 333.627 334.292L328.287 330.74C327.946 330.542 327.946 330.148 328.287 329.885L334.366 325.806C334.706 325.608 335.275 325.608 335.615 325.806L340.955 329.358Z" fill="#C9C9DC"/>
<path d="M332.718 334.819C333.059 335.016 333.059 335.411 332.718 335.674L326.64 339.752C326.299 339.95 325.732 339.95 325.39 339.752L320.051 336.2C319.71 336.003 319.71 335.608 320.051 335.345L326.129 331.267C326.47 331.069 327.037 331.069 327.379 331.267L332.718 334.819Z" fill="#C9C9DC"/>
<path d="M324.481 340.345C324.821 340.542 324.821 340.937 324.481 341.2L318.402 345.279C318.061 345.476 317.493 345.476 317.152 345.279L311.812 341.726C311.471 341.529 311.471 341.134 311.812 340.871L317.891 336.792C318.231 336.595 318.8 336.595 319.14 336.792L324.481 340.345Z" fill="#C9C9DC"/>
<path d="M421.109 275.743C421.45 275.94 421.45 276.335 421.109 276.598L409.634 284.229C409.294 284.426 408.726 284.426 408.385 284.229L403.045 280.677C402.704 280.48 402.704 280.085 403.045 279.821L414.519 272.125C414.861 271.927 415.428 271.927 415.77 272.125L421.109 275.743Z" fill="#C9C9DC"/>
<path d="M315.675 346.266C316.016 346.463 316.016 346.858 315.675 347.12L304.201 354.818C303.859 355.015 303.292 355.015 302.95 354.818L297.611 351.265C297.27 351.068 297.27 350.673 297.611 350.41L309.086 342.713C309.427 342.516 309.995 342.516 310.336 342.713L315.675 346.266Z" fill="#C9C9DC"/>
<path d="M328.345 348.502C328.685 348.699 328.685 349.094 328.345 349.357L312.211 360.08C311.87 360.278 311.302 360.278 310.961 360.08L305.622 356.528C305.281 356.331 305.281 355.936 305.622 355.673L321.755 344.884C322.095 344.687 322.664 344.687 323.004 344.884L328.345 348.502Z" fill="#C9C9DC"/>
<path d="M331.07 352.581C331.411 352.778 331.411 353.173 331.07 353.436L324.992 357.515C324.651 357.712 324.083 357.712 323.742 357.515L321.981 356.331C321.64 356.133 321.64 355.739 321.981 355.475L328.059 351.397C328.4 351.2 328.968 351.2 329.309 351.397L331.07 352.581Z" fill="#C9C9DC"/>
<path d="M280.116 338.437L397.023 260.283C397.364 260.086 397.307 259.625 396.909 259.363L395.319 258.31C394.921 258.046 394.353 258.046 394.013 258.244L277.161 336.463C276.821 336.661 276.877 337.121 277.275 337.384L278.865 338.437C279.207 338.635 279.774 338.7 280.116 338.437Z" fill="#C7CBD3"/>
<path d="M397.762 269.691C398.102 269.888 398.671 269.888 399.011 269.691L405.089 265.612C405.43 265.414 405.43 265.02 405.089 264.757L399.75 261.204C399.409 261.007 398.841 261.007 398.5 261.204L392.422 265.283C392.081 265.48 392.081 265.875 392.422 266.138L397.762 269.691Z" fill="#C7CBD3"/>
<path d="M389.524 275.216C389.865 275.414 390.433 275.414 390.774 275.216L396.852 271.138C397.193 270.941 397.193 270.546 396.852 270.283L391.513 266.731C391.171 266.533 390.604 266.533 390.262 266.731L384.184 270.809C383.844 271.006 383.844 271.401 384.184 271.664L389.524 275.216Z" fill="#C7CBD3"/>
<path d="M381.288 280.677C381.628 280.874 382.197 280.874 382.537 280.677L388.616 276.598C388.957 276.4 388.957 276.006 388.616 275.743L383.276 272.19C382.935 271.993 382.367 271.993 382.026 272.19L375.948 276.27C375.607 276.467 375.607 276.862 375.948 277.124L381.288 280.677Z" fill="#C7CBD3"/>
<path d="M373.107 286.203C373.448 286.4 374.016 286.4 374.357 286.203L380.435 282.124C380.776 281.927 380.776 281.532 380.435 281.269L375.095 277.717C374.755 277.519 374.186 277.519 373.846 277.717L367.768 281.795C367.426 281.992 367.426 282.387 367.768 282.651L373.107 286.203Z" fill="#C7CBD3"/>
<path d="M364.87 291.663C365.211 291.861 365.779 291.861 366.12 291.663L372.199 287.584C372.539 287.387 372.539 286.992 372.199 286.729L366.859 283.176C366.518 282.979 365.95 282.979 365.609 283.176L359.531 287.256C359.19 287.453 359.19 287.848 359.531 288.111L364.87 291.663Z" fill="#C7CBD3"/>
<path d="M356.634 297.189C356.975 297.387 357.543 297.387 357.884 297.189L363.961 293.11C364.303 292.913 364.303 292.518 363.961 292.255L358.622 288.703C358.281 288.505 357.713 288.505 357.372 288.703L351.294 292.781C350.953 292.979 350.953 293.373 351.294 293.637L356.634 297.189Z" fill="#C7CBD3"/>
<path d="M348.453 302.649C348.795 302.847 349.362 302.847 349.704 302.649L355.782 298.571C356.122 298.373 356.122 297.979 355.782 297.715L350.442 294.163C350.101 293.965 349.533 293.965 349.192 294.163L343.114 298.242C342.773 298.439 342.773 298.834 343.114 299.097L348.453 302.649Z" fill="#C7CBD3"/>
<path d="M340.217 308.175C340.557 308.373 341.126 308.373 341.466 308.175L347.545 304.096C347.886 303.899 347.886 303.504 347.545 303.241L342.205 299.689C341.864 299.491 341.296 299.491 340.955 299.689L334.876 303.768C334.536 303.965 334.536 304.36 334.876 304.623L340.217 308.175Z" fill="#C7CBD3"/>
<path d="M331.979 313.635C332.32 313.833 332.888 313.833 333.229 313.635L339.307 309.557C339.648 309.36 339.648 308.965 339.307 308.702L333.967 305.149C333.626 304.952 333.058 304.952 332.717 305.149L326.64 309.228C326.299 309.425 326.299 309.82 326.64 310.083L331.979 313.635Z" fill="#C7CBD3"/>
<path d="M323.8 319.162C324.14 319.359 324.709 319.359 325.049 319.162L331.128 315.083C331.469 314.885 331.469 314.491 331.128 314.227L325.788 310.675C325.447 310.478 324.879 310.478 324.538 310.675L318.459 314.754C318.119 314.951 318.119 315.346 318.459 315.609L323.8 319.162Z" fill="#C7CBD3"/>
<path d="M315.563 324.621C315.904 324.819 316.472 324.819 316.813 324.621L322.891 320.543C323.232 320.346 323.232 319.951 322.891 319.688L317.551 316.136C317.211 315.938 316.642 315.938 316.302 316.136L310.223 320.214C309.883 320.411 309.883 320.806 310.223 321.069L315.563 324.621Z" fill="#C7CBD3"/>
<path d="M307.326 330.148C307.667 330.345 308.235 330.345 308.576 330.148L314.654 326.069C314.995 325.872 314.995 325.477 314.654 325.214L309.314 321.661C308.974 321.464 308.405 321.464 308.065 321.661L301.986 325.74C301.645 325.938 301.645 326.332 301.986 326.595L307.326 330.148Z" fill="#C7CBD3"/>
<path d="M299.145 335.674C299.486 335.871 300.054 335.871 300.395 335.674L306.473 331.595C306.814 331.398 306.814 331.003 306.473 330.74L301.134 327.187C300.792 326.99 300.225 326.99 299.883 327.187L293.806 331.266C293.465 331.464 293.465 331.859 293.806 332.121L299.145 335.674Z" fill="#C7CBD3"/>
<path d="M286.932 343.832C287.273 344.029 287.841 344.029 288.182 343.832L298.009 337.253C298.35 337.056 298.35 336.661 298.009 336.397L292.67 332.845C292.329 332.648 291.761 332.648 291.42 332.845L281.593 339.424C281.252 339.621 281.252 340.016 281.593 340.279L286.932 343.832Z" fill="#C7CBD3"/>
<path d="M302.27 344.292C302.611 344.489 302.611 344.884 302.27 345.147L296.192 349.226C295.851 349.423 295.283 349.423 294.942 349.226L289.603 345.673C289.261 345.476 289.261 345.081 289.603 344.818L295.68 340.739C296.021 340.542 296.589 340.542 296.93 340.739L302.27 344.292Z" fill="#C7CBD3"/>
<path d="M310.507 338.765C310.847 338.963 310.847 339.358 310.507 339.621L304.428 343.7C304.087 343.897 303.519 343.897 303.179 343.7L297.838 340.147C297.498 339.95 297.498 339.555 297.838 339.292L303.917 335.213C304.258 335.016 304.826 335.016 305.167 335.213L310.507 338.765Z" fill="#C7CBD3"/>
<path d="M318.686 333.24C319.027 333.437 319.027 333.832 318.686 334.095L312.608 338.173C312.267 338.371 311.699 338.371 311.358 338.173L306.019 334.621C305.677 334.424 305.677 334.029 306.019 333.766L312.096 329.688C312.437 329.49 313.005 329.49 313.346 329.688L318.686 333.24Z" fill="#C7CBD3"/>
<path d="M326.923 327.779C327.264 327.977 327.264 328.371 326.923 328.634L320.846 332.714C320.504 332.911 319.937 332.911 319.595 332.714L314.256 329.161C313.915 328.964 313.915 328.569 314.256 328.306L320.334 324.227C320.675 324.029 321.243 324.029 321.584 324.227L326.923 327.779Z" fill="#C7CBD3"/>
<path d="M335.161 322.253C335.501 322.451 335.501 322.845 335.161 323.109L329.082 327.187C328.741 327.385 328.173 327.385 327.832 327.187L322.493 323.635C322.152 323.437 322.152 323.043 322.493 322.78L328.571 318.701C328.912 318.504 329.48 318.504 329.821 318.701L335.161 322.253Z" fill="#C7CBD3"/>
<path d="M343.34 316.793C343.681 316.991 343.681 317.385 343.34 317.648L337.263 321.728C336.921 321.925 336.354 321.925 336.012 321.728L330.673 318.175C330.332 317.978 330.332 317.583 330.673 317.32L336.751 313.241C337.092 313.043 337.66 313.043 338.001 313.241L343.34 316.793Z" fill="#C7CBD3"/>
<path d="M351.578 311.267C351.919 311.464 351.919 311.859 351.578 312.123L345.499 316.201C345.159 316.399 344.59 316.399 344.25 316.201L338.91 312.649C338.569 312.451 338.569 312.057 338.91 311.794L344.988 307.715C345.329 307.517 345.897 307.517 346.238 307.715L351.578 311.267Z" fill="#C7CBD3"/>
<path d="M359.815 305.807C360.156 306.004 360.156 306.399 359.815 306.662L353.737 310.741C353.396 310.939 352.828 310.939 352.487 310.741L347.147 307.189C346.806 306.991 346.806 306.597 347.147 306.333L353.225 302.255C353.566 302.057 354.134 302.057 354.475 302.255L359.815 305.807Z" fill="#C7CBD3"/>
<path d="M367.995 300.281C368.336 300.478 368.336 300.873 367.995 301.136L361.916 305.215C361.576 305.412 361.007 305.412 360.667 305.215L355.327 301.662C354.986 301.465 354.986 301.07 355.327 300.807L361.405 296.728C361.746 296.531 362.314 296.531 362.655 296.728L367.995 300.281Z" fill="#C7CBD3"/>
<path d="M376.232 294.821C376.573 295.018 376.573 295.413 376.232 295.676L370.154 299.754C369.813 299.952 369.245 299.952 368.904 299.754L363.564 296.202C363.223 296.005 363.223 295.61 363.564 295.347L369.643 291.268C369.983 291.071 370.552 291.071 370.892 291.268L376.232 294.821Z" fill="#C7CBD3"/>
<path d="M384.469 289.295C384.81 289.492 384.81 289.887 384.469 290.15L378.391 294.229C378.05 294.426 377.482 294.426 377.141 294.229L371.801 290.676C371.461 290.479 371.461 290.084 371.801 289.821L377.88 285.742C378.22 285.545 378.789 285.545 379.129 285.742L384.469 289.295Z" fill="#C7CBD3"/>
<path d="M392.649 283.835C392.99 284.032 392.99 284.427 392.649 284.69L386.571 288.768C386.23 288.966 385.662 288.966 385.321 288.768L379.981 285.216C379.64 285.019 379.64 284.624 379.981 284.361L386.06 280.282C386.4 280.085 386.969 280.085 387.309 280.282L392.649 283.835Z" fill="#C7CBD3"/>
<path d="M400.885 278.309C401.226 278.506 401.226 278.901 400.885 279.164L394.807 283.243C394.466 283.44 393.898 283.44 393.558 283.243L388.217 279.69C387.877 279.493 387.877 279.098 388.217 278.835L394.296 274.756C394.637 274.559 395.205 274.559 395.546 274.756L400.885 278.309Z" fill="#C7CBD3"/>
<path d="M413.099 270.151C413.44 270.349 413.44 270.743 413.099 271.006L403.272 277.585C402.931 277.782 402.363 277.782 402.022 277.585L396.683 274.032C396.341 273.835 396.341 273.44 396.683 273.177L406.51 266.599C406.851 266.401 407.418 266.401 407.76 266.599L413.099 270.151Z" fill="#C7CBD3"/>
<path d="M326.299 360.344C326.64 360.541 326.64 360.936 326.299 361.199L320.221 365.277C319.88 365.475 319.313 365.475 318.971 365.277L313.632 361.725C313.291 361.528 313.291 361.133 313.632 360.87L319.71 356.791C320.051 356.594 320.619 356.594 320.96 356.791L326.299 360.344Z" fill="#C7CBD3"/>
<path d="M334.649 354.752C334.99 354.949 334.99 355.344 334.649 355.607L328.571 359.685C328.23 359.883 327.662 359.883 327.321 359.685L325.561 358.501C325.219 358.304 325.219 357.909 325.561 357.646L331.638 353.568C331.979 353.371 332.547 353.371 332.888 353.568L334.649 354.752Z" fill="#C7CBD3"/>
<path d="M342.943 349.226C343.284 349.423 343.284 349.818 342.943 350.081L336.865 354.16C336.524 354.357 335.956 354.357 335.615 354.16L330.275 350.608C329.934 350.41 329.934 350.015 330.275 349.752L336.354 345.673C336.694 345.476 337.263 345.476 337.603 345.673L342.943 349.226Z" fill="#C7CBD3"/>
<path d="M351.294 343.634C351.635 343.831 351.635 344.226 351.294 344.489L345.216 348.568C344.875 348.765 344.307 348.765 343.966 348.568L338.626 344.949C338.285 344.752 338.285 344.357 338.626 344.094L344.704 340.016C345.045 339.819 345.613 339.819 345.954 340.016L351.294 343.634Z" fill="#C7CBD3"/>
<path d="M361.007 337.121C361.348 337.318 361.348 337.713 361.007 337.976L353.68 342.845C353.338 343.042 352.771 343.042 352.429 342.845L347.09 339.292C346.749 339.095 346.749 338.7 347.09 338.437L354.418 333.569C354.759 333.371 355.327 333.371 355.668 333.569L361.007 337.121Z" fill="#C7CBD3"/>
<path d="M437.129 286.203C437.47 286.4 437.47 286.795 437.129 287.058L431.05 291.137C430.71 291.334 430.141 291.334 429.801 291.137L424.46 287.584C424.12 287.387 424.12 286.992 424.46 286.729L430.539 282.651C430.88 282.453 431.448 282.453 431.789 282.651L437.129 286.203Z" fill="#C7CBD3"/>
<path d="M428.834 291.795C429.176 291.992 429.176 292.387 428.834 292.65L422.756 296.728C422.416 296.926 421.847 296.926 421.507 296.728L416.167 293.176C415.826 292.979 415.826 292.584 416.167 292.321L422.245 288.243C422.586 288.045 423.154 288.045 423.495 288.243L428.834 291.795Z" fill="#C7CBD3"/>
<path d="M420.484 297.32C420.825 297.518 420.825 297.912 420.484 298.176L414.406 302.255C414.065 302.452 413.497 302.452 413.156 302.255L407.816 298.702C407.475 298.505 407.475 298.11 407.816 297.847L413.894 293.768C414.235 293.571 414.803 293.571 415.144 293.768L420.484 297.32Z" fill="#C7CBD3"/>
<path d="M412.19 302.912C412.531 303.11 412.531 303.504 412.19 303.768L404.918 308.636C404.578 308.833 404.009 308.833 403.669 308.636L398.329 305.083C397.988 304.886 397.988 304.491 398.329 304.228L405.6 299.36C405.941 299.163 406.509 299.163 406.85 299.36L412.19 302.912Z" fill="#C7CBD3"/>
<path d="M402.362 309.491C402.703 309.688 402.703 310.083 402.362 310.347L363.734 336.2C363.393 336.398 362.825 336.398 362.484 336.2L357.144 332.648C356.804 332.451 356.804 332.056 357.144 331.792L395.773 305.939C396.113 305.741 396.682 305.741 397.022 305.939L402.362 309.491Z" fill="#C7CBD3"/>
<path d="M410.77 293.11C411.111 293.308 411.111 293.702 410.77 293.966L404.692 298.044C404.351 298.242 403.783 298.242 403.442 298.044L398.102 294.492C397.762 294.294 397.762 293.9 398.102 293.637L404.18 289.558C404.522 289.36 405.089 289.36 405.431 289.558L410.77 293.11Z" fill="#C7CBD3"/>
<path d="M402.59 298.637C402.931 298.834 402.931 299.229 402.59 299.491L396.511 303.571C396.171 303.768 395.602 303.768 395.262 303.571L389.921 300.018C389.581 299.821 389.581 299.426 389.921 299.163L396 295.084C396.341 294.887 396.909 294.887 397.25 295.084L402.59 298.637Z" fill="#C7CBD3"/>
<path d="M394.353 304.096C394.694 304.294 394.694 304.688 394.353 304.952L388.275 309.03C387.934 309.228 387.366 309.228 387.025 309.03L381.686 305.478C381.344 305.28 381.344 304.886 381.686 304.623L387.764 300.544C388.104 300.347 388.672 300.347 389.013 300.544L394.353 304.096Z" fill="#C7CBD3"/>
<path d="M386.116 309.623C386.457 309.82 386.457 310.215 386.116 310.478L380.038 314.557C379.697 314.754 379.129 314.754 378.788 314.557L373.448 311.004C373.107 310.807 373.107 310.412 373.448 310.149L379.527 306.07C379.867 305.873 380.436 305.873 380.776 306.07L386.116 309.623Z" fill="#C7CBD3"/>
<path d="M377.936 315.083C378.277 315.28 378.277 315.675 377.936 315.938L371.858 320.017C371.517 320.214 370.949 320.214 370.608 320.017L365.269 316.464C364.927 316.267 364.927 315.872 365.269 315.609L371.346 311.531C371.687 311.333 372.255 311.333 372.596 311.531L377.936 315.083Z" fill="#C7CBD3"/>
<path d="M369.699 320.609C370.04 320.806 370.04 321.201 369.699 321.464L363.621 325.543C363.28 325.74 362.712 325.74 362.371 325.543L357.031 321.99C356.69 321.793 356.69 321.398 357.031 321.135L363.11 317.056C363.45 316.859 364.019 316.859 364.359 317.056L369.699 320.609Z" fill="#C7CBD3"/>
<path d="M361.519 326.069C361.86 326.267 361.86 326.661 361.519 326.924L355.441 331.003C355.1 331.2 354.532 331.2 354.191 331.003L348.851 327.451C348.511 327.253 348.511 326.859 348.851 326.595L354.929 322.517C355.271 322.32 355.838 322.32 356.179 322.517L361.519 326.069Z" fill="#C7CBD3"/>
<path d="M353.282 331.595C353.623 331.792 353.623 332.187 353.282 332.451L347.204 336.529C346.863 336.726 346.295 336.726 345.954 336.529L340.614 332.976C340.273 332.779 340.273 332.384 340.614 332.122L346.693 328.043C347.033 327.846 347.602 327.846 347.942 328.043L353.282 331.595Z" fill="#C7CBD3"/>
<path d="M345.045 337.056C345.385 337.253 345.385 337.648 345.045 337.911L338.966 341.989C338.625 342.187 338.057 342.187 337.717 341.989L332.376 338.437C332.036 338.24 332.036 337.845 332.376 337.581L338.455 333.503C338.796 333.306 339.364 333.306 339.705 333.503L345.045 337.056Z" fill="#C7CBD3"/>
<path d="M336.865 342.581C337.205 342.779 337.205 343.173 336.865 343.437L330.787 347.515C330.445 347.712 329.878 347.712 329.537 347.515L324.197 343.962C323.856 343.765 323.856 343.371 324.197 343.108L330.275 339.029C330.616 338.832 331.184 338.832 331.525 339.029L336.865 342.581Z" fill="#C7CBD3"/>
<path d="M429.119 280.875C429.46 281.072 429.46 281.467 429.119 281.729L413.383 292.255C413.043 292.453 412.475 292.453 412.134 292.255L406.794 288.703C406.453 288.505 406.453 288.111 406.794 287.848L422.529 277.322C422.87 277.125 423.438 277.125 423.779 277.322L429.119 280.875Z" fill="#C7CBD3"/>
<path d="M406.737 285.085C407.078 285.282 407.078 285.677 406.737 285.94L400.658 290.019C400.318 290.216 399.749 290.216 399.409 290.019L394.069 286.466C393.728 286.269 393.728 285.874 394.069 285.611L400.147 281.532C400.488 281.335 401.056 281.335 401.397 281.532L406.737 285.085Z" fill="#C7CBD3"/>
<path d="M398.501 290.611C398.841 290.808 398.841 291.203 398.501 291.466L392.422 295.544C392.081 295.742 391.513 295.742 391.173 295.544L385.832 291.992C385.492 291.795 385.492 291.4 385.832 291.137L391.911 287.058C392.252 286.861 392.82 286.861 393.161 287.058L398.501 290.611Z" fill="#C7CBD3"/>
<path d="M390.32 296.136C390.661 296.333 390.661 296.728 390.32 296.992L384.242 301.07C383.901 301.268 383.333 301.268 382.992 301.07L377.652 297.518C377.311 297.32 377.311 296.926 377.652 296.663L383.731 292.584C384.071 292.387 384.64 292.387 384.98 292.584L390.32 296.136Z" fill="#C7CBD3"/>
<path d="M382.084 301.597C382.424 301.794 382.424 302.189 382.084 302.452L376.005 306.531C375.664 306.728 375.096 306.728 374.755 306.531L369.416 302.979C369.075 302.781 369.075 302.387 369.416 302.123L375.494 298.044C375.835 297.847 376.403 297.847 376.743 298.044L382.084 301.597Z" fill="#C7CBD3"/>
<path d="M373.846 307.122C374.186 307.32 374.186 307.715 373.846 307.978L367.767 312.056C367.426 312.254 366.858 312.254 366.517 312.056L361.178 308.504C360.837 308.307 360.837 307.912 361.178 307.649L367.256 303.57C367.597 303.373 368.165 303.373 368.506 303.57L373.846 307.122Z" fill="#C7CBD3"/>
<path d="M365.609 312.649C365.95 312.846 365.95 313.241 365.609 313.504L359.531 317.583C359.19 317.78 358.622 317.78 358.281 317.583L352.941 314.03C352.6 313.833 352.6 313.438 352.941 313.175L359.02 309.096C359.36 308.899 359.929 308.899 360.269 309.096L365.609 312.649Z" fill="#C7CBD3"/>
<path d="M357.372 318.109C357.713 318.307 357.713 318.701 357.372 318.964L351.293 323.043C350.953 323.24 350.384 323.24 350.044 323.043L344.704 319.491C344.363 319.294 344.363 318.899 344.704 318.635L350.782 314.557C351.123 314.359 351.691 314.359 352.032 314.557L357.372 318.109Z" fill="#C7CBD3"/>
<path d="M349.192 323.635C349.533 323.832 349.533 324.227 349.192 324.491L343.114 328.569C342.773 328.766 342.205 328.766 341.864 328.569L336.524 325.016C336.183 324.819 336.183 324.424 336.524 324.161L342.603 320.083C342.943 319.885 343.511 319.885 343.852 320.083L349.192 323.635Z" fill="#C7CBD3"/>
<path d="M340.955 329.096C341.296 329.293 341.296 329.688 340.955 329.95L334.877 334.029C334.536 334.226 333.968 334.226 333.627 334.029L328.287 330.477C327.946 330.28 327.946 329.885 328.287 329.621L334.366 325.543C334.706 325.346 335.275 325.346 335.615 325.543L340.955 329.096Z" fill="#C7CBD3"/>
<path d="M332.718 334.621C333.059 334.819 333.059 335.213 332.718 335.477L326.64 339.555C326.299 339.752 325.732 339.752 325.39 339.555L320.051 336.003C319.71 335.805 319.71 335.411 320.051 335.147L326.129 331.069C326.47 330.872 327.037 330.872 327.379 331.069L332.718 334.621Z" fill="#C7CBD3"/>
<path d="M324.481 340.147C324.821 340.345 324.821 340.739 324.481 341.003L318.402 345.081C318.061 345.279 317.493 345.279 317.152 345.081L311.812 341.529C311.471 341.331 311.471 340.937 311.812 340.674L317.891 336.595C318.231 336.397 318.8 336.397 319.14 336.595L324.481 340.147Z" fill="#C7CBD3"/>
<path d="M421.109 275.545C421.45 275.743 421.45 276.138 421.109 276.4L409.634 284.032C409.294 284.229 408.726 284.229 408.385 284.032L403.045 280.48C402.704 280.282 402.704 279.888 403.045 279.624L414.519 271.927C414.861 271.73 415.428 271.73 415.77 271.927L421.109 275.545Z" fill="#C7CBD3"/>
<path d="M315.675 346.003C316.016 346.2 316.016 346.595 315.675 346.857L304.201 354.555C303.859 354.752 303.292 354.752 302.95 354.555L297.611 351.002C297.27 350.805 297.27 350.41 297.611 350.147L309.086 342.45C309.427 342.253 309.995 342.253 310.336 342.45L315.675 346.003Z" fill="#C7CBD3"/>
<path d="M328.345 348.239C328.685 348.437 328.685 348.831 328.345 349.094L312.211 359.883C311.87 360.08 311.302 360.08 310.961 359.883L305.622 356.331C305.281 356.133 305.281 355.739 305.622 355.475L321.755 344.687C322.095 344.489 322.664 344.489 323.004 344.687L328.345 348.239Z" fill="#C7CBD3"/>
<path d="M331.07 352.384C331.411 352.581 331.411 352.976 331.07 353.239L324.992 357.317C324.651 357.515 324.083 357.515 323.742 357.317L321.981 356.133C321.64 355.936 321.64 355.541 321.981 355.278L328.059 351.2C328.4 351.002 328.968 351.002 329.309 351.2L331.07 352.384Z" fill="#C7CBD3"/>
<path d="M278.809 338.371L277.218 337.318C276.821 337.056 276.764 336.661 277.105 336.398L394.013 258.244C394.353 258.046 394.921 258.046 395.319 258.31L396.909 259.363C397.307 259.625 397.364 260.02 397.023 260.283L280.116 338.437C279.775 338.7 279.207 338.635 278.809 338.371ZM397.762 269.099C398.102 269.296 398.671 269.296 399.011 269.099L405.09 265.02C405.431 264.822 405.431 264.428 405.09 264.165L399.75 260.612C399.409 260.415 398.841 260.415 398.5 260.612L392.422 264.691C392.081 264.888 392.081 265.283 392.422 265.546L397.762 269.099ZM389.525 274.624C389.865 274.822 390.434 274.822 390.774 274.624L396.853 270.546C397.193 270.349 397.193 269.954 396.853 269.691L391.513 266.138C391.172 265.941 390.604 265.941 390.263 266.138L384.185 270.217C383.844 270.414 383.844 270.809 384.185 271.072L389.525 274.624ZM381.288 280.151C381.629 280.348 382.196 280.348 382.538 280.151L388.616 276.072C388.956 275.875 388.956 275.48 388.616 275.216L383.276 271.664C382.935 271.467 382.367 271.467 382.026 271.664L375.948 275.743C375.607 275.94 375.607 276.335 375.948 276.598L381.288 280.151ZM373.108 285.611C373.448 285.808 374.017 285.808 374.357 285.611L380.436 281.532C380.777 281.335 380.777 280.94 380.436 280.677L375.096 277.125C374.755 276.927 374.187 276.927 373.846 277.125L367.768 281.203C367.427 281.4 367.427 281.795 367.768 282.059L373.108 285.611ZM364.871 291.137C365.211 291.334 365.78 291.334 366.12 291.137L372.199 287.058C372.54 286.861 372.54 286.466 372.199 286.203L366.859 282.651C366.518 282.453 365.95 282.453 365.609 282.651L359.531 286.729C359.19 286.926 359.19 287.321 359.531 287.584L364.871 291.137ZM356.634 296.597C356.974 296.795 357.542 296.795 357.883 296.597L363.962 292.518C364.302 292.321 364.302 291.926 363.962 291.663L358.622 288.111C358.281 287.913 357.713 287.913 357.372 288.111L351.294 292.19C350.953 292.387 350.953 292.782 351.294 293.045L356.634 296.597ZM348.454 302.123C348.794 302.32 349.363 302.32 349.703 302.123L355.782 298.044C356.123 297.847 356.123 297.452 355.782 297.19L350.442 293.637C350.101 293.44 349.533 293.44 349.192 293.637L343.114 297.715C342.773 297.913 342.773 298.307 343.114 298.571L348.454 302.123ZM340.217 307.584C340.557 307.781 341.126 307.781 341.466 307.584L347.545 303.504C347.886 303.307 347.886 302.912 347.545 302.649L342.205 299.097C341.864 298.899 341.296 298.899 340.955 299.097L334.877 303.176C334.536 303.373 334.536 303.768 334.877 304.031L340.217 307.584ZM331.98 313.11C332.32 313.307 332.889 313.307 333.229 313.11L339.308 309.031C339.649 308.833 339.649 308.438 339.308 308.176L333.968 304.623C333.627 304.426 333.059 304.426 332.718 304.623L326.64 308.702C326.299 308.899 326.299 309.294 326.64 309.557L331.98 313.11ZM323.8 318.57C324.141 318.767 324.709 318.767 325.049 318.57L331.127 314.491C331.469 314.294 331.469 313.899 331.127 313.635L325.788 310.083C325.447 309.886 324.879 309.886 324.538 310.083L318.46 314.162C318.119 314.359 318.119 314.754 318.46 315.017L323.8 318.57ZM315.563 324.096C315.903 324.293 316.472 324.293 316.812 324.096L322.891 320.017C323.232 319.819 323.232 319.425 322.891 319.162L317.551 315.609C317.21 315.412 316.642 315.412 316.301 315.609L310.223 319.688C309.882 319.886 309.882 320.28 310.223 320.543L315.563 324.096ZM307.326 329.556C307.666 329.753 308.235 329.753 308.575 329.556L314.654 325.477C314.995 325.28 314.995 324.885 314.654 324.622L309.314 321.07C308.973 320.872 308.405 320.872 308.064 321.07L301.986 325.148C301.645 325.346 301.645 325.74 301.986 326.003L307.326 329.556ZM299.146 335.082C299.487 335.279 300.055 335.279 300.396 335.082L306.473 331.003C306.815 330.806 306.815 330.411 306.473 330.148L301.134 326.595C300.793 326.398 300.225 326.398 299.884 326.595L293.806 330.674C293.465 330.872 293.465 331.267 293.806 331.529L299.146 335.082ZM286.932 343.239C287.273 343.437 287.841 343.437 288.182 343.239L298.009 336.661C298.35 336.464 298.35 336.069 298.009 335.806L292.669 332.253C292.329 332.056 291.76 332.056 291.42 332.253L281.593 338.832C281.251 339.029 281.251 339.424 281.593 339.687L286.932 343.239ZM296.93 340.147C296.589 339.95 296.022 339.95 295.68 340.147L289.602 344.226C289.262 344.424 289.262 344.818 289.602 345.081L294.942 348.634C295.283 348.831 295.851 348.831 296.192 348.634L302.27 344.555C302.611 344.358 302.611 343.963 302.27 343.7L296.93 340.147ZM305.167 334.622C304.826 334.424 304.258 334.424 303.917 334.622L297.839 338.7C297.498 338.897 297.498 339.292 297.839 339.555L303.179 343.108C303.52 343.305 304.088 343.305 304.429 343.108L310.507 339.029C310.848 338.832 310.848 338.437 310.507 338.174L305.167 334.622ZM313.404 329.161C313.063 328.964 312.495 328.964 312.154 329.161L306.076 333.24C305.735 333.438 305.735 333.832 306.076 334.095L311.416 337.648C311.757 337.845 312.324 337.845 312.666 337.648L318.744 333.568C319.084 333.371 319.084 332.976 318.744 332.714L313.404 329.161ZM321.584 323.635C321.243 323.438 320.675 323.438 320.334 323.635L314.256 327.714C313.915 327.911 313.915 328.306 314.256 328.569L319.596 332.121C319.937 332.319 320.505 332.319 320.846 332.121L326.924 328.043C327.265 327.846 327.265 327.451 326.924 327.187L321.584 323.635ZM329.821 318.175C329.48 317.977 328.912 317.977 328.571 318.175L322.493 322.254C322.153 322.451 322.153 322.846 322.493 323.109L327.833 326.662C328.174 326.859 328.742 326.859 329.083 326.662L335.161 322.582C335.502 322.385 335.502 321.99 335.161 321.727L329.821 318.175ZM338.058 312.649C337.717 312.451 337.149 312.451 336.808 312.649L330.73 316.728C330.389 316.925 330.389 317.32 330.73 317.583L336.07 321.135C336.411 321.333 336.978 321.333 337.32 321.135L343.398 317.056C343.738 316.859 343.738 316.464 343.398 316.201L338.058 312.649ZM346.238 307.189C345.898 306.991 345.329 306.991 344.989 307.189L338.91 311.267C338.569 311.464 338.569 311.859 338.91 312.123L344.25 315.675C344.591 315.872 345.159 315.872 345.5 315.675L351.578 311.596C351.919 311.399 351.919 311.004 351.578 310.741L346.238 307.189ZM354.475 301.663C354.134 301.465 353.566 301.465 353.225 301.663L347.147 305.742C346.807 305.939 346.807 306.334 347.147 306.597L352.487 310.149C352.828 310.347 353.396 310.347 353.737 310.149L359.815 306.07C360.156 305.873 360.156 305.478 359.815 305.215L354.475 301.663ZM362.712 296.136C362.371 295.939 361.803 295.939 361.462 296.136L355.384 300.215C355.043 300.413 355.043 300.808 355.384 301.07L360.724 304.623C361.065 304.82 361.633 304.82 361.974 304.623L368.052 300.544C368.393 300.347 368.393 299.952 368.052 299.689L362.712 296.136ZM370.892 290.676C370.552 290.479 369.983 290.479 369.643 290.676L363.564 294.755C363.223 294.952 363.223 295.347 363.564 295.611L368.904 299.163C369.245 299.36 369.813 299.36 370.154 299.163L376.232 295.084C376.573 294.887 376.573 294.492 376.232 294.229L370.892 290.676ZM379.129 285.15C378.789 284.953 378.22 284.953 377.88 285.15L371.801 289.229C371.46 289.427 371.46 289.821 371.801 290.084L377.141 293.637C377.482 293.834 378.05 293.834 378.391 293.637L384.469 289.558C384.81 289.36 384.81 288.966 384.469 288.703L379.129 285.15ZM387.366 279.69C387.025 279.493 386.458 279.493 386.116 279.69L380.038 283.769C379.698 283.966 379.698 284.361 380.038 284.624L385.378 288.176C385.719 288.374 386.287 288.374 386.628 288.176L392.706 284.098C393.047 283.9 393.047 283.506 392.706 283.243L387.366 279.69ZM395.546 274.164C395.206 273.967 394.637 273.967 394.297 274.164L388.218 278.243C387.877 278.44 387.877 278.835 388.218 279.098L393.558 282.651C393.899 282.848 394.467 282.848 394.808 282.651L400.886 278.572C401.227 278.374 401.227 277.979 400.886 277.717L395.546 274.164ZM407.76 266.007C407.419 265.809 406.851 265.809 406.51 266.007L396.683 272.585C396.341 272.782 396.341 273.177 396.683 273.44L402.022 276.993C402.363 277.19 402.931 277.19 403.272 276.993L413.099 270.414C413.44 270.217 413.44 269.822 413.099 269.559L407.76 266.007ZM320.96 356.199C320.618 356.002 320.051 356.002 319.709 356.199L313.631 360.278C313.291 360.475 313.291 360.87 313.631 361.133L318.971 364.686C319.312 364.883 319.88 364.883 320.221 364.686L326.299 360.607C326.64 360.409 326.64 360.015 326.299 359.752L320.96 356.199ZM332.889 353.041C332.548 352.844 331.98 352.844 331.639 353.041L325.56 357.12C325.22 357.318 325.22 357.712 325.56 357.976L327.322 359.16C327.662 359.357 328.23 359.357 328.571 359.16L334.65 355.08C334.99 354.883 334.99 354.488 334.65 354.226L332.889 353.041ZM337.661 345.081C337.32 344.884 336.752 344.884 336.411 345.081L330.332 349.16C329.992 349.358 329.992 349.752 330.332 350.015L335.672 353.568C336.013 353.765 336.581 353.765 336.922 353.568L343 349.489C343.341 349.291 343.341 348.897 343 348.634L337.661 345.081ZM345.954 339.49C345.614 339.292 345.045 339.292 344.705 339.49L338.626 343.568C338.285 343.766 338.285 344.16 338.626 344.424L343.966 347.976C344.307 348.174 344.875 348.174 345.215 347.976L351.294 343.897C351.635 343.7 351.635 343.305 351.294 343.042L345.954 339.49ZM355.668 333.043C355.327 332.845 354.759 332.845 354.418 333.043L347.091 337.911C346.749 338.108 346.749 338.503 347.091 338.766L352.43 342.318C352.771 342.515 353.339 342.515 353.68 342.318L361.008 337.45C361.349 337.253 361.349 336.858 361.008 336.595L355.668 333.043ZM431.789 282.124C431.448 281.927 430.88 281.927 430.539 282.124L424.461 286.203C424.12 286.4 424.12 286.795 424.461 287.058L429.8 290.611C430.141 290.808 430.709 290.808 431.05 290.611L437.129 286.532C437.469 286.334 437.469 285.94 437.129 285.677L431.789 282.124ZM423.495 287.65C423.154 287.453 422.586 287.453 422.245 287.65L416.167 291.729C415.826 291.926 415.826 292.321 416.167 292.584L421.507 296.136C421.847 296.334 422.416 296.334 422.756 296.136L428.835 292.058C429.176 291.861 429.176 291.466 428.835 291.203L423.495 287.65ZM415.201 293.242C414.861 293.045 414.292 293.045 413.952 293.242L407.873 297.32C407.532 297.518 407.532 297.913 407.873 298.176L413.213 301.728C413.554 301.926 414.122 301.926 414.463 301.728L420.541 297.65C420.882 297.452 420.882 297.058 420.541 296.795L415.201 293.242ZM406.851 298.768C406.51 298.571 405.942 298.571 405.601 298.768L398.33 303.636C397.989 303.834 397.989 304.228 398.33 304.491L403.669 308.044C404.01 308.241 404.578 308.241 404.919 308.044L412.191 303.176C412.531 302.979 412.531 302.584 412.191 302.32L406.851 298.768ZM397.023 305.347C396.683 305.15 396.114 305.15 395.774 305.347L357.145 331.2C356.804 331.398 356.804 331.792 357.145 332.056L362.485 335.608C362.825 335.806 363.394 335.806 363.735 335.608L402.363 309.755C402.704 309.557 402.704 309.162 402.363 308.899L397.023 305.347ZM405.487 289.032C405.146 288.835 404.578 288.835 404.238 289.032L398.159 293.11C397.818 293.308 397.818 293.702 398.159 293.966L403.499 297.518C403.84 297.715 404.408 297.715 404.749 297.518L410.827 293.44C411.168 293.242 411.168 292.847 410.827 292.584L405.487 289.032ZM397.25 294.492C396.909 294.294 396.342 294.294 396 294.492L389.923 298.571C389.582 298.768 389.582 299.163 389.923 299.426L395.262 302.979C395.603 303.176 396.171 303.176 396.512 302.979L402.59 298.899C402.931 298.702 402.931 298.307 402.59 298.044L397.25 294.492ZM389.014 300.018C388.673 299.821 388.105 299.821 387.763 300.018L381.686 304.096C381.345 304.294 381.345 304.688 381.686 304.952L387.025 308.504C387.366 308.702 387.934 308.702 388.275 308.504L394.353 304.426C394.694 304.228 394.694 303.834 394.353 303.571L389.014 300.018ZM380.833 305.478C380.493 305.281 379.924 305.281 379.584 305.478L373.505 309.557C373.164 309.755 373.164 310.149 373.505 310.412L378.845 313.965C379.186 314.162 379.754 314.162 380.095 313.965L386.173 309.886C386.514 309.688 386.514 309.294 386.173 309.031L380.833 305.478ZM372.596 311.004C372.255 310.807 371.687 310.807 371.347 311.004L365.269 315.083C364.927 315.28 364.927 315.675 365.269 315.938L370.608 319.491C370.949 319.688 371.517 319.688 371.858 319.491L377.936 315.412C378.277 315.214 378.277 314.82 377.936 314.557L372.596 311.004ZM364.416 316.464C364.076 316.267 363.507 316.267 363.167 316.464L357.088 320.543C356.747 320.741 356.747 321.135 357.088 321.398L362.428 324.951C362.769 325.148 363.337 325.148 363.678 324.951L369.756 320.872C370.097 320.675 370.097 320.28 369.756 320.017L364.416 316.464ZM356.179 321.99C355.839 321.793 355.27 321.793 354.93 321.99L348.851 326.07C348.51 326.267 348.51 326.662 348.851 326.924L354.191 330.477C354.532 330.674 355.1 330.674 355.441 330.477L361.519 326.398C361.86 326.2 361.86 325.806 361.519 325.543L356.179 321.99ZM347.942 327.451C347.602 327.254 347.033 327.254 346.693 327.451L340.614 331.529C340.273 331.727 340.273 332.121 340.614 332.384L345.954 335.937C346.295 336.134 346.863 336.134 347.204 335.937L353.282 331.859C353.623 331.661 353.623 331.267 353.282 331.003L347.942 327.451ZM339.762 332.911C339.422 332.714 338.854 332.714 338.513 332.911L332.434 336.99C332.094 337.187 332.094 337.582 332.434 337.845L337.774 341.398C338.115 341.595 338.683 341.595 339.024 341.398L345.102 337.318C345.443 337.121 345.443 336.726 345.102 336.464L339.762 332.911ZM331.525 338.437C331.185 338.24 330.616 338.24 330.276 338.437L324.197 342.515C323.856 342.713 323.856 343.108 324.197 343.371L329.537 346.923C329.878 347.12 330.446 347.12 330.787 346.923L336.865 342.845C337.206 342.647 337.206 342.253 336.865 341.99L331.525 338.437ZM423.779 276.73C423.438 276.532 422.87 276.532 422.53 276.73L406.794 287.256C406.453 287.453 406.453 287.848 406.794 288.111L412.134 291.663C412.475 291.861 413.043 291.861 413.384 291.663L429.119 281.137C429.46 280.94 429.46 280.545 429.119 280.282L423.779 276.73ZM401.397 281.006C401.057 280.808 400.488 280.808 400.148 281.006L394.069 285.085C393.728 285.282 393.728 285.677 394.069 285.94L399.409 289.492C399.75 289.69 400.318 289.69 400.659 289.492L406.737 285.414C407.078 285.216 407.078 284.822 406.737 284.558L401.397 281.006ZM393.217 286.466C392.876 286.269 392.308 286.269 391.967 286.466L385.889 290.544C385.549 290.742 385.549 291.137 385.889 291.4L391.229 294.952C391.57 295.15 392.138 295.15 392.479 294.952L398.557 290.874C398.898 290.676 398.898 290.282 398.557 290.019L393.217 286.466ZM384.98 291.992C384.64 291.795 384.072 291.795 383.731 291.992L377.652 296.071C377.312 296.268 377.312 296.663 377.652 296.926L382.992 300.478C383.333 300.676 383.901 300.676 384.242 300.478L390.32 296.4C390.661 296.203 390.661 295.808 390.32 295.544L384.98 291.992ZM376.743 297.518C376.403 297.32 375.834 297.32 375.494 297.518L369.415 301.597C369.074 301.794 369.074 302.189 369.415 302.452L374.755 306.005C375.096 306.202 375.664 306.202 376.005 306.005L382.083 301.926C382.424 301.728 382.424 301.334 382.083 301.07L376.743 297.518ZM368.506 302.979C368.166 302.781 367.597 302.781 367.257 302.979L361.178 307.057C360.837 307.254 360.837 307.649 361.178 307.912L366.518 311.464C366.859 311.662 367.427 311.662 367.768 311.464L373.846 307.386C374.187 307.189 374.187 306.794 373.846 306.531L368.506 302.979ZM360.269 308.504C359.928 308.307 359.36 308.307 359.02 308.504L352.942 312.583C352.6 312.78 352.6 313.175 352.942 313.438L358.281 316.991C358.622 317.188 359.19 317.188 359.531 316.991L365.609 312.912C365.95 312.715 365.95 312.32 365.609 312.056L360.269 308.504ZM352.089 313.965C351.749 313.767 351.18 313.767 350.84 313.965L344.761 318.043C344.42 318.24 344.42 318.635 344.761 318.899L350.101 322.451C350.442 322.648 351.01 322.648 351.351 322.451L357.429 318.372C357.77 318.175 357.77 317.78 357.429 317.517L352.089 313.965ZM343.852 319.491C343.512 319.294 342.943 319.294 342.603 319.491L336.524 323.569C336.183 323.767 336.183 324.161 336.524 324.424L341.864 327.977C342.205 328.174 342.773 328.174 343.114 327.977L349.192 323.899C349.533 323.701 349.533 323.306 349.192 323.043L343.852 319.491ZM335.615 325.016C335.275 324.819 334.706 324.819 334.366 325.016L328.287 329.096C327.946 329.293 327.946 329.688 328.287 329.95L333.627 333.503C333.968 333.7 334.536 333.7 334.877 333.503L340.955 329.424C341.296 329.227 341.296 328.832 340.955 328.569L335.615 325.016ZM327.378 330.477C327.037 330.28 326.469 330.28 326.129 330.477L320.051 334.555C319.709 334.753 319.709 335.147 320.051 335.411L325.39 338.963C325.731 339.16 326.299 339.16 326.64 338.963L332.718 334.885C333.059 334.687 333.059 334.293 332.718 334.03L327.378 330.477ZM319.142 336.003C318.8 335.806 318.233 335.806 317.891 336.003L311.814 340.082C311.473 340.279 311.473 340.674 311.814 340.937L317.153 344.489C317.494 344.686 318.062 344.686 318.403 344.489L324.481 340.411C324.822 340.213 324.822 339.819 324.481 339.555L319.142 336.003ZM415.77 271.401C415.428 271.204 414.861 271.204 414.52 271.401L403.045 279.098C402.704 279.296 402.704 279.69 403.045 279.953L408.385 283.506C408.725 283.703 409.294 283.703 409.634 283.506L421.109 275.808C421.45 275.611 421.45 275.216 421.109 274.954L415.77 271.401ZM310.336 341.923C309.996 341.726 309.428 341.726 309.087 341.923L297.611 349.555C297.271 349.752 297.271 350.147 297.611 350.41L302.952 353.963C303.292 354.16 303.861 354.16 304.201 353.963L315.676 346.265C316.017 346.068 316.017 345.673 315.676 345.411L310.336 341.923ZM323.004 344.16C322.663 343.963 322.095 343.963 321.755 344.16L305.622 354.95C305.28 355.147 305.28 355.542 305.622 355.804L310.961 359.357C311.302 359.554 311.87 359.554 312.211 359.357L328.344 348.568C328.685 348.371 328.685 347.976 328.344 347.712L323.004 344.16ZM329.31 350.607C328.969 350.41 328.401 350.41 328.06 350.607L321.982 354.686C321.641 354.883 321.641 355.278 321.982 355.542L323.743 356.726C324.084 356.923 324.651 356.923 324.993 356.726L331.071 352.647C331.411 352.449 331.411 352.055 331.071 351.792L329.31 350.607Z" fill="white"/>
</g>
<mask id="mask2_2352_30202" style="mask-type:luminance" maskUnits="userSpaceOnUse" x="0" y="0" width="604" height="452">
<path d="M603.373 0.5H0.626953V451.955H603.373V0.5Z" fill="white"/>
</mask>
<g mask="url(#mask2_2352_30202)">
<path opacity="0.3" d="M201.949 163.841L415.541 21.0197C419.631 18.2567 422.926 20.4934 422.926 25.9537V178.643C422.926 184.103 419.631 190.747 415.541 193.51L201.949 336.332C197.859 339.095 194.564 336.858 194.564 331.397V178.643C194.507 173.183 197.859 166.539 201.949 163.841Z" fill="#00D4CA"/>
<path opacity="0.6" d="M201.949 163.841L415.541 21.0197C419.631 18.2567 422.926 20.4934 422.926 25.9537V178.643C422.926 184.103 419.631 190.747 415.541 193.51L201.949 336.332C197.859 339.095 194.564 336.858 194.564 331.397V178.643C194.507 173.183 197.859 166.539 201.949 163.841Z" stroke="white" stroke-width="0.958196"/>
<path opacity="0.6" d="M201.949 163.841L415.541 21.0197C419.631 18.2567 422.926 20.4934 422.926 25.9537V178.643C422.926 184.103 419.631 190.747 415.541 193.51L201.949 336.332C197.859 339.095 194.564 336.858 194.564 331.397V178.643C194.507 173.183 197.859 166.539 201.949 163.841Z" stroke="white" stroke-width="0.958196"/>
</g>
<mask id="mask3_2352_30202" style="mask-type:luminance" maskUnits="userSpaceOnUse" x="0" y="0" width="604" height="452">
<path d="M603.373 0.5H0.626953V451.955H603.373V0.5Z" fill="white"/>
</mask>
<g mask="url(#mask3_2352_30202)">
<path d="M209.503 168.183L423.096 25.3617C427.186 22.5988 430.481 24.8355 430.481 30.2957V182.985C430.481 188.445 427.186 195.089 423.096 197.853L209.503 340.674C205.413 343.437 202.118 341.2 202.118 335.74V183.051C202.118 177.59 205.413 170.946 209.503 168.183Z" fill="url(#paint1_linear_2352_30202)"/>
<path opacity="0.25" d="M211.434 169.302L258.527 137.856L367.482 237.521L211.434 341.792C207.345 344.555 204.05 342.318 204.05 336.858V184.169C204.05 178.709 207.345 172.064 211.434 169.302Z" fill="url(#paint2_linear_2352_30202)"/>
<path d="M209.503 168.183L423.096 25.3617C427.186 22.5988 430.481 24.8355 430.481 30.2957V182.985C430.481 188.445 427.186 195.089 423.096 197.853L209.503 340.674C205.413 343.437 202.118 341.2 202.118 335.74V183.051C202.118 177.59 205.413 170.946 209.503 168.183Z" fill="url(#paint3_linear_2352_30202)"/>
<path opacity="0.25" d="M211.434 169.302L258.527 137.856L367.482 237.521L211.434 341.792C207.345 344.555 204.05 342.318 204.05 336.858V184.169C204.05 178.709 207.345 172.064 211.434 169.302Z" fill="url(#paint4_linear_2352_30202)"/>
<path d="M209.504 168.183L423.097 25.3615C427.187 22.5985 430.482 24.8352 430.482 30.2955V182.984C430.482 188.445 427.187 195.089 423.097 197.852L209.504 340.673C205.414 343.437 202.119 341.2 202.119 335.739V183.051C202.119 177.59 205.414 170.946 209.504 168.183Z" fill="url(#paint5_linear_2352_30202)"/>
<path d="M211.436 169.301L424.971 26.5457C429.061 23.7827 432.356 26.0194 432.356 31.4797V184.169C432.356 189.629 429.061 196.273 424.971 199.037L211.379 341.858C207.289 344.621 203.994 342.384 203.994 336.924V184.169C204.051 178.709 207.346 172.064 211.436 169.301Z" fill="url(#paint6_linear_2352_30202)"/>
<path opacity="0.25" d="M211.435 169.302L258.528 137.856L367.483 237.521L211.435 341.792C207.346 344.555 204.051 342.318 204.051 336.858V184.169C204.051 178.709 207.346 172.064 211.435 169.302Z" fill="url(#paint7_linear_2352_30202)"/>
<path opacity="0.5" d="M318.232 270.414L211.435 341.792C207.346 344.555 204.051 342.318 204.051 336.858V184.169C204.051 178.709 207.346 172.064 211.435 169.302L318.232 97.9233V270.414Z" fill="#212762"/>
<g opacity="0.7">
<g opacity="0.7">
<g opacity="0.7">
<path opacity="0.7" d="M424.971 26.5458L254.552 140.882L211.947 169.301C210.186 170.419 208.709 172.064 207.459 173.972C206.266 175.88 205.301 177.985 204.789 180.221C204.505 181.34 204.335 182.524 204.278 183.643C204.221 184.827 204.278 186.011 204.278 187.195V194.3L204.221 222.785L204.051 336.792L203.88 222.785L203.823 194.3V187.195C203.823 186.011 203.823 184.827 203.823 183.643C203.88 182.459 204.051 181.208 204.335 180.09C204.903 177.787 205.869 175.616 207.062 173.643C207.687 172.656 208.368 171.801 209.106 170.946C209.845 170.091 210.754 169.433 211.606 168.84L254.211 140.29L424.971 26.5458Z" fill="white"/>
</g>
</g>
</g>
</g>
<mask id="mask4_2352_30202" style="mask-type:luminance" maskUnits="userSpaceOnUse" x="0" y="0" width="604" height="452">
<path d="M603.373 0.5H0.626953V451.955H603.373V0.5Z" fill="white"/>
</mask>
<g mask="url(#mask4_2352_30202)">
<path d="M299.713 136.54L215.526 192.853C214.958 193.247 214.446 192.853 214.446 191.931C214.446 191.011 214.901 189.958 215.526 189.563L299.713 133.251C300.281 132.856 300.792 133.251 300.792 134.171C300.792 135.093 300.281 136.145 299.713 136.54Z" fill="#277CFF"/>
<path d="M283.24 159.96L223.707 199.76C223.138 200.155 222.627 199.76 222.627 198.839C222.627 197.918 223.082 196.866 223.707 196.471L283.24 156.67C283.808 156.275 284.319 156.67 284.319 157.591C284.319 158.512 283.865 159.565 283.24 159.96Z" fill="#B47FD5"/>
<path d="M258.586 188.905L223.707 212.194C223.138 212.588 222.627 212.194 222.627 211.272C222.627 210.352 223.082 209.299 223.707 208.904L258.586 185.616C259.154 185.221 259.665 185.616 259.665 186.537C259.665 187.458 259.154 188.511 258.586 188.905Z" fill="#86B36F"/>
</g>
<mask id="mask5_2352_30202" style="mask-type:luminance" maskUnits="userSpaceOnUse" x="0" y="0" width="604" height="452">
<path d="M603.373 0.5H0.626953V451.955H603.373V0.5Z" fill="white"/>
</mask>
<g mask="url(#mask5_2352_30202)">
<path d="M270.913 193.05L223.707 224.627C223.138 225.021 222.627 224.627 222.627 223.706C222.627 222.785 223.082 221.733 223.707 221.338L270.913 189.76C271.481 189.366 271.992 189.76 271.992 190.682C271.992 191.603 271.537 192.655 270.913 193.05Z" fill="#B47FD5"/>
<path d="M307.894 180.748L231.943 231.535C231.376 231.929 230.864 231.535 230.864 230.613C230.864 229.693 231.318 228.64 231.943 228.245L307.894 177.459C308.462 177.064 308.973 177.459 308.973 178.379C308.973 179.301 308.518 180.353 307.894 180.748Z" fill="#277CFF"/>
<path d="M270.913 230.35L244.271 248.179C243.702 248.573 243.191 248.179 243.191 247.258C243.191 246.336 243.646 245.284 244.271 244.889L270.913 227.061C271.481 226.667 271.992 227.061 271.992 227.982C271.992 228.903 271.537 229.956 270.913 230.35Z" fill="#B47FD5"/>
</g>
<mask id="mask6_2352_30202" style="mask-type:luminance" maskUnits="userSpaceOnUse" x="0" y="0" width="604" height="452">
<path d="M603.373 0.5H0.626953V451.955H603.373V0.5Z" fill="white"/>
</mask>
<g mask="url(#mask6_2352_30202)">
<path d="M283.239 234.495L215.526 279.822C214.958 280.216 214.446 279.822 214.446 278.901C214.446 277.979 214.901 276.927 215.526 276.532L283.296 231.206C283.864 230.811 284.375 231.206 284.375 232.127C284.318 233.048 283.864 234.1 283.239 234.495Z" fill="#277CFF"/>
<path d="M299.713 235.942L223.763 286.729C223.195 287.124 222.684 286.729 222.684 285.808C222.684 284.887 223.138 283.835 223.763 283.44L299.713 232.653C300.282 232.259 300.793 232.653 300.793 233.574C300.793 234.495 300.282 235.547 299.713 235.942Z" fill="#86B36F"/>
<path d="M299.713 248.376L223.763 299.163C223.195 299.558 222.684 299.163 222.684 298.242C222.684 297.32 223.138 296.268 223.763 295.873L299.713 245.086C300.282 244.692 300.793 245.086 300.793 246.008C300.793 246.928 300.282 247.982 299.713 248.376Z" fill="#93A2BF"/>
<path d="M307.894 255.283L297.669 262.125C297.101 262.52 296.59 262.125 296.59 261.204C296.59 260.283 297.044 259.23 297.669 258.836L307.894 251.994C308.462 251.6 308.973 251.994 308.973 252.915C308.973 253.836 308.519 254.888 307.894 255.283Z" fill="#5CA6E7"/>
</g>
<mask id="mask7_2352_30202" style="mask-type:luminance" maskUnits="userSpaceOnUse" x="0" y="0" width="604" height="452">
<path d="M603.373 0.5H0.626953V451.955H603.373V0.5Z" fill="white"/>
</mask>
<g mask="url(#mask7_2352_30202)">
<path opacity="0.3" d="M389.467 136.737L417.757 117.856C420.029 116.344 421.847 112.265 421.847 108.778V49.834C421.847 46.3473 420.029 44.7026 417.757 46.2157L389.467 65.0963C387.195 66.6094 385.377 70.6881 385.377 74.1749V133.119C385.321 136.605 387.195 138.251 389.467 136.737Z" fill="#0449C5"/>
<path d="M332.945 240.087L370.437 215.022C371.346 214.43 372.085 212.786 372.085 211.404V206.142C372.085 204.76 371.346 204.102 370.437 204.694L332.945 229.759C332.036 230.351 331.298 231.995 331.298 233.377V238.64C331.298 240.087 332.036 240.679 332.945 240.087Z" fill="#F5F5F7"/>
<path opacity="0.3" d="M331.923 192.589L371.8 165.946C372.369 165.552 372.88 164.499 372.88 163.578C372.88 162.657 372.425 162.262 371.8 162.657L331.923 189.3C331.354 189.695 330.843 190.747 330.843 191.668C330.843 192.589 331.354 192.984 331.923 192.589Z" fill="#0449C5"/>
<path opacity="0.3" d="M331.923 199.76L371.8 173.117C372.369 172.722 372.88 171.669 372.88 170.749C372.88 169.827 372.425 169.433 371.8 169.827L331.923 196.471C331.354 196.866 330.843 197.918 330.843 198.839C330.843 199.694 331.354 200.154 331.923 199.76Z" fill="#0449C5"/>
<path opacity="0.3" d="M331.923 206.865L371.8 180.221C372.369 179.827 372.88 178.774 372.88 177.853C372.88 176.932 372.425 176.538 371.8 176.932L331.923 203.576C331.354 203.971 330.843 205.023 330.843 205.944C330.843 206.865 331.354 207.26 331.923 206.865Z" fill="#0449C5"/>
<path opacity="0.3" d="M331.923 214.035L371.8 187.392C372.369 186.997 372.88 185.945 372.88 185.024C372.88 184.103 372.425 183.708 371.8 184.103L331.923 210.747C331.354 211.141 330.843 212.194 330.843 213.115C330.843 214.035 331.354 214.43 331.923 214.035Z" fill="#0449C5"/>
<path opacity="0.3" d="M331.923 221.206L371.8 194.563C372.369 194.168 372.88 193.115 372.88 192.195C372.88 191.274 372.425 190.879 371.8 191.274L331.923 217.917C331.354 218.312 330.843 219.364 330.843 220.285C330.843 221.141 331.354 221.601 331.923 221.206Z" fill="#0449C5"/>
<path opacity="0.3" d="M389.354 186.077L417.643 167.196C419.915 165.683 421.733 161.604 421.733 158.117V126.672C421.733 123.185 419.915 121.541 417.643 123.053L389.354 141.934C387.081 143.448 385.264 147.526 385.264 151.013V182.459C385.264 185.945 387.081 187.589 389.354 186.077Z" fill="#0449C5"/>
<g opacity="0.3">
<path opacity="0.3" d="M342.829 165.617V163.117C347.26 160.157 349.475 156.144 349.475 151.078V113.12C349.475 111.278 348.453 111.015 346.408 112.397C340.386 116.409 337.091 122.988 336.58 132.132L334.933 132.922V115.752C335.898 115.291 336.807 114.83 337.716 114.304C338.625 113.778 339.477 113.251 340.386 112.725L364.075 96.8709C364.87 96.3443 365.665 95.7523 366.517 95.0949C367.369 94.4367 368.278 93.713 369.187 92.924L370.834 109.37L368.903 111.278C368.108 107.133 366.858 104.436 365.154 103.186C363.449 102.002 361.291 102.265 358.564 104.107C356.576 105.423 355.554 107.133 355.554 109.173V147.131C355.554 152.197 357.769 153.25 362.143 150.289V152.789L342.829 165.617Z" fill="#0449C5"/>
</g>
<path opacity="0.5" d="M329.367 251.731L374.243 221.733C376.516 220.219 378.334 216.141 378.334 212.654V81.2796C378.334 77.7931 376.516 76.148 374.243 77.6614L329.367 107.66C327.094 109.173 325.276 113.251 325.276 116.739V248.047C325.276 251.6 327.094 253.244 329.367 251.731Z" stroke="white" stroke-width="0.958196" stroke-miterlimit="10" stroke-dasharray="3.83 3.83"/>
<path opacity="0.5" d="M389.467 212.588L417.757 193.708C420.029 192.195 421.847 188.116 421.847 184.629V177.393C421.847 173.906 420.029 172.261 417.757 173.775L389.467 192.655C387.195 194.168 385.377 198.247 385.377 201.733V208.97C385.321 212.456 387.195 214.101 389.467 212.588Z" stroke="white" stroke-width="0.958196" stroke-miterlimit="10" stroke-dasharray="3.83 3.83"/>
</g>
<mask id="mask8_2352_30202" style="mask-type:luminance" maskUnits="userSpaceOnUse" x="0" y="0" width="604" height="452">
<path d="M603.373 0.5H0.626953V451.955H603.373V0.5Z" fill="white"/>
</mask>
<g mask="url(#mask8_2352_30202)">
<path d="M391.74 186.077L420.029 167.196C422.301 165.683 424.119 161.604 424.119 158.117V126.672C424.119 123.185 422.301 121.541 420.029 123.053L391.74 141.934C389.467 143.448 387.649 147.526 387.649 151.013V182.459C387.649 185.945 389.467 187.589 391.74 186.077Z" fill="#C9C9DC"/>
<path d="M393.16 186.603L421.45 167.722C423.722 166.209 425.54 162.13 425.54 158.644V127.198C425.54 123.712 423.722 122.067 421.45 123.58L393.16 142.461C390.888 143.973 389.07 148.053 389.07 151.539V182.985C389.07 186.537 390.888 188.116 393.16 186.603Z" fill="white"/>
<path d="M397.647 164.96L409.577 153.25L404.918 169.827L406.338 170.682L405.316 173.445L401.055 170.749C399.351 169.696 398.215 167.788 397.647 164.96Z" fill="#FDB960"/>
<path d="M413.837 155.881L401.907 167.591C402.76 172.064 405.202 174.367 408.667 174.235L413.837 155.881Z" fill="#FFDE9A"/>
<path d="M413.837 155.881L409.577 153.25L397.647 164.96L401.908 167.591L413.837 155.881Z" fill="#FFD575"/>
<path d="M407.645 152L408.1 141.605L403.839 138.973C397.704 145.749 394.239 156.275 395.716 163.709L399.976 166.341L407.645 152Z" fill="#CE573C"/>
<path d="M411.906 154.631L408.1 141.605C401.965 148.381 398.5 158.907 399.977 166.341L411.906 154.631Z" fill="#FF6F47"/>
<path d="M403.669 147.723L431.959 128.843C434.231 127.33 436.049 123.251 436.049 119.764V60.7544C436.049 57.2677 434.231 55.623 431.959 57.1361L403.669 76.0163C401.396 77.5298 399.579 81.6083 399.579 85.0949V144.04C399.579 147.592 401.396 149.237 403.669 147.723Z" fill="#C9C9DC"/>
<path d="M405.089 148.25L433.379 129.369C435.651 127.856 437.469 123.777 437.469 120.29V61.3464C437.469 57.8597 435.651 56.2151 433.379 57.7282L405.089 76.6745C402.817 78.1879 400.999 82.2665 400.999 85.753V144.697C400.999 148.184 402.817 149.762 405.089 148.25Z" fill="#F5F5F7"/>
<path d="M411.679 96.06C411.679 101.651 415.087 103.888 419.234 101.125C423.381 98.3618 426.789 91.5204 426.789 85.9284C426.789 80.3371 423.381 78.1 419.234 80.8629C415.087 83.692 411.679 90.468 411.679 96.06ZM421.961 86.3233C421.961 88.2971 420.768 90.7313 419.234 91.7175C417.757 92.7044 416.508 91.9153 416.508 89.9415C416.508 87.9676 417.701 85.5342 419.234 84.5473C420.768 83.4942 421.961 84.3495 421.961 86.3233ZM424.119 93.4942C422.927 96.0593 421.222 98.3618 419.234 99.6782C417.303 100.994 415.541 100.994 414.349 100.007C414.349 98.0331 415.599 95.5989 417.076 94.612L421.392 91.7175C422.869 90.7313 424.119 91.5204 424.119 93.4942Z" fill="white"/>
<path d="M412.247 122.264L409.122 124.369C408.384 124.896 407.759 124.369 407.759 123.185V119.699C407.759 118.515 408.384 117.133 409.122 116.607L412.247 114.501C412.985 113.975 413.61 114.501 413.61 115.685V119.172C413.61 120.356 412.985 121.738 412.247 122.264Z" fill="#BBD3E5"/>
<path d="M430.594 105.16L416.62 114.501C416.393 114.633 416.223 114.501 416.223 114.107V113.449C416.223 113.12 416.393 112.659 416.62 112.528L430.594 103.187C430.822 103.055 430.992 103.187 430.992 103.581V104.239C430.992 104.568 430.822 104.963 430.594 105.16Z" fill="#BBD3E5"/>
<path d="M423.153 113.975L416.564 118.383C416.337 118.514 416.166 118.383 416.166 117.988V117.33C416.166 117.001 416.337 116.541 416.564 116.409L423.153 112.002C423.381 111.87 423.551 112.002 423.551 112.396V113.054C423.608 113.383 423.381 113.778 423.153 113.975Z" fill="#BBD3E5"/>
<path d="M412.247 133.579L409.122 135.685C408.384 136.211 407.759 135.685 407.759 134.5V131.013C407.759 129.829 408.384 128.448 409.122 127.922L412.247 125.816C412.985 125.291 413.61 125.816 413.61 127V130.488C413.61 131.672 412.985 133.053 412.247 133.579Z" fill="#BBD3E5"/>
<path d="M430.594 116.475L416.62 125.816C416.393 125.948 416.223 125.816 416.223 125.422V124.764C416.223 124.435 416.393 123.975 416.62 123.843L430.594 114.501C430.822 114.37 430.992 114.501 430.992 114.896V115.554C430.992 115.882 430.822 116.277 430.594 116.475Z" fill="#BBD3E5"/>
<path d="M423.153 125.291L416.564 129.698C416.337 129.829 416.166 129.698 416.166 129.304V128.645C416.166 128.317 416.337 127.856 416.564 127.725L423.153 123.317C423.381 123.185 423.551 123.317 423.551 123.712V124.369C423.608 124.699 423.381 125.093 423.153 125.291Z" fill="#BBD3E5"/>
<path d="M421.96 86.2797C421.96 88.2528 420.767 90.6869 419.234 91.6739C417.757 92.6608 416.507 91.8709 416.507 89.8978C416.507 87.924 417.7 85.4899 419.234 84.5029C420.767 83.516 421.96 84.3059 421.96 86.2797ZM424.119 93.516C422.926 96.0811 421.222 98.3837 419.234 99.7C417.302 101.016 415.542 101.016 414.349 100.029C414.349 98.0549 415.598 95.6208 417.075 94.6339L421.393 91.7393C422.869 90.7531 424.119 91.5422 424.119 93.516Z" fill="#BBD3E5"/>
<path d="M355.781 125.291C356.69 124.764 357.542 124.237 358.451 123.712L382.139 107.857C382.934 107.331 383.73 106.739 384.582 106.081C385.434 105.423 386.343 104.699 387.252 103.91L388.672 105.028L387.536 106.739L388.899 120.291L388.785 120.422L389.24 120.685L388.445 123.382L387.024 122.264C386.229 118.12 384.98 115.422 383.275 114.173C381.571 112.988 379.413 113.251 376.686 115.093C374.697 116.409 373.675 118.12 373.675 120.159V158.117C373.675 162.723 375.55 164.038 379.185 161.933L380.208 161.275L381.628 162.394L380.208 163.775L362.314 175.748V177.787L360.893 176.669V174.169C365.324 171.209 367.54 167.196 367.54 162.131V124.172C367.54 122.33 366.517 122.067 364.472 123.448C358.451 127.461 355.156 134.04 354.645 143.184L354.417 143.316V145.092L352.997 143.973V140.816V126.803C353.963 126.277 354.872 125.816 355.781 125.291Z" fill="#C9C9DC"/>
<path d="M362.314 177.722V175.222C366.745 172.261 368.96 168.248 368.96 163.183V125.224C368.96 123.383 367.938 123.12 365.893 124.501C359.871 128.514 356.576 135.093 356.065 144.237L354.418 145.026V127.856C355.383 127.395 356.292 126.935 357.201 126.409C358.11 125.882 358.962 125.356 359.871 124.83L383.559 108.976C384.355 108.449 385.15 107.857 386.002 107.199C386.854 106.541 387.763 105.818 388.672 105.028L390.319 121.474L388.388 123.383C387.593 119.238 386.343 116.541 384.639 115.291C382.935 114.106 380.776 114.37 378.049 116.212C376.061 117.528 375.038 119.238 375.038 121.277V159.236C375.038 164.301 377.254 165.354 381.628 162.394V164.893L362.314 177.722Z" fill="white"/>
</g>
<mask id="mask9_2352_30202" style="mask-type:luminance" maskUnits="userSpaceOnUse" x="0" y="0" width="572" height="452">
<path d="M571.691 0.5H0.626953V451.955H571.691V0.5Z" fill="white"/>
</mask>
<g mask="url(#mask9_2352_30202)">
<path d="M387.252 103.91L369.188 92.8578" stroke="white" stroke-width="0.479099" stroke-miterlimit="10" stroke-dasharray="1.91 1.91"/>
<path d="M380.208 161.209L362.2 150.223" stroke="white" stroke-width="0.479099" stroke-miterlimit="10" stroke-dasharray="1.91 1.91"/>
<path d="M352.996 126.737L352.486 126.475" stroke="white" stroke-width="0.479099" stroke-miterlimit="10"/>
<path d="M351.521 125.817L335.956 116.344" stroke="white" stroke-width="0.479099" stroke-miterlimit="10" stroke-dasharray="1.91 1.91"/>
<path d="M335.5 116.08L334.989 115.752" stroke="white" stroke-width="0.479099" stroke-miterlimit="10"/>
<path d="M360.893 174.169L342.829 163.183" stroke="white" stroke-width="0.479099" stroke-miterlimit="10" stroke-dasharray="1.91 1.91"/>
<path d="M352.997 143.973L334.989 132.987" stroke="white" stroke-width="0.479099" stroke-miterlimit="10" stroke-dasharray="1.91 1.91"/>
<path d="M387.252 104.765C387.66 104.765 387.991 104.382 387.991 103.91C387.991 103.437 387.66 103.055 387.252 103.055C386.844 103.055 386.514 103.437 386.514 103.91C386.514 104.382 386.844 104.765 387.252 104.765Z" fill="white"/>
<path d="M369.187 93.7131C369.596 93.7131 369.926 93.3298 369.926 92.8578C369.926 92.3858 369.596 92.0026 369.187 92.0026C368.78 92.0026 368.449 92.3858 368.449 92.8578C368.449 93.3298 368.78 93.7131 369.187 93.7131Z" fill="white"/>
<path d="M334.99 116.607C335.398 116.607 335.729 116.224 335.729 115.752C335.729 115.279 335.398 114.896 334.99 114.896C334.582 114.896 334.251 115.279 334.251 115.752C334.251 116.224 334.582 116.607 334.99 116.607Z" fill="white"/>
<path d="M352.998 127.659C353.405 127.659 353.736 127.276 353.736 126.803C353.736 126.331 353.405 125.948 352.998 125.948C352.589 125.948 352.259 126.331 352.259 126.803C352.259 127.276 352.589 127.659 352.998 127.659Z" fill="white"/>
<path d="M352.998 144.829C353.405 144.829 353.736 144.446 353.736 143.973C353.736 143.501 353.405 143.118 352.998 143.118C352.589 143.118 352.259 143.501 352.259 143.973C352.259 144.446 352.589 144.829 352.998 144.829Z" fill="white"/>
<path d="M334.99 133.843C335.398 133.843 335.729 133.459 335.729 132.987C335.729 132.515 335.398 132.132 334.99 132.132C334.582 132.132 334.251 132.515 334.251 132.987C334.251 133.459 334.582 133.843 334.99 133.843Z" fill="white"/>
<path d="M362.2 151.078C362.608 151.078 362.939 150.696 362.939 150.223C362.939 149.751 362.608 149.368 362.2 149.368C361.793 149.368 361.462 149.751 361.462 150.223C361.462 150.696 361.793 151.078 362.2 151.078Z" fill="white"/>
<path d="M380.209 162.064C380.616 162.064 380.947 161.682 380.947 161.21C380.947 160.737 380.616 160.355 380.209 160.355C379.8 160.355 379.47 160.737 379.47 161.21C379.47 161.682 379.8 162.064 380.209 162.064Z" fill="white"/>
<path d="M342.829 164.038C343.237 164.038 343.568 163.656 343.568 163.183C343.568 162.711 343.237 162.328 342.829 162.328C342.421 162.328 342.091 162.711 342.091 163.183C342.091 163.656 342.421 164.038 342.829 164.038Z" fill="white"/>
<path d="M360.894 175.024C361.302 175.024 361.632 174.642 361.632 174.169C361.632 173.697 361.302 173.314 360.894 173.314C360.486 173.314 360.155 173.697 360.155 174.169C360.155 174.642 360.486 175.024 360.894 175.024Z" fill="white"/>
<g filter="url(#filter0_d_2352_30202)">
<path d="M80.8941 250.625L58.8318 265.376C52.4898 269.617 52.4898 276.492 58.8318 280.732L80.8941 295.483C87.236 299.723 97.5185 299.723 103.86 295.483L125.923 280.732C132.265 276.492 132.265 269.617 125.923 265.376L103.86 250.625C97.5185 246.385 87.236 246.385 80.8941 250.625Z" fill="white"/>
</g>
<path d="M131.317 217.964L109.255 232.715C102.913 236.956 102.913 243.831 109.255 248.071L131.317 262.822C137.659 267.062 147.941 267.062 154.283 262.822L176.346 248.071C182.688 243.831 182.688 236.956 176.346 232.715L154.283 217.964C147.941 213.724 137.659 213.724 131.317 217.964Z" fill="white" fill-opacity="0.62"/>
<path d="M131.508 218.093L109.446 232.844C103.21 237.014 103.21 243.774 109.446 247.944L131.508 262.695C137.745 266.864 147.856 266.864 154.092 262.695L176.154 247.944C182.391 243.774 182.391 237.014 176.154 232.844L154.092 218.093C147.856 213.923 137.745 213.923 131.508 218.093Z" stroke="url(#paint8_linear_2352_30202)" stroke-width="0.560875"/>
<g filter="url(#filter1_d_2352_30202)">
<path d="M83.8853 182.334L61.823 197.086C55.481 201.326 55.481 208.201 61.823 212.441L83.8853 227.192C90.2273 231.432 100.51 231.432 106.852 227.192L128.914 212.441C135.256 208.201 135.256 201.326 128.914 197.086L106.852 182.334C100.51 178.094 90.2273 178.094 83.8853 182.334Z" fill="white"/>
</g>
</g>
</g>
<defs>
<filter id="filter0_d_2352_30202" x="8.6443" y="214.353" width="199.996" height="174.611" filterUnits="userSpaceOnUse" color-interpolation-filters="sRGB">
<feFlood flood-opacity="0" result="BackgroundImageFix"/>
<feColorMatrix in="SourceAlpha" type="matrix" values="0 0 0 0 0 0 0 0 0 0 0 0 0 0 0 0 0 0 127 0" result="hardAlpha"/>
<feOffset dx="16.2654" dy="28.6046"/>
<feGaussianBlur stdDeviation="30.8481"/>
<feColorMatrix type="matrix" values="0 0 0 0 0.261267 0 0 0 0 0.38352 0 0 0 0 0.620833 0 0 0 0.1 0"/>
<feBlend mode="normal" in2="BackgroundImageFix" result="effect1_dropShadow_2352_30202"/>
<feBlend mode="normal" in="SourceGraphic" in2="effect1_dropShadow_2352_30202" result="shape"/>
</filter>
<filter id="filter1_d_2352_30202" x="11.6355" y="146.062" width="199.996" height="174.611" filterUnits="userSpaceOnUse" color-interpolation-filters="sRGB">
<feFlood flood-opacity="0" result="BackgroundImageFix"/>
<feColorMatrix in="SourceAlpha" type="matrix" values="0 0 0 0 0 0 0 0 0 0 0 0 0 0 0 0 0 0 127 0" result="hardAlpha"/>
<feOffset dx="16.2654" dy="28.6046"/>
<feGaussianBlur stdDeviation="30.8481"/>
<feColorMatrix type="matrix" values="0 0 0 0 0.261267 0 0 0 0 0.38352 0 0 0 0 0.620833 0 0 0 0.1 0"/>
<feBlend mode="normal" in2="BackgroundImageFix" result="effect1_dropShadow_2352_30202"/>
<feBlend mode="normal" in="SourceGraphic" in2="effect1_dropShadow_2352_30202" result="shape"/>
</filter>
<linearGradient id="paint0_linear_2352_30202" x1="521.13" y1="220.748" x2="100.021" y2="378.416" gradientUnits="userSpaceOnUse">
<stop stop-color="#E5E8F5"/>
<stop offset="1" stop-color="#EBEEFB" stop-opacity="0.24"/>
</linearGradient>
<linearGradient id="paint1_linear_2352_30202" x1="209.556" y1="323.381" x2="467.783" y2="70.3019" gradientUnits="userSpaceOnUse">
<stop offset="0.00463254" stop-color="#4BFDF1"/>
<stop offset="1" stop-color="#18069A"/>
</linearGradient>
<linearGradient id="paint2_linear_2352_30202" x1="285.809" y1="119.63" x2="365.514" y2="238.836" gradientUnits="userSpaceOnUse">
<stop stop-color="white"/>
<stop offset="1" stop-color="white" stop-opacity="0"/>
</linearGradient>
<linearGradient id="paint3_linear_2352_30202" x1="209.556" y1="323.381" x2="467.783" y2="70.3019" gradientUnits="userSpaceOnUse">
<stop offset="0.00463254" stop-color="#4BFDF1"/>
<stop offset="1" stop-color="#18069A"/>
</linearGradient>
<linearGradient id="paint4_linear_2352_30202" x1="285.809" y1="119.63" x2="365.514" y2="238.836" gradientUnits="userSpaceOnUse">
<stop stop-color="white"/>
<stop offset="1" stop-color="white" stop-opacity="0"/>
</linearGradient>
<linearGradient id="paint5_linear_2352_30202" x1="209.557" y1="323.381" x2="467.784" y2="70.3018" gradientUnits="userSpaceOnUse">
<stop offset="0.00123665" stop-color="#51C2F4"/>
<stop offset="1" stop-color="#18069A"/>
</linearGradient>
<linearGradient id="paint6_linear_2352_30202" x1="432.467" y1="107.82" x2="204.105" y2="107.82" gradientUnits="userSpaceOnUse">
<stop offset="0.00604585" stop-color="#4FB1FF"/>
<stop offset="1" stop-color="#427CFF"/>
</linearGradient>
<linearGradient id="paint7_linear_2352_30202" x1="285.81" y1="119.63" x2="365.515" y2="238.836" gradientUnits="userSpaceOnUse">
<stop stop-color="white"/>
<stop offset="1" stop-color="white" stop-opacity="0"/>
</linearGradient>
<linearGradient id="paint8_linear_2352_30202" x1="176.025" y1="233.27" x2="103.663" y2="209.397" gradientUnits="userSpaceOnUse">
<stop stop-color="white"/>
<stop offset="1" stop-color="white" stop-opacity="0"/>
</linearGradient>
<clipPath id="clip0_2352_30202">
<rect width="606" height="480" fill="white" transform="translate(0.00195312 0.5)"/>
</clipPath>
</defs>
</svg>
