<svg width="80" height="80" viewBox="0 0 80 80" fill="none" xmlns="http://www.w3.org/2000/svg">
<g clip-path="url(#clip0_3047_26782)">
<path fill-rule="evenodd" clip-rule="evenodd" d="M53.1337 54.3778V28.5203C53.1336 28.0781 52.9579 27.654 52.6452 27.3414C52.3325 27.0288 51.9084 26.8531 51.4662 26.8531H25.6389V0.162354H78.1275C78.3465 0.16231 78.5633 0.205409 78.7657 0.289187C78.968 0.372965 79.1519 0.495782 79.3068 0.650624C79.4616 0.805466 79.5845 0.989299 79.6683 1.19163C79.7521 1.39395 79.7953 1.61081 79.7953 1.82981V54.3778H53.1337Z" fill="#8E75FF"/>
<path opacity="0.405" fill-rule="evenodd" clip-rule="evenodd" d="M25.6389 0.162354V26.8531H0.988696C0.82384 26.8531 0.662696 26.8042 0.525625 26.7126C0.388554 26.621 0.281706 26.4908 0.218582 26.3385C0.155458 26.1862 0.13889 26.0187 0.170972 25.857C0.203054 25.6953 0.282346 25.5467 0.39883 25.43L25.6389 0.162354ZM53.1337 79.054V54.3778H79.7953L54.5571 79.6432C54.4405 79.7597 54.292 79.8391 54.1303 79.8713C53.9686 79.9035 53.801 79.887 53.6487 79.8239C53.4963 79.7609 53.3661 79.6541 53.2745 79.517C53.1828 79.38 53.1338 79.2188 53.1337 79.054ZM25.6389 26.8531H52.2998C52.5209 26.8531 52.733 26.9409 52.8893 27.0973C53.0457 27.2536 53.1336 27.4656 53.1337 27.6867V54.3778H27.3064C27.0874 54.3778 26.8706 54.3347 26.6683 54.2509C26.466 54.1671 26.2821 54.0443 26.1273 53.8894C25.9725 53.7346 25.8496 53.5508 25.7658 53.3485C25.6821 53.1462 25.6389 52.9293 25.6389 52.7104V26.8531Z" fill="#8E75FF"/>
</g>
<defs>
<clipPath id="clip0_3047_26782">
<rect width="80" height="80" fill="white"/>
</clipPath>
</defs>
</svg>
