<svg width="18" height="18" viewBox="0 0 18 18" fill="none" xmlns="http://www.w3.org/2000/svg">
<g clip-path="url(#clip0_3145_24702)">
<path d="M6.14675 5.1L8.06975 3.18V13.346C8.06975 13.86 8.48675 14.276 9.00075 14.276C9.51475 14.276 9.93175 13.86 9.93175 13.346V3.179L11.8528 5.1C12.0878 5.336 12.4308 5.428 12.7528 5.343C13.0748 5.257 13.3268 5.005 13.4128 4.683C13.4978 4.361 13.4058 4.018 13.1688 3.783L9.65975 0.273C9.48275 0.098 9.24575 0 8.99975 0C8.75275 0 8.51575 0.098 8.34175 0.273L4.82975 3.783C4.59275 4.019 4.49975 4.363 4.58675 4.684C4.67175 5.006 4.92375 5.258 5.24575 5.344C5.56775 5.429 5.91075 5.337 6.14575 5.101L6.14675 5.1Z" fill="url(#paint0_linear_3145_24702)"/>
<path d="M17.069 8.06909C16.555 8.06909 16.138 8.48609 16.138 9.00009V16.1381H1.862V9.00009C1.862 8.48609 1.445 8.06909 0.931 8.06909C0.417 8.06909 0 8.48609 0 9.00009V16.4481C0 17.3051 0.695 18.0001 1.552 18.0001H16.448C17.305 18.0001 18 17.3051 18 16.4481V9.00009C18 8.48609 17.583 8.06909 17.069 8.06909Z" fill="url(#paint1_linear_3145_24702)"/>
</g>
<defs>
<linearGradient id="paint0_linear_3145_24702" x1="8.99926" y1="0" x2="8.99926" y2="14.276" gradientUnits="userSpaceOnUse">
<stop stop-color="#5D45F9"/>
<stop offset="1" stop-color="#267DEB"/>
</linearGradient>
<linearGradient id="paint1_linear_3145_24702" x1="9" y1="8.06909" x2="9" y2="18.0001" gradientUnits="userSpaceOnUse">
<stop stop-color="#5D45F9"/>
<stop offset="1" stop-color="#267DEB"/>
</linearGradient>
<clipPath id="clip0_3145_24702">
<rect width="18" height="18" fill="white"/>
</clipPath>
</defs>
</svg>
